<svg version="1.1" id="Layer_1" xmlns="http://www.w3.org/2000/svg" xmlns:xlink="http://www.w3.org/1999/xlink" x="0px" y="0px"
	 width="100%" viewBox="0 0 672 1024" enable-background="new 0 0 672 1024" xml:space="preserve">
<path fill="#000000" opacity="1.000000" stroke="none" 
	d="
M531.187134,643.000000 
	C531.205261,656.331604 531.315247,669.164062 531.183411,681.994141 
	C531.145447,685.686096 531.649841,687.677307 536.167297,687.976990 
	C544.852905,688.553040 549.280090,693.766113 549.297119,702.488708 
	C549.351074,730.151672 549.349121,757.814758 549.317749,785.477844 
	C549.308044,794.013000 545.143616,799.165405 536.775024,800.068970 
	C532.845276,800.493164 532.218018,802.164673 532.292114,805.489258 
	C532.798035,828.178711 531.973389,850.778442 527.365967,873.102478 
	C523.717224,890.781128 518.869385,908.024353 509.918854,923.896118 
	C501.591278,938.663330 488.668488,947.376038 472.993225,952.711853 
	C446.545502,961.714478 419.322418,966.699097 391.564850,969.485840 
	C370.646942,971.585999 349.715393,972.707581 328.735260,972.116272 
	C287.507172,970.954407 246.846054,966.248230 207.345032,953.319458 
	C183.098572,945.383606 168.269440,928.939514 159.984238,905.612061 
	C152.362961,884.153992 147.984680,862.064270 146.533630,839.313171 
	C145.811081,827.984253 145.660019,816.675964 145.806519,805.351501 
	C145.851135,801.904236 145.026810,800.366272 141.158493,800.101013 
	C133.917130,799.604248 128.800903,794.110535 128.767227,786.850342 
	C128.634995,758.354736 128.647949,729.857849 128.764053,701.362122 
	C128.793945,694.028992 133.626297,688.458923 141.058273,688.087219 
	C146.480835,687.816040 147.117813,685.437195 147.107285,680.947449 
	C146.976227,624.955444 146.968445,568.963074 146.960510,512.970825 
	C146.952484,456.478577 146.976715,399.986328 146.995438,343.494080 
	C146.997635,336.871948 146.768341,336.709290 140.692612,338.598511 
	C135.925125,340.080933 131.170395,341.664825 126.313248,342.783508 
	C119.957855,344.247162 116.035294,340.966217 115.586037,334.509521 
	C114.875954,324.304535 119.187416,316.846741 127.714264,311.555969 
	C132.678589,308.475677 137.794952,305.698090 143.232635,303.539062 
	C145.160919,302.773499 146.920227,301.871338 146.919754,299.390503 
	C146.917633,288.269196 146.918839,277.147888 146.918839,266.227325 
	C146.299408,265.852966 146.015533,265.529175 145.743408,265.538788 
	C132.323456,266.012054 128.324570,257.540436 128.540985,246.519363 
	C129.041443,221.032364 128.705231,195.529053 128.717133,170.032349 
	C128.722321,158.928772 132.269852,154.631927 143.315933,153.126770 
	C147.307571,152.582855 147.426697,150.107376 147.695663,147.149582 
	C148.921341,133.670746 150.950378,120.391312 157.237122,108.126198 
	C165.228165,92.536049 177.584244,81.063507 191.844589,71.458229 
	C223.383865,50.214458 258.433380,40.080811 296.246399,38.728138 
	C325.561310,37.679466 354.874725,37.586548 384.180389,38.802647 
	C425.919037,40.534687 464.046997,52.675842 497.066376,78.913864 
	C516.814331,94.606071 526.895813,115.526138 529.330139,140.385315 
	C529.459900,141.709793 529.877869,143.044785 529.780090,144.346222 
	C529.313416,150.562164 531.622070,153.299759 538.324707,153.764618 
	C545.005371,154.227966 549.243958,160.172348 549.264038,167.196213 
	C549.344421,195.358963 549.361450,223.522324 549.252136,251.684875 
	C549.222168,259.411896 543.891235,264.960571 536.074524,265.171509 
	C531.942078,265.283020 530.978455,266.931122 531.038879,270.594391 
	C531.184509,279.424164 531.231628,288.261475 531.015808,297.088348 
	C530.927246,300.708374 532.307495,302.410187 535.661438,303.597748 
	C542.442383,305.998749 548.658936,309.574371 554.408020,313.936157 
	C561.781006,319.530029 564.232056,327.117889 563.257324,336.003998 
	C562.662598,341.426025 558.087524,344.313232 552.147095,342.800049 
	C545.407593,341.083282 538.770935,338.962463 531.187073,336.754547 
	C531.187073,439.054779 531.187073,540.777405 531.187134,643.000000 
M152.128830,829.579163 
	C152.808762,854.539978 157.013443,878.820007 165.159653,902.497864 
	C173.363907,926.344543 188.882599,941.792847 213.341171,948.944702 
	C236.444092,955.700134 259.855835,960.388855 283.741425,962.910461 
	C324.319275,967.194458 364.861694,966.898254 405.338623,961.646423 
	C427.834167,958.727661 449.980103,954.255798 471.472229,946.773804 
	C487.842773,941.074829 500.341858,931.122498 507.645660,915.162842 
	C510.626251,908.649841 513.417114,902.055420 515.611267,895.223206 
	C524.897888,866.306519 526.589417,836.427368 526.575989,806.387573 
	C526.563843,779.229065 526.068726,752.070862 525.845398,724.912048 
	C525.758118,714.292175 525.831116,703.671021 525.831116,692.171387 
	C523.248169,695.082031 521.566711,698.098877 518.038208,696.773438 
	C514.534241,695.457214 513.895935,692.135681 513.842102,688.904114 
	C513.711670,681.074524 513.700562,673.239563 513.841736,665.410400 
	C513.896118,662.392944 514.567444,659.378418 517.274048,657.440796 
	C519.783142,655.644409 522.174255,657.325562 524.617554,658.412659 
	C524.617554,607.131531 524.617554,556.361389 524.617554,505.588409 
	C518.412659,505.664368 516.081360,503.604919 515.854370,497.266327 
	C515.592163,489.942902 515.614624,482.600586 515.784973,475.272797 
	C515.954224,467.992035 517.549500,466.162018 524.556641,464.214722 
	C524.635254,463.605072 524.792603,462.953186 524.792725,462.301239 
	C524.803406,420.804565 524.778809,379.307831 524.846863,337.811279 
	C524.851868,334.786133 523.588074,333.146027 520.872253,332.321075 
	C514.065979,330.253601 511.600861,325.304779 511.662048,318.597168 
	C511.693909,315.099091 511.473907,311.598755 511.506653,308.100708 
	C511.559998,302.401367 514.673218,298.887604 520.358032,298.896759 
	C524.111816,298.902802 524.846008,297.281830 524.803833,294.072937 
	C524.144836,243.930771 526.192444,193.764557 523.660034,143.643631 
	C523.016113,130.900345 519.708801,118.691833 513.477539,107.389503 
	C504.469116,91.049850 490.458618,80.030228 474.829681,70.660156 
	C443.639313,51.960506 409.415527,44.801548 373.545227,44.418415 
	C346.560913,44.130192 319.576111,43.769287 292.583710,45.050926 
	C257.497284,46.716881 225.325851,56.772064 195.712189,75.760078 
	C167.721146,93.707680 153.773666,119.091164 153.251160,152.087204 
	C152.496429,199.746872 153.170990,247.407547 153.295288,295.067688 
	C153.298981,296.484467 152.846283,298.116516 154.329132,299.175629 
	C164.506256,298.652832 167.000244,300.982727 167.117477,311.279022 
	C167.155350,314.606049 167.027512,317.940948 166.827637,321.263367 
	C166.503952,326.643768 163.876541,330.488342 158.613235,331.959991 
	C154.343567,333.153809 153.171661,335.606995 153.189423,339.955170 
	C153.352020,379.784851 153.273438,419.615509 153.293823,459.445862 
	C153.294739,461.244293 152.925247,463.113251 153.978012,465.117645 
	C158.966492,464.386505 161.688553,466.835114 162.260391,471.812592 
	C163.232971,480.278137 163.484283,488.770203 162.503174,497.238800 
	C161.672531,504.408691 160.808487,505.075653 153.432358,505.710754 
	C153.432358,557.123108 153.432358,608.551575 153.432358,660.177246 
	C158.940460,654.860229 162.945679,655.738098 164.612289,662.409973 
	C164.893234,663.534668 165.147156,664.702576 165.156555,665.852600 
	C165.217850,673.350830 165.282578,680.850708 165.167511,688.347290 
	C165.140076,690.134521 164.689072,692.019043 163.990143,693.671448 
	C162.357895,697.530396 158.999435,698.159668 156.033386,695.269531 
	C155.067490,694.328369 154.336426,693.146179 153.497955,692.074280 
	C152.834747,737.724670 150.831497,783.156006 152.128830,829.579163 
M121.258232,334.814514 
	C121.836113,337.864594 123.858948,337.822845 126.189621,337.117401 
	C133.192505,334.997742 140.214645,332.939270 147.193771,330.744019 
	C162.548141,325.914520 162.539215,325.886292 161.937653,309.856293 
	C161.925156,309.523529 161.904770,309.190399 161.909531,308.857758 
	C161.968842,304.715729 159.872208,303.454742 156.139450,304.707520 
	C146.966888,307.786011 138.095871,311.483124 129.918945,316.792084 
	C123.575714,320.910492 120.495834,326.440674 121.258232,334.814514 
M539.253662,311.262756 
	C533.992676,308.744995 528.514832,306.805725 522.994263,304.938538 
	C518.758789,303.505981 516.996094,304.969574 517.037415,309.213531 
	C517.076233,313.201904 517.111938,317.190399 517.172546,321.178497 
	C517.218262,324.187134 518.694153,326.136932 521.527771,327.182526 
	C531.826294,330.982483 542.263123,334.343750 552.860535,337.207031 
	C556.473877,338.183350 557.735657,336.445251 557.800781,333.089142 
	C557.918091,327.042542 555.958679,321.877533 550.992676,318.315277 
	C547.494507,315.805939 543.632812,313.803375 539.253662,311.262756 
M517.319885,685.170898 
	C517.525024,687.716553 516.862183,690.524963 519.417175,692.406982 
	C524.137268,687.853394 524.173096,665.361450 519.118774,660.673218 
	C515.883484,668.510559 517.885559,676.500671 517.319885,685.170898 
M157.439026,662.603516 
	C155.767929,672.590332 155.050537,682.515686 158.396439,692.457214 
	C159.491760,692.064148 159.745178,692.047119 159.781204,691.949768 
	C163.421097,682.112122 161.728699,672.133545 160.398026,662.201843 
	C160.184082,660.605042 158.760498,660.942505 157.439026,662.603516 
M524.665100,481.734161 
	C524.435181,477.591705 524.631348,473.337128 521.342224,469.854004 
	C518.962219,480.283020 518.302551,490.627167 521.334839,501.031982 
	C525.774658,495.431702 524.328003,488.899872 524.665100,481.734161 
M154.129349,475.977936 
	C153.278427,494.781616 153.697296,498.157623 157.223526,500.917053 
	C159.953217,495.866150 159.435837,473.382080 156.480347,469.938843 
	C154.369247,471.069183 154.427582,473.158417 154.129349,475.977936 
z"/>
<path fill="#000000" opacity="1.000000" stroke="none" 
	d="
M464.684052,110.233658 
	C461.570984,101.742088 458.549500,93.628372 455.599091,85.488892 
	C454.654938,82.884178 454.261536,80.164482 456.561157,78.040253 
	C459.114349,75.681793 461.912415,76.769691 464.467773,78.100464 
	C478.058319,85.178207 490.068787,94.243805 499.802979,106.204552 
	C506.458069,114.381927 507.729279,124.270111 509.328491,134.173447 
	C510.913940,143.991364 509.158295,153.753113 509.481659,163.498352 
	C510.028900,179.990967 510.221039,196.475983 510.252625,212.969818 
	C510.275909,225.133499 510.091919,237.285156 509.285736,249.434677 
	C508.227875,265.377930 501.076569,279.111206 494.098755,292.944122 
	C488.623474,303.798431 483.539764,314.872528 477.583679,325.455902 
	C471.155487,336.878265 469.443817,349.329071 468.402466,361.919861 
	C466.177704,388.817963 465.659119,415.795502 465.003571,442.775085 
	C463.392273,509.093903 463.646301,575.417542 464.522003,641.730591 
	C464.961578,675.018738 465.644440,708.370972 468.527100,741.548218 
	C469.814911,756.370239 473.567078,771.035034 476.901550,785.610840 
	C484.060913,816.906372 485.587402,848.517578 483.492706,880.429565 
	C483.167419,885.385071 483.447266,890.380310 483.447266,895.753418 
	C487.199463,894.738159 489.310455,891.773743 492.097656,889.869263 
	C493.745392,888.743408 495.176697,887.265442 496.901978,886.295715 
	C500.554596,884.242554 503.586456,885.738403 503.251312,889.825684 
	C501.934143,905.889099 497.289124,920.424316 481.942017,928.725647 
	C468.187134,936.165833 453.126404,942.201843 437.932129,942.530090 
	C419.730164,942.923340 402.328064,947.555847 384.361816,948.575256 
	C366.224945,949.604248 348.111023,950.633240 329.949799,950.247314 
	C304.279846,949.701965 278.769958,947.447937 253.547256,942.450562 
	C252.730560,942.288696 251.857895,941.885132 251.098511,942.035278 
	C235.107254,945.197388 221.277374,937.525818 206.846786,933.114746 
	C187.108627,927.081238 178.748047,912.017578 175.923630,892.855225 
	C175.552643,890.338257 175.338135,887.649536 177.758987,886.020874 
	C180.395752,884.246826 182.449142,886.257568 184.491943,887.650024 
	C188.008606,890.047180 190.638412,893.706482 194.850769,895.187378 
	C196.581192,893.521729 195.866638,891.593323 195.824661,889.869019 
	C195.573380,879.546814 195.438309,869.215393 194.871857,858.908569 
	C193.441086,832.874573 198.278244,807.560669 202.993225,782.175110 
	C205.844360,766.824463 210.740356,751.752075 211.443069,736.120972 
	C213.372910,693.193176 214.375259,650.232788 215.116440,607.261169 
	C215.613693,578.432190 215.776321,549.608948 215.538147,520.788879 
	C215.228333,483.306091 214.663773,445.817078 213.495453,408.352997 
	C212.827011,386.918427 212.545853,365.393921 208.738159,344.156158 
	C208.054565,340.343353 207.078384,336.695221 205.353149,333.235504 
	C196.655289,315.793365 188.142899,298.255859 179.217590,280.931030 
	C172.975693,268.814972 170.253937,256.026886 169.624649,242.518875 
	C168.351639,215.192978 169.672775,187.885803 169.592194,160.574203 
	C169.562317,150.447205 169.222198,140.429443 170.335800,130.293793 
	C171.889618,116.151291 178.560654,105.285927 188.925247,96.081360 
	C196.947510,88.956985 205.488541,82.660568 215.122330,77.916855 
	C217.542465,76.725166 220.217178,75.695351 222.623108,77.788071 
	C224.981033,79.839066 224.616592,82.666634 223.755829,85.236252 
	C218.993805,99.452309 213.912659,113.556686 207.598206,127.169586 
	C205.311676,132.098984 201.425491,135.833817 197.211655,139.168213 
	C192.639450,142.786194 188.354080,146.986252 183.285950,149.707596 
	C175.239578,154.028061 173.213058,160.637955 173.316666,168.965103 
	C173.654434,196.113831 172.244049,223.291412 174.385880,250.406540 
	C175.172409,260.363770 177.487564,270.008667 183.061890,279.055756 
	C196.711151,258.256470 218.719467,253.156113 239.960648,247.343506 
	C268.157501,239.627487 297.056091,236.373032 326.309479,235.539948 
	C360.932404,234.553894 395.148438,237.189178 428.958038,244.745575 
	C443.284485,247.947525 457.272797,252.258713 470.790558,258.028564 
	C481.146088,262.448608 490.049072,268.616974 495.756622,279.246185 
	C498.919769,275.526428 500.167969,271.258331 501.553772,267.153137 
	C504.397919,258.728088 505.500824,249.914642 505.580139,241.106857 
	C505.809723,215.611389 505.571930,190.112015 505.694519,164.615036 
	C505.719788,159.351822 504.429382,155.290756 499.548828,152.563675 
	C496.666534,150.953201 494.300659,148.444092 491.495422,146.665863 
	C477.934448,138.069580 469.121796,126.011803 464.684052,110.233658 
M295.384735,324.149872 
	C286.298645,325.202942 277.174011,326.000214 268.134735,327.363739 
	C250.685440,329.995850 233.433090,333.623169 216.464355,338.534637 
	C213.451126,339.406799 212.351944,340.626709 212.924530,344.219849 
	C214.414337,353.568451 215.463074,363.011078 216.178986,372.454773 
	C218.105667,397.869751 218.260529,423.362915 218.920364,448.825989 
	C219.623749,475.968628 219.572784,503.130096 219.972656,530.281555 
	C220.429108,561.274963 219.643463,592.257935 219.215927,623.241333 
	C218.839081,650.550964 217.953125,677.855042 217.116577,705.156128 
	C216.821060,714.800354 216.149033,724.440369 215.356339,734.058167 
	C215.059677,737.657471 216.962204,738.516968 219.751373,739.432068 
	C253.031662,750.350830 287.249786,756.207581 322.164520,757.581787 
	C367.077789,759.349548 411.267853,754.460938 454.284210,740.935913 
	C465.229095,737.494629 464.280304,740.136719 463.436920,727.706116 
	C461.407257,697.791199 460.496857,667.833618 460.066559,637.883972 
	C459.578491,603.911987 459.167114,569.933472 459.441559,535.942993 
	C459.827606,488.134979 459.860535,440.324646 461.967743,392.556061 
	C462.685181,376.293274 463.481842,359.981079 466.419617,343.902771 
	C466.928558,341.117432 466.339050,339.546692 463.450104,338.707733 
	C450.176605,334.853180 436.737152,331.734802 423.136444,329.300385 
	C403.296844,325.749298 383.307861,323.395325 363.175873,322.563446 
	C340.862915,321.641449 318.552490,321.842010 295.384735,324.149872 
M244.317978,930.220398 
	C247.690475,933.829346 249.204834,938.834167 255.473755,939.963745 
	C289.874878,946.162170 324.475739,948.288391 359.381775,947.001038 
	C380.055939,946.238647 400.512756,943.923523 420.895752,940.568665 
	C426.113220,939.709900 430.069916,937.661987 432.982086,932.956604 
	C438.995850,923.239685 447.338013,916.117859 457.892090,911.395325 
	C463.948944,908.685059 469.538940,904.942261 475.396240,901.769714 
	C477.702759,900.520447 478.591766,898.819336 478.726501,896.175049 
	C479.828888,874.535583 479.962982,852.886047 479.645325,831.229309 
	C479.615265,829.179260 479.914734,826.971313 478.102600,825.009033 
	C471.455566,830.608643 463.992157,834.258240 456.228546,837.293762 
	C424.168518,849.829224 390.505127,853.840271 356.486145,855.160828 
	C326.330231,856.331482 296.218903,855.122864 266.483582,849.290955 
	C244.210098,844.922668 222.117050,839.943542 203.080276,826.507080 
	C202.421097,826.041748 201.639633,825.633545 200.655273,826.165161 
	C199.374649,828.694275 199.369568,831.519470 199.306305,834.346313 
	C198.847626,854.842163 199.960785,875.310120 200.316147,895.791443 
	C200.369690,898.877930 201.529556,900.754456 204.137756,902.143311 
	C210.017029,905.273865 215.709198,908.784058 221.712875,911.645996 
	C230.604095,915.884460 238.448914,921.243591 244.317978,930.220398 
M196.929138,95.443085 
	C177.701126,108.756737 173.024445,128.158295 173.779541,150.812943 
	C181.685440,146.142609 187.998459,140.531189 194.658432,135.419174 
	C199.371017,131.801926 202.812744,127.225838 205.179047,121.707993 
	C209.907990,110.680824 214.102707,99.456764 218.013672,88.124474 
	C218.674576,86.209503 220.257019,84.334404 218.926575,81.588547 
	C210.879364,84.748528 204.149307,89.815948 196.929138,95.443085 
M503.701691,128.729202 
	C502.452789,118.777534 498.214020,110.397842 491.005493,103.352142 
	C483.088715,95.614136 474.400848,88.970787 464.762054,83.564148 
	C463.273682,82.729286 461.768036,81.528900 459.614136,82.137596 
	C461.061981,90.178223 465.047455,97.078987 467.159424,104.559166 
	C472.128235,122.157402 481.773346,136.105682 497.530762,145.645676 
	C498.950562,146.505234 500.203949,147.636215 501.603088,148.534515 
	C502.656097,149.210587 503.560638,150.454269 505.355438,149.732407 
	C506.387421,142.939499 504.629120,136.294601 503.701691,128.729202 
M197.271042,923.256836 
	C211.441284,931.377441 227.041931,935.058167 244.060059,938.567261 
	C238.845276,930.571289 234.537430,923.447327 226.691940,919.325195 
	C213.895966,912.601990 200.915237,906.190552 189.330353,897.389099 
	C186.904861,895.546204 184.791382,893.139954 180.831497,891.820374 
	C182.660889,904.601013 185.938477,915.582642 197.271042,923.256836 
M491.323975,913.776367 
	C495.148499,907.008850 497.803223,899.911560 498.134155,890.912720 
	C484.546234,902.290161 470.357452,910.604858 455.525543,917.773438 
	C446.519135,922.126404 441.164307,929.692749 435.705170,937.501221 
	C437.286255,938.453918 438.623199,937.954407 439.840790,937.688904 
	C452.530029,934.922058 465.082703,931.698914 476.821442,925.936523 
	C482.421448,923.187561 487.451569,919.732727 491.323975,913.776367 
z"/>
<path fill="#000000" opacity="1.000000" stroke="none" 
	d="
M209.101318,562.000000 
	C209.185318,595.489136 208.444763,628.470337 206.996613,661.417236 
	C206.107574,681.643311 205.915100,702.067139 199.099167,721.579529 
	C194.581085,734.513611 189.484436,747.155701 181.551010,758.447083 
	C179.971619,760.695007 178.512955,763.169617 174.568054,764.618713 
	C169.562927,607.957458 169.301224,451.922333 169.775970,295.846039 
	C172.594833,295.782928 173.038925,297.494049 173.740097,298.667358 
	C185.821487,318.883667 196.901077,339.546753 201.641968,362.948486 
	C203.661041,372.914978 204.575943,383.041412 205.102432,393.155396 
	C206.080475,411.944244 206.802048,430.753937 207.199188,449.564026 
	C207.986893,486.872742 208.481567,524.187683 209.101318,562.000000 
M187.353226,501.264160 
	C182.595322,500.292938 178.118729,497.864716 173.171036,498.057251 
	C172.116913,502.976196 174.070007,505.217468 178.418045,506.269135 
	C185.693542,508.028778 192.864441,510.216705 200.112946,512.094727 
	C202.020645,512.588989 204.593246,514.096191 205.500046,510.836609 
	C206.378067,507.680450 204.841507,505.934814 201.611237,505.176849 
	C197.078964,504.113434 192.633194,502.681488 187.353226,501.264160 
z"/>
<path fill="#000000" opacity="1.000000" stroke="none" 
	d="
M470.720490,498.998108 
	C471.429779,471.697784 471.818298,444.884338 472.938965,418.101501 
	C473.827423,396.868469 473.933777,375.520416 479.557404,354.726257 
	C485.100372,334.230499 495.068481,315.838562 505.799347,297.769287 
	C506.213043,297.072662 506.851410,296.492828 507.456390,295.936035 
	C507.646393,295.761200 508.070007,295.840179 509.646759,295.654938 
	C509.401947,451.832123 509.227234,607.834839 504.525482,763.952637 
	C501.116119,764.138428 500.156647,761.938171 498.948944,760.351074 
	C489.733673,748.240234 484.414948,734.268677 479.627960,720.007019 
	C474.965546,706.116516 473.512695,691.719421 472.855255,677.267273 
	C470.713654,630.190552 469.080170,583.088989 470.135254,535.956604 
	C470.407318,523.802856 470.550171,511.651398 470.720490,498.998108 
M485.834961,510.251953 
	C490.958740,508.800079 496.041077,507.173157 501.218445,505.947632 
	C505.999023,504.815979 506.958954,502.243225 504.960297,497.522186 
	C496.025421,500.060333 487.293518,502.714630 478.460907,504.975342 
	C474.150970,506.078491 473.340332,508.503387 474.320312,512.472595 
	C478.203125,513.013367 481.472504,510.820709 485.834961,510.251953 
z"/>
</svg>