<svg width="360" height="720" viewBox="0 0 360 720" fill="none" xmlns="http://www.w3.org/2000/svg">
<path d="M191.252 292.496C191.252 292.496 183.028 292 180.177 292C177.491 292 169.102 292.496 169.102 292.496C158.877 292.496 150.588 301.777 150.588 312.002L152.902 413.83C152.902 424.054 158.877 428.707 169.102 428.707H191.253C201.477 428.707 207.452 424.054 207.452 413.83L209.767 312.002C209.767 301.777 201.477 292.496 191.252 292.496Z" fill="#A8392E"/>
<path d="M180.369 295.692C171.06 295.692 163.997 297.204 163.997 297.204L155.01 305.822C155.01 305.822 153.565 320.337 153.565 324.419C153.565 328.502 156.283 331.72 156.283 331.72H203.791C205.224 330.251 206.209 327.746 206.53 325.478C206.851 323.21 205.246 305.671 205.246 305.671L196.258 297.356C196.258 297.356 189.678 295.692 180.369 295.692Z" fill="#FF5E64"/>
<path d="M167.614 348.834C163.577 349.726 162.35 350.2 160.12 351.078L163.752 406.529C163.793 407.162 163.931 407.784 164.169 408.37C164.412 408.972 164.765 409.701 165.189 410.161C165.375 410.364 165.745 410.641 166.146 410.914C167.096 411.562 168.217 411.901 169.361 411.901H179.956H180.176H190.728C192.212 411.901 193.665 411.35 194.719 410.286C194.778 410.227 194.834 410.167 194.889 410.106C195.315 409.622 195.642 409.044 195.874 408.543C196.173 407.898 196.336 407.197 196.382 406.486L200.012 351.078C200.012 351.078 197.221 349.882 192.518 348.834C189.379 348.134 185.507 347.487 180.176 347.487C175.328 347.488 171.638 347.945 167.614 348.834Z" fill="#FF5E64"/>
<path d="M158.26 332.605L158.184 332.541C158.041 332.421 154.686 329.544 154.686 325.394C154.686 321.356 156.044 306.963 156.058 306.818L156.067 306.721L164.718 298L164.795 297.983C164.863 297.968 171.626 296.468 180.387 296.468C189.152 296.468 195.469 298.12 195.531 298.137L195.599 298.155L204.25 306.569L204.258 306.67C204.321 307.385 205.78 324.22 205.475 326.485C205.161 328.817 203.314 330.807 201.965 332.261L201.885 332.347L201.739 332.378L158.26 332.605ZM156.587 306.965C156.468 308.236 155.227 321.554 155.227 325.394C155.227 328.968 157.975 331.621 158.46 332.063L201.618 331.837C203.002 330.345 204.651 328.533 204.936 326.413C205.222 324.294 203.849 308.245 203.726 306.816L195.323 298.642C194.623 298.466 188.59 297.01 180.385 297.01C172.187 297.01 165.756 298.331 164.989 298.495L156.587 306.965Z" fill="#A8392E"/>
<path d="M195.302 329.415C190.283 328.335 184.017 328.074 180.247 328.081C176.476 328.087 170.212 328.37 165.196 329.468C160.18 330.567 157.361 332.206 157.05 334.113C156.74 336.019 159.582 347.18 160.214 349.629C160.845 352.079 163.037 350.169 167.426 349.344C171.815 348.52 180.282 348.505 180.282 348.505C180.282 348.505 188.75 348.49 193.142 349.299C197.533 350.109 199.732 352.011 200.355 349.559C200.978 347.107 203.781 335.937 203.464 334.031C203.147 332.125 200.322 330.496 195.302 329.415Z" fill="#3E687E"/>
<path d="M174.108 361.097C170.521 361.097 167.614 364.004 167.614 367.59V390.971C167.614 394.557 170.521 397.464 174.108 397.464H186.468C190.054 397.464 192.961 394.557 192.961 390.971V367.591C192.961 364.005 190.054 361.098 186.468 361.098L174.108 361.097Z" fill="#25303D"/>
<path opacity="0.59" d="M173.563 362.53C171.13 362.53 169.157 364.502 169.157 366.936V391.57C169.157 394.003 171.13 395.976 173.563 395.976H187.011C189.445 395.976 191.418 394.003 191.418 391.57V366.936C191.418 364.502 189.445 362.53 187.011 362.53H173.563Z" fill="url(#paint0_linear_21_2)"/>
<path d="M192.079 374.201H168.716V377.738H192.079V374.201Z" fill="#25303D"/>
<path d="M158.833 370.465H154.455C153.813 370.465 153.296 370.99 153.307 371.632L153.968 411.993C154.003 414.084 156.52 415.122 158.018 413.662L162.381 409.409C162.625 409.172 162.75 408.84 162.725 408.502L159.979 371.528C159.934 370.928 159.435 370.465 158.833 370.465Z" fill="#25303D"/>
<path d="M152.406 337.376L153.276 368.305C153.298 369.078 153.931 369.693 154.704 369.693H158.183C159.175 369.693 159.963 368.86 159.907 367.869L159.101 353.576C159.101 353.576 155.216 337.789 154.72 336.963C154.224 336.136 152.819 335.971 152.406 337.376Z" fill="#25303D"/>
<path d="M169.229 312.733L169.919 324.069L170.149 312.066L167.391 297.841L166.071 300.207L169.229 312.733Z" fill="#FE878C"/>
<path d="M190.164 324.069L190.863 312.781L194.062 300.307L192.726 297.951L189.932 312.117L190.164 324.069Z" fill="#FE878C"/>
<path d="M154.133 338.201C154.026 337.76 153.367 337.838 153.377 338.292C153.547 345.406 154.249 364.638 154.371 367.982C154.382 368.262 154.611 368.481 154.891 368.481H157.829C158.354 368.481 158.772 368.039 158.74 367.514L157.959 354.438C157.93 353.956 157.858 353.478 157.744 353.008L154.133 338.201Z" fill="url(#paint1_linear_21_2)"/>
<path d="M157.832 371.787H155.631C154.95 371.787 154.403 372.347 154.42 373.027C154.565 378.899 155.184 403.94 155.421 411.629C155.449 412.513 156.502 412.952 157.151 412.352L160.438 409.318C160.934 408.86 161.196 408.203 161.152 407.529L158.861 372.749C158.826 372.208 158.376 371.787 157.832 371.787Z" fill="url(#paint2_linear_21_2)"/>
<path d="M156.471 298.297C153.36 301.339 151.839 305.35 152.806 307.216C153.618 308.781 155.406 309.053 158.753 307.7C162.002 306.387 164.919 303.162 166.569 300.076C167.853 297.674 168.087 295.462 166.358 294.217C164.459 292.85 159.337 295.494 156.471 298.297Z" fill="#A8392E"/>
<path d="M150.037 341.261C148.466 341.344 146.565 341.922 145.739 343.327C144.912 344.733 144.747 347.378 145.408 347.956C146.069 348.534 151.524 346.799 151.607 346.22C151.689 345.642 151.689 345.393 151.689 345.393L152.682 345.559V342.748C152.268 342.748 151.607 342.5 151.607 342.5C151.607 342.5 151.607 341.178 150.037 341.261Z" fill="#25303D"/>
<path d="M157.2 298.887C154.72 301.312 153.508 304.508 154.28 305.995C154.926 307.243 156.352 307.459 159.018 306.381C161.608 305.334 163.932 302.764 165.246 300.305C166.27 298.391 166.456 296.628 165.079 295.636C163.566 294.548 159.484 296.654 157.2 298.887Z" fill="#D6E5FE"/>
<path d="M154.255 306.023C154.902 307.27 156.328 307.487 158.994 306.409C159.338 306.27 159.676 306.103 160.008 305.914C159.69 305.921 156.888 305.948 155.798 304.701C154.871 303.641 155.04 302.089 155.144 301.513C154.111 303.286 153.742 305.033 154.255 306.023Z" fill="#FE9D6D"/>
<path d="M162.365 424.009C161.88 424.009 161.712 424.613 162.135 424.835L165.964 426.846C166.035 426.883 166.114 426.902 166.194 426.902H194.606C194.683 426.902 194.76 426.884 194.829 426.849L198.811 424.838C199.241 424.621 199.076 424.009 198.588 424.009H162.365Z" fill="#FF5E64"/>
<path d="M163.06 423.929C162.1 423.921 161.595 424.336 161.332 424.728C161.105 425.069 161.217 425.537 161.583 425.721C162.736 426.303 164.532 426.7 165.639 426.906C166.211 427.012 166.645 426.401 166.36 425.894C165.777 424.859 164.378 423.94 163.06 423.929Z" fill="#FEAA23"/>
<path d="M201.336 370.465C200.734 370.465 200.235 370.928 200.19 371.528L197.444 408.502C197.419 408.84 197.545 409.172 197.788 409.409L202.152 413.662C203.649 415.122 206.167 414.084 206.201 411.993L206.862 371.632C206.873 370.99 206.356 370.465 205.714 370.465H201.336Z" fill="#25303D"/>
<path d="M205.449 336.963C204.953 337.789 201.068 353.576 201.068 353.576L200.261 367.869C200.205 368.86 200.994 369.693 201.985 369.693H205.465C206.238 369.693 206.87 369.078 206.892 368.305L207.762 337.376C207.35 335.971 205.945 336.136 205.449 336.963Z" fill="#25303D"/>
<path d="M206.037 338.201L202.425 353.008C202.311 353.477 202.239 353.956 202.21 354.438L201.429 367.514C201.398 368.039 201.815 368.481 202.341 368.481H205.278C205.558 368.481 205.788 368.262 205.798 367.982C205.921 364.638 206.623 345.406 206.792 338.292C206.803 337.838 206.144 337.76 206.037 338.201Z" fill="url(#paint3_linear_21_2)"/>
<path d="M202.337 371.787C201.794 371.787 201.343 372.208 201.308 372.75L199.018 407.53C198.973 408.203 199.236 408.861 199.731 409.319L203.019 412.353C203.668 412.952 204.72 412.513 204.748 411.63C204.987 403.941 205.605 378.899 205.749 373.028C205.766 372.347 205.219 371.787 204.539 371.787L202.337 371.787Z" fill="url(#paint4_linear_21_2)"/>
<path d="M193.811 294.217C192.082 295.462 192.316 297.674 193.6 300.076C195.25 303.162 198.167 306.387 201.416 307.7C204.763 309.053 206.551 308.781 207.363 307.216C208.331 305.349 206.81 301.339 203.698 298.297C200.832 295.494 195.71 292.85 193.811 294.217Z" fill="#A8392E"/>
<path d="M210.132 341.261C208.562 341.178 208.562 342.501 208.562 342.501C208.562 342.501 207.901 342.749 207.487 342.749V345.559L208.48 345.394C208.48 345.394 208.48 345.642 208.563 346.221C208.645 346.799 214.1 348.535 214.761 347.956C215.423 347.378 215.257 344.733 214.431 343.328C213.604 341.922 211.703 341.343 210.132 341.261Z" fill="#25303D"/>
<path d="M195.09 295.637C193.712 296.629 193.899 298.392 194.922 300.306C196.236 302.765 198.561 305.335 201.151 306.382C203.818 307.46 205.243 307.243 205.889 305.997C206.661 304.509 205.449 301.313 202.969 298.888C200.685 296.654 196.603 294.548 195.09 295.637Z" fill="#D6E5FE"/>
<path d="M200.177 305.927C200.51 306.116 200.848 306.283 201.192 306.422C203.859 307.5 205.284 307.284 205.931 306.036C206.444 305.046 206.075 303.299 205.042 301.526C205.146 302.102 205.315 303.654 204.388 304.714C203.297 305.961 200.496 305.935 200.177 305.927Z" fill="#FE9D6D"/>
<path d="M194.265 426.39C194.186 426.705 194.44 427.004 194.763 426.976C195.693 426.897 197.656 426.635 199.125 425.802C199.623 425.519 199.723 424.837 199.325 424.426C199.03 424.122 198.555 423.862 197.793 423.868C196.241 423.881 194.577 425.154 194.265 426.39Z" fill="#FEAA23"/>
<path d="M195.62 326.522C190.454 325.221 184.005 324.896 180.124 324.896C176.243 324.896 169.794 325.221 164.628 326.522C159.463 327.822 156.558 329.773 156.235 332.049C155.912 334.325 158.818 347.655 159.463 350.581C160.109 353.507 162.368 351.231 166.888 350.255C171.407 349.28 180.123 349.28 180.123 349.28C180.123 349.28 188.839 349.28 193.359 350.255C197.879 351.23 200.138 353.506 200.784 350.581C201.43 347.655 204.335 334.325 204.012 332.049C203.69 329.773 200.785 327.822 195.62 326.522Z" fill="#25303D"/>
<path d="M194.904 328.97C190.003 327.907 183.885 327.65 180.203 327.657C176.522 327.663 170.405 327.942 165.507 329.022C160.61 330.102 157.857 331.714 157.554 333.589C157.251 335.464 160.026 346.439 160.643 348.848C161.259 351.258 163.399 349.379 167.685 348.568C171.971 347.757 180.239 347.742 180.239 347.742C180.239 347.742 188.506 347.728 192.795 348.523C197.084 349.319 199.23 351.19 199.838 348.779C200.447 346.368 203.183 335.382 202.874 333.508C202.565 331.634 199.806 330.032 194.904 328.97Z" fill="url(#paint5_linear_21_2)"/>
<path d="M192.795 348.523C197.083 349.319 199.23 351.19 199.838 348.779C200.447 346.368 203.183 335.382 202.874 333.508C202.565 331.634 199.806 330.032 194.905 328.97C191.951 328.33 188.558 327.983 185.521 327.809C186.143 330.323 188.284 339.693 187.92 347.986C189.684 348.101 191.439 348.272 192.795 348.523Z" fill="url(#paint6_linear_21_2)"/>
<path d="M157.2 298.887C156.371 299.698 155.688 300.594 155.169 301.485C155.171 301.483 161.223 295.527 165.851 298.502C165.884 298.523 165.911 298.537 165.942 298.557C166.231 297.355 166.021 296.315 165.079 295.636C163.566 294.548 159.484 296.654 157.2 298.887Z" fill="#78C2FC"/>
<path d="M191.049 413.333H168.545C168.018 413.333 167.517 413.555 167.164 413.945C166.261 414.941 164.416 416.98 162.837 418.737C161.759 419.937 162.611 421.847 164.224 421.847H195.441C197.064 421.847 197.912 419.917 196.814 418.722L192.422 413.937C192.07 413.552 191.571 413.333 191.049 413.333Z" fill="#25303D"/>
<path d="M195.109 295.65C194.166 296.329 193.956 297.369 194.245 298.57C194.277 298.551 194.304 298.537 194.337 298.515C198.965 295.54 205.017 301.496 205.019 301.499C204.5 300.608 203.817 299.712 202.987 298.901C200.704 296.668 196.621 294.561 195.109 295.65Z" fill="#78C2FC"/>
<path d="M190.287 414.325H169C168.747 414.325 168.507 414.427 168.33 414.607C167.547 415.412 165.264 417.757 163.727 419.356C163.156 419.95 163.578 420.937 164.402 420.937H195.03C195.863 420.937 196.279 419.931 195.691 419.342L190.947 414.599C190.772 414.424 190.535 414.325 190.287 414.325Z" fill="url(#paint7_linear_21_2)"/>
<defs>
<linearGradient id="paint0_linear_21_2" x1="189.505" y1="395.219" x2="171.069" y2="363.287" gradientUnits="userSpaceOnUse">
<stop stop-color="#72B3DD"/>
<stop offset="0.9946" stop-color="#2E81BA"/>
</linearGradient>
<linearGradient id="paint1_linear_21_2" x1="158.742" y1="353.194" x2="153.377" y2="353.194" gradientUnits="userSpaceOnUse">
<stop stop-color="#414751"/>
<stop offset="0.9838" stop-color="#292B2E"/>
</linearGradient>
<linearGradient id="paint2_linear_21_2" x1="161.157" y1="392.208" x2="154.42" y2="392.208" gradientUnits="userSpaceOnUse">
<stop stop-color="#414751"/>
<stop offset="0.9838" stop-color="#292B2E"/>
</linearGradient>
<linearGradient id="paint3_linear_21_2" x1="206.792" y1="353.194" x2="201.427" y2="353.194" gradientUnits="userSpaceOnUse">
<stop stop-color="#414751"/>
<stop offset="0.9838" stop-color="#292B2E"/>
</linearGradient>
<linearGradient id="paint4_linear_21_2" x1="205.749" y1="392.208" x2="199.012" y2="392.208" gradientUnits="userSpaceOnUse">
<stop stop-color="#414751"/>
<stop offset="0.9838" stop-color="#292B2E"/>
</linearGradient>
<linearGradient id="paint5_linear_21_2" x1="160.318" y1="328.495" x2="198.829" y2="350.73" gradientUnits="userSpaceOnUse">
<stop stop-color="#414751"/>
<stop offset="0.9838" stop-color="#292B2E"/>
</linearGradient>
<linearGradient id="paint6_linear_21_2" x1="185.52" y1="338.888" x2="202.898" y2="338.888" gradientUnits="userSpaceOnUse">
<stop stop-color="#414751"/>
<stop offset="0.9838" stop-color="#292B2E"/>
</linearGradient>
<linearGradient id="paint7_linear_21_2" x1="179.716" y1="414.325" x2="179.716" y2="420.937" gradientUnits="userSpaceOnUse">
<stop stop-color="#414751"/>
<stop offset="0.9838" stop-color="#292B2E"/>
</linearGradient>
</defs>
</svg>
