<svg width="360" height="720" viewBox="0 0 360 720" fill="none" xmlns="http://www.w3.org/2000/svg">
<path d="M152.91 314.068L154.167 410.868C154.167 420.588 159.845 424.566 169.253 425.011C174.511 425.261 185.055 425.325 190.31 425.011C199.93 424.437 206.024 420.588 206.024 410.868L207.281 314.068C207.281 314.068 208.653 295 179.843 295C151.033 295 152.91 314.068 152.91 314.068Z" fill="#192141"/>
<path d="M159.729 302.124C157.706 304.586 157.738 309.143 157.738 309.143C157.738 309.143 161.943 303.537 167.794 300.884C168.431 300.595 168.86 299.982 168.884 299.283L168.947 297.514C168.947 297.514 162.138 299.19 159.729 302.124Z" fill="#D5FAFC"/>
<path d="M194.159 330.622C189.388 329.595 183.432 329.347 179.847 329.353C176.263 329.36 170.308 329.629 165.54 330.673C160.772 331.717 158.092 333.275 157.796 335.088C157.501 336.901 160.203 347.51 160.804 349.839C161.404 352.167 163.488 350.352 167.66 349.568C171.832 348.783 179.882 348.77 179.882 348.77C179.882 348.77 187.931 348.755 192.106 349.525C196.281 350.294 198.371 352.103 198.964 349.772C199.556 347.441 202.22 336.822 201.919 335.011C201.617 333.198 198.931 331.649 194.159 330.622Z" fill="#3E687E"/>
<path d="M159.02 303.821L157.449 333.05C157.449 333.05 163.42 328.021 179.781 327.739C196.142 327.457 202.072 334.292 202.072 334.292L200.506 304.135C200.506 304.135 191.706 298.478 179.134 298.478C166.562 298.478 159.02 303.821 159.02 303.821Z" fill="#2F3557"/>
<path d="M166.476 300.92L170.038 314.12L170.667 324.806L170.876 313.492L167.733 300.082L166.476 300.92Z" fill="#192141"/>
<path d="M153.142 331.969L154.166 410.868C154.166 411.234 154.177 411.589 154.193 411.939L157.582 412.302L162.557 402.821L162.791 352.447L157.582 334.292L153.142 331.969Z" fill="#B2B8D2"/>
<path d="M197.283 402.822L202.283 412.303L205.997 411.906C206.013 411.567 206.024 411.223 206.024 410.868L207.051 331.811L202.283 334.293L197.048 352.448L197.283 402.822Z" fill="#B2B8D2"/>
<path d="M162.302 352.448V401.542C162.302 403.366 164.009 404.845 165.674 404.845H195.309C196.974 404.845 198.323 403.366 198.323 401.542V352.112C198.323 352.112 191.426 349.425 181.769 349.425C172.113 349.425 162.302 352.448 162.302 352.448Z" fill="#DEE4F2"/>
<path d="M160.237 359.245C160.237 359.245 158.188 348.026 157.107 345.122C156.651 343.897 154.938 344.793 154.911 345.521C154.607 353.738 155.361 373.775 155.468 376.532C155.475 376.71 155.622 376.847 155.799 376.845L160.476 376.797C160.657 376.796 160.803 376.647 160.801 376.466L160.654 362.138C160.643 361.163 160.503 360.192 160.237 359.245Z" fill="#273043"/>
<path opacity="0.59" d="M156.71 346.646C156.572 345.995 155.754 346.093 155.737 346.762C155.55 354.285 156.267 372.597 156.373 375.225C156.38 375.403 156.526 375.54 156.704 375.539L159.51 375.51C159.691 375.508 159.837 375.36 159.835 375.178L159.7 362.042C159.691 361.146 159.593 360.254 159.409 359.384L156.71 346.646Z" fill="url(#paint0_linear_21_41)"/>
<path d="M160.309 378.521L155.895 378.566C155.691 378.568 155.525 378.729 155.519 378.934C155.452 381.37 155.093 395.407 155.521 401.221C155.56 401.748 157.236 402.365 157.656 401.471C158.654 399.354 160.444 391.21 160.444 391.21C160.687 390.521 160.805 389.817 160.798 389.112L160.693 378.898C160.691 378.687 160.519 378.519 160.309 378.521Z" fill="#273043"/>
<path opacity="0.59" d="M159.397 379.469L156.795 379.496C156.591 379.498 156.424 379.66 156.418 379.864C156.35 382.186 155.995 394.991 156.301 400.31C156.329 400.793 157.123 400.85 157.245 400.377L159.64 391.125C159.804 390.492 159.883 389.846 159.876 389.198L159.781 379.845C159.778 379.635 159.606 379.467 159.397 379.469Z" fill="url(#paint1_linear_21_41)"/>
<path opacity="0.59" d="M203.518 346.646L200.819 359.383C200.634 360.254 200.536 361.146 200.527 362.042L200.389 375.506L203.842 375.542C203.842 375.542 204.692 354.876 204.49 346.762C204.473 346.093 203.655 345.995 203.518 346.646Z" fill="url(#paint2_linear_21_41)"/>
<path opacity="0.59" d="M200.351 389.198C200.344 389.846 200.424 390.492 200.588 391.125L202.983 400.377C203.105 400.85 203.899 400.793 203.927 400.31C204.264 394.45 203.799 379.499 203.799 379.499L200.452 379.464L200.351 389.198Z" fill="url(#paint3_linear_21_41)"/>
<path d="M194.24 329.229C189.421 328.037 183.403 327.74 179.781 327.74C176.159 327.74 170.141 328.038 165.322 329.229C160.502 330.421 157.791 332.208 157.49 334.293C157.188 336.378 159.899 348.59 160.502 351.271C161.104 353.952 163.213 351.867 167.43 350.973C171.648 350.079 179.781 350.079 179.781 350.079C179.781 350.079 187.914 350.079 192.131 350.973C196.349 351.867 198.458 353.952 199.06 351.271C199.662 348.59 202.373 336.378 202.072 334.293C201.771 332.207 199.06 330.42 194.24 329.229Z" fill="#273043"/>
<path opacity="0.59" d="M193.326 330.51C188.785 329.52 183.117 329.281 179.706 329.287C176.294 329.293 170.627 329.552 166.089 330.559C161.551 331.565 159.001 333.066 158.72 334.813C158.439 336.56 161.01 346.785 161.582 349.029C162.154 351.274 164.739 349.841 168.71 349.086C172.68 348.33 179.738 347.999 179.738 347.999C179.738 347.999 187.05 348.193 191.023 348.934C194.996 349.676 197.335 351.211 197.898 348.965C198.462 346.718 200.998 336.484 200.711 334.738C200.424 332.992 197.868 331.499 193.326 330.51Z" fill="url(#paint4_linear_21_41)"/>
<path opacity="0.59" d="M191.959 348.95C195.932 349.694 197.335 351.234 197.898 348.981C198.461 346.727 200.997 336.464 200.71 334.713C200.423 332.962 197.867 331.466 193.326 330.473C190.734 329.906 187.777 329.585 185.08 329.415C185.458 330.904 187.749 340.331 187.202 348.263C188.719 348.371 190.792 348.732 191.959 348.95Z" fill="url(#paint5_linear_21_41)"/>
<path d="M179.74 422.759C179.754 422.759 179.768 422.759 179.783 422.759C190.883 422.754 196.413 421.781 196.413 421.781L200.885 415.474L201.991 412.303C201.991 412.303 199.718 413.12 195.67 413.958C191.759 414.768 180.497 415.089 179.74 415.11C178.984 415.089 167.722 414.768 163.811 413.958C159.763 413.12 157.49 412.303 157.49 412.303L158.596 415.474L163.068 421.781C163.068 421.781 168.597 422.753 179.698 422.759C179.712 422.759 179.726 422.759 179.74 422.759Z" fill="#2F3556"/>
<path d="M192.131 403.021C187.114 403.587 179.781 403.518 179.781 403.518C179.781 403.518 171.648 403.518 167.43 403.021C163.213 402.524 161.238 402.225 160.505 403.796C159.824 405.254 157.188 411.142 157.49 412.302C157.791 413.463 160.502 414.457 165.322 415.12C170.141 415.783 176.159 415.949 179.781 415.949C183.403 415.949 189.421 415.783 194.24 415.12C199.059 414.457 201.771 413.463 202.072 412.302C202.373 411.142 199.764 404.974 199.162 403.482C198.559 401.991 196.351 402.545 192.131 403.021Z" fill="#273043"/>
<path opacity="0.59" d="M191.252 404.21C187.251 404.592 179.888 404.691 179.888 404.691C179.888 404.691 172.78 404.521 168.781 404.133C164.782 403.744 162.178 403.008 161.603 404.162C161.028 405.316 158.438 410.572 158.72 411.469C159.003 412.367 161.572 413.139 166.142 413.656C170.712 414.173 176.419 414.307 179.855 414.31C183.29 414.313 188.999 414.19 193.572 413.681C198.146 413.172 200.72 412.405 201.009 411.508C201.297 410.61 198.744 405.349 198.176 404.194C197.609 403.04 195.254 403.829 191.252 404.21Z" fill="url(#paint6_linear_21_41)"/>
<path opacity="0.59" d="M193.572 413.678C198.146 413.167 200.72 412.396 201.009 411.494C201.298 410.592 198.744 405.303 198.177 404.142C197.609 402.981 196.197 403.775 192.195 404.158C191.019 404.271 188.932 404.457 187.405 404.512C187.956 408.599 185.649 413.457 185.268 414.224C187.984 414.135 190.962 413.97 193.572 413.678Z" fill="url(#paint7_linear_21_41)"/>
<path d="M158.589 415.473C157.739 416.081 158.06 417.984 159.306 419.724C160.551 421.463 162.249 422.38 163.098 421.772C163.948 421.164 163.627 419.261 162.381 417.521C161.137 415.782 159.438 414.865 158.589 415.473Z" fill="#D80505"/>
<path d="M158.589 415.473C158.585 415.476 158.583 415.479 158.58 415.482C158.767 416.133 159.113 416.847 159.607 417.537C160.852 419.277 162.55 420.194 163.4 419.586C163.403 419.583 163.406 419.58 163.409 419.577C163.221 418.927 162.876 418.212 162.382 417.522C161.137 415.782 159.438 414.865 158.589 415.473Z" fill="#F52206"/>
<path d="M208.586 347.455C206.562 347.399 206.562 348.287 206.562 348.287C206.562 348.287 205.71 348.453 205.177 348.453V350.338L206.456 350.227C206.456 350.227 206.456 350.394 206.562 350.781C206.669 351.17 213.699 352.334 214.551 351.946C215.404 351.558 215.191 349.783 214.125 348.84C213.06 347.898 210.61 347.511 208.586 347.455Z" fill="#273043"/>
<path d="M189.306 325.225L189.934 314.539L193.496 301.339L192.239 300.501L189.096 313.911L189.306 325.225Z" fill="#192141"/>
<path d="M203.18 345.122C202.118 347.973 200.124 358.842 200.052 359.234C200.051 359.241 200.049 359.249 200.047 359.256C199.782 360.2 199.643 361.167 199.633 362.138L199.487 376.409C199.485 376.622 199.655 376.796 199.868 376.798L204.489 376.845C204.666 376.847 204.813 376.709 204.82 376.532C204.927 373.774 205.68 353.737 205.376 345.521C205.349 344.793 203.636 343.897 203.18 345.122Z" fill="#273043"/>
<path opacity="0.59" d="M203.577 346.646L200.877 359.383C200.693 360.254 200.595 361.146 200.586 362.042L200.451 375.178C200.45 375.359 200.595 375.507 200.776 375.51L203.583 375.538C203.76 375.54 203.907 375.402 203.914 375.225C204.02 372.596 204.737 354.284 204.549 346.762C204.532 346.093 203.715 345.995 203.577 346.646Z" fill="url(#paint8_linear_21_41)"/>
<path d="M204.392 378.566L199.977 378.521C199.768 378.519 199.596 378.687 199.593 378.897L199.489 389.112C199.482 389.817 199.6 390.521 199.842 391.21C199.842 391.21 201.633 399.354 202.63 401.471C203.051 402.364 204.726 401.747 204.765 401.221C205.193 395.407 204.834 381.37 204.767 378.933C204.762 378.729 204.596 378.568 204.392 378.566Z" fill="#273043"/>
<path opacity="0.59" d="M203.492 379.495L200.89 379.468C200.68 379.466 200.508 379.635 200.506 379.845L200.41 389.198C200.403 389.846 200.483 390.492 200.647 391.125L203.042 400.377C203.164 400.85 203.958 400.793 203.986 400.31C204.291 394.991 203.936 382.186 203.869 379.864C203.862 379.659 203.696 379.497 203.492 379.495Z" fill="url(#paint9_linear_21_41)"/>
<path d="M197.276 417.521C196.031 419.261 195.71 421.164 196.559 421.772C197.409 422.38 199.107 421.463 200.352 419.724C201.597 417.984 201.918 416.081 201.069 415.473C200.22 414.865 198.522 415.782 197.276 417.521Z" fill="#D80505"/>
<path d="M197.276 417.521C196.782 418.212 196.437 418.926 196.249 419.577C196.252 419.58 196.255 419.583 196.258 419.585C197.108 420.193 198.806 419.276 200.051 417.537C200.545 416.847 200.891 416.132 201.078 415.481C201.075 415.479 201.072 415.475 201.069 415.473C200.22 414.865 198.522 415.782 197.276 417.521Z" fill="#F52206"/>
<path d="M167.952 360.079V365.735H193.557C194.671 365.735 195.574 364.832 195.574 363.718V362.096C195.574 360.982 194.671 360.079 193.557 360.079H167.952Z" fill="#3756FB"/>
<path d="M164.145 362.096V363.718C164.145 364.832 165.048 365.735 166.163 365.735H179.859V360.079H166.163C165.049 360.079 164.145 360.982 164.145 362.096Z" fill="#FE5B29"/>
<path opacity="0.44" d="M170.649 332.736C179.449 330.85 196.42 333.05 196.42 333.05C196.42 333.05 194.22 331.792 186.363 330.85C178.505 329.907 162.791 331.792 161.22 333.993C159.649 336.193 163.42 347.507 163.42 347.507C163.42 347.507 162.163 338.079 162.163 336.822C162.162 335.564 161.849 334.621 170.649 332.736Z" fill="#C7CCEA"/>
<path d="M151.491 347.455C149.467 347.511 147.017 347.899 145.952 348.841C144.887 349.784 144.674 351.558 145.526 351.947C146.378 352.335 153.408 351.171 153.515 350.782C153.622 350.394 153.622 350.228 153.622 350.228L154.9 350.339V348.454C154.367 348.454 153.515 348.288 153.515 348.288C153.515 348.288 153.515 347.399 151.491 347.455Z" fill="#273043"/>
<path d="M159.729 302.124C157.582 304.479 157.738 309.143 157.738 309.143C157.738 309.143 161.943 303.537 167.794 300.884C168.431 300.595 168.86 299.982 168.885 299.283L168.948 297.514C168.948 297.514 162.976 298.562 159.729 302.124Z" fill="#D5FAFC"/>
<path opacity="0.59" d="M157.902 307.031C157.732 308.245 157.738 309.143 157.738 309.143C157.738 309.143 161.943 303.537 167.794 300.884C168.431 300.595 168.86 299.982 168.884 299.283C163.794 300.687 159.212 305.545 157.902 307.031Z" fill="url(#paint10_linear_21_41)"/>
<path d="M190.945 297.514L191.008 299.283C191.033 299.982 191.462 300.595 192.099 300.884C197.949 303.537 202.154 309.143 202.154 309.143C202.154 309.143 202.31 304.479 200.164 302.124C196.916 298.562 190.945 297.514 190.945 297.514Z" fill="#D5FAFC"/>
<path opacity="0.59" d="M191.008 299.283C191.033 299.982 191.462 300.594 192.099 300.884C197.949 303.537 202.154 309.143 202.154 309.143C202.154 309.143 202.16 308.245 201.991 307.031C200.681 305.545 196.098 300.687 191.008 299.283Z" fill="url(#paint11_linear_21_41)"/>
<path opacity="0.41" d="M167.457 361.734C167.065 361.734 166.748 362.051 166.748 362.443V363.014C166.748 363.406 167.065 363.724 167.457 363.724H192.333C192.725 363.724 193.043 363.406 193.043 363.014V362.443C193.043 362.051 192.725 361.734 192.333 361.734H167.457Z" fill="#E9ECF5"/>
<defs>
<linearGradient id="paint0_linear_21_41" x1="155.706" y1="360.872" x2="159.835" y2="360.872" gradientUnits="userSpaceOnUse">
<stop stop-color="#72B3DD"/>
<stop offset="0.9946" stop-color="#2E81BA"/>
</linearGradient>
<linearGradient id="paint1_linear_21_41" x1="162.837" y1="394.868" x2="152.053" y2="384.083" gradientUnits="userSpaceOnUse">
<stop stop-color="#72B3DD"/>
<stop offset="0.9946" stop-color="#2E81BA"/>
</linearGradient>
<linearGradient id="paint2_linear_21_41" x1="200.389" y1="360.873" x2="204.521" y2="360.873" gradientUnits="userSpaceOnUse">
<stop stop-color="#72B3DD"/>
<stop offset="0.9946" stop-color="#2E81BA"/>
</linearGradient>
<linearGradient id="paint3_linear_21_41" x1="208.894" y1="395.484" x2="196.663" y2="383.252" gradientUnits="userSpaceOnUse">
<stop stop-color="#72B3DD"/>
<stop offset="0.9946" stop-color="#2E81BA"/>
</linearGradient>
<linearGradient id="paint4_linear_21_41" x1="161.266" y1="330.117" x2="196.979" y2="350.737" gradientUnits="userSpaceOnUse">
<stop offset="0.0054" stop-color="#ACCAF0"/>
<stop offset="1" stop-color="#323BB6"/>
</linearGradient>
<linearGradient id="paint5_linear_21_41" x1="185.081" y1="339.787" x2="200.733" y2="339.787" gradientUnits="userSpaceOnUse">
<stop stop-color="#72B3DD"/>
<stop offset="0.9946" stop-color="#2E81BA"/>
</linearGradient>
<linearGradient id="paint6_linear_21_41" x1="164.201" y1="399.657" x2="196.951" y2="418.565" gradientUnits="userSpaceOnUse">
<stop stop-color="#72B3DD"/>
<stop offset="0.9946" stop-color="#2E81BA"/>
</linearGradient>
<linearGradient id="paint7_linear_21_41" x1="185.268" y1="408.879" x2="201.032" y2="408.879" gradientUnits="userSpaceOnUse">
<stop stop-color="#72B3DD"/>
<stop offset="0.9946" stop-color="#2E81BA"/>
</linearGradient>
<linearGradient id="paint8_linear_21_41" x1="200.451" y1="360.872" x2="204.58" y2="360.872" gradientUnits="userSpaceOnUse">
<stop stop-color="#72B3DD"/>
<stop offset="0.9946" stop-color="#2E81BA"/>
</linearGradient>
<linearGradient id="paint9_linear_21_41" x1="208.902" y1="395.535" x2="196.782" y2="383.415" gradientUnits="userSpaceOnUse">
<stop stop-color="#72B3DD"/>
<stop offset="0.9946" stop-color="#2E81BA"/>
</linearGradient>
<linearGradient id="paint10_linear_21_41" x1="157.738" y1="304.213" x2="168.884" y2="304.213" gradientUnits="userSpaceOnUse">
<stop stop-color="#72B3DD"/>
<stop offset="0.9946" stop-color="#2E81BA"/>
</linearGradient>
<linearGradient id="paint11_linear_21_41" x1="191.008" y1="304.213" x2="202.155" y2="304.213" gradientUnits="userSpaceOnUse">
<stop stop-color="#72B3DD"/>
<stop offset="0.9946" stop-color="#2E81BA"/>
</linearGradient>
</defs>
</svg>
