<svg width="71" height="131" viewBox="0 0 71 131" fill="none" xmlns="http://www.w3.org/2000/svg">
<path d="M7.90956 19.0677L9.16702 115.868C9.16702 125.588 14.8447 129.566 24.2526 130.011C29.5108 130.261 40.0551 130.325 45.31 130.011C54.9303 129.437 61.0242 125.588 61.0242 115.868L62.2811 19.0677C62.2811 19.0677 63.6525 0 34.8429 0C6.03325 0 7.90956 19.0677 7.90956 19.0677Z" fill="#192141"/>
<path d="M14.7285 7.12411C12.706 9.58643 12.7383 14.143 12.7383 14.143C12.7383 14.143 16.9433 8.53654 22.7941 5.88363C23.431 5.59501 23.8599 4.98216 23.8845 4.28334L23.9475 2.51437C23.9475 2.51437 17.1377 4.19024 14.7285 7.12411Z" fill="#D5FAFC"/>
<path d="M49.1595 35.622C44.3876 34.5952 38.4317 34.3466 34.8472 34.3532C31.2627 34.3597 25.3079 34.6286 20.5399 35.673C15.7719 36.7168 13.0916 38.275 12.7964 40.0878C12.5012 41.9006 15.2034 52.51 15.8036 54.8387C16.4039 57.1674 18.4878 55.3519 22.6599 54.5676C26.8321 53.7833 34.8817 53.7697 34.8817 53.7697C34.8817 53.7697 42.9308 53.7554 47.1063 54.5249C51.2812 55.2944 53.3711 57.1028 53.9636 54.7719C54.5557 52.441 57.2201 41.8223 56.9189 40.0106C56.6171 38.1978 53.9313 36.6489 49.1595 35.622Z" fill="#3E687E"/>
<path d="M14.0199 8.82132L12.4486 38.0499C12.4486 38.0499 18.4199 33.0212 34.781 32.7392C51.1421 32.4571 57.0722 39.292 57.0722 39.292L55.5059 9.13514C55.5059 9.13514 46.7059 3.47766 34.1342 3.47766C21.5624 3.47766 14.0199 8.82132 14.0199 8.82132Z" fill="#2F3557"/>
<path d="M21.4758 5.92033L25.0379 19.1202L25.6666 29.8058L25.8764 18.4915L22.7333 5.08185L21.4758 5.92033Z" fill="#192141"/>
<path d="M8.14172 36.9694L9.16642 115.868C9.16642 116.234 9.17737 116.589 9.19325 116.939L12.5822 117.302L17.5573 107.821L17.7911 57.4473L12.5817 39.2915L8.14172 36.9694Z" fill="#B2B8D2"/>
<path d="M52.2834 107.822L57.2825 117.303L60.9968 116.906C61.0133 116.567 61.0237 116.223 61.0237 115.868L62.0506 36.8105L57.2825 39.2926L52.0485 57.4484L52.2834 107.822Z" fill="#B2B8D2"/>
<path d="M17.3021 57.4478V106.542C17.3021 108.366 19.0092 109.845 20.6741 109.845H50.3091C51.974 109.845 53.3235 108.366 53.3235 106.542V57.1121C53.3235 57.1121 46.4256 54.4252 36.7685 54.4252C27.1125 54.4252 17.3021 57.4478 17.3021 57.4478Z" fill="#DEE4F2"/>
<path d="M15.2368 64.245C15.2368 64.245 13.1879 53.026 12.1068 50.1222C11.6506 48.8971 9.93805 49.7925 9.91122 50.5215C9.60726 58.7376 10.3609 78.7752 10.4677 81.5322C10.4748 81.7096 10.6215 81.8471 10.799 81.8454L15.4761 81.7972C15.6574 81.7956 15.8031 81.6472 15.8009 81.4659L15.6541 67.1383C15.6431 66.1629 15.5035 65.1919 15.2368 64.245Z" fill="#273043"/>
<path opacity="0.59" d="M11.7099 51.6458C11.5719 50.9952 10.7542 51.0927 10.7372 51.7625C10.5499 59.2847 11.2668 77.5966 11.3725 80.2254C11.3796 80.4028 11.5264 80.5403 11.7039 80.5387L14.5101 80.5102C14.6914 80.508 14.8371 80.3596 14.8349 80.1783L14.7002 67.0425C14.6909 66.1465 14.5934 65.2538 14.4088 64.3835L11.7099 51.6458Z" fill="url(#paint0_linear_21_42)"/>
<path d="M15.3092 83.5208L10.8949 83.5663C10.6907 83.5685 10.5247 83.7294 10.5192 83.9337C10.4524 86.3703 10.0932 100.407 10.5214 106.221C10.5603 106.748 12.2356 107.365 12.6563 106.471C13.6536 104.354 15.4444 96.2103 15.4444 96.2103C15.6865 95.5213 15.8054 94.8171 15.7977 94.1122L15.6931 83.8976C15.6909 83.6873 15.5195 83.5186 15.3092 83.5208Z" fill="#273043"/>
<path opacity="0.59" d="M14.3967 84.4688L11.7947 84.4956C11.5909 84.4978 11.4245 84.6599 11.4184 84.8637C11.35 87.1858 10.9951 99.9914 11.3007 105.31C11.3286 105.793 12.1227 105.85 12.2454 105.377L14.6398 96.1249C14.8036 95.4923 14.883 94.8461 14.8764 94.1982L14.7806 84.8446C14.7784 84.6348 14.6064 84.4666 14.3967 84.4688Z" fill="url(#paint1_linear_21_42)"/>
<path opacity="0.59" d="M58.5176 51.6458L55.8187 64.383C55.6341 65.2538 55.5361 66.146 55.5273 67.042L55.3893 80.5064L58.8423 80.542C58.8423 80.542 59.6923 59.8762 59.4902 51.7625C59.4733 51.0927 58.655 50.9947 58.5176 51.6458Z" fill="url(#paint2_linear_21_42)"/>
<path opacity="0.59" d="M55.351 94.1982C55.3444 94.8461 55.4238 95.4923 55.5876 96.1248L57.9825 105.377C58.1046 105.85 58.8993 105.793 58.9272 105.31C59.2635 99.4497 58.7985 84.4989 58.7985 84.4989L55.4517 84.4644L55.351 94.1982Z" fill="url(#paint3_linear_21_42)"/>
<path d="M49.24 34.2288C44.4205 33.0371 38.4027 32.7397 34.781 32.7397C31.1592 32.7397 25.1414 33.0376 20.3219 34.2288C15.5024 35.4206 12.7909 37.2076 12.4897 39.2926C12.1885 41.3775 14.8995 53.59 15.5019 56.2709C16.1043 58.9517 18.2129 56.8668 22.4305 55.973C26.6475 55.0792 34.781 55.0792 34.781 55.0792C34.781 55.0792 42.9144 55.0792 47.1315 55.973C51.3485 56.8668 53.4576 58.9517 54.06 56.2709C54.6625 53.59 57.3735 41.3775 57.0722 39.2926C56.771 37.207 54.0595 35.42 49.24 34.2288Z" fill="#273043"/>
<path opacity="0.59" d="M48.3265 35.5098C43.7852 34.5201 38.1168 34.2808 34.7059 34.2868C31.2945 34.2928 25.6272 34.5525 21.0892 35.5585C16.5512 36.5646 14.0007 38.0663 13.7197 39.8129C13.4388 41.5599 16.0101 51.7849 16.5819 54.0293C17.1536 56.2736 19.7392 54.8414 23.7098 54.0856C27.6804 53.3299 34.7382 52.9991 34.7382 52.9991C34.7382 52.9991 42.0496 53.1929 46.023 53.9345C49.9963 54.676 52.3349 56.2112 52.8984 53.9646C53.462 51.7181 55.9977 41.4844 55.7107 39.7384C55.4243 37.9919 52.8677 36.4994 48.3265 35.5098Z" fill="url(#paint4_linear_21_42)"/>
<path opacity="0.59" d="M46.959 53.9504C50.9323 54.6942 52.3349 56.2337 52.8979 53.9806C53.4615 51.7275 55.9972 41.4641 55.7102 39.7132C55.4232 37.9623 52.8673 36.4655 48.326 35.4726C45.7344 34.9057 42.777 34.5853 40.0797 34.415C40.4582 35.9041 42.7485 45.3312 42.2019 53.2631C43.719 53.371 45.7919 53.7319 46.959 53.9504Z" fill="url(#paint5_linear_21_42)"/>
<path d="M34.7399 127.759C34.7541 127.759 34.7684 127.759 34.7826 127.759C45.8833 127.754 51.4126 126.781 51.4126 126.781L55.8849 120.474L56.9906 117.303C56.9906 117.303 54.7178 118.12 50.67 118.958C46.759 119.768 35.4973 120.089 34.7404 120.11C33.9835 120.089 22.7218 119.768 18.8109 118.958C14.7631 118.12 12.4902 117.303 12.4902 117.303L13.596 120.474L18.0683 126.781C18.0683 126.781 23.597 127.753 34.6983 127.759C34.7119 127.759 34.7256 127.759 34.7399 127.759Z" fill="#2F3556"/>
<path d="M47.1315 108.021C42.1143 108.587 34.781 108.518 34.781 108.518C34.781 108.518 26.6475 108.518 22.4305 108.021C18.2134 107.524 16.2379 107.225 15.5046 108.796C14.8244 110.254 12.1885 116.142 12.4897 117.302C12.7909 118.463 15.5019 119.457 20.3219 120.12C25.1414 120.783 31.1592 120.949 34.781 120.949C38.4027 120.949 44.4205 120.783 49.24 120.12C54.0595 119.457 56.771 118.463 57.0722 117.302C57.3734 116.142 54.7643 109.974 54.1625 108.482C53.5595 106.991 51.3513 107.545 47.1315 108.021Z" fill="#273043"/>
<path opacity="0.59" d="M46.2525 109.21C42.2507 109.592 34.8878 109.691 34.8878 109.691C34.8878 109.691 27.7801 109.521 23.781 109.133C19.7819 108.744 17.1778 108.008 16.6027 109.162C16.0277 110.316 13.4377 115.572 13.7203 116.469C14.0029 117.367 16.572 118.139 21.1418 118.656C25.7121 119.173 31.4194 119.307 34.8549 119.31C38.2904 119.313 43.9988 119.19 48.5724 118.681C53.146 118.172 55.72 117.405 56.0087 116.508C56.2973 115.61 53.7441 110.349 53.1761 109.194C52.6093 108.04 50.2543 108.829 46.2525 109.21Z" fill="url(#paint6_linear_21_42)"/>
<path opacity="0.59" d="M48.5724 118.678C53.146 118.167 55.72 117.396 56.0092 116.494C56.2978 115.592 53.744 110.303 53.1767 109.142C52.6093 107.981 51.1968 108.775 47.195 109.158C46.0191 109.271 43.932 109.457 42.4051 109.512C42.956 113.599 40.6492 118.457 40.2681 119.224C42.984 119.135 45.9622 118.97 48.5724 118.678Z" fill="url(#paint7_linear_21_42)"/>
<path d="M13.5889 120.473C12.7394 121.081 13.0604 122.984 14.3058 124.724C15.5512 126.463 17.249 127.38 18.0984 126.772C18.9478 126.164 18.6269 124.261 17.3815 122.521C16.1366 120.782 14.4383 119.865 13.5889 120.473Z" fill="#D80505"/>
<path d="M13.5889 120.473C13.5851 120.476 13.5829 120.479 13.5796 120.482C13.7674 121.133 14.113 121.847 14.607 122.537C15.8524 124.277 17.5502 125.194 18.3996 124.586C18.4029 124.583 18.4057 124.58 18.4089 124.577C18.2211 123.927 17.8755 123.212 17.3815 122.522C16.1367 120.782 14.4383 119.865 13.5889 120.473Z" fill="#F52206"/>
<path d="M63.5862 52.4553C61.562 52.3994 61.562 53.2866 61.562 53.2866C61.562 53.2866 60.7098 53.4532 60.1775 53.4532V55.3382L61.4558 55.2271C61.4558 55.2271 61.4558 55.3935 61.562 55.7813C61.6688 56.1696 68.6992 57.3339 69.5514 56.9456C70.4036 56.5579 70.1905 54.7834 69.1253 53.8403C68.0601 52.8983 65.6098 52.5106 63.5862 52.4553Z" fill="#273043"/>
<path d="M44.3061 30.2248L44.9342 19.5392L48.4963 6.33929L47.2394 5.50134L44.0963 18.9105L44.3061 30.2248Z" fill="#192141"/>
<path d="M58.1801 50.1222C57.1182 52.9734 55.1236 63.8419 55.0519 64.234C55.0508 64.2411 55.0491 64.2488 55.0469 64.2559C54.7824 65.1996 54.6433 66.1667 54.6334 67.1383L54.4872 81.4094C54.485 81.6219 54.6553 81.7956 54.8678 81.7978L59.4885 81.8449C59.666 81.8465 59.8127 81.709 59.8199 81.5316C59.9267 78.7741 60.6803 58.7365 60.3763 50.5209C60.3489 49.7925 58.6364 48.8971 58.1801 50.1222Z" fill="#273043"/>
<path opacity="0.59" d="M58.5767 51.6458L55.8773 64.383C55.6927 65.2538 55.5952 66.146 55.5859 67.042L55.4512 80.1778C55.4495 80.3591 55.5947 80.5075 55.776 80.5097L58.5828 80.5382C58.7602 80.5398 58.907 80.4023 58.9141 80.2249C59.0198 77.5961 59.7367 59.2842 59.5494 51.7619C59.5324 51.0927 58.7148 50.9946 58.5767 51.6458Z" fill="url(#paint8_linear_21_42)"/>
<path d="M59.3916 83.5663L54.9773 83.5208C54.7676 83.5186 54.5956 83.6868 54.5934 83.8971L54.4888 94.1117C54.4817 94.8165 54.6 95.5208 54.8421 96.2098C54.8421 96.2098 56.633 104.354 57.6303 106.471C58.0514 107.364 59.7262 106.747 59.7651 106.221C60.1934 100.407 59.8341 86.3698 59.7673 83.9332C59.7623 83.7295 59.5958 83.5685 59.3916 83.5663Z" fill="#273043"/>
<path opacity="0.59" d="M58.4918 84.4951L55.8898 84.4683C55.6801 84.4661 55.5081 84.6348 55.5059 84.8445L55.41 94.1982C55.4035 94.8461 55.4829 95.4923 55.6466 96.1249L58.0416 105.377C58.1637 105.85 58.9584 105.793 58.9863 105.31C59.2914 99.9914 58.9365 87.1858 58.8686 84.8637C58.862 84.6594 58.6961 84.4973 58.4918 84.4951Z" fill="url(#paint9_linear_21_42)"/>
<path d="M52.2764 122.521C51.0309 124.261 50.71 126.164 51.5595 126.772C52.4089 127.38 54.1067 126.463 55.3521 124.724C56.5975 122.984 56.9184 121.081 56.069 120.473C55.2195 119.865 53.5218 120.782 52.2764 122.521Z" fill="#D80505"/>
<path d="M52.2763 122.521C51.7823 123.212 51.4368 123.926 51.2489 124.577C51.2522 124.58 51.2549 124.583 51.2582 124.585C52.1076 125.193 53.806 124.276 55.0508 122.537C55.5448 121.847 55.8909 121.132 56.0783 120.481C56.075 120.479 56.0722 120.475 56.0689 120.473C55.2195 119.865 53.5217 120.782 52.2763 122.521Z" fill="#F52206"/>
<path d="M22.9524 65.0785V70.7354H48.5565C49.671 70.7354 50.5741 69.8323 50.5741 68.7178V67.0962C50.5741 65.9817 49.671 65.0785 48.5565 65.0785H22.9524Z" fill="#3756FB"/>
<path d="M19.145 67.0962V68.7178C19.145 69.8323 20.0481 70.7354 21.1626 70.7354H34.8593V65.0785H21.1626C20.0487 65.0785 19.145 65.9817 19.145 67.0962Z" fill="#FE5B29"/>
<path opacity="0.44" d="M25.6486 37.7356C34.4486 35.8499 51.4203 38.05 51.4203 38.05C51.4203 38.05 49.2203 36.7925 41.3629 35.8499C33.5055 34.9069 17.7912 36.7925 16.2199 38.993C14.6486 41.193 18.4199 52.5073 18.4199 52.5073C18.4199 52.5073 17.163 43.0787 17.163 41.8218C17.1624 40.5643 16.8486 39.6212 25.6486 37.7356Z" fill="#C7CCEA"/>
<path d="M6.49105 52.4553C4.46686 52.5106 2.01714 52.8989 0.951917 53.8414C-0.113301 54.784 -0.326345 56.5584 0.52583 56.9467C1.378 57.335 8.40844 56.1707 8.51524 55.7824C8.62203 55.3941 8.62203 55.2281 8.62203 55.2281L9.90029 55.3393V53.4542C9.36741 53.4542 8.51524 53.2878 8.51524 53.2878C8.51524 53.2878 8.51524 52.3994 6.49105 52.4553Z" fill="#273043"/>
<path d="M14.7286 7.12411C12.5817 9.47854 12.7384 14.143 12.7384 14.143C12.7384 14.143 16.9434 8.53654 22.7942 5.88363C23.4311 5.59501 23.8599 4.98216 23.8846 4.28334L23.9475 2.51437C23.9475 2.51437 17.9763 3.56206 14.7286 7.12411Z" fill="#D5FAFC"/>
<path opacity="0.59" d="M12.9021 12.0312C12.7323 13.2448 12.7383 14.143 12.7383 14.143C12.7383 14.143 16.9433 8.53653 22.7941 5.88362C23.431 5.59499 23.8598 4.98215 23.8845 4.28333C18.7939 5.687 14.2115 10.5448 12.9021 12.0312Z" fill="url(#paint10_linear_21_42)"/>
<path d="M45.9452 2.51437L46.0082 4.28334C46.0334 4.98216 46.4616 5.59501 47.0986 5.88363C52.9493 8.53654 57.1544 14.143 57.1544 14.143C57.1544 14.143 57.3104 9.47854 55.1636 7.12411C51.9164 3.56206 45.9452 2.51437 45.9452 2.51437Z" fill="#D5FAFC"/>
<path opacity="0.59" d="M46.0082 4.28333C46.0334 4.98215 46.4616 5.59445 47.0986 5.88362C52.9493 8.53653 57.1544 14.143 57.1544 14.143C57.1544 14.143 57.1604 13.2448 56.9906 12.0312C55.6811 10.5448 51.0982 5.687 46.0082 4.28333Z" fill="url(#paint11_linear_21_42)"/>
<path opacity="0.41" d="M22.4573 66.7336C22.0652 66.7336 21.7476 67.0512 21.7476 67.4434V68.014C21.7476 68.4062 22.0652 68.7238 22.4573 68.7238H47.3331C47.7252 68.7238 48.0428 68.4062 48.0428 68.014V67.4434C48.0428 67.0512 47.7252 66.7336 47.3331 66.7336H22.4573Z" fill="#E9ECF5"/>
<defs>
<linearGradient id="paint0_linear_21_42" x1="10.7064" y1="65.8718" x2="14.8354" y2="65.8718" gradientUnits="userSpaceOnUse">
<stop stop-color="#72B3DD"/>
<stop offset="0.9946" stop-color="#2E81BA"/>
</linearGradient>
<linearGradient id="paint1_linear_21_42" x1="17.8371" y1="99.8677" x2="7.05285" y2="89.0834" gradientUnits="userSpaceOnUse">
<stop stop-color="#72B3DD"/>
<stop offset="0.9946" stop-color="#2E81BA"/>
</linearGradient>
<linearGradient id="paint2_linear_21_42" x1="55.3888" y1="65.8735" x2="59.521" y2="65.8735" gradientUnits="userSpaceOnUse">
<stop stop-color="#72B3DD"/>
<stop offset="0.9946" stop-color="#2E81BA"/>
</linearGradient>
<linearGradient id="paint3_linear_21_42" x1="63.8944" y1="100.484" x2="51.663" y2="88.2524" gradientUnits="userSpaceOnUse">
<stop stop-color="#72B3DD"/>
<stop offset="0.9946" stop-color="#2E81BA"/>
</linearGradient>
<linearGradient id="paint4_linear_21_42" x1="16.2656" y1="35.1173" x2="51.9793" y2="55.7367" gradientUnits="userSpaceOnUse">
<stop offset="0.0054" stop-color="#ACCAF0"/>
<stop offset="1" stop-color="#323BB6"/>
</linearGradient>
<linearGradient id="paint5_linear_21_42" x1="40.0806" y1="44.787" x2="55.7334" y2="44.787" gradientUnits="userSpaceOnUse">
<stop stop-color="#72B3DD"/>
<stop offset="0.9946" stop-color="#2E81BA"/>
</linearGradient>
<linearGradient id="paint6_linear_21_42" x1="19.2011" y1="104.657" x2="51.9512" y2="123.565" gradientUnits="userSpaceOnUse">
<stop stop-color="#72B3DD"/>
<stop offset="0.9946" stop-color="#2E81BA"/>
</linearGradient>
<linearGradient id="paint7_linear_21_42" x1="40.268" y1="113.879" x2="56.0318" y2="113.879" gradientUnits="userSpaceOnUse">
<stop stop-color="#72B3DD"/>
<stop offset="0.9946" stop-color="#2E81BA"/>
</linearGradient>
<linearGradient id="paint8_linear_21_42" x1="55.4515" y1="65.8718" x2="59.5803" y2="65.8718" gradientUnits="userSpaceOnUse">
<stop stop-color="#72B3DD"/>
<stop offset="0.9946" stop-color="#2E81BA"/>
</linearGradient>
<linearGradient id="paint9_linear_21_42" x1="63.9017" y1="100.535" x2="51.7818" y2="88.4155" gradientUnits="userSpaceOnUse">
<stop stop-color="#72B3DD"/>
<stop offset="0.9946" stop-color="#2E81BA"/>
</linearGradient>
<linearGradient id="paint10_linear_21_42" x1="12.7379" y1="9.2131" x2="23.8843" y2="9.2131" gradientUnits="userSpaceOnUse">
<stop stop-color="#72B3DD"/>
<stop offset="0.9946" stop-color="#2E81BA"/>
</linearGradient>
<linearGradient id="paint11_linear_21_42" x1="46.0083" y1="9.2131" x2="57.1547" y2="9.2131" gradientUnits="userSpaceOnUse">
<stop stop-color="#72B3DD"/>
<stop offset="0.9946" stop-color="#2E81BA"/>
</linearGradient>
</defs>
</svg>
