<svg width="348" height="694" viewBox="0 0 348 694" fill="none" xmlns="http://www.w3.org/2000/svg">
<path d="M174.683 432C174.89 431.994 174.875 431.989 174.683 431.986V432Z" fill="#CACAE3"/>
<path d="M200.56 271.912C197.844 269.456 194.235 266.321 186.757 265.795C186.757 265.795 177.033 265.43 173.792 265.43C170.474 265.43 160.516 265.795 160.516 265.795C153.038 266.321 149.428 269.456 146.713 271.912C144.012 274.355 141.312 278.515 140.402 282.302L141.442 418.923C141.442 431.694 147.672 431.362 159.515 431.875C161.998 431.983 168.97 431.976 172.589 431.978V431.985C172.778 431.982 173.144 431.98 173.637 431.979C174.129 431.98 174.495 431.982 174.685 431.985V431.978C178.303 431.976 185.275 431.983 187.758 431.875C199.601 431.362 205.832 431.695 205.832 418.923L206.872 282.302C205.96 278.515 203.261 274.355 200.56 271.912Z" fill="#797F98"/>
<path d="M172.588 432V431.986C172.397 431.988 172.381 431.993 172.588 432Z" fill="#CACAE3"/>
<path d="M189.946 269.246C189.946 269.246 183.348 268.148 174.013 268.148C164.679 268.148 157.568 269.514 157.568 269.514L149.023 275.941C149.023 275.941 147.137 295.056 147.137 299.641C147.137 304.226 149.861 307.84 149.861 307.84H197.499C198.937 306.19 199.924 303.377 200.246 300.83C200.568 298.283 199.197 275.408 199.197 275.408L189.946 269.246Z" fill="#B1B6C9"/>
<path d="M140.346 315.873C138.367 315.93 135.972 316.326 134.931 317.288C133.889 318.25 133.681 320.061 134.514 320.457C135.347 320.853 142.22 319.664 142.324 319.268C142.428 318.872 142.428 318.702 142.428 318.702L143.678 318.815V316.891C143.158 316.891 142.324 316.721 142.324 316.721C142.324 316.721 142.324 315.816 140.346 315.873Z" fill="#B1B6C9"/>
<path d="M206.867 315.873C204.889 315.816 204.889 316.722 204.889 316.722C204.889 316.722 204.056 316.891 203.535 316.891V318.816L204.785 318.703C204.785 318.703 204.785 318.872 204.889 319.269C204.993 319.665 211.866 320.853 212.699 320.457C213.532 320.061 213.323 318.25 212.282 317.288C211.241 316.326 208.846 315.93 206.867 315.873Z" fill="#B1B6C9"/>
<path d="M174.683 432C174.89 431.994 174.875 431.989 174.683 431.986V432Z" fill="#787878"/>
<path d="M148.16 430.803C151.048 431.599 154.843 431.673 159.515 431.875C161.998 431.983 168.969 431.976 172.588 431.978V431.985C172.778 431.982 173.144 431.98 173.636 431.979C174.128 431.98 174.495 431.982 174.684 431.985V431.978C178.303 431.976 185.274 431.983 187.758 431.875C192.224 431.682 195.892 431.608 198.728 430.907L198.949 429.041H147.968L148.16 430.803Z" fill="#2F3556"/>
<path d="M172.588 432V431.986C172.397 431.988 172.381 431.993 172.588 432Z" fill="#787878"/>
<path d="M173.983 412.574H173.441V429.605H173.983V412.574Z" fill="#273043"/>
<path d="M170.594 419.437C167.987 419.394 162.206 419.44 158.729 419.476C156.93 419.493 155.211 420.264 153.939 421.621L150.979 424.779C150.116 425.7 150.728 427.275 151.948 427.275H170.57C171.327 427.275 171.94 426.621 171.94 425.813V420.899C171.94 420.1 171.342 419.449 170.594 419.437Z" fill="#273043"/>
<path d="M170.255 420.433C168.248 420.387 162.506 420.427 159.287 420.455C157.842 420.467 156.094 420.917 155.072 421.837L151.952 425.045C151.488 425.461 151.817 426.173 152.472 426.173H170.234C170.64 426.173 170.969 425.877 170.969 425.512V421.094C170.97 420.735 170.654 420.442 170.255 420.433Z" fill="url(#paint0_linear_21_134)"/>
<path d="M193.333 421.621C192.061 420.264 190.341 419.493 188.542 419.475C185.065 419.44 179.284 419.394 176.677 419.436C175.93 419.448 175.331 420.1 175.331 420.898V425.812C175.331 426.619 175.945 427.274 176.702 427.274H195.323C196.544 427.274 197.155 425.699 196.292 424.778L193.333 421.621Z" fill="#273043"/>
<path d="M192.199 421.837C191.178 420.918 189.43 420.467 187.984 420.455C184.767 420.427 179.024 420.387 177.017 420.433C176.618 420.442 176.302 420.735 176.302 421.094V425.512C176.302 425.877 176.631 426.173 177.037 426.173H194.799C195.454 426.173 195.783 425.461 195.319 425.045L192.199 421.837Z" fill="url(#paint1_linear_21_134)"/>
<path d="M156.792 413.328L145.154 427.919L145.578 428.257L157.216 413.667L156.792 413.328Z" fill="#273043"/>
<path d="M190.553 413.369L190.129 413.707L201.762 428.302L202.186 427.964L190.553 413.369Z" fill="#273043"/>
<path d="M174.683 432C174.89 431.994 174.875 431.989 174.683 431.986V432Z" fill="#D6D6F0"/>
<path d="M172.588 432V431.986C172.397 431.988 172.381 431.993 172.588 432Z" fill="#D6D6F0"/>
<path d="M172.611 432V431.986C172.419 431.988 172.403 431.993 172.611 432Z" fill="#D6D6F0"/>
<path d="M203.735 350.415H197.408V379.416H203.735V350.415Z" fill="#273043"/>
<path d="M202.69 351.613H198.453V378.025H202.69V351.613Z" fill="url(#paint2_linear_21_134)"/>
<path d="M203.735 381.54H197.408V410.541H203.735V381.54Z" fill="#273043"/>
<path d="M202.69 382.738H198.453V409.15H202.69V382.738Z" fill="url(#paint3_linear_21_134)"/>
<path d="M200.454 312.078L197.684 323.115C197.613 323.398 197.577 323.69 197.577 323.983V348.585H203.681V312.592C203.681 310.421 200.979 309.989 200.454 312.078Z" fill="#273043"/>
<path d="M201.194 312.641L198.524 323.748L198.372 347.258H202.738V312.891C202.738 311.852 201.448 311.644 201.194 312.641Z" fill="url(#paint4_linear_21_134)"/>
<path d="M150.094 350.415H143.767V379.416H150.094V350.415Z" fill="#273043"/>
<path d="M149.049 351.613H144.812V378.025H149.049V351.613Z" fill="url(#paint5_linear_21_134)"/>
<path d="M150.094 381.54H143.767V410.541H150.094V381.54Z" fill="#273043"/>
<path d="M149.049 382.738H144.812V409.15H149.049V382.738Z" fill="url(#paint6_linear_21_134)"/>
<path d="M147.048 312.078C146.523 309.989 143.821 310.42 143.821 312.593V348.586H149.925V323.984C149.925 323.69 149.889 323.398 149.818 323.116L147.048 312.078Z" fill="#273043"/>
<path d="M146.308 312.641C146.054 311.644 144.764 311.852 144.764 312.89V347.257H149.131L148.977 323.747L146.308 312.641Z" fill="url(#paint7_linear_21_134)"/>
<path d="M153.307 319.793V408.794C153.307 412.101 155.253 414.782 157.151 414.782H190.93C192.827 414.782 194.366 412.101 194.366 408.794V319.184C194.366 319.184 186.503 314.313 175.496 314.313C164.489 314.313 153.307 319.793 153.307 319.793Z" fill="#B1B6C9"/>
<path d="M191.426 296.167C185.641 294.888 178.419 294.568 174.072 294.568C169.725 294.568 162.502 294.888 156.718 296.167C150.933 297.445 147.68 299.364 147.318 301.601C146.956 303.839 150.21 316.946 150.933 319.823C151.656 322.7 154.187 320.462 159.249 319.503C164.31 318.544 174.072 318.544 174.072 318.544C174.072 318.544 183.833 318.544 188.895 319.503C193.957 320.462 196.487 322.7 197.21 319.823C197.933 316.946 201.187 303.839 200.826 301.601C200.464 299.364 197.211 297.445 191.426 296.167Z" fill="#273043"/>
<path d="M190.716 297.366C185.136 296.25 178.171 295.98 173.98 295.987C169.789 295.994 162.825 296.287 157.249 297.42C151.674 298.554 148.539 300.247 148.194 302.215C147.849 304.184 151.009 315.707 151.71 318.237C152.413 320.767 155.59 319.152 160.469 318.3C165.348 317.449 174.02 317.075 174.02 317.075C174.02 317.075 183.003 317.294 187.886 318.13C192.768 318.965 195.641 320.696 196.334 318.164C197.026 315.632 200.142 304.098 199.789 302.13C199.437 300.163 196.296 298.481 190.716 297.366Z" fill="url(#paint8_linear_21_134)"/>
<path d="M190.716 297.325C187.531 296.686 183.897 296.325 180.584 296.133C181.049 297.81 183.863 308.435 183.191 317.375C185.054 317.495 187.601 317.903 189.035 318.149C193.917 318.987 195.641 320.722 196.333 318.183C197.025 315.644 200.141 304.077 199.789 302.103C199.437 300.13 196.296 298.443 190.716 297.325Z" fill="url(#paint9_linear_21_134)"/>
<path opacity="0.44" d="M150.84 301.064C149.14 303.443 153.219 315.681 153.219 315.681C153.219 315.681 151.859 305.483 151.859 304.123C151.859 302.763 151.52 301.743 161.038 299.704C170.557 297.664 188.915 300.043 188.915 300.043C188.915 300.043 186.535 298.684 178.036 297.664C169.537 296.644 152.539 298.684 150.84 301.064Z" fill="#C7CCEA"/>
<path d="M159.433 334.375C158.884 334.375 158.44 334.819 158.44 335.368V404.9C158.44 405.449 158.885 405.893 159.433 405.893C159.981 405.893 160.427 405.449 160.427 404.9V335.368C160.426 334.819 159.982 334.375 159.433 334.375Z" fill="#797F98"/>
<path d="M188.239 334.375C187.69 334.375 187.246 334.819 187.246 335.368V404.9C187.246 405.449 187.691 405.893 188.239 405.893C188.788 405.893 189.232 405.449 189.232 404.9V335.368C189.232 334.819 188.788 334.375 188.239 334.375Z" fill="#797F98"/>
<path d="M145.972 427.926C144.175 427.134 142.922 427.111 143.173 427.874C143.423 428.638 145.082 429.899 146.878 430.691C148.674 431.483 149.928 431.506 149.677 430.743C149.427 429.98 147.768 428.719 145.972 427.926Z" fill="#D80505"/>
<path d="M147.964 429.031C147.374 428.629 146.684 428.241 145.972 427.926C144.175 427.134 142.922 427.111 143.173 427.874C143.174 427.877 143.176 427.881 143.177 427.884C143.767 428.286 144.456 428.674 145.169 428.988C146.965 429.78 148.218 429.803 147.968 429.04C147.966 429.037 147.965 429.034 147.964 429.031Z" fill="#F52206"/>
<path d="M200.94 427.926C199.144 428.719 197.485 429.979 197.234 430.743C196.984 431.506 198.237 431.483 200.033 430.691C201.83 429.899 203.488 428.638 203.739 427.874C203.99 427.111 202.737 427.134 200.94 427.926Z" fill="#D80505"/>
<path d="M200.94 427.926C200.227 428.241 199.538 428.629 198.948 429.031C198.947 429.034 198.945 429.037 198.944 429.041C198.694 429.804 199.947 429.781 201.743 428.989C202.456 428.675 203.145 428.286 203.735 427.885C203.736 427.882 203.738 427.878 203.739 427.875C203.99 427.111 202.737 427.134 200.94 427.926Z" fill="#F52206"/>
<path d="M173.692 262.23C173.674 262.23 173.654 262.229 173.636 262.23C173.619 262.23 173.598 262.229 173.581 262.229C169.163 262.241 155.688 262.964 154.155 264.4C152.61 265.847 151.064 270.396 151.064 270.396C151.064 270.396 154.265 270.396 156.473 267.812C158.57 265.356 172.222 265.607 173.581 265.638V265.641C173.581 265.641 173.601 265.64 173.636 265.639C173.671 265.64 173.692 265.641 173.692 265.641V265.638C175.05 265.607 188.702 265.356 190.799 267.812C193.007 270.396 196.207 270.396 196.207 270.396C196.207 270.396 194.662 265.847 193.117 264.4C191.584 262.964 178.109 262.241 173.692 262.23Z" fill="#273043"/>
<path d="M157.448 269.254L156.29 270.248L156.455 283.658L161.256 295.578L157.78 282.996L157.448 269.254Z" fill="#C8CBD6"/>
<path d="M189.493 282.996L186.016 295.578L190.817 283.658L190.983 270.248L189.824 269.254L189.493 282.996Z" fill="#C8CBD6"/>
<path d="M147.178 272.875C144.714 275.598 145.221 281.085 145.221 281.085C145.221 281.085 149.782 274.407 156.365 271.07C157.082 270.707 157.545 269.979 157.541 269.17L157.532 267.121C157.532 267.121 151.019 268.63 147.178 272.875Z" fill="#88C4FF"/>
<path d="M145.311 278.635C145.173 280.046 145.221 281.085 145.221 281.085C145.221 281.085 149.782 274.407 156.365 271.07C157.082 270.707 157.545 269.979 157.541 269.17C151.772 271.027 146.743 276.855 145.311 278.635Z" fill="#D5FAFC"/>
<path d="M189.74 267.121L189.731 269.17C189.728 269.979 190.19 270.707 190.907 271.07C197.49 274.407 202.051 281.085 202.051 281.085C202.051 281.085 202.558 275.598 200.094 272.875C196.253 268.63 189.74 267.121 189.74 267.121Z" fill="#88C4FF"/>
<path d="M189.731 269.17C189.727 269.979 190.19 270.707 190.907 271.07C197.49 274.407 202.051 281.085 202.051 281.085C202.051 281.085 202.1 280.046 201.961 278.635C200.528 276.855 195.5 271.027 189.731 269.17Z" fill="#D5FAFC"/>
<defs>
<linearGradient id="paint0_linear_21_134" x1="161.352" y1="420.412" x2="161.352" y2="426.174" gradientUnits="userSpaceOnUse">
<stop stop-color="#414751"/>
<stop offset="0.9838" stop-color="#292B2E"/>
</linearGradient>
<linearGradient id="paint1_linear_21_134" x1="185.92" y1="426.174" x2="185.92" y2="420.412" gradientUnits="userSpaceOnUse">
<stop stop-color="#414751"/>
<stop offset="0.9838" stop-color="#292B2E"/>
</linearGradient>
<linearGradient id="paint2_linear_21_134" x1="206.82" y1="375.64" x2="194.324" y2="353.997" gradientUnits="userSpaceOnUse">
<stop stop-color="#414751"/>
<stop offset="0.9838" stop-color="#292B2E"/>
</linearGradient>
<linearGradient id="paint3_linear_21_134" x1="200.572" y1="409.15" x2="200.572" y2="382.738" gradientUnits="userSpaceOnUse">
<stop stop-color="#414751"/>
<stop offset="0.9838" stop-color="#292B2E"/>
</linearGradient>
<linearGradient id="paint4_linear_21_134" x1="208.603" y1="343.872" x2="193.085" y2="316.995" gradientUnits="userSpaceOnUse">
<stop stop-color="#414751"/>
<stop offset="0.9838" stop-color="#292B2E"/>
</linearGradient>
<linearGradient id="paint5_linear_21_134" x1="153.178" y1="375.64" x2="140.682" y2="353.997" gradientUnits="userSpaceOnUse">
<stop stop-color="#414751"/>
<stop offset="0.9838" stop-color="#292B2E"/>
</linearGradient>
<linearGradient id="paint6_linear_21_134" x1="146.93" y1="409.15" x2="146.93" y2="382.738" gradientUnits="userSpaceOnUse">
<stop stop-color="#414751"/>
<stop offset="0.9838" stop-color="#292B2E"/>
</linearGradient>
<linearGradient id="paint7_linear_21_134" x1="153.947" y1="344.477" x2="137.734" y2="316.395" gradientUnits="userSpaceOnUse">
<stop stop-color="#414751"/>
<stop offset="0.9838" stop-color="#292B2E"/>
</linearGradient>
<linearGradient id="paint8_linear_21_134" x1="151.636" y1="295.976" x2="194.84" y2="320.919" gradientUnits="userSpaceOnUse">
<stop stop-color="#414751"/>
<stop offset="0.9838" stop-color="#292B2E"/>
</linearGradient>
<linearGradient id="paint9_linear_21_134" x1="180.584" y1="307.821" x2="199.817" y2="307.821" gradientUnits="userSpaceOnUse">
<stop stop-color="#414751"/>
<stop offset="0.9838" stop-color="#292B2E"/>
</linearGradient>
</defs>
</svg>
