<svg width="348" height="694" viewBox="0 0 348 694" fill="none" xmlns="http://www.w3.org/2000/svg">
<rect width="348" height="694" fill="white"/>
<path d="M175.508 494.229C175.867 494.218 175.84 494.21 175.508 494.204V494.229Z" fill="#CACAE3"/>
<path d="M220.355 216.782C215.648 212.525 209.392 207.092 196.432 206.18C196.432 206.18 179.581 205.547 173.964 205.547C168.212 205.547 150.955 206.18 150.955 206.18C137.995 207.092 131.739 212.525 127.032 216.782C122.352 221.015 117.673 228.225 116.095 234.788L117.897 471.566C117.897 493.699 128.695 493.124 149.22 494.013C153.524 494.199 165.606 494.188 171.878 494.191V494.203C172.206 494.198 172.841 494.195 173.694 494.193C174.547 494.195 175.182 494.198 175.51 494.203V494.191C181.782 494.187 193.864 494.199 198.168 494.013C218.692 493.124 229.491 493.7 229.491 471.566L231.293 234.788C229.714 228.226 225.035 221.015 220.355 216.782Z" fill="#797F98"/>
<path d="M171.877 494.229V494.204C171.545 494.209 171.518 494.217 171.877 494.229Z" fill="#CACAE3"/>
<path d="M201.961 212.161C201.961 212.161 190.525 210.258 174.348 210.258C158.171 210.258 145.847 212.625 145.847 212.625L131.036 223.764C131.036 223.764 127.768 256.893 127.768 264.839C127.768 272.785 132.49 279.048 132.49 279.048H215.051C217.542 276.189 219.254 271.313 219.812 266.899C220.37 262.485 217.993 222.841 217.993 222.841L201.961 212.161Z" fill="#B1B6C9"/>
<path d="M115.998 292.97C112.569 293.068 108.418 293.755 106.613 295.422C104.808 297.089 104.447 300.228 105.891 300.914C107.335 301.601 119.246 299.541 119.426 298.854C119.607 298.168 119.607 297.873 119.607 297.873L121.773 298.069V294.734C120.871 294.734 119.427 294.44 119.427 294.44C119.427 294.44 119.427 292.872 115.998 292.97Z" fill="#B1B6C9"/>
<path d="M231.286 292.97C227.857 292.872 227.857 294.441 227.857 294.441C227.857 294.441 226.413 294.735 225.511 294.735V298.07L227.677 297.874C227.677 297.874 227.677 298.168 227.857 298.855C228.038 299.542 239.949 301.601 241.392 300.915C242.836 300.229 242.475 297.09 240.67 295.423C238.866 293.755 234.715 293.068 231.286 292.97Z" fill="#B1B6C9"/>
<path d="M175.508 494.229C175.867 494.218 175.84 494.21 175.508 494.204V494.229Z" fill="#787878"/>
<path d="M129.541 492.155C134.545 493.534 141.122 493.663 149.219 494.013C153.523 494.199 165.605 494.188 171.877 494.191V494.203C172.205 494.198 172.84 494.195 173.693 494.193C174.546 494.195 175.181 494.198 175.509 494.203V494.191C181.781 494.187 193.863 494.199 198.167 494.013C205.908 493.678 212.264 493.549 217.18 492.334L217.562 489.1H129.208L129.541 492.155Z" fill="#2F3556"/>
<path d="M171.877 494.229V494.204C171.545 494.209 171.518 494.217 171.877 494.229Z" fill="#787878"/>
<path d="M174.296 460.562H173.355V490.078H174.296V460.562Z" fill="#273043"/>
<path d="M168.421 472.456C163.903 472.382 153.884 472.462 147.858 472.523C144.74 472.554 141.761 473.89 139.556 476.242L134.427 481.715C132.931 483.311 133.991 486.04 136.106 486.04H168.379C169.691 486.04 170.754 484.906 170.754 483.506V474.99C170.754 473.606 169.718 472.477 168.421 472.456Z" fill="#273043"/>
<path d="M167.833 474.182C164.355 474.103 154.403 474.172 148.825 474.22C146.32 474.241 143.291 475.021 141.52 476.615L136.112 482.175C135.309 482.897 135.878 484.131 137.013 484.131H167.797C168.501 484.131 169.071 483.618 169.071 482.985V475.328C169.072 474.706 168.524 474.198 167.833 474.182Z" fill="url(#paint0_linear_8_84)"/>
<path d="M207.829 476.241C205.625 473.889 202.645 472.554 199.527 472.522C193.501 472.462 183.482 472.381 178.964 472.455C177.668 472.476 176.631 473.605 176.631 474.988V483.504C176.631 484.903 177.694 486.038 179.006 486.038H211.279C213.395 486.038 214.454 483.309 212.958 481.713L207.829 476.241Z" fill="#273043"/>
<path d="M205.865 476.615C204.094 475.022 201.065 474.242 198.56 474.22C192.983 474.172 183.031 474.103 179.552 474.182C178.861 474.198 178.312 474.706 178.312 475.328V482.985C178.312 483.618 178.883 484.131 179.587 484.131H210.37C211.505 484.131 212.074 482.897 211.271 482.175L205.865 476.615Z" fill="url(#paint1_linear_8_84)"/>
<path d="M144.5 461.869L124.33 487.156L125.065 487.743L145.235 462.455L144.5 461.869Z" fill="#273043"/>
<path d="M203.011 461.941L202.276 462.526L222.437 487.82L223.172 487.234L203.011 461.941Z" fill="#273043"/>
<path d="M175.508 494.229C175.867 494.218 175.84 494.21 175.508 494.204V494.229Z" fill="#D6D6F0"/>
<path d="M171.877 494.229V494.204C171.545 494.209 171.518 494.217 171.877 494.229Z" fill="#D6D6F0"/>
<path d="M171.916 494.229V494.204C171.583 494.209 171.556 494.217 171.916 494.229Z" fill="#D6D6F0"/>
<path d="M225.858 352.835H214.893V403.096H225.858V352.835Z" fill="#273043"/>
<path d="M224.046 354.911H216.703V400.685H224.046V354.911Z" fill="url(#paint2_linear_8_84)"/>
<path d="M225.858 406.778H214.893V457.039H225.858V406.778Z" fill="#273043"/>
<path d="M224.046 408.854H216.703V454.628H224.046V408.854Z" fill="url(#paint3_linear_8_84)"/>
<path d="M220.172 286.393L215.37 305.522C215.247 306.011 215.186 306.518 215.186 307.026V349.663H225.764V287.284C225.765 283.521 221.081 282.773 220.172 286.393Z" fill="#273043"/>
<path d="M221.454 287.369L216.828 306.618L216.562 347.363H224.13V287.802C224.13 286.002 221.893 285.641 221.454 287.369Z" fill="url(#paint4_linear_8_84)"/>
<path d="M132.892 352.835H121.927V403.096H132.892V352.835Z" fill="#273043"/>
<path d="M131.081 354.911H123.738V400.685H131.081V354.911Z" fill="url(#paint5_linear_8_84)"/>
<path d="M132.892 406.778H121.927V457.039H132.892V406.778Z" fill="#273043"/>
<path d="M131.081 408.854H123.738V454.628H131.081V408.854Z" fill="url(#paint6_linear_8_84)"/>
<path d="M127.614 286.393C126.705 282.773 122.021 283.52 122.021 287.285V349.664H132.599V307.027C132.599 306.518 132.538 306.012 132.415 305.523L127.614 286.393Z" fill="#273043"/>
<path d="M126.33 287.369C125.891 285.641 123.655 286.002 123.655 287.801V347.362H131.223L130.957 306.617L126.33 287.369Z" fill="url(#paint7_linear_8_84)"/>
<path d="M138.46 299.764V454.011C138.46 459.742 141.833 464.388 145.122 464.388H203.664C206.953 464.388 209.619 459.742 209.619 454.011V298.709C209.619 298.709 195.993 290.267 176.916 290.267C157.84 290.267 138.46 299.764 138.46 299.764Z" fill="#B1B6C9"/>
<path d="M204.524 258.817C194.499 256.601 181.982 256.047 174.448 256.047C166.914 256.047 154.397 256.601 144.372 258.817C134.347 261.033 128.708 264.358 128.081 268.236C127.454 272.114 133.094 294.83 134.347 299.816C135.6 304.802 139.986 300.924 148.758 299.262C157.53 297.6 174.448 297.6 174.448 297.6C174.448 297.6 191.365 297.6 200.138 299.262C208.911 300.924 213.296 304.802 214.549 299.816C215.802 294.83 221.441 272.114 220.815 268.236C220.189 264.358 214.55 261.033 204.524 258.817Z" fill="#273043"/>
<path d="M203.294 260.895C193.623 258.962 181.553 258.494 174.289 258.506C167.025 258.518 154.956 259.025 145.293 260.99C135.63 262.955 130.198 265.888 129.6 269.3C129.002 272.712 134.478 292.683 135.694 297.067C136.911 301.451 142.417 298.653 150.873 297.177C159.329 295.701 174.358 295.054 174.358 295.054C174.358 295.054 189.927 295.433 198.389 296.881C206.85 298.329 211.83 301.328 213.03 296.94C214.23 292.552 219.63 272.563 219.019 269.153C218.408 265.743 212.964 262.828 203.294 260.895Z" fill="url(#paint8_linear_8_84)"/>
<path d="M203.294 260.824C197.775 259.717 191.477 259.091 185.734 258.758C186.54 261.666 191.418 280.08 190.253 295.573C193.482 295.782 197.895 296.488 200.381 296.914C208.842 298.366 211.829 301.374 213.029 296.973C214.229 292.573 219.629 272.526 219.018 269.106C218.408 265.686 212.965 262.763 203.294 260.824Z" fill="url(#paint9_linear_8_84)"/>
<path opacity="0.44" d="M134.185 267.304C131.239 271.428 138.309 292.638 138.309 292.638C138.309 292.638 135.952 274.963 135.952 272.606C135.952 270.249 135.363 268.482 151.86 264.947C168.357 261.412 200.172 265.536 200.172 265.536C200.172 265.536 196.048 263.18 181.319 261.412C166.589 259.645 137.13 263.18 134.185 267.304Z" fill="#C7CCEA"/>
<path d="M149.078 325.035C148.127 325.035 147.357 325.806 147.357 326.757V447.262C147.357 448.213 148.128 448.984 149.078 448.984C150.028 448.984 150.8 448.213 150.8 447.262V326.757C150.799 325.806 150.029 325.035 149.078 325.035Z" fill="#797F98"/>
<path d="M199.001 325.035C198.05 325.035 197.28 325.806 197.28 326.757V447.262C197.28 448.213 198.051 448.984 199.001 448.984C199.952 448.984 200.722 448.213 200.722 447.262V326.757C200.723 325.806 199.952 325.035 199.001 325.035Z" fill="#797F98"/>
<path d="M125.748 487.169C122.635 485.796 120.463 485.756 120.897 487.079C121.331 488.402 124.206 490.588 127.319 491.96C130.432 493.333 132.604 493.373 132.17 492.05C131.736 490.728 128.861 488.542 125.748 487.169Z" fill="#D80505"/>
<path d="M129.2 489.083C128.178 488.387 126.983 487.714 125.748 487.169C122.635 485.796 120.463 485.756 120.897 487.079C120.899 487.084 120.902 487.09 120.904 487.096C121.927 487.792 123.121 488.465 124.356 489.009C127.469 490.382 129.641 490.422 129.208 489.099C129.205 489.094 129.202 489.088 129.2 489.083Z" fill="#F52206"/>
<path d="M221.013 487.169C217.9 488.542 215.025 490.727 214.591 492.05C214.157 493.373 216.329 493.333 219.442 491.96C222.555 490.587 225.43 488.402 225.864 487.079C226.299 485.756 224.127 485.796 221.013 487.169Z" fill="#D80505"/>
<path d="M221.013 487.169C219.778 487.714 218.584 488.387 217.561 489.083C217.559 489.088 217.556 489.094 217.554 489.1C217.12 490.423 219.292 490.383 222.405 489.01C223.64 488.466 224.835 487.793 225.857 487.097C225.859 487.092 225.862 487.086 225.864 487.08C226.299 485.756 224.127 485.796 221.013 487.169Z" fill="#F52206"/>
<path d="M173.789 200.001C173.759 200.001 173.724 200 173.693 200.001C173.663 200.001 173.627 200 173.597 200C165.941 200.02 142.587 201.274 139.93 203.763C137.252 206.271 134.574 214.155 134.574 214.155C134.574 214.155 140.121 214.155 143.947 209.676C147.582 205.42 171.243 205.854 173.597 205.908V205.913C173.597 205.913 173.632 205.912 173.693 205.91C173.754 205.912 173.789 205.913 173.789 205.913V205.908C176.143 205.854 199.804 205.42 203.438 209.676C207.264 214.155 212.811 214.155 212.811 214.155C212.811 214.155 210.133 206.271 207.455 203.763C204.798 201.274 181.445 200.021 173.789 200.001Z" fill="#273043"/>
<path d="M145.638 212.175L143.63 213.897L143.916 237.139L152.237 257.797L146.212 235.991L145.638 212.175Z" fill="#C8CBD6"/>
<path d="M201.173 235.991L195.147 257.797L203.468 237.139L203.755 213.897L201.747 212.175L201.173 235.991Z" fill="#C8CBD6"/>
<path d="M127.838 218.451C123.568 223.169 124.447 232.679 124.447 232.679C124.447 232.679 132.351 221.106 143.761 215.323C145.003 214.694 145.806 213.432 145.799 212.029L145.783 208.478C145.783 208.478 134.496 211.094 127.838 218.451Z" fill="#88C4FF"/>
<path d="M124.603 228.433C124.363 230.879 124.447 232.679 124.447 232.679C124.447 232.679 132.351 221.106 143.761 215.323C145.003 214.694 145.806 213.432 145.799 212.029C135.8 215.247 127.085 225.349 124.603 228.433Z" fill="#D5FAFC"/>
<path d="M201.603 208.478L201.587 212.029C201.581 213.432 202.383 214.694 203.625 215.323C215.035 221.106 222.939 232.679 222.939 232.679C222.939 232.679 223.818 223.169 219.548 218.451C212.89 211.094 201.603 208.478 201.603 208.478Z" fill="#88C4FF"/>
<path d="M201.587 212.029C201.58 213.432 202.383 214.694 203.625 215.323C215.035 221.106 222.939 232.679 222.939 232.679C222.939 232.679 223.023 230.879 222.783 228.433C220.3 225.349 211.586 215.247 201.587 212.029Z" fill="#D5FAFC"/>
<defs>
<linearGradient id="paint0_linear_8_84" x1="152.404" y1="474.147" x2="152.404" y2="484.132" gradientUnits="userSpaceOnUse">
<stop stop-color="#414751"/>
<stop offset="0.9838" stop-color="#292B2E"/>
</linearGradient>
<linearGradient id="paint1_linear_8_84" x1="194.981" y1="484.132" x2="194.981" y2="474.147" gradientUnits="userSpaceOnUse">
<stop stop-color="#414751"/>
<stop offset="0.9838" stop-color="#292B2E"/>
</linearGradient>
<linearGradient id="paint2_linear_8_84" x1="231.203" y1="396.553" x2="209.547" y2="359.043" gradientUnits="userSpaceOnUse">
<stop stop-color="#414751"/>
<stop offset="0.9838" stop-color="#292B2E"/>
</linearGradient>
<linearGradient id="paint3_linear_8_84" x1="220.375" y1="454.627" x2="220.375" y2="408.854" gradientUnits="userSpaceOnUse">
<stop stop-color="#414751"/>
<stop offset="0.9838" stop-color="#292B2E"/>
</linearGradient>
<linearGradient id="paint4_linear_8_84" x1="234.294" y1="341.495" x2="207.401" y2="294.914" gradientUnits="userSpaceOnUse">
<stop stop-color="#414751"/>
<stop offset="0.9838" stop-color="#292B2E"/>
</linearGradient>
<linearGradient id="paint5_linear_8_84" x1="138.238" y1="396.553" x2="116.582" y2="359.043" gradientUnits="userSpaceOnUse">
<stop stop-color="#414751"/>
<stop offset="0.9838" stop-color="#292B2E"/>
</linearGradient>
<linearGradient id="paint6_linear_8_84" x1="127.41" y1="454.627" x2="127.41" y2="408.854" gradientUnits="userSpaceOnUse">
<stop stop-color="#414751"/>
<stop offset="0.9838" stop-color="#292B2E"/>
</linearGradient>
<linearGradient id="paint7_linear_8_84" x1="139.57" y1="342.543" x2="111.471" y2="293.874" gradientUnits="userSpaceOnUse">
<stop stop-color="#414751"/>
<stop offset="0.9838" stop-color="#292B2E"/>
</linearGradient>
<linearGradient id="paint8_linear_8_84" x1="135.566" y1="258.486" x2="210.442" y2="301.716" gradientUnits="userSpaceOnUse">
<stop stop-color="#414751"/>
<stop offset="0.9838" stop-color="#292B2E"/>
</linearGradient>
<linearGradient id="paint9_linear_8_84" x1="185.734" y1="279.015" x2="219.067" y2="279.015" gradientUnits="userSpaceOnUse">
<stop stop-color="#414751"/>
<stop offset="0.9838" stop-color="#292B2E"/>
</linearGradient>
</defs>
</svg>
