<svg width="360" height="720" viewBox="0 0 360 720" fill="none" xmlns="http://www.w3.org/2000/svg">
<path d="M130.442 275.816L132.738 452.566C132.738 470.314 143.105 477.576 160.283 478.39C169.884 478.845 189.137 478.963 198.732 478.39C216.298 477.342 227.425 470.314 227.425 452.566L229.72 275.816C229.72 275.816 232.224 241 179.62 241C127.016 241 130.442 275.816 130.442 275.816Z" fill="#192141"/>
<path d="M142.893 254.008C139.2 258.504 139.259 266.824 139.259 266.824C139.259 266.824 146.937 256.587 157.62 251.743C158.783 251.216 159.566 250.097 159.611 248.821L159.726 245.591C159.726 245.591 147.292 248.651 142.893 254.008Z" fill="#D5FAFC"/>
<path d="M205.761 306.043C197.048 304.168 186.173 303.714 179.628 303.726C173.083 303.738 162.21 304.229 153.504 306.136C144.798 308.042 139.904 310.887 139.365 314.197C138.826 317.507 143.76 336.879 144.856 341.131C145.952 345.383 149.757 342.068 157.375 340.636C164.993 339.204 179.691 339.179 179.691 339.179C179.691 339.179 194.388 339.153 202.012 340.558C209.635 341.963 213.451 345.265 214.533 341.009C215.614 336.753 220.479 317.364 219.929 314.056C219.378 310.746 214.474 307.918 205.761 306.043Z" fill="#3E687E"/>
<path d="M141.599 257.107L138.73 310.476C138.73 310.476 149.633 301.294 179.507 300.779C209.381 300.264 220.209 312.744 220.209 312.744L217.349 257.68C217.349 257.68 201.281 247.35 178.326 247.35C155.371 247.35 141.599 257.107 141.599 257.107Z" fill="#2F3557"/>
<path d="M155.213 251.81L161.717 275.912L162.865 295.423L163.248 274.764L157.509 250.279L155.213 251.81Z" fill="#192141"/>
<path d="M130.866 308.503L132.737 452.565C132.737 453.233 132.757 453.881 132.786 454.52L138.974 455.184L148.058 437.872L148.485 345.894L138.973 312.743L130.866 308.503Z" fill="#B2B8D2"/>
<path d="M211.465 437.874L220.593 455.186L227.375 454.461C227.405 453.842 227.424 453.213 227.424 452.566L229.299 308.213L220.593 312.745L211.036 345.896L211.465 437.874Z" fill="#B2B8D2"/>
<path d="M147.592 345.895V435.536C147.592 438.867 150.709 441.567 153.749 441.567H207.86C210.9 441.567 213.364 438.867 213.364 435.536V345.282C213.364 345.282 200.769 340.376 183.136 340.376C165.505 340.376 147.592 345.895 147.592 345.895Z" fill="#DEE4F2"/>
<path d="M143.821 358.306C143.821 358.306 140.08 337.821 138.106 332.519C137.273 330.282 134.146 331.917 134.097 333.248C133.542 348.25 134.918 384.837 135.113 389.871C135.126 390.195 135.394 390.446 135.718 390.443L144.258 390.355C144.589 390.352 144.855 390.081 144.851 389.75L144.583 363.589C144.563 361.808 144.308 360.035 143.821 358.306Z" fill="#273043"/>
<path opacity="0.59" d="M137.381 335.301C137.129 334.113 135.636 334.291 135.605 335.514C135.263 349.249 136.572 382.685 136.765 387.485C136.778 387.809 137.046 388.06 137.37 388.057L142.494 388.005C142.825 388.001 143.091 387.73 143.087 387.399L142.841 363.414C142.824 361.778 142.646 360.148 142.309 358.559L137.381 335.301Z" fill="url(#paint0_linear_21_41)"/>
<path d="M143.953 393.502L135.893 393.585C135.52 393.589 135.217 393.883 135.207 394.256C135.085 398.705 134.429 424.335 135.211 434.951C135.282 435.912 138.341 437.04 139.109 435.408C140.93 431.542 144.2 416.672 144.2 416.672C144.642 415.414 144.859 414.128 144.845 412.841L144.654 394.19C144.65 393.806 144.337 393.498 143.953 393.502Z" fill="#273043"/>
<path opacity="0.59" d="M142.287 395.233L137.536 395.282C137.164 395.286 136.86 395.582 136.849 395.954C136.724 400.194 136.076 423.576 136.634 433.287C136.685 434.17 138.135 434.273 138.359 433.41L142.731 416.516C143.03 415.361 143.175 414.181 143.163 412.998L142.988 395.919C142.984 395.536 142.67 395.229 142.287 395.233Z" fill="url(#paint1_linear_21_41)"/>
<path opacity="0.59" d="M222.848 335.301L217.92 358.558C217.583 360.148 217.404 361.777 217.388 363.413L217.136 387.998L223.441 388.063C223.441 388.063 224.993 350.329 224.624 335.514C224.593 334.291 223.099 334.112 222.848 335.301Z" fill="url(#paint2_linear_21_41)"/>
<path opacity="0.59" d="M217.066 412.998C217.054 414.181 217.199 415.361 217.498 416.516L221.871 433.41C222.094 434.273 223.545 434.17 223.596 433.287C224.21 422.587 223.361 395.288 223.361 395.288L217.25 395.225L217.066 412.998Z" fill="url(#paint3_linear_21_41)"/>
<path d="M205.908 303.499C197.108 301.323 186.12 300.78 179.507 300.78C172.894 300.78 161.906 301.324 153.106 303.499C144.306 305.675 139.355 308.938 138.805 312.745C138.255 316.552 143.205 338.851 144.305 343.746C145.405 348.641 149.255 344.834 156.956 343.202C164.656 341.57 179.507 341.57 179.507 341.57C179.507 341.57 194.358 341.57 202.058 343.202C209.758 344.834 213.609 348.641 214.709 343.746C215.809 338.851 220.759 316.552 220.209 312.745C219.659 308.937 214.708 305.674 205.908 303.499Z" fill="#273043"/>
<path opacity="0.59" d="M204.24 305.838C195.948 304.031 185.598 303.594 179.37 303.605C173.141 303.616 162.793 304.09 154.507 305.927C146.221 307.764 141.564 310.506 141.051 313.695C140.538 316.885 145.233 335.555 146.277 339.653C147.321 343.751 152.042 341.136 159.292 339.756C166.542 338.376 179.429 337.772 179.429 337.772C179.429 337.772 192.779 338.126 200.034 339.48C207.289 340.834 211.559 343.637 212.588 339.535C213.617 335.433 218.247 316.747 217.723 313.559C217.2 310.37 212.532 307.645 204.24 305.838Z" fill="url(#paint4_linear_21_41)"/>
<path opacity="0.59" d="M201.743 339.509C208.998 340.867 211.559 343.678 212.587 339.564C213.616 335.45 218.246 316.71 217.722 313.513C217.198 310.316 212.531 307.583 204.239 305.77C199.507 304.735 194.107 304.15 189.182 303.839C189.873 306.558 194.055 323.771 193.057 338.254C195.827 338.451 199.612 339.11 201.743 339.509Z" fill="url(#paint5_linear_21_41)"/>
<path d="M179.432 474.277C179.458 474.277 179.484 474.277 179.51 474.277C199.779 474.268 209.875 472.491 209.875 472.491L218.041 460.975L220.06 455.185C220.06 455.185 215.91 456.678 208.519 458.208C201.378 459.687 180.815 460.272 179.433 460.31C178.051 460.272 157.488 459.687 150.347 458.208C142.956 456.678 138.806 455.185 138.806 455.185L140.825 460.975L148.991 472.491C148.991 472.491 159.086 474.267 179.356 474.277C179.381 474.277 179.406 474.277 179.432 474.277Z" fill="#2F3556"/>
<path d="M202.058 438.237C192.897 439.271 179.507 439.145 179.507 439.145C179.507 439.145 164.656 439.145 156.956 438.237C149.256 437.329 145.649 436.784 144.31 439.653C143.068 442.315 138.255 453.066 138.805 455.184C139.355 457.303 144.305 459.118 153.106 460.329C161.906 461.54 172.894 461.842 179.507 461.842C186.12 461.842 197.108 461.54 205.908 460.329C214.708 459.119 219.659 457.303 220.209 455.184C220.759 453.066 215.995 441.803 214.896 439.079C213.795 436.356 209.763 437.368 202.058 438.237Z" fill="#273043"/>
<path opacity="0.59" d="M200.453 440.409C193.146 441.105 179.702 441.287 179.702 441.287C179.702 441.287 166.724 440.976 159.422 440.267C152.12 439.558 147.365 438.213 146.315 440.32C145.265 442.427 140.536 452.024 141.052 453.663C141.568 455.303 146.259 456.712 154.603 457.656C162.948 458.6 173.369 458.844 179.642 458.85C185.915 458.856 196.338 458.631 204.689 457.702C213.04 456.773 217.74 455.372 218.267 453.733C218.794 452.094 214.132 442.488 213.095 440.38C212.06 438.272 207.76 439.713 200.453 440.409Z" fill="url(#paint6_linear_21_41)"/>
<path opacity="0.59" d="M204.689 457.697C213.04 456.763 217.74 455.355 218.268 453.708C218.795 452.061 214.132 442.405 213.096 440.285C212.06 438.165 209.481 439.614 202.174 440.314C200.027 440.519 196.216 440.859 193.428 440.96C194.434 448.422 190.222 457.292 189.526 458.693C194.485 458.531 199.923 458.23 204.689 457.697Z" fill="url(#paint7_linear_21_41)"/>
<path d="M140.812 460.974C139.261 462.084 139.847 465.559 142.121 468.735C144.395 471.911 147.495 473.586 149.046 472.475C150.597 471.365 150.011 467.89 147.737 464.714C145.464 461.538 142.363 459.863 140.812 460.974Z" fill="#D80505"/>
<path d="M140.812 460.974C140.805 460.979 140.801 460.985 140.795 460.99C141.138 462.178 141.769 463.483 142.671 464.743C144.945 467.919 148.045 469.594 149.596 468.483C149.602 468.478 149.607 468.472 149.613 468.468C149.27 467.28 148.639 465.975 147.737 464.715C145.464 461.538 142.363 459.863 140.812 460.974Z" fill="#F52206"/>
<path d="M232.103 336.779C228.407 336.677 228.407 338.297 228.407 338.297C228.407 338.297 226.851 338.601 225.879 338.601V342.043L228.213 341.84C228.213 341.84 228.213 342.144 228.407 342.852C228.602 343.561 241.439 345.687 242.995 344.978C244.551 344.27 244.162 341.03 242.217 339.308C240.272 337.588 235.798 336.88 232.103 336.779Z" fill="#273043"/>
<path d="M196.899 296.188L198.046 276.677L204.55 252.575L202.255 251.045L196.516 275.529L196.899 296.188Z" fill="#192141"/>
<path d="M222.232 332.519C220.293 337.725 216.651 357.57 216.52 358.286C216.518 358.299 216.515 358.313 216.511 358.326C216.028 360.049 215.774 361.815 215.756 363.589L215.489 389.647C215.485 390.035 215.796 390.352 216.184 390.356L224.621 390.442C224.945 390.445 225.213 390.194 225.226 389.87C225.421 384.835 226.797 348.248 226.242 333.247C226.192 331.917 223.065 330.282 222.232 332.519Z" fill="#273043"/>
<path opacity="0.59" d="M222.956 335.301L218.027 358.558C217.69 360.148 217.512 361.777 217.495 363.413L217.249 387.398C217.246 387.729 217.511 388 217.842 388.004L222.967 388.056C223.291 388.059 223.559 387.808 223.572 387.484C223.765 382.684 225.074 349.248 224.732 335.513C224.701 334.291 223.208 334.112 222.956 335.301Z" fill="url(#paint8_linear_21_41)"/>
<path d="M224.444 393.585L216.384 393.502C216.001 393.498 215.687 393.805 215.683 394.189L215.492 412.84C215.479 414.127 215.695 415.413 216.137 416.671C216.137 416.671 219.407 431.541 221.228 435.407C221.997 437.038 225.055 435.911 225.126 434.95C225.908 424.334 225.252 398.704 225.13 394.255C225.121 393.883 224.817 393.589 224.444 393.585Z" fill="#273043"/>
<path opacity="0.59" d="M222.801 395.281L218.05 395.232C217.667 395.228 217.353 395.536 217.349 395.919L217.174 412.998C217.162 414.181 217.307 415.361 217.606 416.516L221.979 433.41C222.202 434.273 223.653 434.17 223.704 433.287C224.261 423.576 223.613 400.194 223.489 395.954C223.477 395.581 223.174 395.285 222.801 395.281Z" fill="url(#paint9_linear_21_41)"/>
<path d="M211.452 464.714C209.178 467.89 208.592 471.365 210.143 472.475C211.694 473.585 214.794 471.911 217.068 468.735C219.342 465.559 219.928 462.084 218.377 460.974C216.826 459.863 213.726 461.538 211.452 464.714Z" fill="#D80505"/>
<path d="M211.452 464.714C210.55 465.974 209.919 467.279 209.576 468.467C209.582 468.472 209.587 468.478 209.593 468.482C211.144 469.592 214.245 467.918 216.518 464.742C217.42 463.482 218.052 462.177 218.394 460.989C218.388 460.984 218.383 460.978 218.377 460.973C216.826 459.863 213.726 461.538 211.452 464.714Z" fill="#F52206"/>
<path d="M157.909 359.828V370.157H204.66C206.695 370.157 208.344 368.508 208.344 366.473V363.512C208.344 361.477 206.695 359.828 204.66 359.828H157.909Z" fill="#3756FB"/>
<path d="M150.957 363.512V366.473C150.957 368.508 152.606 370.157 154.641 370.157H179.65V359.828H154.641C152.607 359.828 150.957 361.477 150.957 363.512Z" fill="#FE5B29"/>
<path opacity="0.44" d="M162.832 309.902C178.9 306.459 209.889 310.476 209.889 310.476C209.889 310.476 205.872 308.18 191.525 306.459C177.178 304.737 148.485 308.18 145.616 312.198C142.747 316.215 149.633 336.874 149.633 336.874C149.633 336.874 147.338 319.658 147.338 317.363C147.337 315.067 146.764 313.345 162.832 309.902Z" fill="#C7CCEA"/>
<path d="M127.852 336.779C124.156 336.88 119.683 337.589 117.738 339.31C115.793 341.031 115.404 344.271 116.96 344.98C118.516 345.689 131.353 343.563 131.548 342.854C131.743 342.145 131.743 341.842 131.743 341.842L134.077 342.045V338.603C133.104 338.603 131.548 338.299 131.548 338.299C131.548 338.299 131.548 336.677 127.852 336.779Z" fill="#273043"/>
<path d="M142.893 254.008C138.973 258.307 139.259 266.824 139.259 266.824C139.259 266.824 146.937 256.587 157.62 251.743C158.783 251.216 159.566 250.097 159.611 248.821L159.726 245.591C159.726 245.591 148.823 247.504 142.893 254.008Z" fill="#D5FAFC"/>
<path opacity="0.59" d="M139.558 262.968C139.248 265.184 139.259 266.824 139.259 266.824C139.259 266.824 146.937 256.587 157.62 251.743C158.783 251.216 159.566 250.097 159.611 248.821C150.316 251.384 141.949 260.254 139.558 262.968Z" fill="url(#paint10_linear_21_41)"/>
<path d="M199.892 245.591L200.007 248.821C200.053 250.097 200.835 251.216 201.998 251.743C212.681 256.587 220.359 266.824 220.359 266.824C220.359 266.824 220.644 258.307 216.724 254.008C210.795 247.504 199.892 245.591 199.892 245.591Z" fill="#D5FAFC"/>
<path opacity="0.59" d="M200.007 248.821C200.053 250.097 200.835 251.215 201.998 251.743C212.681 256.587 220.359 266.824 220.359 266.824C220.359 266.824 220.37 265.184 220.06 262.968C217.669 260.254 209.301 251.384 200.007 248.821Z" fill="url(#paint11_linear_21_41)"/>
<path opacity="0.41" d="M157.005 362.85C156.289 362.85 155.709 363.43 155.709 364.146V365.188C155.709 365.904 156.289 366.484 157.005 366.484H202.426C203.142 366.484 203.722 365.904 203.722 365.188V364.146C203.722 363.43 203.142 362.85 202.426 362.85H157.005Z" fill="#E9ECF5"/>
<defs>
<linearGradient id="paint0_linear_21_41" x1="135.549" y1="361.276" x2="143.088" y2="361.276" gradientUnits="userSpaceOnUse">
<stop stop-color="#72B3DD"/>
<stop offset="0.9946" stop-color="#2E81BA"/>
</linearGradient>
<linearGradient id="paint1_linear_21_41" x1="148.569" y1="423.35" x2="128.878" y2="403.659" gradientUnits="userSpaceOnUse">
<stop stop-color="#72B3DD"/>
<stop offset="0.9946" stop-color="#2E81BA"/>
</linearGradient>
<linearGradient id="paint2_linear_21_41" x1="217.135" y1="361.28" x2="224.68" y2="361.28" gradientUnits="userSpaceOnUse">
<stop stop-color="#72B3DD"/>
<stop offset="0.9946" stop-color="#2E81BA"/>
</linearGradient>
<linearGradient id="paint3_linear_21_41" x1="232.666" y1="424.475" x2="210.332" y2="402.142" gradientUnits="userSpaceOnUse">
<stop stop-color="#72B3DD"/>
<stop offset="0.9946" stop-color="#2E81BA"/>
</linearGradient>
<linearGradient id="paint4_linear_21_41" x1="145.7" y1="305.121" x2="210.91" y2="342.771" gradientUnits="userSpaceOnUse">
<stop offset="0.0054" stop-color="#ACCAF0"/>
<stop offset="1" stop-color="#323BB6"/>
</linearGradient>
<linearGradient id="paint5_linear_21_41" x1="189.184" y1="322.777" x2="217.765" y2="322.777" gradientUnits="userSpaceOnUse">
<stop stop-color="#72B3DD"/>
<stop offset="0.9946" stop-color="#2E81BA"/>
</linearGradient>
<linearGradient id="paint6_linear_21_41" x1="151.06" y1="432.095" x2="210.859" y2="466.62" gradientUnits="userSpaceOnUse">
<stop stop-color="#72B3DD"/>
<stop offset="0.9946" stop-color="#2E81BA"/>
</linearGradient>
<linearGradient id="paint7_linear_21_41" x1="189.526" y1="448.934" x2="218.309" y2="448.934" gradientUnits="userSpaceOnUse">
<stop stop-color="#72B3DD"/>
<stop offset="0.9946" stop-color="#2E81BA"/>
</linearGradient>
<linearGradient id="paint8_linear_21_41" x1="217.25" y1="361.276" x2="224.789" y2="361.276" gradientUnits="userSpaceOnUse">
<stop stop-color="#72B3DD"/>
<stop offset="0.9946" stop-color="#2E81BA"/>
</linearGradient>
<linearGradient id="paint9_linear_21_41" x1="232.679" y1="424.569" x2="210.549" y2="402.439" gradientUnits="userSpaceOnUse">
<stop stop-color="#72B3DD"/>
<stop offset="0.9946" stop-color="#2E81BA"/>
</linearGradient>
<linearGradient id="paint10_linear_21_41" x1="139.258" y1="257.822" x2="159.611" y2="257.822" gradientUnits="userSpaceOnUse">
<stop stop-color="#72B3DD"/>
<stop offset="0.9946" stop-color="#2E81BA"/>
</linearGradient>
<linearGradient id="paint11_linear_21_41" x1="200.007" y1="257.822" x2="220.36" y2="257.822" gradientUnits="userSpaceOnUse">
<stop stop-color="#72B3DD"/>
<stop offset="0.9946" stop-color="#2E81BA"/>
</linearGradient>
</defs>
</svg>
