<svg width="92" height="157" viewBox="0 0 92 157" fill="none" xmlns="http://www.w3.org/2000/svg">
<path d="M65.3225 2.13246C65.9115 2.13246 66.3884 1.65498 66.3884 1.06597C66.3884 0.476952 65.9108 0 65.3225 0H25.8697C25.2807 0 24.8032 0.477571 24.8032 1.06597C24.8032 1.65498 25.2807 2.13246 25.8697 2.13246H65.3225Z" fill="#4E4E54"/>
<path d="M30.1352 1.06656H28.7131V7.46454H30.1352V1.06656Z" fill="#4E4E54"/>
<path d="M62.479 1.06656H61.0569V7.46454H62.479V1.06656Z" fill="#4E4E54"/>
<path d="M51.8162 1.06656H50.3892V7.46454H51.8162V1.06656Z" fill="#4E4E54"/>
<path d="M41.1116 1.06656H39.6846V7.46454H41.1116V1.06656Z" fill="#4E4E54"/>
<path d="M45.8337 2.95067L45.983 2.95007C45.9334 2.95007 45.8814 2.94946 45.8337 2.94946V2.95067Z" fill="#151347"/>
<path d="M45.9236 150.963C45.874 150.961 45.8461 150.96 45.8461 150.96V150.965C43.9385 151.016 24.7674 151.432 21.8229 147.362C18.723 143.079 14.2283 143.079 14.2283 143.079C14.2283 143.079 14.72 144.788 15.4701 146.838C16.881 150.695 20.5644 153.601 25.113 154.439C30.1509 155.367 37.6167 156.049 45.7774 156.049C54.075 156.049 61.6089 155.369 66.684 154.442C71.2536 153.607 74.9642 150.704 76.38 146.832C77.1282 144.785 77.6194 143.079 77.6194 143.079C77.6194 143.079 73.1247 143.079 70.0248 147.362C67.0797 151.432 47.9086 151.017 46.0016 150.965V150.96C46.0016 150.96 45.9731 150.961 45.9236 150.963Z" fill="#25303D"/>
<path d="M31.7759 150.813C38.6372 151.096 52.3945 151.169 59.2508 150.813C71.8028 150.161 79.7548 145.79 79.7548 134.749L81.3949 24.8024C81.3949 13.7622 72.6556 5.4832 59.6608 4.45506C56.188 4.18006 50.1641 3.8295 45.4118 3.8295C40.5956 3.8295 35.554 4.16582 32.1859 4.45506C20.4112 5.4671 10.4519 13.7622 10.4519 24.8024L12.0919 134.749C12.0919 145.79 19.5008 150.307 31.7759 150.813Z" fill="#2D3857"/>
<path d="M77.6584 39.0056C78.043 36.4303 75.5934 14.9118 75.5934 14.9118L65.3417 7.07314C65.3417 7.07314 57.4511 5.96265 46.2883 5.96265C35.1255 5.96265 26.6577 6.90159 26.6577 6.90159L16.4035 13.8415C16.4035 13.8415 14.1477 33.1687 14.1477 37.804C14.1477 42.4393 17.4062 46.0936 17.4062 46.0936H74.3733C76.0926 44.425 77.2738 41.5809 77.6584 39.0056Z" fill="#414D7A"/>
<path d="M11.1104 66.5028C11.2492 66.0618 11.2492 65.8729 11.2492 65.8729L12.9171 65.9986V63.8575C12.2222 63.8575 11.1104 63.6685 11.1104 63.6685C11.1104 63.6685 11.1104 62.6609 8.46945 62.7241C5.82849 62.7872 2.632 63.2276 1.24215 64.2985C-0.147701 65.3694 -0.425839 67.3847 0.685916 67.8251C1.79829 68.2667 10.9717 66.9438 11.1104 66.5028Z" fill="#273552"/>
<path d="M33.8998 24.6246L29.799 9.39325L28.1589 10.3458L32.806 25.3381L33.6261 37.4751L33.8998 24.6246Z" fill="#5665A1"/>
<path d="M33.5232 125.979H58.0165C61.1573 125.979 63.7035 123.433 63.7035 120.292L68.3239 61.214H23.2158L27.8362 120.292C27.8362 123.433 30.3824 125.979 33.5232 125.979Z" fill="#414D7A"/>
<path d="M91.2193 67.8257C92.331 67.3847 92.053 65.3694 90.6631 64.2991C89.2733 63.2282 86.0761 62.7872 83.4351 62.7247C80.7942 62.6615 80.7942 63.6692 80.7942 63.6692C80.7942 63.6692 79.6825 63.8581 78.9875 63.8581V65.9992L80.6555 65.8735C80.6555 65.8735 80.6555 66.0624 80.7942 66.5034C80.9336 66.9437 90.1075 68.2667 91.2193 67.8257Z" fill="#384BA1"/>
<path d="M29.8987 66.5684C35.4011 65.5533 41.8301 64.963 45.8919 64.9618C49.9692 64.9606 56.9902 65.5471 62.4927 66.5616C67.9951 67.5767 70.2923 67.9174 71.0783 64.8727C71.8643 61.8279 75.402 50.3802 75.0087 48.0117C74.6154 45.6433 71.0782 43.6137 64.7899 42.2603C58.5009 40.907 50.6498 40.5688 45.9241 40.5688C41.1984 40.5688 33.3467 40.907 27.0584 42.2603C20.77 43.6137 17.2322 45.6433 16.8395 48.0117C16.4462 50.3802 19.984 61.917 20.7699 64.9618C21.5553 68.0072 24.3963 67.5836 29.8987 66.5684Z" fill="#273043"/>
<path opacity="0.59" d="M31.5622 64.8144C36.7432 63.9566 42.969 63.559 46.6938 63.5348C50.2985 63.5113 55.4918 63.8005 60.6765 64.6428C65.8612 65.4851 69.1283 66.8007 69.8635 64.2489C70.5987 61.6971 73.6912 50.5016 73.3171 48.519C72.943 46.5358 69.6077 44.8406 63.6823 43.7164C57.7569 42.5923 50.3611 42.3204 45.9103 42.3272C41.459 42.3341 34.0644 42.6288 28.1439 43.7715C22.2228 44.9143 18.8944 46.62 18.5284 48.6038C18.1623 50.5882 21.4467 61.6105 22.1924 64.1598C22.9369 66.7084 26.3812 65.6722 31.5622 64.8144Z" fill="url(#paint0_linear_21_195)"/>
<path d="M91.2967 67.8257C92.4084 67.3847 92.1304 65.3694 90.7405 64.2991C89.3507 63.2282 86.1535 62.7872 83.5125 62.7247C80.8716 62.6615 80.8716 63.6692 80.8716 63.6692C80.8716 63.6692 79.7599 63.8581 79.0649 63.8581V65.9992L80.7329 65.8735C80.7329 65.8735 80.7329 66.0624 80.8716 66.5034C81.011 66.9437 90.1843 68.2667 91.2967 67.8257Z" fill="#273552"/>
<path d="M63.8243 10.3458L62.1835 9.39325L58.0828 24.6246L58.3565 37.4751L59.1766 25.3381L63.8243 10.3458Z" fill="#5665A1"/>
<path d="M25.6388 151.262C26.7469 150.571 26.3282 148.41 24.7036 146.434C23.079 144.458 20.8629 143.416 19.7549 144.107C18.6469 144.798 19.0656 146.959 20.6901 148.935C22.3154 150.911 24.5308 151.952 25.6388 151.262Z" fill="#D83432"/>
<path d="M26.0322 148.778C26.0365 148.775 26.0402 148.771 26.0445 148.768C25.7999 148.029 25.3484 147.218 24.7043 146.434C23.0797 144.458 20.8636 143.416 19.7556 144.107C19.7512 144.11 19.7475 144.114 19.7432 144.116C19.9878 144.855 20.4394 145.667 21.0841 146.451C22.7081 148.427 24.9235 149.469 26.0322 148.778Z" fill="#FE9D6D"/>
<path d="M74.2471 148.936C75.8716 146.96 76.2903 144.798 75.1823 144.108C74.0736 143.417 71.8582 144.459 70.2336 146.435C68.609 148.41 68.1903 150.572 69.2984 151.262C70.407 151.952 72.6225 150.911 74.2471 148.936Z" fill="#D83432"/>
<path d="M73.8542 146.451C74.499 145.668 74.9499 144.856 75.1952 144.117C75.1908 144.114 75.1871 144.11 75.1828 144.108C74.0741 143.417 71.8586 144.459 70.2341 146.435C69.5893 147.218 69.1384 148.03 68.8938 148.769C68.8981 148.772 68.9012 148.776 68.9061 148.779C70.0135 149.469 72.229 148.427 73.8542 146.451Z" fill="#FE9D6D"/>
<path d="M61.5048 8.02571L75.5927 17.4853L73.8883 9.58591C70.2087 6.74056 65.3417 4.90542 59.6609 4.45576C56.1881 4.18077 50.1642 3.8302 45.4118 3.8302C40.5957 3.8302 35.5541 4.16652 32.186 4.45576C27.0217 4.89923 22.2068 6.74492 18.4281 9.60761L16.4028 16.5035L30.3422 7.90679C30.3422 7.90679 37.5243 6.95483 46.5459 6.95483C55.5676 6.95483 61.5048 8.02571 61.5048 8.02571Z" fill="#4C5478"/>
<path opacity="0.59" d="M69.8632 64.2483C70.5984 61.6966 73.6909 50.501 73.3168 48.5184C72.9427 46.5352 69.6074 44.84 63.682 43.7158C60.1566 43.0469 56.1139 42.6815 52.4771 42.4951C52.8536 43.9159 55.1633 53.0007 55.6588 63.9876C57.2957 64.1529 58.9853 64.3679 60.6756 64.6422C65.8609 65.4839 69.128 66.8001 69.8632 64.2483Z" fill="url(#paint1_linear_21_195)"/>
<path d="M21.3789 19.1185C24.7674 17.9262 27.8091 14.9991 29.5285 12.199C30.8675 10.0182 31.1115 8.0102 29.3092 6.88048C27.3297 5.6399 21.9883 8.03933 18.9993 10.583C15.7551 13.3442 14.1689 16.9842 15.1785 18.6788C16.0252 20.0996 17.89 20.3461 21.3789 19.1185Z" fill="#2D3857"/>
<path d="M21.6555 17.9213C24.356 16.9712 26.7795 14.6386 28.1501 12.4071C29.2173 10.6691 29.4118 9.06939 27.9755 8.16883C26.398 7.17971 22.1417 9.09225 19.7596 11.1194C17.1744 13.32 15.9103 16.2205 16.7149 17.5713C17.3887 18.7029 18.8752 18.8999 21.6555 17.9213Z" fill="#D6E5FE"/>
<path d="M16.6895 17.5961C17.364 18.7283 18.8499 18.9246 21.6308 17.946C21.9888 17.8203 22.3418 17.6679 22.6887 17.497C22.3567 17.5032 19.4358 17.5274 18.2986 16.3958C17.3318 15.4339 17.5084 14.0255 17.6167 13.5021C16.5397 15.1112 16.1538 16.6974 16.6895 17.5961Z" fill="#D5FAFC"/>
<path d="M28.8756 10.819C29.1766 9.72773 28.9579 8.78442 27.9756 8.16816C26.3981 7.17903 22.1418 9.09165 19.7598 11.1188C18.8951 11.8546 18.1829 12.6685 17.6416 13.4767C17.6441 13.4743 23.9547 8.0685 28.7795 10.7689C28.8142 10.7887 28.8427 10.8011 28.8756 10.819Z" fill="#78C2FC"/>
<path d="M69.7503 19.1185C73.2398 20.3467 75.1047 20.0995 75.9507 18.6793C76.9597 16.9848 75.3742 13.3448 72.1293 10.5836C69.1403 8.03929 63.7995 5.63987 61.8194 6.88107C60.0171 8.01079 60.2611 10.0188 61.6002 12.1996C63.3201 14.9991 66.3618 17.9256 69.7503 19.1185Z" fill="#2D3857"/>
<path d="M69.4734 17.9213C72.2544 18.8999 73.7402 18.7029 74.4147 17.5713C75.2193 16.2211 73.9551 13.32 71.3699 11.1194C68.9878 9.09225 64.7316 7.17971 63.1541 8.16883C61.7178 9.06877 61.9123 10.6691 62.9794 12.4071C64.3494 14.6386 66.773 16.9712 69.4734 17.9213Z" fill="#D6E5FE"/>
<path d="M68.4404 17.497C68.7873 17.6679 69.1403 17.8203 69.4983 17.946C72.2786 18.9246 73.7651 18.7277 74.4396 17.5961C74.9753 16.6974 74.5901 15.1112 73.513 13.5027C73.6214 14.0261 73.7979 15.4345 72.8311 16.3964C71.6939 17.5273 68.773 17.5032 68.4404 17.497Z" fill="#D5FAFC"/>
<path d="M73.4875 13.4773C72.9468 12.6691 72.2338 11.8552 71.3692 11.1194C68.9871 9.09225 64.7309 7.17971 63.1534 8.16883C62.1704 8.78448 61.9518 9.72833 62.2534 10.8196C62.2869 10.8017 62.3154 10.7887 62.3495 10.7695C67.1743 8.0691 73.485 13.4749 73.4875 13.4773Z" fill="#78C2FC"/>
<path d="M30.0474 142.398C35.4978 143.148 42.3034 143.335 46.3992 143.335C50.4951 143.335 57.3006 143.148 62.751 142.398C68.2014 141.648 71.2679 140.524 71.6085 139.212C71.9492 137.899 68.9985 130.923 68.3172 129.237C67.6359 127.55 65.1387 128.176 60.3665 128.715C54.6925 129.355 46.3992 129.277 46.3992 129.277C46.3992 129.277 37.2018 129.277 32.432 128.715C27.663 128.152 25.8457 127.223 24.5995 129.592C23.7528 131.203 20.8494 137.9 21.19 139.212C21.5313 140.523 24.5971 141.648 30.0474 142.398Z" fill="#273043"/>
<path opacity="0.59" d="M30.9747 140.742C36.1432 141.327 42.5976 141.478 46.4828 141.481C50.3681 141.485 56.8237 141.346 61.996 140.77C67.1683 140.195 70.0793 139.327 70.4063 138.312C70.7327 137.297 67.8452 131.348 67.203 130.042C66.5613 128.736 63.8981 129.629 59.3724 130.059C54.8467 130.49 46.52 130.603 46.52 130.603C46.52 130.603 38.4819 130.41 33.9593 129.971C29.4368 129.532 26.4917 128.7 25.8413 130.004C25.1904 131.309 22.2621 137.253 22.5817 138.268C22.9013 139.284 25.8067 140.157 30.9747 140.742Z" fill="url(#paint2_linear_21_195)"/>
<path opacity="0.59" d="M61.9967 140.767C67.169 140.188 70.0801 139.316 70.4071 138.296C70.7335 137.276 67.846 131.295 67.2037 129.982C66.5621 128.669 64.9648 129.567 60.4391 130C59.1093 130.127 56.7489 130.338 55.0221 130.401C55.6445 135.022 53.0358 140.516 52.6047 141.384C55.6762 141.284 59.0448 141.097 61.9967 140.767Z" fill="url(#paint3_linear_21_195)"/>
<path d="M20.2244 129.507L25.336 124.951C25.8135 124.525 26.0365 123.91 25.9324 123.308L24.703 116.192C24.5092 115.07 23.281 114.387 22.119 114.755L17.3109 116.28C16.4364 116.557 15.874 117.355 15.952 118.208L16.878 128.356C17.0186 129.899 19.0147 130.586 20.2244 129.507Z" fill="#25303D"/>
<path d="M16.4196 83.4522L20.1599 83.5117C21.2258 83.5284 22.0837 82.8868 22.036 82.1082L21.3472 70.8643C21.3472 70.8643 17.3685 58.394 16.8457 57.7363C16.323 57.0785 14.8148 56.9244 14.3528 58.0212L14.9021 82.3374C14.9158 82.945 15.5884 83.4392 16.4196 83.4522Z" fill="#25303D"/>
<path opacity="0.59" d="M16.6363 82.5028L19.7938 82.553C20.3587 82.5616 20.812 82.221 20.7854 81.8086L20.109 71.5216C20.0842 71.1425 20.0124 70.7653 19.8953 70.3943L16.1978 58.6976C16.0881 58.3495 15.379 58.3997 15.3846 58.7558C15.4781 64.3487 15.9927 79.4717 16.0825 82.1008C16.0912 82.322 16.3353 82.4985 16.6363 82.5028Z" fill="url(#paint4_linear_21_195)"/>
<path d="M17.0654 113.74L23.5408 111.433C23.9843 111.275 24.263 110.857 24.2234 110.409L22.068 86.0913C22.0272 85.6937 21.4951 85.3784 20.8485 85.3692L16.142 85.2979C15.452 85.2874 14.8902 85.6274 14.8946 86.0523L15.6322 112.827C15.6521 113.517 16.3835 113.984 17.0654 113.74Z" fill="#25303D"/>
<path opacity="0.59" d="M17.7989 111.95L22.345 110.361C22.6907 110.24 22.9087 109.913 22.8771 109.563L20.853 86.8885C20.8208 86.5262 20.342 86.2376 19.758 86.2283L17.3908 86.1924C16.6593 86.1812 16.0653 86.5466 16.0758 87.0012C16.1601 90.6827 16.5181 105.215 16.7033 111.244C16.7206 111.775 17.2768 112.133 17.7989 111.95Z" fill="url(#paint5_linear_21_195)"/>
<path opacity="0.59" d="M19.6204 128.261L24.3052 124.358C24.5691 124.138 24.6967 123.809 24.644 123.485L23.536 116.702C23.4381 116.105 22.7828 115.744 22.1722 115.951L17.6527 117.48C17.2042 117.632 16.9212 118.049 16.9664 118.49L17.9097 127.646C17.9896 128.43 18.9874 128.788 19.6204 128.261Z" fill="url(#paint6_linear_21_195)"/>
<path d="M75.6801 128.356L76.6061 118.208C76.6841 117.355 76.1218 116.557 75.2472 116.28L70.4392 114.755C69.2772 114.387 68.049 115.07 67.8552 116.192L66.6257 123.308C66.5216 123.91 66.7452 124.525 67.2221 124.951L72.3338 129.507C73.5434 130.586 75.5395 129.899 75.6801 128.356Z" fill="#25303D"/>
<path d="M76.139 83.4522C76.9702 83.4392 77.6422 82.945 77.6558 82.3374L78.2052 58.0213C77.7431 56.9244 76.235 57.0779 75.7122 57.7363C75.1895 58.3941 71.2107 70.8643 71.2107 70.8643L70.5227 82.1083C70.475 82.8874 71.3321 83.5291 72.3987 83.5117L76.139 83.4522Z" fill="#25303D"/>
<path opacity="0.59" d="M75.9216 82.5028C76.2226 82.4979 76.4667 82.322 76.4747 82.1021C76.5652 79.4729 77.0792 64.35 77.1727 58.7571C77.1789 58.401 76.4698 58.3508 76.3595 58.6989L72.6619 70.3956C72.5449 70.7659 72.473 71.1431 72.4482 71.5228L71.7719 81.8098C71.7447 82.2223 72.1986 82.5629 72.7635 82.5543L75.9216 82.5028Z" fill="url(#paint7_linear_21_195)"/>
<path d="M75.4924 113.74C76.1743 113.984 76.9064 113.517 76.925 112.827L77.6627 86.0523C77.667 85.6274 77.1052 85.288 76.4152 85.2979L71.7087 85.3691C71.0621 85.379 70.5307 85.6937 70.4892 86.0913L68.3338 110.409C68.2942 110.856 68.5729 111.274 69.0164 111.433L75.4924 113.74Z" fill="#25303D"/>
<path opacity="0.59" d="M74.7591 111.95C75.2819 112.133 75.838 111.775 75.8541 111.244C76.0393 105.215 76.3967 90.6827 76.4816 87.0012C76.4921 86.5466 75.8975 86.1818 75.1667 86.1924L72.7994 86.2283C72.216 86.2369 71.7366 86.5255 71.7044 86.8885L69.681 109.563C69.6494 109.914 69.8681 110.24 70.213 110.361L74.7591 111.95Z" fill="url(#paint8_linear_21_195)"/>
<path opacity="0.59" d="M74.6491 127.646L75.5924 118.49C75.6376 118.049 75.3545 117.632 74.9061 117.48L70.3866 115.951C69.7759 115.744 69.1207 116.105 69.0228 116.702L67.9148 123.485C67.8621 123.809 67.9897 124.138 68.2535 124.358L72.9378 128.261C73.5708 128.788 74.5686 128.43 74.6491 127.646Z" fill="url(#paint9_linear_21_195)"/>
<path d="M53.8711 105.364C56.8452 105.364 59.2564 102.953 59.2564 99.9787V90.8456C59.2564 87.8714 56.8452 85.4603 53.8711 85.4603H38.3399C35.3657 85.4603 32.9546 87.8714 32.9546 90.8456V99.9787C32.9546 102.953 35.3657 105.364 38.3399 105.364H53.8711Z" fill="#273043"/>
<defs>
<linearGradient id="paint0_linear_21_195" x1="22.4764" y1="41.5104" x2="67.9276" y2="67.7517" gradientUnits="userSpaceOnUse">
<stop stop-color="#72B3DD"/>
<stop offset="0.9946" stop-color="#2E81BA"/>
</linearGradient>
<linearGradient id="paint1_linear_21_195" x1="52.4777" y1="54.1175" x2="73.3483" y2="54.1175" gradientUnits="userSpaceOnUse">
<stop stop-color="#72B3DD"/>
<stop offset="0.9946" stop-color="#2E81BA"/>
</linearGradient>
<linearGradient id="paint2_linear_21_195" x1="28.7802" y1="124.91" x2="65.8175" y2="146.293" gradientUnits="userSpaceOnUse">
<stop stop-color="#72B3DD"/>
<stop offset="0.9946" stop-color="#2E81BA"/>
</linearGradient>
<linearGradient id="paint3_linear_21_195" x1="52.605" y1="135.34" x2="70.4324" y2="135.34" gradientUnits="userSpaceOnUse">
<stop stop-color="#72B3DD"/>
<stop offset="0.9946" stop-color="#2E81BA"/>
</linearGradient>
<linearGradient id="paint4_linear_21_195" x1="20.7866" y1="70.5076" x2="15.3852" y2="70.5076" gradientUnits="userSpaceOnUse">
<stop stop-color="#72B3DD"/>
<stop offset="0.9946" stop-color="#2E81BA"/>
</linearGradient>
<linearGradient id="paint5_linear_21_195" x1="22.8803" y1="99.0956" x2="16.0764" y2="99.0956" gradientUnits="userSpaceOnUse">
<stop stop-color="#72B3DD"/>
<stop offset="0.9946" stop-color="#2E81BA"/>
</linearGradient>
<linearGradient id="paint6_linear_21_195" x1="16.9611" y1="122.201" x2="24.6552" y2="122.201" gradientUnits="userSpaceOnUse">
<stop stop-color="#72B3DD"/>
<stop offset="0.9946" stop-color="#2E81BA"/>
</linearGradient>
<linearGradient id="paint7_linear_21_195" x1="77.173" y1="70.5077" x2="71.7715" y2="70.5077" gradientUnits="userSpaceOnUse">
<stop stop-color="#72B3DD"/>
<stop offset="0.9946" stop-color="#2E81BA"/>
</linearGradient>
<linearGradient id="paint8_linear_21_195" x1="76.4818" y1="99.0956" x2="69.6779" y2="99.0956" gradientUnits="userSpaceOnUse">
<stop stop-color="#72B3DD"/>
<stop offset="0.9946" stop-color="#2E81BA"/>
</linearGradient>
<linearGradient id="paint9_linear_21_195" x1="67.9032" y1="122.201" x2="75.5972" y2="122.201" gradientUnits="userSpaceOnUse">
<stop stop-color="#72B3DD"/>
<stop offset="0.9946" stop-color="#2E81BA"/>
</linearGradient>
</defs>
</svg>
