<svg width="80" height="170" viewBox="0 0 80 170" fill="none" xmlns="http://www.w3.org/2000/svg">
<path d="M40.6833 169.771C40.8905 169.765 40.8749 169.76 40.6833 169.757V169.771Z" fill="#CACAE3"/>
<path d="M66.5602 9.68324C63.8442 7.22694 60.2345 4.09212 52.7566 3.5659C52.7566 3.5659 43.0335 3.20062 39.7924 3.20062C36.4735 3.20062 26.5162 3.5659 26.5162 3.5659C19.0383 4.09212 15.4285 7.22694 12.7125 9.68324C10.0122 12.1257 7.31237 16.2859 6.40186 20.0727L7.44162 156.694C7.44162 169.465 13.6721 169.133 25.5151 169.646C27.9985 169.754 34.9699 169.747 38.5889 169.749V169.756C38.7781 169.753 39.1445 169.751 39.6366 169.75C40.1288 169.751 40.4952 169.753 40.6845 169.756V169.749C44.3035 169.747 51.2749 169.754 53.7583 169.646C65.6007 169.133 71.8317 169.466 71.8317 156.694L72.8715 20.0727C71.9604 16.2865 69.2606 12.1257 66.5602 9.68324Z" fill="#797F98"/>
<path d="M38.5883 169.771V169.757C38.3967 169.759 38.3811 169.764 38.5883 169.771Z" fill="#CACAE3"/>
<path d="M55.9463 7.01692C55.9463 7.01692 49.3477 5.91891 40.0135 5.91891C30.6793 5.91891 23.5683 7.28465 23.5683 7.28465L15.0229 13.7119C15.0229 13.7119 13.1367 32.8274 13.1367 37.4123C13.1367 41.9971 15.8613 45.6109 15.8613 45.6109H63.4992C64.9366 43.9612 65.9244 41.1478 66.2463 38.6009C66.5683 36.054 65.1968 13.1793 65.1968 13.1793L55.9463 7.01692Z" fill="#B1B6C9"/>
<path d="M6.34591 53.644C4.36736 53.7005 1.97222 54.0969 0.930729 55.0588C-0.110761 56.0207 -0.319085 57.8319 0.514107 58.2277C1.3473 58.6241 8.22 57.4355 8.32386 57.0391C8.4283 56.6432 8.42832 56.4731 8.42832 56.4731L9.67811 56.5861V54.6618C9.15766 54.6618 8.32442 54.4922 8.32442 54.4922C8.32442 54.4922 8.32445 53.5874 6.34591 53.644Z" fill="#B1B6C9"/>
<path d="M72.8674 53.644C70.8888 53.5874 70.8888 54.4928 70.8888 54.4928C70.8888 54.4928 70.0556 54.6624 69.5352 54.6624V56.5867L70.785 56.4736C70.785 56.4736 70.785 56.6432 70.8888 57.0396C70.9933 57.436 77.866 58.6241 78.6986 58.2283C79.5318 57.8325 79.3235 56.0212 78.282 55.0594C77.2411 54.0969 74.8459 53.7005 72.8674 53.644Z" fill="#B1B6C9"/>
<path d="M40.6833 169.771C40.8905 169.765 40.8749 169.76 40.6833 169.757V169.771Z" fill="#787878"/>
<path d="M14.1603 168.574C17.0476 169.37 20.8425 169.444 25.5145 169.646C27.998 169.754 34.9694 169.747 38.5883 169.749V169.756C38.7776 169.753 39.1439 169.751 39.6361 169.75C40.1283 169.751 40.4947 169.753 40.684 169.756V169.749C44.3029 169.747 51.2743 169.754 53.7577 169.646C58.2243 169.453 61.8917 169.379 64.7283 168.678L64.9487 166.812H13.9681L14.1603 168.574Z" fill="#2F3556"/>
<path d="M38.5883 169.771V169.757C38.3967 169.759 38.3811 169.764 38.5883 169.771Z" fill="#787878"/>
<path d="M39.9835 150.345H39.441V167.376H39.9835V150.345Z" fill="#273043"/>
<path d="M36.5941 157.208C33.9872 157.165 28.2062 157.211 24.7292 157.247C22.9301 157.264 21.2112 158.035 19.9389 159.392L16.9795 162.55C16.1163 163.471 16.7279 165.046 17.9483 165.046H36.5699C37.3269 165.046 37.9403 164.392 37.9403 163.584V158.67C37.9403 157.871 37.3425 157.22 36.5941 157.208Z" fill="#273043"/>
<path d="M36.2548 158.204C34.248 158.158 28.5057 158.198 25.2872 158.226C23.8418 158.238 22.094 158.688 21.0721 159.608L17.9517 162.816C17.4884 163.232 17.8167 163.944 18.4716 163.944H36.234C36.6402 163.944 36.9692 163.648 36.9692 163.283V158.865C36.9697 158.506 36.6535 158.213 36.2548 158.204Z" fill="url(#paint0_linear_21_135)"/>
<path d="M59.3326 159.392C58.0609 158.035 56.3415 157.264 54.5424 157.246C51.0653 157.211 45.2844 157.165 42.6775 157.207C41.9297 157.219 41.3313 157.871 41.3313 158.669V163.583C41.3313 164.39 41.9447 165.045 42.7017 165.045H61.3233C62.5443 165.045 63.1553 163.47 62.2921 162.549L59.3326 159.392Z" fill="#273043"/>
<path d="M58.1995 159.608C57.1776 158.689 55.4299 158.238 53.9845 158.226C50.7666 158.198 45.0242 158.158 43.0168 158.204C42.6181 158.213 42.3019 158.506 42.3019 158.865V163.283C42.3019 163.648 42.6308 163.944 43.037 163.944H60.7994C61.4543 163.944 61.7826 163.232 61.3193 162.816L58.1995 159.608Z" fill="url(#paint1_linear_21_135)"/>
<path d="M22.7922 151.099L11.1538 165.69L11.5778 166.028L23.2162 151.438L22.7922 151.099Z" fill="#273043"/>
<path d="M56.553 151.14L56.1289 151.478L67.7616 166.073L68.1858 165.735L56.553 151.14Z" fill="#273043"/>
<path d="M40.6833 169.771C40.8905 169.765 40.8749 169.76 40.6833 169.757V169.771Z" fill="#D6D6F0"/>
<path d="M38.5883 169.771V169.757C38.3967 169.759 38.3811 169.764 38.5883 169.771Z" fill="#D6D6F0"/>
<path d="M38.6107 169.771V169.757C38.4186 169.759 38.403 169.764 38.6107 169.771Z" fill="#D6D6F0"/>
<path d="M69.7349 88.1862H63.4081V117.187H69.7349V88.1862Z" fill="#273043"/>
<path d="M68.6899 89.3841H64.453V115.796H68.6899V89.3841Z" fill="url(#paint2_linear_21_135)"/>
<path d="M69.7349 119.311H63.4081V148.312H69.7349V119.311Z" fill="#273043"/>
<path d="M68.6899 120.509H64.453V146.921H68.6899V120.509Z" fill="url(#paint3_linear_21_135)"/>
<path d="M66.4541 49.849L63.6839 60.8865C63.6129 61.1686 63.5771 61.4612 63.5771 61.7543V86.3559H69.6807V50.3631C69.6813 48.1919 66.9786 47.7603 66.4541 49.849Z" fill="#273043"/>
<path d="M67.1943 50.4122L64.5245 61.5189L64.3716 85.0289H68.7383V50.662C68.7383 49.6234 67.4476 49.4151 67.1943 50.4122Z" fill="url(#paint4_linear_21_135)"/>
<path d="M16.0939 88.1862H9.76697V117.187H16.0939V88.1862Z" fill="#273043"/>
<path d="M15.0488 89.3841H10.8119V115.796H15.0488V89.3841Z" fill="url(#paint5_linear_21_135)"/>
<path d="M16.0939 119.311H9.76697V148.312H16.0939V119.311Z" fill="#273043"/>
<path d="M15.0488 120.509H10.8119V146.921H15.0488V120.509Z" fill="url(#paint6_linear_21_135)"/>
<path d="M13.0478 49.849C12.5233 47.7603 9.82117 48.1913 9.82117 50.3637V86.3566H15.9247V61.7549C15.9247 61.4612 15.889 61.1692 15.818 60.887L13.0478 49.849Z" fill="#273043"/>
<path d="M12.3075 50.4122C12.0542 49.4151 10.764 49.6234 10.764 50.6615V85.0284H15.1308L14.9773 61.5184L12.3075 50.4122Z" fill="url(#paint7_linear_21_135)"/>
<path d="M19.3066 57.5641V146.565C19.3066 149.872 21.2529 152.553 23.1506 152.553H56.9295C58.8273 152.553 60.3656 149.872 60.3656 146.565V56.9554C60.3656 56.9554 52.5033 52.0843 41.4958 52.0843C30.4889 52.0843 19.3066 57.5641 19.3066 57.5641Z" fill="#B1B6C9"/>
<path d="M57.4257 33.9376C51.6413 32.659 44.4189 32.3393 40.0717 32.3393C35.7246 32.3393 28.5023 32.659 22.7179 33.9376C16.9334 35.2162 13.6797 37.1347 13.3179 39.3724C12.9561 41.61 16.2104 54.7172 16.9334 57.5942C17.6564 60.4711 20.1871 58.2334 25.2486 57.2745C30.31 56.3155 40.0717 56.3155 40.0717 56.3155C40.0717 56.3155 49.8329 56.3155 54.895 57.2745C59.957 58.2334 62.4872 60.4711 63.2102 57.5942C63.9332 54.7172 67.1869 41.61 66.8257 39.3724C66.4645 37.1347 63.2107 35.2162 57.4257 33.9376Z" fill="#273043"/>
<path d="M56.7159 35.1366C51.1357 34.0213 44.1713 33.7512 39.9799 33.7581C35.7886 33.765 28.8248 34.0576 23.2492 35.1914C17.6736 36.3252 14.5393 38.0176 14.1942 39.9863C13.8492 41.9551 17.0088 53.4784 17.7105 56.008C18.4127 58.5375 21.5897 56.9231 26.4688 56.0714C31.348 55.2198 40.0197 54.8464 40.0197 54.8464C40.0197 54.8464 49.0031 55.0651 53.8857 55.9006C58.7677 56.7361 61.6412 58.4666 62.3336 55.9347C63.026 53.4028 66.1418 41.869 65.7893 39.9015C65.4367 37.9339 62.2955 36.252 56.7159 35.1366Z" fill="url(#paint8_linear_21_135)"/>
<path d="M56.7159 35.0956C53.5315 34.4569 49.8975 34.0957 46.5837 33.9036C47.0488 35.5815 49.8634 46.2064 49.1912 55.1459C51.0544 55.2665 53.6007 55.6739 55.0351 55.9197C59.9171 56.7575 61.6407 58.4931 62.3331 55.9537C63.0255 53.4149 66.1413 41.8477 65.7887 39.8743C65.4368 37.901 62.2961 36.2144 56.7159 35.0956Z" fill="url(#paint9_linear_21_135)"/>
<path opacity="0.44" d="M16.8399 38.8346C15.1401 41.2142 19.2195 53.4524 19.2195 53.4524C19.2195 53.4524 17.8595 43.2539 17.8595 41.8939C17.8595 40.5339 17.5196 39.5143 27.0384 37.4746C36.5572 35.4349 54.9146 37.8145 54.9146 37.8145C54.9146 37.8145 52.535 36.4551 44.0363 35.4349C35.5371 34.4153 18.5392 36.455 16.8399 38.8346Z" fill="#C7CCEA"/>
<path d="M25.4332 72.1456C24.8844 72.1456 24.4402 72.5904 24.4402 73.1391V142.671C24.4402 143.22 24.885 143.664 25.4332 143.664C25.9813 143.664 26.4268 143.22 26.4268 142.671V73.1391C26.4262 72.5904 25.9819 72.1456 25.4332 72.1456Z" fill="#797F98"/>
<path d="M54.2388 72.1456C53.6901 72.1456 53.2458 72.5904 53.2458 73.1391V142.671C53.2458 143.22 53.6907 143.664 54.2388 143.664C54.7876 143.664 55.2319 143.22 55.2319 142.671V73.1391C55.2325 72.5904 54.7876 72.1456 54.2388 72.1456Z" fill="#797F98"/>
<path d="M11.9717 165.697C10.1755 164.905 8.92218 164.882 9.1726 165.645C9.42302 166.409 11.0819 167.67 12.8781 168.462C14.6743 169.254 15.9276 169.277 15.6772 168.514C15.4268 167.751 13.7679 166.49 11.9717 165.697Z" fill="#D80505"/>
<path d="M13.9635 166.802C13.3738 166.4 12.6843 166.012 11.9717 165.697C10.1755 164.905 8.92218 164.882 9.1726 165.645C9.17376 165.648 9.17553 165.652 9.17669 165.655C9.76696 166.057 10.4559 166.445 11.1685 166.759C12.9647 167.551 14.2179 167.574 13.9681 166.811C13.9664 166.808 13.9647 166.805 13.9635 166.802Z" fill="#F52206"/>
<path d="M66.9399 165.697C65.1437 166.49 63.4848 167.75 63.2344 168.514C62.984 169.277 64.2372 169.254 66.0334 168.462C67.8296 167.67 69.4885 166.409 69.7389 165.645C69.9899 164.882 68.7367 164.905 66.9399 165.697Z" fill="#D80505"/>
<path d="M66.9399 165.697C66.2273 166.012 65.5384 166.4 64.9481 166.802C64.9469 166.805 64.9452 166.808 64.9441 166.812C64.6937 167.575 65.9469 167.552 67.7431 166.76C68.4557 166.446 69.1452 166.057 69.7349 165.656C69.7361 165.653 69.7378 165.649 69.7389 165.646C69.9899 164.882 68.7367 164.905 66.9399 165.697Z" fill="#F52206"/>
<path d="M39.6916 0.000563507C39.6742 0.000563507 39.654 -1.34964e-05 39.6361 0.000563507C39.6188 0.000563507 39.5981 2.71135e-08 39.5808 2.71135e-08C35.1632 0.0115401 21.6879 0.735137 20.1548 2.1713C18.6096 3.61842 17.0643 8.16749 17.0643 8.16749C17.0643 8.16749 20.265 8.16749 22.4726 5.58309C24.57 3.12737 38.2225 3.37775 39.5808 3.40891V3.4118C39.5808 3.4118 39.6009 3.41126 39.6361 3.41011C39.6713 3.41126 39.6916 3.4118 39.6916 3.4118V3.40891C41.0498 3.37775 54.7022 3.12737 56.7991 5.58309C59.0067 8.16749 62.2073 8.16749 62.2073 8.16749C62.2073 8.16749 60.6622 3.61842 59.1169 2.1713C57.5838 0.735137 44.1091 0.0121036 39.6916 0.000563507Z" fill="#273043"/>
<path d="M23.4483 7.02502L22.2897 8.01858L22.4547 21.4293L27.256 33.349L23.7795 20.7669L23.4483 7.02502Z" fill="#C8CBD6"/>
<path d="M55.4928 20.7669L52.0157 33.349L56.8169 21.4293L56.9825 8.01858L55.824 7.02502L55.4928 20.7669Z" fill="#C8CBD6"/>
<path d="M13.1776 10.6463C10.7138 13.3686 11.221 18.8559 11.221 18.8559C11.221 18.8559 15.7816 12.1782 22.3652 8.84141C23.0818 8.47848 23.5452 7.75033 23.5412 6.9408L23.532 4.89185C23.532 4.89185 17.0193 6.4013 13.1776 10.6463Z" fill="#88C4FF"/>
<path d="M11.311 16.4059C11.1725 17.8173 11.221 18.8559 11.221 18.8559C11.221 18.8559 15.7816 12.1782 22.3652 8.84141C23.0818 8.47848 23.5452 7.75033 23.5412 6.9408C17.7717 8.79759 12.7431 14.6264 11.311 16.4059Z" fill="#D5FAFC"/>
<path d="M55.7402 4.89185L55.731 6.9408C55.7275 7.75033 56.1902 8.47848 56.9069 8.84141C63.4905 12.1782 68.0512 18.8559 68.0512 18.8559C68.0512 18.8559 68.5583 13.3686 66.0945 10.6463C62.2528 6.4013 55.7402 4.89185 55.7402 4.89185Z" fill="#88C4FF"/>
<path d="M55.731 6.9408C55.7269 7.75033 56.1903 8.47848 56.9069 8.84141C63.4905 12.1782 68.0512 18.8559 68.0512 18.8559C68.0512 18.8559 68.0996 17.8173 67.9612 16.4059C66.5285 14.6264 61.5004 8.79759 55.731 6.9408Z" fill="#D5FAFC"/>
<defs>
<linearGradient id="paint0_linear_21_135" x1="27.3523" y1="158.183" x2="27.3523" y2="163.945" gradientUnits="userSpaceOnUse">
<stop stop-color="#414751"/>
<stop offset="0.9838" stop-color="#292B2E"/>
</linearGradient>
<linearGradient id="paint1_linear_21_135" x1="51.9196" y1="163.945" x2="51.9196" y2="158.183" gradientUnits="userSpaceOnUse">
<stop stop-color="#414751"/>
<stop offset="0.9838" stop-color="#292B2E"/>
</linearGradient>
<linearGradient id="paint2_linear_21_135" x1="72.8196" y1="113.411" x2="60.3239" y2="91.768" gradientUnits="userSpaceOnUse">
<stop stop-color="#414751"/>
<stop offset="0.9838" stop-color="#292B2E"/>
</linearGradient>
<linearGradient id="paint3_linear_21_135" x1="66.5718" y1="146.921" x2="66.5718" y2="120.509" gradientUnits="userSpaceOnUse">
<stop stop-color="#414751"/>
<stop offset="0.9838" stop-color="#292B2E"/>
</linearGradient>
<linearGradient id="paint4_linear_21_135" x1="74.6029" y1="81.6427" x2="59.0854" y2="54.7655" gradientUnits="userSpaceOnUse">
<stop stop-color="#414751"/>
<stop offset="0.9838" stop-color="#292B2E"/>
</linearGradient>
<linearGradient id="paint5_linear_21_135" x1="19.1782" y1="113.411" x2="6.68247" y2="91.768" gradientUnits="userSpaceOnUse">
<stop stop-color="#414751"/>
<stop offset="0.9838" stop-color="#292B2E"/>
</linearGradient>
<linearGradient id="paint6_linear_21_135" x1="12.9303" y1="146.921" x2="12.9303" y2="120.509" gradientUnits="userSpaceOnUse">
<stop stop-color="#414751"/>
<stop offset="0.9838" stop-color="#292B2E"/>
</linearGradient>
<linearGradient id="paint7_linear_21_135" x1="19.9469" y1="82.2481" x2="3.73369" y2="54.166" gradientUnits="userSpaceOnUse">
<stop stop-color="#414751"/>
<stop offset="0.9838" stop-color="#292B2E"/>
</linearGradient>
<linearGradient id="paint8_linear_21_135" x1="17.6364" y1="33.7466" x2="60.84" y2="58.6901" gradientUnits="userSpaceOnUse">
<stop stop-color="#414751"/>
<stop offset="0.9838" stop-color="#292B2E"/>
</linearGradient>
<linearGradient id="paint9_linear_21_135" x1="46.5838" y1="45.5921" x2="65.8167" y2="45.5921" gradientUnits="userSpaceOnUse">
<stop stop-color="#414751"/>
<stop offset="0.9838" stop-color="#292B2E"/>
</linearGradient>
</defs>
</svg>
