<svg width="348" height="694" viewBox="0 0 348 694" fill="none" xmlns="http://www.w3.org/2000/svg">
<rect width="348" height="694" fill="white"/>
<path d="M205.468 224.443C206.419 224.443 207.189 223.672 207.189 222.721C207.189 221.77 206.418 221 205.468 221H141.769C140.818 221 140.047 221.771 140.047 222.721C140.047 223.672 140.818 224.443 141.769 224.443H205.468Z" fill="#4E4E54"/>
<path d="M148.655 222.722H146.359V233.052H148.655V222.722Z" fill="#4E4E54"/>
<path d="M200.877 222.722H198.581V233.052H200.877V222.722Z" fill="#4E4E54"/>
<path d="M183.661 222.722H181.356V233.052H183.661V222.722Z" fill="#4E4E54"/>
<path d="M166.378 222.722H164.074V233.052H166.378V222.722Z" fill="#4E4E54"/>
<path d="M174.002 225.764L174.243 225.763C174.163 225.763 174.079 225.762 174.002 225.762V225.764Z" fill="#151347"/>
<path d="M174.147 464.739C174.067 464.737 174.022 464.735 174.022 464.735V464.742C170.942 464.825 139.989 465.496 135.235 458.926C130.23 452.01 122.973 452.01 122.973 452.01C122.973 452.01 123.767 454.77 124.978 458.08C127.256 464.307 133.203 468.999 140.547 470.352C148.681 471.85 160.735 472.951 173.911 472.951C187.308 472.951 199.472 471.853 207.666 470.356C215.044 469.009 221.035 464.322 223.321 458.069C224.529 454.764 225.322 452.01 225.322 452.01C225.322 452.01 218.065 452.01 213.06 458.926C208.305 465.496 177.352 464.826 174.273 464.742V464.735C174.273 464.735 174.227 464.737 174.147 464.739Z" fill="#25303D"/>
<path d="M151.304 464.497C162.382 464.954 184.594 465.072 195.664 464.497C215.93 463.444 228.769 456.387 228.769 438.561L231.417 261.045C231.417 243.22 217.307 229.853 196.326 228.193C190.719 227.749 180.993 227.183 173.32 227.183C165.544 227.183 157.404 227.726 151.966 228.193C132.955 229.827 116.875 243.22 116.875 261.045L119.523 438.561C119.523 456.387 131.485 463.68 151.304 464.497Z" fill="#2D3857"/>
<path d="M225.385 283.977C226.006 279.819 222.051 245.076 222.051 245.076L205.499 232.42C205.499 232.42 192.759 230.627 174.736 230.627C156.713 230.627 143.041 232.143 143.041 232.143L126.485 243.348C126.485 243.348 122.843 274.553 122.843 282.037C122.843 289.521 128.104 295.421 128.104 295.421H220.081C222.857 292.727 224.764 288.135 225.385 283.977Z" fill="#414D7A"/>
<path d="M117.939 328.373C118.163 327.661 118.163 327.356 118.163 327.356L120.856 327.559V324.102C119.734 324.102 117.939 323.797 117.939 323.797C117.939 323.797 117.938 322.17 113.674 322.272C109.41 322.374 104.25 323.085 102.006 324.814C99.7615 326.543 99.3125 329.797 101.107 330.508C102.903 331.221 117.715 329.085 117.939 328.373Z" fill="#273552"/>
<path d="M154.734 260.758L148.113 236.166L145.465 237.704L152.968 261.91L154.292 281.506L154.734 260.758Z" fill="#5665A1"/>
<path d="M154.125 424.401H193.671C198.742 424.401 202.853 420.29 202.853 415.219L210.313 319.834H137.483L144.943 415.219C144.943 420.29 149.054 424.401 154.125 424.401Z" fill="#414D7A"/>
<path d="M247.279 330.509C249.074 329.797 248.625 326.543 246.381 324.815C244.137 323.086 238.975 322.374 234.711 322.273C230.447 322.171 230.447 323.798 230.447 323.798C230.447 323.798 228.652 324.103 227.53 324.103V327.56L230.223 327.357C230.223 327.357 230.223 327.662 230.447 328.374C230.672 329.085 245.484 331.221 247.279 330.509Z" fill="#384BA1"/>
<path d="M148.274 328.479C157.158 326.84 167.538 325.887 174.096 325.885C180.679 325.883 192.015 326.83 200.899 328.468C209.783 330.107 213.492 330.657 214.761 325.741C216.03 320.825 221.742 302.342 221.107 298.518C220.472 294.694 214.761 291.417 204.608 289.232C194.454 287.047 181.778 286.501 174.148 286.501C166.518 286.501 153.841 287.047 143.688 289.232C133.535 291.417 127.823 294.694 127.189 298.518C126.554 302.342 132.266 320.969 133.535 325.885C134.803 330.802 139.39 330.118 148.274 328.479Z" fill="#273043"/>
<path opacity="0.59" d="M150.96 325.647C159.325 324.262 169.377 323.62 175.391 323.581C181.211 323.543 189.596 324.01 197.967 325.37C206.338 326.73 211.613 328.854 212.8 324.734C213.987 320.614 218.98 302.538 218.376 299.337C217.772 296.135 212.387 293.398 202.82 291.583C193.253 289.768 181.312 289.329 174.126 289.34C166.939 289.351 155 289.827 145.441 291.672C135.881 293.517 130.507 296.271 129.916 299.474C129.325 302.678 134.628 320.474 135.832 324.59C137.034 328.705 142.595 327.032 150.96 325.647Z" fill="url(#paint0_linear_8_3040)"/>
<path d="M247.404 330.509C249.199 329.797 248.75 326.543 246.506 324.815C244.262 323.086 239.1 322.374 234.836 322.273C230.572 322.171 230.572 323.798 230.572 323.798C230.572 323.798 228.777 324.103 227.655 324.103V327.56L230.348 327.357C230.348 327.357 230.348 327.662 230.572 328.374C230.797 329.085 245.608 331.221 247.404 330.509Z" fill="#273552"/>
<path d="M203.048 237.704L200.399 236.166L193.778 260.758L194.22 281.506L195.544 261.91L203.048 237.704Z" fill="#5665A1"/>
<path d="M141.396 465.222C143.185 464.107 142.509 460.617 139.886 457.427C137.263 454.237 133.685 452.555 131.896 453.67C130.107 454.785 130.783 458.275 133.406 461.465C136.03 464.655 139.607 466.337 141.396 465.222Z" fill="#D83432"/>
<path d="M142.031 461.212C142.038 461.207 142.044 461.201 142.051 461.196C141.656 460.003 140.927 458.693 139.887 457.427C137.264 454.237 133.686 452.555 131.897 453.67C131.89 453.675 131.884 453.681 131.877 453.685C132.272 454.878 133.001 456.189 134.042 457.454C136.664 460.645 140.241 462.327 142.031 461.212Z" fill="#FE9D6D"/>
<path d="M219.877 461.466C222.5 458.276 223.176 454.786 221.387 453.671C219.597 452.556 216.02 454.238 213.397 457.428C210.774 460.618 210.098 464.108 211.887 465.223C213.677 466.337 217.254 464.655 219.877 461.466Z" fill="#D83432"/>
<path d="M219.242 457.455C220.283 456.19 221.011 454.879 221.407 453.686C221.4 453.681 221.394 453.675 221.387 453.671C219.597 452.556 216.02 454.238 213.397 457.428C212.356 458.693 211.628 460.004 211.233 461.197C211.24 461.202 211.245 461.208 211.253 461.213C213.041 462.327 216.618 460.645 219.242 457.455Z" fill="#FE9D6D"/>
<path d="M199.303 233.958L222.049 249.231L219.297 236.477C213.356 231.883 205.498 228.92 196.326 228.194C190.719 227.75 180.993 227.184 173.32 227.184C165.544 227.184 157.404 227.727 151.966 228.194C143.628 228.91 135.854 231.89 129.753 236.512L126.483 247.646L148.989 233.766C148.989 233.766 160.585 232.229 175.151 232.229C189.717 232.229 199.303 233.958 199.303 233.958Z" fill="#4C5478"/>
<path opacity="0.59" d="M212.799 324.733C213.986 320.613 218.979 302.537 218.375 299.336C217.771 296.134 212.386 293.397 202.819 291.582C197.127 290.502 190.6 289.912 184.728 289.611C185.336 291.905 189.065 306.573 189.865 324.312C192.508 324.579 195.236 324.926 197.965 325.369C206.337 326.728 211.612 328.853 212.799 324.733Z" fill="url(#paint1_linear_8_3040)"/>
<path d="M134.518 251.868C139.989 249.943 144.9 245.217 147.676 240.696C149.838 237.175 150.232 233.933 147.322 232.109C144.126 230.106 135.502 233.98 130.676 238.087C125.438 242.545 122.877 248.422 124.507 251.158C125.874 253.452 128.885 253.85 134.518 251.868Z" fill="#2D3857"/>
<path d="M134.965 249.935C139.325 248.401 143.238 244.635 145.451 241.032C147.174 238.226 147.488 235.643 145.169 234.189C142.622 232.592 135.75 235.68 131.904 238.953C127.73 242.506 125.689 247.189 126.988 249.37C128.076 251.197 130.476 251.515 134.965 249.935Z" fill="#D6E5FE"/>
<path d="M126.946 249.41C128.035 251.238 130.434 251.555 134.924 249.975C135.502 249.772 136.072 249.526 136.632 249.25C136.096 249.26 131.38 249.299 129.544 247.472C127.983 245.919 128.268 243.645 128.443 242.8C126.704 245.398 126.081 247.959 126.946 249.41Z" fill="#D5FAFC"/>
<path d="M146.621 238.468C147.107 236.706 146.754 235.183 145.168 234.188C142.621 232.591 135.749 235.679 131.903 238.952C130.507 240.14 129.357 241.454 128.483 242.759C128.487 242.755 138.676 234.027 146.466 238.387C146.522 238.419 146.568 238.439 146.621 238.468Z" fill="#78C2FC"/>
<path d="M212.616 251.868C218.25 253.851 221.261 253.452 222.627 251.159C224.256 248.423 221.696 242.546 216.457 238.088C211.631 233.98 203.008 230.106 199.811 232.11C196.901 233.934 197.295 237.176 199.457 240.697C202.234 245.217 207.145 249.942 212.616 251.868Z" fill="#2D3857"/>
<path d="M212.169 249.935C216.659 251.515 219.058 251.197 220.147 249.37C221.446 247.19 219.405 242.506 215.231 238.953C211.385 235.68 204.513 232.592 201.966 234.189C199.647 235.642 199.961 238.226 201.684 241.032C203.896 244.635 207.809 248.401 212.169 249.935Z" fill="#D6E5FE"/>
<path d="M210.501 249.25C211.061 249.526 211.631 249.772 212.209 249.975C216.698 251.555 219.098 251.237 220.187 249.41C221.052 247.959 220.43 245.398 218.691 242.801C218.866 243.646 219.151 245.92 217.59 247.473C215.754 249.299 211.038 249.26 210.501 249.25Z" fill="#D5FAFC"/>
<path d="M218.651 242.76C217.778 241.455 216.627 240.141 215.231 238.953C211.385 235.68 204.513 232.592 201.966 234.189C200.379 235.183 200.026 236.707 200.513 238.469C200.567 238.44 200.613 238.419 200.668 238.388C208.458 234.028 218.647 242.756 218.651 242.76Z" fill="#78C2FC"/>
<path d="M148.514 450.911C157.314 452.122 168.302 452.424 174.915 452.424C181.528 452.424 192.516 452.121 201.316 450.911C210.116 449.7 215.067 447.885 215.617 445.766C216.167 443.647 211.403 432.384 210.303 429.661C209.203 426.937 205.171 427.949 197.466 428.818C188.305 429.852 174.915 429.726 174.915 429.726C174.915 429.726 160.065 429.726 152.364 428.818C144.664 427.91 141.729 426.409 139.717 430.235C138.35 432.835 133.663 443.648 134.213 445.766C134.764 447.884 139.714 449.7 148.514 450.911Z" fill="#273043"/>
<path opacity="0.59" d="M150.01 448.237C158.355 449.181 168.776 449.425 175.049 449.431C181.322 449.437 191.745 449.212 200.096 448.283C208.447 447.354 213.147 445.953 213.675 444.314C214.202 442.675 209.54 433.07 208.503 430.961C207.467 428.852 203.167 430.294 195.86 430.989C188.553 431.685 175.109 431.867 175.109 431.867C175.109 431.867 162.131 431.556 154.829 430.847C147.527 430.138 142.772 428.794 141.722 430.9C140.671 433.007 135.943 442.604 136.459 444.243C136.975 445.883 141.666 447.292 150.01 448.237Z" fill="url(#paint2_linear_8_3040)"/>
<path opacity="0.59" d="M200.098 448.277C208.449 447.343 213.149 445.935 213.677 444.288C214.204 442.641 209.542 432.985 208.505 430.865C207.469 428.745 204.89 430.194 197.583 430.894C195.436 431.099 191.625 431.439 188.837 431.54C189.842 439.002 185.63 447.872 184.934 449.273C189.893 449.112 195.332 448.81 200.098 448.277Z" fill="url(#paint3_linear_8_3040)"/>
<path d="M132.654 430.098L140.907 422.741C141.678 422.054 142.038 421.061 141.87 420.088L139.885 408.599C139.572 406.788 137.589 405.685 135.713 406.28L127.95 408.741C126.538 409.189 125.63 410.477 125.756 411.854L127.251 428.239C127.478 430.73 130.701 431.839 132.654 430.098Z" fill="#25303D"/>
<path d="M126.511 355.739L132.55 355.835C134.271 355.862 135.656 354.826 135.579 353.569L134.467 335.415C134.467 335.415 128.043 315.281 127.199 314.219C126.355 313.157 123.92 312.908 123.174 314.679L124.061 353.939C124.083 354.92 125.169 355.718 126.511 355.739Z" fill="#25303D"/>
<path opacity="0.59" d="M126.861 354.206L131.959 354.287C132.871 354.301 133.603 353.751 133.56 353.085L132.468 336.476C132.428 335.864 132.312 335.255 132.123 334.656L126.153 315.771C125.976 315.209 124.831 315.29 124.84 315.865C124.991 324.895 125.822 349.312 125.967 353.557C125.981 353.914 126.375 354.199 126.861 354.206Z" fill="url(#paint4_linear_8_3040)"/>
<path d="M127.554 404.641L138.009 400.915C138.725 400.66 139.175 399.985 139.111 399.262L135.631 360C135.565 359.358 134.706 358.849 133.662 358.834L126.063 358.719C124.949 358.702 124.042 359.251 124.049 359.937L125.24 403.166C125.272 404.28 126.453 405.034 127.554 404.641Z" fill="#25303D"/>
<path opacity="0.59" d="M128.737 401.751L136.077 399.185C136.635 398.99 136.987 398.462 136.936 397.897L133.668 361.287C133.616 360.702 132.843 360.236 131.9 360.221L128.078 360.163C126.897 360.145 125.938 360.735 125.955 361.469C126.091 367.413 126.669 390.876 126.968 400.61C126.996 401.468 127.894 402.046 128.737 401.751Z" fill="url(#paint5_linear_8_3040)"/>
<path opacity="0.59" d="M131.678 428.085L139.242 421.784C139.668 421.429 139.874 420.898 139.789 420.374L138 409.423C137.842 408.459 136.784 407.876 135.798 408.21L128.501 410.679C127.777 410.924 127.32 411.597 127.393 412.31L128.916 427.093C129.045 428.358 130.656 428.936 131.678 428.085Z" fill="url(#paint6_linear_8_3040)"/>
<path d="M222.191 428.239L223.686 411.854C223.812 410.477 222.904 409.188 221.492 408.741L213.729 406.28C211.853 405.685 209.87 406.788 209.557 408.599L207.572 420.088C207.404 421.061 207.765 422.054 208.535 422.741L216.788 430.098C218.741 431.839 221.964 430.73 222.191 428.239Z" fill="#25303D"/>
<path d="M222.931 355.739C224.273 355.718 225.358 354.92 225.38 353.939L226.267 314.679C225.521 312.908 223.086 313.156 222.242 314.219C221.398 315.281 214.974 335.415 214.974 335.415L213.863 353.569C213.786 354.827 215.17 355.863 216.892 355.835L222.931 355.739Z" fill="#25303D"/>
<path opacity="0.59" d="M222.581 354.206C223.067 354.198 223.461 353.914 223.474 353.559C223.62 349.314 224.45 324.897 224.601 315.867C224.611 315.292 223.466 315.211 223.288 315.773L217.318 334.658C217.129 335.256 217.013 335.865 216.973 336.478L215.881 353.087C215.837 353.753 216.57 354.303 217.482 354.289L222.581 354.206Z" fill="url(#paint7_linear_8_3040)"/>
<path d="M221.887 404.641C222.988 405.034 224.17 404.28 224.2 403.166L225.391 359.937C225.398 359.251 224.491 358.703 223.377 358.719L215.778 358.834C214.734 358.85 213.876 359.358 213.809 360L210.329 399.262C210.265 399.984 210.715 400.659 211.431 400.915L221.887 404.641Z" fill="#25303D"/>
<path opacity="0.59" d="M220.704 401.751C221.548 402.046 222.446 401.468 222.472 400.61C222.771 390.876 223.348 367.413 223.485 361.469C223.502 360.735 222.542 360.146 221.362 360.163L217.54 360.221C216.598 360.235 215.824 360.701 215.772 361.287L212.505 397.897C212.454 398.463 212.807 398.99 213.364 399.185L220.704 401.751Z" fill="url(#paint8_linear_8_3040)"/>
<path opacity="0.59" d="M220.526 427.093L222.049 412.31C222.122 411.597 221.665 410.924 220.941 410.679L213.644 408.21C212.658 407.876 211.6 408.459 211.442 409.423L209.653 420.374C209.568 420.898 209.774 421.429 210.2 421.784L217.763 428.085C218.785 428.936 220.396 428.358 220.526 427.093Z" fill="url(#paint9_linear_8_3040)"/>
<path d="M186.978 391.117C191.78 391.117 195.673 387.224 195.673 382.422V367.676C195.673 362.874 191.78 358.981 186.978 358.981H161.902C157.1 358.981 153.207 362.874 153.207 367.676V382.422C153.207 387.224 157.1 391.117 161.902 391.117H186.978Z" fill="#273043"/>
<defs>
<linearGradient id="paint0_linear_8_3040" x1="136.29" y1="288.021" x2="209.674" y2="330.389" gradientUnits="userSpaceOnUse">
<stop stop-color="#72B3DD"/>
<stop offset="0.9946" stop-color="#2E81BA"/>
</linearGradient>
<linearGradient id="paint1_linear_8_3040" x1="184.729" y1="308.376" x2="218.425" y2="308.376" gradientUnits="userSpaceOnUse">
<stop stop-color="#72B3DD"/>
<stop offset="0.9946" stop-color="#2E81BA"/>
</linearGradient>
<linearGradient id="paint2_linear_8_3040" x1="146.467" y1="422.675" x2="206.266" y2="457.2" gradientUnits="userSpaceOnUse">
<stop stop-color="#72B3DD"/>
<stop offset="0.9946" stop-color="#2E81BA"/>
</linearGradient>
<linearGradient id="paint3_linear_8_3040" x1="184.934" y1="439.515" x2="213.717" y2="439.515" gradientUnits="userSpaceOnUse">
<stop stop-color="#72B3DD"/>
<stop offset="0.9946" stop-color="#2E81BA"/>
</linearGradient>
<linearGradient id="paint4_linear_8_3040" x1="133.562" y1="334.839" x2="124.841" y2="334.839" gradientUnits="userSpaceOnUse">
<stop stop-color="#72B3DD"/>
<stop offset="0.9946" stop-color="#2E81BA"/>
</linearGradient>
<linearGradient id="paint5_linear_8_3040" x1="136.942" y1="380.996" x2="125.956" y2="380.996" gradientUnits="userSpaceOnUse">
<stop stop-color="#72B3DD"/>
<stop offset="0.9946" stop-color="#2E81BA"/>
</linearGradient>
<linearGradient id="paint6_linear_8_3040" x1="127.385" y1="418.301" x2="139.807" y2="418.301" gradientUnits="userSpaceOnUse">
<stop stop-color="#72B3DD"/>
<stop offset="0.9946" stop-color="#2E81BA"/>
</linearGradient>
<linearGradient id="paint7_linear_8_3040" x1="224.601" y1="334.839" x2="215.88" y2="334.839" gradientUnits="userSpaceOnUse">
<stop stop-color="#72B3DD"/>
<stop offset="0.9946" stop-color="#2E81BA"/>
</linearGradient>
<linearGradient id="paint8_linear_8_3040" x1="223.485" y1="380.996" x2="212.5" y2="380.996" gradientUnits="userSpaceOnUse">
<stop stop-color="#72B3DD"/>
<stop offset="0.9946" stop-color="#2E81BA"/>
</linearGradient>
<linearGradient id="paint9_linear_8_3040" x1="209.634" y1="418.301" x2="222.056" y2="418.301" gradientUnits="userSpaceOnUse">
<stop stop-color="#72B3DD"/>
<stop offset="0.9946" stop-color="#2E81BA"/>
</linearGradient>
</defs>
</svg>
