<svg width="348" height="694" viewBox="0 0 348 694" fill="none" xmlns="http://www.w3.org/2000/svg">
<path d="M205.467 224.443C206.418 224.443 207.188 223.672 207.188 222.721C207.188 221.77 206.417 221 205.467 221H141.768C140.817 221 140.046 221.771 140.046 222.721C140.046 223.672 140.817 224.443 141.768 224.443H205.467Z" fill="#4E4E54"/>
<path d="M148.655 222.722H146.359V233.052H148.655V222.722Z" fill="#4E4E54"/>
<path d="M200.876 222.722H198.58V233.052H200.876V222.722Z" fill="#4E4E54"/>
<path d="M183.661 222.722H181.356V233.052H183.661V222.722Z" fill="#4E4E54"/>
<path d="M166.377 222.722H164.073V233.052H166.377V222.722Z" fill="#4E4E54"/>
<path d="M174.001 225.764L174.242 225.763C174.162 225.763 174.078 225.762 174.001 225.762V225.764Z" fill="#151347"/>
<path d="M174.146 464.739C174.066 464.737 174.021 464.735 174.021 464.735V464.742C170.941 464.825 139.988 465.496 135.234 458.926C130.229 452.01 122.972 452.01 122.972 452.01C122.972 452.01 123.766 454.77 124.977 458.08C127.255 464.307 133.203 468.999 140.547 470.352C148.681 471.85 160.735 472.951 173.911 472.951C187.308 472.951 199.472 471.853 207.666 470.356C215.044 469.009 221.034 464.322 223.32 458.069C224.528 454.764 225.321 452.01 225.321 452.01C225.321 452.01 218.064 452.01 213.059 458.926C208.304 465.496 177.351 464.826 174.272 464.742V464.735C174.272 464.735 174.226 464.737 174.146 464.739Z" fill="#25303D"/>
<path d="M151.304 464.497C162.382 464.954 184.594 465.072 195.664 464.497C215.93 463.444 228.769 456.387 228.769 438.561L231.417 261.045C231.417 243.22 217.307 229.853 196.326 228.193C190.719 227.749 180.993 227.183 173.32 227.183C165.544 227.183 157.404 227.726 151.966 228.193C132.955 229.827 116.875 243.22 116.875 261.045L119.523 438.561C119.523 456.387 131.485 463.68 151.304 464.497Z" fill="#2D3857"/>
<path d="M225.384 283.977C226.005 279.819 222.05 245.076 222.05 245.076L205.498 232.42C205.498 232.42 192.758 230.627 174.735 230.627C156.712 230.627 143.04 232.143 143.04 232.143L126.484 243.348C126.484 243.348 122.842 274.553 122.842 282.037C122.842 289.521 128.103 295.421 128.103 295.421H220.08C222.856 292.727 224.763 288.135 225.384 283.977Z" fill="#414D7A"/>
<path d="M117.939 328.373C118.163 327.661 118.163 327.356 118.163 327.356L120.856 327.559V324.102C119.734 324.102 117.939 323.797 117.939 323.797C117.939 323.797 117.938 322.17 113.674 322.272C109.41 322.374 104.25 323.085 102.006 324.814C99.7615 326.543 99.3125 329.797 101.107 330.508C102.903 331.221 117.715 329.085 117.939 328.373Z" fill="#273552"/>
<path d="M154.733 260.758L148.112 236.166L145.464 237.704L152.967 261.91L154.291 281.506L154.733 260.758Z" fill="#5665A1"/>
<path d="M154.125 424.401H193.671C198.742 424.401 202.853 420.29 202.853 415.219L210.313 319.834H137.483L144.943 415.219C144.943 420.29 149.054 424.401 154.125 424.401Z" fill="#414D7A"/>
<path d="M247.279 330.509C249.074 329.797 248.625 326.543 246.381 324.815C244.137 323.086 238.975 322.374 234.711 322.273C230.447 322.171 230.448 323.798 230.448 323.798C230.448 323.798 228.653 324.103 227.531 324.103V327.56L230.224 327.357C230.224 327.357 230.224 327.662 230.448 328.374C230.673 329.085 245.484 331.221 247.279 330.509Z" fill="#384BA1"/>
<path d="M148.273 328.479C157.157 326.84 167.537 325.887 174.095 325.885C180.678 325.883 192.014 326.83 200.898 328.468C209.782 330.107 213.492 330.657 214.761 325.741C216.03 320.825 221.741 302.342 221.106 298.518C220.471 294.694 214.76 291.417 204.607 289.232C194.453 287.047 181.777 286.501 174.147 286.501C166.517 286.501 153.841 287.047 143.688 289.232C133.535 291.417 127.822 294.694 127.188 298.518C126.553 302.342 132.265 320.969 133.534 325.885C134.802 330.802 139.389 330.118 148.273 328.479Z" fill="#273043"/>
<path opacity="0.59" d="M150.959 325.647C159.324 324.262 169.376 323.62 175.39 323.581C181.21 323.543 189.595 324.01 197.966 325.37C206.337 326.73 211.612 328.854 212.799 324.734C213.986 320.614 218.979 302.538 218.375 299.337C217.771 296.135 212.386 293.398 202.819 291.583C193.252 289.768 181.311 289.329 174.125 289.34C166.938 289.351 154.999 289.827 145.44 291.672C135.88 293.517 130.506 296.271 129.915 299.474C129.324 302.678 134.627 320.474 135.831 324.59C137.033 328.705 142.594 327.032 150.959 325.647Z" fill="url(#paint0_linear_21_194)"/>
<path d="M247.404 330.509C249.199 329.797 248.75 326.543 246.506 324.815C244.262 323.086 239.1 322.374 234.836 322.273C230.572 322.171 230.573 323.798 230.573 323.798C230.573 323.798 228.778 324.103 227.656 324.103V327.56L230.349 327.357C230.349 327.357 230.349 327.662 230.573 328.374C230.798 329.085 245.608 331.221 247.404 330.509Z" fill="#273552"/>
<path d="M203.048 237.704L200.399 236.166L193.778 260.758L194.22 281.506L195.544 261.91L203.048 237.704Z" fill="#5665A1"/>
<path d="M141.396 465.222C143.185 464.107 142.509 460.617 139.886 457.427C137.263 454.237 133.685 452.555 131.896 453.67C130.107 454.785 130.783 458.275 133.406 461.465C136.03 464.655 139.607 466.337 141.396 465.222Z" fill="#D83432"/>
<path d="M142.031 461.212C142.038 461.207 142.043 461.201 142.05 461.196C141.655 460.003 140.926 458.693 139.886 457.427C137.263 454.237 133.685 452.555 131.896 453.67C131.889 453.675 131.883 453.681 131.876 453.685C132.271 454.878 133.001 456.189 134.042 457.454C136.664 460.645 140.241 462.327 142.031 461.212Z" fill="#FE9D6D"/>
<path d="M219.877 461.466C222.5 458.276 223.176 454.786 221.387 453.671C219.597 452.556 216.02 454.238 213.397 457.428C210.774 460.618 210.098 464.108 211.887 465.223C213.677 466.337 217.254 464.655 219.877 461.466Z" fill="#D83432"/>
<path d="M219.243 457.455C220.284 456.19 221.012 454.879 221.408 453.686C221.401 453.681 221.395 453.675 221.388 453.671C219.598 452.556 216.021 454.238 213.398 457.428C212.357 458.693 211.629 460.004 211.234 461.197C211.241 461.202 211.246 461.208 211.254 461.213C213.042 462.327 216.619 460.645 219.243 457.455Z" fill="#FE9D6D"/>
<path d="M199.303 233.958L222.049 249.231L219.297 236.477C213.356 231.883 205.498 228.92 196.326 228.194C190.719 227.75 180.993 227.184 173.32 227.184C165.544 227.184 157.404 227.727 151.966 228.194C143.628 228.91 135.854 231.89 129.753 236.512L126.483 247.646L148.989 233.766C148.989 233.766 160.585 232.229 175.151 232.229C189.717 232.229 199.303 233.958 199.303 233.958Z" fill="#4C5478"/>
<path opacity="0.59" d="M212.799 324.733C213.986 320.613 218.979 302.537 218.375 299.336C217.771 296.134 212.386 293.397 202.819 291.582C197.127 290.502 190.6 289.912 184.728 289.611C185.336 291.905 189.065 306.573 189.865 324.312C192.508 324.579 195.236 324.926 197.965 325.369C206.337 326.728 211.612 328.853 212.799 324.733Z" fill="url(#paint1_linear_21_194)"/>
<path d="M134.518 251.868C139.989 249.943 144.899 245.217 147.675 240.696C149.837 237.175 150.231 233.933 147.321 232.109C144.125 230.106 135.501 233.98 130.675 238.087C125.437 242.545 122.877 248.422 124.507 251.158C125.874 253.452 128.885 253.85 134.518 251.868Z" fill="#2D3857"/>
<path d="M134.964 249.935C139.324 248.401 143.237 244.635 145.45 241.032C147.173 238.226 147.487 235.643 145.168 234.189C142.621 232.592 135.749 235.68 131.903 238.953C127.729 242.506 125.688 247.189 126.987 249.37C128.075 251.197 130.475 251.515 134.964 249.935Z" fill="#D6E5FE"/>
<path d="M126.946 249.41C128.035 251.238 130.434 251.555 134.924 249.975C135.502 249.772 136.072 249.526 136.632 249.25C136.096 249.26 131.38 249.299 129.544 247.472C127.983 245.919 128.268 243.645 128.443 242.8C126.704 245.398 126.081 247.959 126.946 249.41Z" fill="#D5FAFC"/>
<path d="M146.621 238.468C147.107 236.706 146.754 235.183 145.168 234.188C142.621 232.591 135.749 235.679 131.903 238.952C130.507 240.14 129.357 241.454 128.483 242.759C128.487 242.755 138.676 234.027 146.466 238.387C146.522 238.419 146.568 238.439 146.621 238.468Z" fill="#78C2FC"/>
<path d="M212.616 251.868C218.25 253.851 221.261 253.452 222.627 251.159C224.256 248.423 221.696 242.546 216.457 238.088C211.631 233.98 203.008 230.106 199.811 232.11C196.901 233.934 197.295 237.176 199.457 240.697C202.234 245.217 207.145 249.942 212.616 251.868Z" fill="#2D3857"/>
<path d="M212.169 249.935C216.659 251.515 219.058 251.197 220.147 249.37C221.446 247.19 219.405 242.506 215.231 238.953C211.385 235.68 204.513 232.592 201.966 234.189C199.647 235.642 199.961 238.226 201.684 241.032C203.896 244.635 207.809 248.401 212.169 249.935Z" fill="#D6E5FE"/>
<path d="M210.501 249.25C211.061 249.526 211.631 249.772 212.209 249.975C216.698 251.555 219.099 251.237 220.188 249.41C221.053 247.959 220.431 245.398 218.692 242.801C218.867 243.646 219.151 245.92 217.59 247.473C215.754 249.299 211.038 249.26 210.501 249.25Z" fill="#D5FAFC"/>
<path d="M218.65 242.76C217.777 241.455 216.626 240.141 215.23 238.953C211.384 235.68 204.512 232.592 201.965 234.189C200.378 235.183 200.025 236.707 200.512 238.469C200.566 238.44 200.612 238.419 200.667 238.388C208.457 234.028 218.646 242.756 218.65 242.76Z" fill="#78C2FC"/>
<path d="M148.514 450.911C157.314 452.122 168.302 452.424 174.915 452.424C181.528 452.424 192.516 452.121 201.316 450.911C210.116 449.7 215.067 447.885 215.617 445.766C216.167 443.647 211.403 432.384 210.303 429.661C209.203 426.937 205.171 427.949 197.466 428.818C188.305 429.852 174.915 429.726 174.915 429.726C174.915 429.726 160.065 429.726 152.364 428.818C144.664 427.91 141.729 426.409 139.717 430.235C138.35 432.835 133.663 443.648 134.213 445.766C134.764 447.884 139.714 449.7 148.514 450.911Z" fill="#273043"/>
<path opacity="0.59" d="M150.011 448.237C158.356 449.181 168.777 449.425 175.05 449.431C181.323 449.437 191.746 449.212 200.097 448.283C208.448 447.354 213.148 445.953 213.676 444.314C214.203 442.675 209.541 433.07 208.504 430.961C207.468 428.852 203.168 430.294 195.861 430.989C188.554 431.685 175.11 431.867 175.11 431.867C175.11 431.867 162.132 431.556 154.83 430.847C147.528 430.138 142.773 428.794 141.723 430.9C140.672 433.007 135.944 442.604 136.46 444.243C136.976 445.883 141.667 447.292 150.011 448.237Z" fill="url(#paint2_linear_21_194)"/>
<path opacity="0.59" d="M200.098 448.277C208.449 447.343 213.149 445.935 213.677 444.288C214.204 442.641 209.542 432.985 208.505 430.865C207.469 428.745 204.89 430.194 197.583 430.894C195.436 431.099 191.625 431.439 188.837 431.54C189.842 439.002 185.63 447.872 184.934 449.273C189.893 449.112 195.332 448.81 200.098 448.277Z" fill="url(#paint3_linear_21_194)"/>
<path d="M132.653 430.098L140.907 422.741C141.678 422.054 142.038 421.061 141.87 420.088L139.885 408.599C139.572 406.788 137.589 405.685 135.713 406.28L127.95 408.741C126.538 409.189 125.63 410.477 125.756 411.854L127.251 428.239C127.478 430.73 130.7 431.839 132.653 430.098Z" fill="#25303D"/>
<path d="M126.51 355.739L132.549 355.835C134.27 355.862 135.655 354.826 135.578 353.569L134.466 335.415C134.466 335.415 128.042 315.281 127.198 314.219C126.354 313.157 123.919 312.908 123.173 314.679L124.06 353.939C124.082 354.92 125.168 355.718 126.51 355.739Z" fill="#25303D"/>
<path opacity="0.59" d="M126.86 354.206L131.958 354.287C132.87 354.301 133.602 353.751 133.559 353.085L132.467 336.476C132.427 335.864 132.311 335.255 132.122 334.656L126.152 315.771C125.975 315.209 124.83 315.29 124.839 315.865C124.99 324.895 125.821 349.312 125.966 353.557C125.98 353.914 126.374 354.199 126.86 354.206Z" fill="url(#paint4_linear_21_194)"/>
<path d="M127.553 404.641L138.008 400.915C138.724 400.66 139.174 399.985 139.11 399.262L135.63 360C135.564 359.358 134.705 358.849 133.661 358.834L126.062 358.719C124.948 358.702 124.041 359.251 124.048 359.937L125.239 403.166C125.271 404.28 126.452 405.034 127.553 404.641Z" fill="#25303D"/>
<path opacity="0.59" d="M128.737 401.751L136.077 399.185C136.635 398.99 136.987 398.462 136.936 397.897L133.668 361.287C133.616 360.702 132.843 360.236 131.9 360.221L128.078 360.163C126.897 360.145 125.938 360.735 125.955 361.469C126.091 367.413 126.669 390.876 126.968 400.61C126.996 401.468 127.894 402.046 128.737 401.751Z" fill="url(#paint5_linear_21_194)"/>
<path opacity="0.59" d="M131.678 428.085L139.242 421.784C139.668 421.429 139.874 420.898 139.789 420.374L138 409.423C137.842 408.459 136.784 407.876 135.798 408.21L128.501 410.679C127.777 410.924 127.32 411.597 127.393 412.31L128.916 427.093C129.045 428.358 130.656 428.936 131.678 428.085Z" fill="url(#paint6_linear_21_194)"/>
<path d="M222.19 428.239L223.685 411.854C223.811 410.477 222.903 409.188 221.491 408.741L213.728 406.28C211.852 405.685 209.869 406.788 209.556 408.599L207.571 420.088C207.403 421.061 207.764 422.054 208.534 422.741L216.787 430.098C218.74 431.839 221.963 430.73 222.19 428.239Z" fill="#25303D"/>
<path d="M222.931 355.739C224.273 355.718 225.358 354.92 225.38 353.939L226.267 314.679C225.521 312.908 223.086 313.156 222.242 314.219C221.398 315.281 214.974 335.415 214.974 335.415L213.863 353.569C213.786 354.827 215.17 355.863 216.892 355.835L222.931 355.739Z" fill="#25303D"/>
<path opacity="0.59" d="M222.58 354.206C223.066 354.198 223.46 353.914 223.473 353.559C223.619 349.314 224.449 324.897 224.6 315.867C224.61 315.292 223.465 315.211 223.287 315.773L217.317 334.658C217.128 335.256 217.012 335.865 216.972 336.478L215.88 353.087C215.836 353.753 216.569 354.303 217.481 354.289L222.58 354.206Z" fill="url(#paint7_linear_21_194)"/>
<path d="M221.888 404.641C222.989 405.034 224.17 404.28 224.2 403.166L225.392 359.937C225.399 359.251 224.491 358.703 223.377 358.719L215.778 358.834C214.734 358.85 213.877 359.358 213.81 360L210.33 399.262C210.266 399.984 210.716 400.659 211.432 400.915L221.888 404.641Z" fill="#25303D"/>
<path opacity="0.59" d="M220.703 401.751C221.547 402.046 222.445 401.468 222.471 400.61C222.77 390.876 223.347 367.413 223.484 361.469C223.501 360.735 222.541 360.146 221.361 360.163L217.539 360.221C216.597 360.235 215.823 360.701 215.771 361.287L212.504 397.897C212.453 398.463 212.806 398.99 213.363 399.185L220.703 401.751Z" fill="url(#paint8_linear_21_194)"/>
<path opacity="0.59" d="M220.526 427.093L222.049 412.31C222.122 411.597 221.665 410.924 220.941 410.679L213.644 408.21C212.658 407.876 211.6 408.459 211.442 409.423L209.653 420.374C209.568 420.898 209.774 421.429 210.2 421.784L217.763 428.085C218.785 428.936 220.396 428.358 220.526 427.093Z" fill="url(#paint9_linear_21_194)"/>
<path d="M186.979 391.117C191.781 391.117 195.673 387.224 195.673 382.422V367.676C195.673 362.874 191.781 358.981 186.979 358.981H161.902C157.1 358.981 153.208 362.874 153.208 367.676V382.422C153.208 387.224 157.1 391.117 161.902 391.117H186.979Z" fill="#273043"/>
<defs>
<linearGradient id="paint0_linear_21_194" x1="136.29" y1="288.021" x2="209.674" y2="330.389" gradientUnits="userSpaceOnUse">
<stop stop-color="#72B3DD"/>
<stop offset="0.9946" stop-color="#2E81BA"/>
</linearGradient>
<linearGradient id="paint1_linear_21_194" x1="184.729" y1="308.376" x2="218.425" y2="308.376" gradientUnits="userSpaceOnUse">
<stop stop-color="#72B3DD"/>
<stop offset="0.9946" stop-color="#2E81BA"/>
</linearGradient>
<linearGradient id="paint2_linear_21_194" x1="146.468" y1="422.675" x2="206.267" y2="457.2" gradientUnits="userSpaceOnUse">
<stop stop-color="#72B3DD"/>
<stop offset="0.9946" stop-color="#2E81BA"/>
</linearGradient>
<linearGradient id="paint3_linear_21_194" x1="184.934" y1="439.515" x2="213.717" y2="439.515" gradientUnits="userSpaceOnUse">
<stop stop-color="#72B3DD"/>
<stop offset="0.9946" stop-color="#2E81BA"/>
</linearGradient>
<linearGradient id="paint4_linear_21_194" x1="133.561" y1="334.839" x2="124.84" y2="334.839" gradientUnits="userSpaceOnUse">
<stop stop-color="#72B3DD"/>
<stop offset="0.9946" stop-color="#2E81BA"/>
</linearGradient>
<linearGradient id="paint5_linear_21_194" x1="136.942" y1="380.996" x2="125.956" y2="380.996" gradientUnits="userSpaceOnUse">
<stop stop-color="#72B3DD"/>
<stop offset="0.9946" stop-color="#2E81BA"/>
</linearGradient>
<linearGradient id="paint6_linear_21_194" x1="127.385" y1="418.301" x2="139.807" y2="418.301" gradientUnits="userSpaceOnUse">
<stop stop-color="#72B3DD"/>
<stop offset="0.9946" stop-color="#2E81BA"/>
</linearGradient>
<linearGradient id="paint7_linear_21_194" x1="224.601" y1="334.839" x2="215.88" y2="334.839" gradientUnits="userSpaceOnUse">
<stop stop-color="#72B3DD"/>
<stop offset="0.9946" stop-color="#2E81BA"/>
</linearGradient>
<linearGradient id="paint8_linear_21_194" x1="223.485" y1="380.996" x2="212.499" y2="380.996" gradientUnits="userSpaceOnUse">
<stop stop-color="#72B3DD"/>
<stop offset="0.9946" stop-color="#2E81BA"/>
</linearGradient>
<linearGradient id="paint9_linear_21_194" x1="209.634" y1="418.301" x2="222.056" y2="418.301" gradientUnits="userSpaceOnUse">
<stop stop-color="#72B3DD"/>
<stop offset="0.9946" stop-color="#2E81BA"/>
</linearGradient>
</defs>
</svg>
