<svg width="360" height="720" viewBox="0 0 360 720" fill="none" xmlns="http://www.w3.org/2000/svg">
<rect width="360" height="720" fill="white"/>
<path d="M199.283 241.861C199.283 241.861 185.008 241 180.059 241C175.396 241 160.835 241.861 160.835 241.861C143.087 241.861 128.699 257.971 128.699 275.719L132.716 452.469C132.716 470.217 143.087 478.293 160.835 478.293H199.284C217.032 478.293 227.403 470.217 227.403 452.469L231.42 275.719C231.42 257.97 217.032 241.861 199.283 241.861Z" fill="#A8392E"/>
<path d="M180.392 247.408C164.234 247.408 151.975 250.033 151.975 250.033L136.374 264.992C136.374 264.992 133.867 290.187 133.867 297.273C133.867 304.359 138.584 309.945 138.584 309.945H221.047C223.535 307.395 225.245 303.047 225.802 299.11C226.359 295.173 223.573 264.73 223.573 264.73L207.972 250.296C207.972 250.296 196.55 247.408 180.392 247.408Z" fill="#FF5E64"/>
<path d="M158.252 339.651C151.245 341.199 149.116 342.022 145.244 343.547L151.548 439.797C151.62 440.895 151.86 441.975 152.272 442.993C152.695 444.037 153.308 445.303 154.043 446.102C154.366 446.453 155.009 446.934 155.705 447.408C157.354 448.533 159.299 449.121 161.284 449.121H179.676H180.058H198.374C200.949 449.121 203.471 448.165 205.3 446.319C205.403 446.215 205.501 446.111 205.595 446.005C206.336 445.166 206.902 444.163 207.305 443.292C207.824 442.173 208.107 440.957 208.187 439.722L214.489 343.547C214.489 343.547 209.644 341.471 201.481 339.651C196.031 338.436 189.311 337.313 180.057 337.313C171.643 337.314 165.237 338.108 158.252 339.651Z" fill="#FF5E64"/>
<path d="M142.017 311.482L141.885 311.37C141.637 311.162 135.812 306.168 135.812 298.964C135.812 291.955 138.17 266.972 138.194 266.721L138.21 266.553L153.227 251.415L153.361 251.386C153.478 251.359 165.218 248.756 180.424 248.756C195.639 248.756 206.603 251.623 206.711 251.652L206.83 251.684L221.845 266.289L221.86 266.463C221.968 267.705 224.501 296.926 223.972 300.859C223.427 304.906 220.221 308.361 217.879 310.884L217.74 311.033L217.487 311.087L142.017 311.482ZM139.113 266.976C138.906 269.182 136.752 292.3 136.752 298.964C136.752 305.169 141.522 309.774 142.364 310.54L217.277 310.148C219.68 307.558 222.542 304.414 223.037 300.734C223.532 297.055 221.149 269.198 220.936 266.718L206.35 252.53C205.135 252.224 194.664 249.696 180.421 249.696C166.192 249.696 155.029 251.989 153.697 252.274L139.113 266.976Z" fill="#A8392E"/>
<path d="M206.313 305.945C197.6 304.07 186.725 303.616 180.18 303.628C173.635 303.639 162.762 304.131 154.055 306.037C145.349 307.943 140.455 310.788 139.916 314.098C139.377 317.408 144.311 336.78 145.407 341.032C146.503 345.284 150.308 341.969 157.926 340.537C165.544 339.106 180.242 339.08 180.242 339.08C180.242 339.08 194.939 339.054 202.563 340.459C210.186 341.864 214.003 345.166 215.084 340.91C216.165 336.654 221.03 317.265 220.48 313.957C219.93 310.648 215.026 307.821 206.313 305.945Z" fill="#3E687E"/>
<path d="M169.524 360.937C163.299 360.937 158.253 365.983 158.253 372.208V412.791C158.253 419.016 163.299 424.062 169.524 424.062H190.978C197.203 424.062 202.249 419.016 202.249 412.791V372.209C202.249 365.984 197.203 360.938 190.978 360.938L169.524 360.937Z" fill="#25303D"/>
<path opacity="0.59" d="M168.58 363.424C164.356 363.424 160.932 366.848 160.932 371.072V413.831C160.932 418.055 164.356 421.479 168.58 421.479H191.923C196.147 421.479 199.571 418.055 199.571 413.831V371.072C199.571 366.848 196.147 363.424 191.923 363.424H168.58Z" fill="url(#paint0_linear_8_43)"/>
<path d="M200.718 383.682H160.165V389.822H200.718V383.682Z" fill="#25303D"/>
<path d="M143.011 377.197H135.411C134.297 377.197 133.4 378.109 133.418 379.223L134.566 449.281C134.626 452.911 138.996 454.712 141.596 452.178L149.17 444.796C149.592 444.385 149.81 443.808 149.767 443.221L145 379.043C144.922 378.002 144.055 377.197 143.011 377.197Z" fill="#25303D"/>
<path d="M131.855 319.763L133.365 373.449C133.403 374.79 134.501 375.858 135.843 375.858H141.883C143.605 375.858 144.972 374.411 144.875 372.692L143.475 347.882C143.475 347.882 136.732 320.48 135.871 319.045C135.011 317.611 132.572 317.324 131.855 319.763Z" fill="#25303D"/>
<path d="M161.056 276.988L162.253 296.665L162.652 275.831L157.865 251.138L155.574 255.245L161.056 276.988Z" fill="#FE878C"/>
<path d="M197.395 296.665L198.607 277.071L204.161 255.419L201.841 251.33L196.991 275.918L197.395 296.665Z" fill="#FE878C"/>
<path d="M134.852 321.194C134.666 320.429 133.522 320.565 133.541 321.352C133.835 333.701 135.054 367.084 135.266 372.888C135.284 373.374 135.683 373.754 136.169 373.754H141.268C142.18 373.754 142.904 372.986 142.849 372.075L141.494 349.379C141.444 348.542 141.319 347.712 141.12 346.897L134.852 321.194Z" fill="url(#paint1_linear_8_43)"/>
<path d="M141.274 379.492H137.452C136.271 379.492 135.322 380.464 135.351 381.645C135.602 391.838 136.676 435.303 137.089 448.65C137.136 450.183 138.964 450.945 140.091 449.905L145.797 444.638C146.658 443.843 147.113 442.702 147.036 441.533L143.06 381.163C142.998 380.223 142.217 379.492 141.274 379.492Z" fill="url(#paint2_linear_8_43)"/>
<path d="M138.911 251.93C133.51 257.211 130.87 264.172 132.55 267.412C133.959 270.128 137.063 270.6 142.871 268.252C148.512 265.972 153.575 260.374 156.438 255.019C158.667 250.849 159.074 247.009 156.073 244.849C152.777 242.476 143.886 247.065 138.911 251.93Z" fill="#A8392E"/>
<path d="M127.742 326.506C125.016 326.65 121.716 327.654 120.282 330.093C118.847 332.532 118.56 337.123 119.708 338.127C120.856 339.131 130.324 336.119 130.468 335.114C130.611 334.11 130.611 333.679 130.611 333.679L132.333 333.966V329.088C131.616 329.088 130.468 328.657 130.468 328.657C130.468 328.657 130.468 326.362 127.742 326.506Z" fill="#25303D"/>
<path d="M140.176 252.955C135.872 257.163 133.768 262.711 135.107 265.293C136.229 267.458 138.704 267.834 143.332 265.962C147.827 264.145 151.862 259.684 154.143 255.416C155.919 252.093 156.243 249.033 153.852 247.311C151.226 245.422 144.141 249.079 140.176 252.955Z" fill="#D6E5FE"/>
<path d="M135.065 265.341C136.187 267.506 138.662 267.882 143.29 266.011C143.887 265.77 144.474 265.479 145.051 265.152C144.498 265.164 139.635 265.21 137.742 263.046C136.133 261.207 136.426 258.513 136.607 257.513C134.815 260.59 134.173 263.623 135.065 265.341Z" fill="#FE9D6D"/>
<path d="M149.141 470.138C148.3 470.138 148.008 471.187 148.742 471.572L155.389 475.062C155.511 475.126 155.648 475.16 155.788 475.16H205.104C205.239 475.16 205.372 475.129 205.491 475.068L212.403 471.578C213.15 471.201 212.864 470.138 212.016 470.138H149.141Z" fill="#FF5E64"/>
<path d="M150.348 469.999C148.681 469.985 147.805 470.706 147.349 471.387C146.954 471.978 147.148 472.79 147.784 473.11C149.786 474.121 152.902 474.81 154.824 475.166C155.817 475.35 156.571 474.29 156.076 473.41C155.064 471.614 152.635 470.018 150.348 469.999Z" fill="#FEAA23"/>
<path d="M216.786 377.197C215.742 377.197 214.875 378.002 214.798 379.043L210.031 443.221C209.987 443.809 210.206 444.385 210.628 444.796L218.202 452.178C220.802 454.712 225.172 452.911 225.231 449.281L226.379 379.223C226.397 378.109 225.5 377.197 224.386 377.197H216.786Z" fill="#25303D"/>
<path d="M223.925 319.045C223.064 320.48 216.321 347.882 216.321 347.882L214.921 372.692C214.824 374.411 216.192 375.858 217.913 375.858H223.953C225.295 375.858 226.393 374.79 226.431 373.449L227.941 319.763C227.225 317.324 224.786 317.611 223.925 319.045Z" fill="#25303D"/>
<path d="M224.946 321.194L218.677 346.897C218.478 347.711 218.353 348.542 218.303 349.379L216.948 372.075C216.894 372.986 217.617 373.754 218.53 373.754H223.629C224.115 373.754 224.514 373.374 224.532 372.888C224.745 367.084 225.963 333.701 226.257 321.352C226.275 320.565 225.132 320.429 224.946 321.194Z" fill="url(#paint3_linear_8_43)"/>
<path d="M218.523 379.492C217.581 379.492 216.799 380.223 216.738 381.164L212.762 441.534C212.685 442.703 213.141 443.844 214.001 444.639L219.707 449.906C220.834 450.946 222.661 450.183 222.709 448.651C223.123 435.304 224.196 391.838 224.447 381.646C224.476 380.465 223.527 379.493 222.346 379.493L218.523 379.492Z" fill="url(#paint4_linear_8_43)"/>
<path d="M203.724 244.849C200.724 247.009 201.13 250.849 203.359 255.019C206.222 260.374 211.285 265.972 216.926 268.252C222.735 270.6 225.839 270.128 227.248 267.412C228.928 264.171 226.288 257.21 220.887 251.93C215.911 247.065 207.02 242.476 203.724 244.849Z" fill="#A8392E"/>
<path d="M232.056 326.506C229.33 326.362 229.33 328.658 229.33 328.658C229.33 328.658 228.182 329.089 227.465 329.089V333.967L229.187 333.68C229.187 333.68 229.187 334.111 229.331 335.115C229.474 336.119 238.943 339.132 240.091 338.128C241.239 337.124 240.952 332.533 239.517 330.094C238.082 327.653 234.782 326.649 232.056 326.506Z" fill="#25303D"/>
<path d="M205.944 247.313C203.553 249.035 203.877 252.095 205.653 255.418C207.934 259.686 211.969 264.146 216.465 265.964C221.094 267.835 223.568 267.459 224.69 265.295C226.029 262.713 223.925 257.165 219.621 252.957C215.656 249.079 208.571 245.422 205.944 247.313Z" fill="#D6E5FE"/>
<path d="M214.775 265.175C215.352 265.503 215.94 265.793 216.536 266.034C221.165 267.905 223.639 267.529 224.762 265.364C225.653 263.645 225.012 260.612 223.219 257.535C223.399 258.535 223.693 261.229 222.084 263.068C220.191 265.233 215.328 265.188 214.775 265.175Z" fill="#FE9D6D"/>
<path d="M204.514 474.272C204.377 474.818 204.816 475.337 205.377 475.289C206.992 475.151 210.399 474.697 212.95 473.25C213.814 472.76 213.987 471.576 213.296 470.863C212.784 470.335 211.959 469.883 210.636 469.894C207.943 469.917 205.055 472.125 204.514 474.272Z" fill="#FEAA23"/>
<path d="M206.864 300.922C197.898 298.665 186.704 298.1 179.967 298.1C173.23 298.1 162.036 298.664 153.07 300.922C144.104 303.179 139.061 306.565 138.501 310.516C137.941 314.466 142.984 337.604 144.104 342.683C145.225 347.762 149.147 343.812 156.992 342.118C164.837 340.425 179.966 340.425 179.966 340.425C179.966 340.425 195.095 340.425 202.94 342.118C210.785 343.811 214.707 347.761 215.828 342.683C216.949 337.604 221.992 314.466 221.432 310.516C220.873 306.565 215.83 303.179 206.864 300.922Z" fill="#25303D"/>
<path d="M205.622 305.171C197.114 303.327 186.495 302.881 180.105 302.892C173.714 302.903 163.097 303.387 154.596 305.262C146.095 307.137 141.316 309.934 140.79 313.189C140.264 316.444 145.081 335.494 146.152 339.676C147.222 343.858 150.937 340.597 158.376 339.189C165.815 337.781 180.166 337.756 180.166 337.756C180.166 337.756 194.517 337.731 201.961 339.112C209.405 340.493 213.131 343.741 214.187 339.555C215.243 335.37 219.993 316.302 219.456 313.049C218.919 309.796 214.13 307.015 205.622 305.171Z" fill="url(#paint5_linear_8_43)"/>
<path d="M201.961 339.112C209.405 340.493 213.131 343.741 214.187 339.555C215.243 335.37 219.993 316.302 219.456 313.049C218.919 309.796 214.13 307.015 205.623 305.171C200.496 304.06 194.607 303.459 189.335 303.157C190.414 307.52 194.131 323.784 193.5 338.179C196.562 338.379 199.607 338.675 201.961 339.112Z" fill="url(#paint6_linear_8_43)"/>
<path d="M140.176 252.955C138.737 254.362 137.551 255.918 136.65 257.464C136.654 257.46 147.159 247.122 155.192 252.286C155.249 252.322 155.296 252.347 155.351 252.381C155.852 250.295 155.488 248.49 153.853 247.312C151.226 245.422 144.141 249.079 140.176 252.955Z" fill="#78C2FC"/>
<path d="M198.931 451.607H159.868C158.954 451.607 158.084 451.992 157.471 452.67C155.904 454.399 152.702 457.937 149.961 460.987C148.089 463.07 149.569 466.385 152.369 466.385H206.554C209.371 466.385 210.843 463.036 208.938 460.961L201.314 452.656C200.702 451.987 199.837 451.607 198.931 451.607Z" fill="#25303D"/>
<path d="M205.977 247.336C204.341 248.514 203.977 250.319 204.478 252.405C204.533 252.371 204.581 252.346 204.637 252.309C212.67 247.145 223.175 257.483 223.179 257.488C222.278 255.942 221.092 254.386 219.653 252.979C215.689 249.102 208.603 245.445 205.977 247.336Z" fill="#78C2FC"/>
<path d="M197.607 453.329H160.658C160.22 453.329 159.802 453.506 159.496 453.819C158.137 455.215 154.174 459.287 151.506 462.062C150.515 463.093 151.247 464.806 152.677 464.806H205.841C207.286 464.806 208.009 463.059 206.988 462.038L198.754 453.804C198.45 453.5 198.038 453.329 197.607 453.329Z" fill="url(#paint7_linear_8_43)"/>
<defs>
<linearGradient id="paint0_linear_8_43" x1="196.251" y1="420.165" x2="164.251" y2="364.738" gradientUnits="userSpaceOnUse">
<stop stop-color="#72B3DD"/>
<stop offset="0.9946" stop-color="#2E81BA"/>
</linearGradient>
<linearGradient id="paint1_linear_8_43" x1="142.852" y1="347.22" x2="133.541" y2="347.22" gradientUnits="userSpaceOnUse">
<stop stop-color="#414751"/>
<stop offset="0.9838" stop-color="#292B2E"/>
</linearGradient>
<linearGradient id="paint2_linear_8_43" x1="147.045" y1="414.938" x2="135.35" y2="414.938" gradientUnits="userSpaceOnUse">
<stop stop-color="#414751"/>
<stop offset="0.9838" stop-color="#292B2E"/>
</linearGradient>
<linearGradient id="paint3_linear_8_43" x1="226.257" y1="347.22" x2="216.945" y2="347.22" gradientUnits="userSpaceOnUse">
<stop stop-color="#414751"/>
<stop offset="0.9838" stop-color="#292B2E"/>
</linearGradient>
<linearGradient id="paint4_linear_8_43" x1="224.447" y1="414.938" x2="212.753" y2="414.938" gradientUnits="userSpaceOnUse">
<stop stop-color="#414751"/>
<stop offset="0.9838" stop-color="#292B2E"/>
</linearGradient>
<linearGradient id="paint5_linear_8_43" x1="145.589" y1="304.347" x2="212.435" y2="342.942" gradientUnits="userSpaceOnUse">
<stop stop-color="#414751"/>
<stop offset="0.9838" stop-color="#292B2E"/>
</linearGradient>
<linearGradient id="paint6_linear_8_43" x1="189.334" y1="322.388" x2="219.498" y2="322.388" gradientUnits="userSpaceOnUse">
<stop stop-color="#414751"/>
<stop offset="0.9838" stop-color="#292B2E"/>
</linearGradient>
<linearGradient id="paint7_linear_8_43" x1="179.259" y1="453.329" x2="179.259" y2="464.806" gradientUnits="userSpaceOnUse">
<stop stop-color="#414751"/>
<stop offset="0.9838" stop-color="#292B2E"/>
</linearGradient>
</defs>
</svg>
