<svg width="84" height="154" viewBox="0 0 84 154" fill="none" xmlns="http://www.w3.org/2000/svg">
<path d="M28.8072 153.073C35.0269 153.368 47.4993 153.444 53.7151 153.073C65.0947 152.394 72.3029 147.842 72.3029 136.344L73.7897 21.8418C73.7897 10.3443 65.8675 1.72254 54.0863 0.651692C50.9379 0.365357 45.4768 0 41.1688 0C36.8025 0 32.2322 0.349809 29.1784 0.651692C18.5036 1.70504 9.47498 10.3443 9.47498 21.8418L10.9617 136.344C10.963 147.842 17.679 152.545 28.8072 153.073Z" fill="#C98415"/>
<path d="M70.4029 37.243C70.7521 34.7826 68.5307 14.2222 68.5307 14.2222L59.2364 6.73209C59.2364 6.73209 52.0832 5.67093 41.9637 5.67093C31.8441 5.67093 24.1675 6.56753 24.1675 6.56753L14.8713 13.1986C14.8713 13.1986 12.8268 31.6646 12.8268 36.0938C12.8268 40.5229 15.7808 44.014 15.7808 44.014H67.4249C68.9829 42.421 70.0537 39.7034 70.4029 37.243Z" fill="#FEAB22"/>
<path d="M10.073 65.2702C10.1987 64.8109 10.1987 64.6146 10.1987 64.6146L11.7107 64.7461V62.5163C11.081 62.5163 10.0723 62.3194 10.0723 62.3194C10.0723 62.3194 10.0723 61.2699 7.678 61.3353C5.28367 61.4008 2.38597 61.8601 1.12597 62.975C-0.134038 64.0899 -0.386009 66.1888 0.621995 66.6481C1.63065 67.1068 9.94667 65.7295 10.073 65.2702Z" fill="#FEAA23"/>
<path d="M30.7325 21.6565L27.0147 5.79468L25.528 6.78649L29.7413 22.4002L30.485 35.0398L30.7325 21.6565Z" fill="#FFBC5A"/>
<path d="M59.8183 129.219C61.8375 129.219 63.4739 127.41 63.4739 125.179V64.7215C63.4739 64.7215 55.1093 61.4351 43.3987 61.4351C31.6881 61.4351 19.7922 65.1322 19.7922 65.1322V125.179C19.7922 127.41 21.8627 129.219 23.8819 129.219H59.8183Z" fill="#FEAA23"/>
<path d="M18.1448 78.9508C18.1331 77.797 17.9679 76.6485 17.6524 75.5284C17.6524 75.5284 15.2289 62.2572 13.9502 58.8231C13.4105 57.374 11.3848 58.4332 11.3524 59.2954C10.9663 69.7428 12.0255 96.3512 12.0255 96.3512L18.3229 96.2864L18.1448 78.9508Z" fill="#273043"/>
<path opacity="0.59" d="M17.0175 78.8367C17.0065 77.7769 16.8912 76.721 16.6729 75.6916L13.4805 60.6253C13.3172 59.8557 12.35 59.971 12.33 60.7633C12.0909 70.3607 13.0963 94.8054 13.0963 94.8054L17.1808 94.7634L17.0175 78.8367Z" fill="url(#paint0_linear_21_84)"/>
<path d="M14.5993 125.476C15.7789 122.972 17.8973 113.339 17.8973 113.339C18.1836 112.524 18.3242 111.691 18.3151 110.857L18.1868 98.325L12.0831 98.3879C12.0831 98.3879 11.5182 117.637 12.0741 125.181C12.12 125.803 14.1017 126.533 14.5993 125.476Z" fill="#273043"/>
<path opacity="0.59" d="M14.1134 124.182L16.9463 113.238C17.14 112.49 17.2339 111.725 17.2262 110.959L17.1083 99.4457L13.1494 99.4865C13.1494 99.4865 12.5994 117.171 12.9972 124.103C13.029 124.674 13.9689 124.741 14.1134 124.182Z" fill="url(#paint1_linear_21_84)"/>
<path d="M82.696 66.6475C83.704 66.1882 83.452 64.0892 82.192 62.9743C80.932 61.8594 78.0336 61.4001 75.6399 61.3347C73.2462 61.2693 73.2462 62.3188 73.2462 62.3188C73.2462 62.3188 72.2382 62.5157 71.6079 62.5157V64.7455L73.1199 64.614C73.1199 64.614 73.1199 64.8109 73.2456 65.2695C73.3719 65.7295 81.688 67.1068 82.696 66.6475Z" fill="#FEAA23"/>
<path d="M27.1061 65.3389C32.0943 64.2816 37.9227 63.6668 41.6049 63.6662C45.3007 63.6649 51.6661 64.2758 56.6543 65.3324C61.6425 66.3896 63.7246 66.7439 64.4372 63.5729C65.1498 60.4018 68.3565 48.48 68.0002 46.0131C67.6439 43.5469 64.4373 41.4324 58.7365 40.0234C53.0357 38.6138 45.9174 38.262 41.6334 38.262C37.3494 38.262 30.2312 38.6144 24.5304 40.0234C18.8296 41.4324 15.6222 43.5469 15.2659 46.0131C14.9096 48.4794 18.1163 60.4945 18.8289 63.6655C19.5415 66.8366 22.1172 66.3954 27.1061 65.3389Z" fill="#273043"/>
<path opacity="0.59" d="M28.6136 63.5113C33.3102 62.6173 38.9547 62.204 42.3311 62.1788C45.5987 62.1542 50.307 62.4554 55.007 63.3325C59.7069 64.2097 62.6687 65.5799 63.3353 62.9225C64.0019 60.2652 66.8056 48.6057 66.4662 46.5404C66.1267 44.4752 63.1034 42.7099 57.7317 41.5393C52.36 40.3687 45.6551 40.0849 41.6198 40.0927C37.5846 40.0998 30.8809 40.4069 25.5131 41.597C20.1453 42.787 17.1284 44.5633 16.7961 46.6299C16.4644 48.6964 19.4418 60.1751 20.1181 62.8298C20.7944 65.4839 23.9169 64.4053 28.6136 63.5113Z" fill="url(#paint2_linear_21_84)"/>
<path d="M41.6327 150.409C41.6495 150.409 41.6664 150.409 41.6832 150.409C54.8138 150.403 61.3542 149.252 61.3542 149.252L66.6443 141.792L67.9522 138.041C67.9522 138.041 65.2638 139.008 60.4758 140C55.8497 140.958 42.5286 141.337 41.6333 141.361C40.7381 141.337 27.417 140.957 22.7909 140C18.0029 139.008 15.3145 138.041 15.3145 138.041L16.6224 141.792L21.9125 149.252C21.9125 149.252 28.4522 150.402 41.5834 150.409C41.5996 150.409 41.6158 150.409 41.6327 150.409Z" fill="#FEAA23"/>
<path d="M24.7823 141.621C30.4831 142.406 37.6013 142.601 41.8854 142.601C46.1694 142.601 53.2876 142.405 58.9884 141.621C64.6892 140.837 67.8965 139.661 68.2528 138.288C68.6091 136.916 65.5229 129.62 64.8103 127.855C64.0977 126.09 61.4851 126.746 56.4943 127.309C50.5596 127.979 41.8854 127.897 41.8854 127.897C41.8854 127.897 32.2646 127.897 27.2764 127.309C22.2882 126.721 19.9515 126.368 19.0841 128.227C18.2795 129.952 15.1616 136.916 15.5179 138.288C15.8742 139.661 19.0809 140.837 24.7823 141.621Z" fill="#273043"/>
<path opacity="0.59" d="M25.7521 139.889C31.1575 140.501 37.9091 140.659 41.9728 140.663C46.0366 140.666 52.7888 140.521 58.1987 139.919C63.6087 139.317 66.6534 138.409 66.9954 137.348C67.3368 136.286 64.3167 130.063 63.6449 128.697C62.9731 127.332 60.1882 128.265 55.4546 128.715C50.721 129.166 42.0117 129.284 42.0117 129.284C42.0117 129.284 33.6043 129.083 28.874 128.623C24.1436 128.164 21.0632 127.293 20.3824 128.658C19.7015 130.023 16.6386 136.24 16.9729 137.302C17.3078 138.365 20.3461 139.278 25.7521 139.889Z" fill="url(#paint3_linear_21_84)"/>
<path opacity="0.59" d="M58.1987 139.916C63.6087 139.311 66.6534 138.398 66.9954 137.331C67.3368 136.265 64.3161 130.009 63.6449 128.636C62.9738 127.262 61.3031 128.201 56.5695 128.655C55.1786 128.788 52.7098 129.008 50.9037 129.073C51.5554 133.908 48.8267 139.653 48.3759 140.561C51.5884 140.457 55.1119 140.261 58.1987 139.916Z" fill="url(#paint4_linear_21_84)"/>
<path d="M69.7363 77.6681H66.9792V80.4252H69.7363V77.6681Z" fill="#1F2530"/>
<path d="M53.6782 76.6769H29.5878C26.659 76.6769 24.2842 79.0512 24.2842 81.9806V84.112H58.9813V81.9806C58.9819 79.0512 56.607 76.6769 53.6782 76.6769Z" fill="#FEFEFE"/>
<path d="M35.4059 77.6681H32.6488V80.4252H35.4059V77.6681Z" fill="#1F2530"/>
<path d="M38.163 80.4252H35.4059V83.1823H38.163V80.4252Z" fill="#1F2530"/>
<path d="M40.9208 77.6681H38.1637V80.4252H40.9208V77.6681Z" fill="#1F2530"/>
<path d="M46.4965 77.6681H43.7394V80.4252H46.4965V77.6681Z" fill="#1F2530"/>
<path d="M43.6778 80.4252H40.9207V83.1823H43.6778V80.4252Z" fill="#1F2530"/>
<path d="M49.192 80.4252H46.4349V83.1823H49.192V80.4252Z" fill="#1F2530"/>
<path d="M51.9491 77.6681H49.192V80.4252H51.9491V77.6681Z" fill="#1F2530"/>
<path d="M54.7062 80.4252H51.9491V83.1823H54.7062V80.4252Z" fill="#1F2530"/>
<path d="M32.6176 80.4252H29.8605V83.1823H32.6176V80.4252Z" fill="#1F2530"/>
<path d="M82.7666 66.6475C83.7746 66.1882 83.5225 64.0892 82.2625 62.9743C81.0025 61.8594 78.1042 61.4001 75.7105 61.3347C73.3162 61.2693 73.3162 62.3188 73.3162 62.3188C73.3162 62.3188 72.3082 62.5157 71.6779 62.5157V64.7455L73.1899 64.614C73.1899 64.614 73.1899 64.8109 73.3162 65.2695C73.4425 65.7282 81.7585 67.1068 82.7666 66.6475Z" fill="#FEAA23"/>
<path d="M57.8612 6.78649L56.3738 5.79468L52.656 21.6565L52.9041 35.0398L53.6478 22.4002L57.8612 6.78649Z" fill="#FFBC5A"/>
<path d="M71.7892 59.2954C71.7575 58.4332 69.7311 57.374 69.1915 58.8231C67.9127 62.2579 65.4886 75.5284 65.4886 75.5284C65.1731 76.6485 65.0079 77.797 64.9962 78.9508L64.8187 96.2864L71.1162 96.3512C71.1162 96.3512 72.1753 69.7428 71.7892 59.2954Z" fill="#273043"/>
<path opacity="0.59" d="M70.811 60.7633C70.7916 59.9717 69.8238 59.8557 69.6605 60.6253L66.4681 75.6916C66.2498 76.7216 66.1344 77.7769 66.1234 78.8367L65.9602 94.7634L70.0447 94.8054C70.0447 94.8054 71.0501 70.3601 70.811 60.7633Z" fill="url(#paint5_linear_21_84)"/>
<path d="M71.067 125.18C71.6228 117.637 71.0579 98.3873 71.0579 98.3873L64.9542 98.3244L64.8259 110.856C64.8175 111.69 64.9574 112.523 65.2438 113.338C65.2438 113.338 67.3621 122.971 68.5418 125.476C69.0393 126.533 71.021 125.803 71.067 125.18Z" fill="#273043"/>
<path opacity="0.59" d="M70.1446 124.102C70.5423 117.171 69.9923 99.4859 69.9923 99.4859L66.0335 99.4451L65.9156 110.958C65.9078 111.724 66.0018 112.489 66.1948 113.237L69.0277 124.181C69.1722 124.741 70.1115 124.674 70.1446 124.102Z" fill="url(#paint6_linear_21_84)"/>
<path d="M21.7804 149.49C22.7851 148.771 22.4055 146.519 20.9324 144.462C19.4592 142.405 17.451 141.319 16.4462 142.039C15.4415 142.758 15.8211 145.009 17.2942 147.067C18.7673 149.124 20.7756 150.209 21.7804 149.49Z" fill="#D80505"/>
<path d="M22.1366 146.903C22.1405 146.9 22.1437 146.896 22.1476 146.893C21.9254 146.123 21.5167 145.278 20.9323 144.461C19.4592 142.404 17.451 141.319 16.4462 142.038C16.4417 142.042 16.4391 142.046 16.4352 142.048C16.6574 142.818 17.0662 143.663 17.6505 144.479C19.1236 146.537 21.1319 147.622 22.1366 146.903Z" fill="#F52206"/>
<path d="M65.8468 147.066C67.3199 145.009 67.6995 142.758 66.6948 142.038C65.69 141.319 63.6818 142.404 62.2086 144.461C60.7355 146.519 60.3559 148.77 61.3606 149.489C62.3648 150.209 64.3736 149.124 65.8468 147.066Z" fill="#D80505"/>
<path d="M65.4906 144.479C66.0749 143.663 66.4843 142.818 66.7059 142.048C66.702 142.045 66.6988 142.041 66.6949 142.038C65.6901 141.319 63.6819 142.404 62.2087 144.461C61.6244 145.278 61.2156 146.123 60.9934 146.893C60.9973 146.896 61.0006 146.9 61.0044 146.903C62.0092 147.622 64.0174 146.537 65.4906 144.479Z" fill="#F52206"/>
<path d="M55.7584 4.37014L68.5301 14.2215L66.9851 5.99482C63.6494 3.03106 59.2365 1.12003 54.087 0.652303C50.9386 0.365967 45.4775 0.000610352 41.1695 0.000610352C36.8032 0.000610352 32.2329 0.35042 29.1791 0.652303C24.4973 1.1142 20.1323 3.03626 16.7073 6.01752L14.8707 13.1993L27.5077 4.24638C27.5077 4.24638 34.0189 3.2552 42.1976 3.2552C50.3763 3.2552 55.7584 4.37014 55.7584 4.37014Z" fill="#7D581F"/>
<path d="M57.1232 8.35551C64.0439 11.4935 69.0178 18.1253 69.0178 18.1253C69.0178 18.1253 69.2025 12.6078 66.663 9.82282C62.8215 5.60942 55.7583 4.37015 55.7583 4.37015L55.8328 6.46259C55.8626 7.2892 56.3698 8.01411 57.1232 8.35551Z" fill="#88C4FF"/>
<path d="M69.0179 18.1253C69.0179 18.1253 69.025 17.0628 68.8242 15.6272C67.2752 13.8691 61.8543 8.12294 55.8335 6.46259C55.8633 7.2892 56.3699 8.01346 57.1233 8.35551C64.0439 11.4935 69.0179 18.1253 69.0179 18.1253Z" fill="#D5FAFC"/>
<path d="M26.1427 8.23176C26.8961 7.89036 27.4033 7.16545 27.4325 6.33884L27.507 4.2464C27.507 4.2464 20.4438 5.48567 16.6023 9.69907C14.0628 12.484 14.2481 18.0015 14.2481 18.0015C14.2481 18.0015 19.222 11.3691 26.1427 8.23176Z" fill="#88C4FF"/>
<path d="M27.4332 6.33884C21.4124 7.99919 15.9914 13.7454 14.4425 15.5036C14.2417 16.9391 14.2488 18.0015 14.2488 18.0015C14.2488 18.0015 19.2228 11.3698 26.1434 8.23176C26.8968 7.88971 27.4034 7.16545 27.4332 6.33884Z" fill="#D5FAFC"/>
<path d="M63.3359 62.9218C64.0025 60.2644 66.8062 48.605 66.4668 46.5398C66.128 44.4746 63.1039 42.7093 57.7322 41.5387C54.5359 40.8423 50.8712 40.4613 47.5745 40.267C47.9159 41.7466 50.0096 51.208 50.4592 62.6504C51.9433 62.8227 53.4748 63.0462 55.0075 63.3325C59.7074 64.209 62.6686 65.5791 63.3359 62.9218Z" fill="url(#paint7_linear_21_84)"/>
<defs>
<linearGradient id="paint0_linear_21_84" x1="5.64664" y1="64.1223" x2="21.5378" y2="92.3067" gradientUnits="userSpaceOnUse">
<stop stop-color="#72B3DD"/>
<stop offset="0.9946" stop-color="#2E81BA"/>
</linearGradient>
<linearGradient id="paint1_linear_21_84" x1="8.13144" y1="121.606" x2="19.7775" y2="100.951" gradientUnits="userSpaceOnUse">
<stop stop-color="#72B3DD"/>
<stop offset="0.9946" stop-color="#2E81BA"/>
</linearGradient>
<linearGradient id="paint2_linear_21_84" x1="19.9164" y1="40.8877" x2="62.1157" y2="65.2514" gradientUnits="userSpaceOnUse">
<stop stop-color="#72B3DD"/>
<stop offset="0.9946" stop-color="#2E81BA"/>
</linearGradient>
<linearGradient id="paint3_linear_21_84" x1="23.4565" y1="123.33" x2="62.1956" y2="145.696" gradientUnits="userSpaceOnUse">
<stop stop-color="#72B3DD"/>
<stop offset="0.9946" stop-color="#2E81BA"/>
</linearGradient>
<linearGradient id="paint4_linear_21_84" x1="48.3757" y1="134.239" x2="67.0223" y2="134.239" gradientUnits="userSpaceOnUse">
<stop stop-color="#72B3DD"/>
<stop offset="0.9946" stop-color="#2E81BA"/>
</linearGradient>
<linearGradient id="paint5_linear_21_84" x1="77.6827" y1="64.4239" x2="61.3585" y2="92.0436" gradientUnits="userSpaceOnUse">
<stop stop-color="#72B3DD"/>
<stop offset="0.9946" stop-color="#2E81BA"/>
</linearGradient>
<linearGradient id="paint6_linear_21_84" x1="75.1446" y1="121.388" x2="63.1747" y2="101.135" gradientUnits="userSpaceOnUse">
<stop stop-color="#72B3DD"/>
<stop offset="0.9946" stop-color="#2E81BA"/>
</linearGradient>
<linearGradient id="paint7_linear_21_84" x1="47.5746" y1="52.3716" x2="66.495" y2="52.3716" gradientUnits="userSpaceOnUse">
<stop stop-color="#72B3DD"/>
<stop offset="0.9946" stop-color="#2E81BA"/>
</linearGradient>
</defs>
</svg>
