<svg width="348" height="694" viewBox="0 0 348 694" fill="none" xmlns="http://www.w3.org/2000/svg">
<path d="M160.807 423.749C167.027 424.044 179.499 424.121 185.715 423.749C197.095 423.071 204.303 418.518 204.303 407.02L205.79 292.518C205.79 281.021 197.868 272.399 186.086 271.328C182.938 271.042 177.477 270.677 173.169 270.677C168.803 270.677 164.232 271.027 161.178 271.328C150.504 272.382 141.475 281.021 141.475 292.518L142.962 407.02C142.963 418.518 149.679 423.222 160.807 423.749Z" fill="#C98415"/>
<path d="M202.403 307.92C202.752 305.459 200.531 284.899 200.531 284.899L191.236 277.409C191.236 277.409 184.083 276.348 173.964 276.348C163.844 276.348 156.168 277.244 156.168 277.244L146.871 283.875C146.871 283.875 144.827 302.341 144.827 306.77C144.827 311.2 147.781 314.691 147.781 314.691H199.425C200.983 313.098 202.054 310.38 202.403 307.92Z" fill="#FEAB22"/>
<path d="M142.073 335.947C142.199 335.488 142.199 335.291 142.199 335.291L143.711 335.423V333.193C143.081 333.193 142.072 332.996 142.072 332.996C142.072 332.996 142.072 331.947 139.678 332.012C137.284 332.077 134.386 332.537 133.126 333.652C131.866 334.767 131.614 336.866 132.622 337.325C133.631 337.783 141.947 336.406 142.073 335.947Z" fill="#FEAA23"/>
<path d="M162.733 292.333L159.015 276.471L157.528 277.463L161.741 293.077L162.485 305.716L162.733 292.333Z" fill="#FFBC5A"/>
<path d="M191.818 399.896C193.838 399.896 195.474 398.087 195.474 395.856V335.398C195.474 335.398 187.109 332.112 175.399 332.112C163.688 332.112 151.792 335.809 151.792 335.809V395.856C151.792 398.087 153.863 399.896 155.882 399.896H191.818Z" fill="#FEAA23"/>
<path d="M150.145 349.627C150.133 348.474 149.968 347.325 149.652 346.205C149.652 346.205 147.229 332.934 145.95 329.5C145.411 328.051 143.385 329.11 143.352 329.972C142.966 340.419 144.025 367.028 144.025 367.028L150.323 366.963L150.145 349.627Z" fill="#273043"/>
<path opacity="0.59" d="M149.018 349.513C149.007 348.454 148.891 347.398 148.673 346.368L145.48 331.302C145.317 330.532 144.35 330.648 144.33 331.44C144.091 341.037 145.096 365.482 145.096 365.482L149.181 365.44L149.018 349.513Z" fill="url(#paint0_linear_21_83)"/>
<path d="M146.599 396.153C147.779 393.649 149.897 384.016 149.897 384.016C150.184 383.201 150.324 382.367 150.315 381.534L150.187 369.002L144.083 369.065C144.083 369.065 143.518 388.314 144.074 395.858C144.12 396.48 146.102 397.21 146.599 396.153Z" fill="#273043"/>
<path opacity="0.59" d="M146.113 394.859L148.946 383.914C149.14 383.166 149.234 382.402 149.226 381.636L149.108 370.122L145.149 370.163C145.149 370.163 144.599 387.847 144.997 394.78C145.029 395.351 145.969 395.418 146.113 394.859Z" fill="url(#paint1_linear_21_83)"/>
<path d="M214.696 337.324C215.704 336.865 215.452 334.766 214.192 333.651C212.932 332.536 210.034 332.077 207.64 332.011C205.246 331.946 205.246 332.995 205.246 332.995C205.246 332.995 204.238 333.192 203.608 333.192V335.422L205.12 335.291C205.12 335.291 205.12 335.488 205.246 335.946C205.372 336.406 213.688 337.783 214.696 337.324Z" fill="#FEAA23"/>
<path d="M159.106 336.016C164.094 334.958 169.923 334.344 173.605 334.343C177.301 334.342 183.666 334.952 188.654 336.009C193.643 337.066 195.725 337.421 196.437 334.25C197.15 331.078 200.357 319.157 200 316.69C199.644 314.224 196.437 312.109 190.736 310.7C185.036 309.29 177.917 308.939 173.633 308.939C169.349 308.939 162.231 309.291 156.53 310.7C150.83 312.109 147.622 314.224 147.266 316.69C146.91 319.156 150.116 331.171 150.829 334.342C151.542 337.513 154.117 337.072 159.106 336.016Z" fill="#273043"/>
<path opacity="0.59" d="M160.614 334.188C165.31 333.294 170.955 332.881 174.331 332.855C177.599 332.831 182.307 333.132 187.007 334.009C191.707 334.886 194.669 336.257 195.335 333.599C196.002 330.942 198.806 319.282 198.466 317.217C198.127 315.152 195.103 313.387 189.732 312.216C184.36 311.045 177.655 310.762 173.62 310.769C169.585 310.777 162.881 311.084 157.513 312.274C152.145 313.464 149.128 315.24 148.796 317.307C148.464 319.373 151.442 330.852 152.118 333.507C152.794 336.161 155.917 335.082 160.614 334.188Z" fill="url(#paint2_linear_21_83)"/>
<path d="M173.633 421.086C173.65 421.086 173.666 421.086 173.683 421.086C186.814 421.08 193.354 419.929 193.354 419.929L198.644 412.468L199.952 408.717C199.952 408.717 197.264 409.685 192.476 410.677C187.85 411.635 174.529 412.014 173.633 412.038C172.738 412.014 159.417 411.634 154.791 410.677C150.003 409.685 147.314 408.717 147.314 408.717L148.622 412.468L153.912 419.929C153.912 419.929 160.452 421.079 173.583 421.086C173.6 421.086 173.616 421.086 173.633 421.086Z" fill="#FEAA23"/>
<path d="M156.782 412.298C162.483 413.082 169.601 413.278 173.885 413.278C178.169 413.278 185.288 413.082 190.988 412.298C196.689 411.513 199.897 410.338 200.253 408.965C200.609 407.593 197.523 400.296 196.81 398.532C196.098 396.767 193.485 397.423 188.494 397.986C182.56 398.656 173.885 398.574 173.885 398.574C173.885 398.574 164.265 398.574 159.276 397.986C154.288 397.397 151.952 397.045 151.084 398.904C150.28 400.628 147.162 407.593 147.518 408.965C147.874 410.338 151.081 411.514 156.782 412.298Z" fill="#273043"/>
<path opacity="0.59" d="M157.752 410.566C163.158 411.177 169.909 411.335 173.973 411.339C178.037 411.343 184.789 411.197 190.199 410.596C195.609 409.994 198.653 409.086 198.995 408.024C199.337 406.963 196.317 400.74 195.645 399.374C194.973 398.008 192.188 398.942 187.455 399.392C182.721 399.843 174.012 399.961 174.012 399.961C174.012 399.961 165.604 399.759 160.874 399.3C156.144 398.841 153.063 397.97 152.382 399.335C151.702 400.699 148.639 406.917 148.973 407.978C149.308 409.041 152.346 409.954 157.752 410.566Z" fill="url(#paint3_linear_21_83)"/>
<path opacity="0.59" d="M190.199 410.592C195.609 409.987 198.653 409.075 198.995 408.008C199.337 406.941 196.316 400.686 195.645 399.313C194.974 397.939 193.303 398.878 188.569 399.331C187.179 399.465 184.71 399.684 182.904 399.75C183.555 404.584 180.827 410.33 180.376 411.238C183.588 411.133 187.112 410.938 190.199 410.592Z" fill="url(#paint4_linear_21_83)"/>
<path d="M201.736 348.345H198.979V351.102H201.736V348.345Z" fill="#1F2530"/>
<path d="M185.678 347.354H161.588C158.659 347.354 156.284 349.728 156.284 352.657V354.789H190.981V352.657C190.982 349.728 188.607 347.354 185.678 347.354Z" fill="#FEFEFE"/>
<path d="M167.406 348.345H164.649V351.102H167.406V348.345Z" fill="#1F2530"/>
<path d="M170.163 351.102H167.406V353.859H170.163V351.102Z" fill="#1F2530"/>
<path d="M172.921 348.345H170.164V351.102H172.921V348.345Z" fill="#1F2530"/>
<path d="M178.496 348.345H175.739V351.102H178.496V348.345Z" fill="#1F2530"/>
<path d="M175.678 351.102H172.921V353.859H175.678V351.102Z" fill="#1F2530"/>
<path d="M181.192 351.102H178.435V353.859H181.192V351.102Z" fill="#1F2530"/>
<path d="M183.949 348.345H181.192V351.102H183.949V348.345Z" fill="#1F2530"/>
<path d="M186.706 351.102H183.949V353.859H186.706V351.102Z" fill="#1F2530"/>
<path d="M164.618 351.102H161.86V353.859H164.618V351.102Z" fill="#1F2530"/>
<path d="M214.767 337.324C215.775 336.865 215.523 334.766 214.263 333.651C213.003 332.536 210.104 332.077 207.711 332.011C205.316 331.946 205.316 332.995 205.316 332.995C205.316 332.995 204.308 333.192 203.678 333.192V335.422L205.19 335.291C205.19 335.291 205.19 335.488 205.316 335.946C205.443 336.405 213.759 337.783 214.767 337.324Z" fill="#FEAA23"/>
<path d="M189.861 277.463L188.374 276.471L184.656 292.333L184.904 305.716L185.648 293.077L189.861 277.463Z" fill="#FFBC5A"/>
<path d="M203.789 329.972C203.758 329.11 201.731 328.051 201.191 329.5C199.913 332.935 197.489 346.205 197.489 346.205C197.173 347.325 197.008 348.474 196.996 349.627L196.819 366.963L203.116 367.028C203.116 367.028 204.175 340.419 203.789 329.972Z" fill="#273043"/>
<path opacity="0.59" d="M202.811 331.44C202.792 330.648 201.824 330.532 201.661 331.302L198.468 346.368C198.25 347.398 198.134 348.454 198.123 349.513L197.96 365.44L202.045 365.482C202.045 365.482 203.05 341.037 202.811 331.44Z" fill="url(#paint5_linear_21_83)"/>
<path d="M203.067 395.857C203.623 388.313 203.058 369.064 203.058 369.064L196.954 369.001L196.826 381.533C196.817 382.367 196.957 383.2 197.244 384.015C197.244 384.015 199.362 393.648 200.542 396.152C201.039 397.21 203.021 396.48 203.067 395.857Z" fill="#273043"/>
<path opacity="0.59" d="M202.145 394.779C202.542 387.847 201.992 370.163 201.992 370.163L198.034 370.122L197.916 381.635C197.908 382.401 198.002 383.166 198.195 383.914L201.028 394.858C201.172 395.418 202.112 395.351 202.145 394.779Z" fill="url(#paint6_linear_21_83)"/>
<path d="M153.78 420.166C154.785 419.447 154.405 417.196 152.932 415.139C151.459 413.081 149.451 411.996 148.446 412.716C147.441 413.435 147.821 415.686 149.294 417.744C150.767 419.801 152.776 420.886 153.78 420.166Z" fill="#D80505"/>
<path d="M154.137 417.58C154.141 417.576 154.144 417.573 154.148 417.569C153.925 416.8 153.517 415.954 152.932 415.138C151.459 413.081 149.451 411.995 148.446 412.715C148.442 412.718 148.439 412.722 148.435 412.725C148.657 413.495 149.066 414.34 149.651 415.156C151.124 417.214 153.132 418.299 154.137 417.58Z" fill="#F52206"/>
<path d="M197.847 417.743C199.32 415.685 199.7 413.434 198.695 412.715C197.69 411.996 195.682 413.081 194.209 415.138C192.736 417.195 192.356 419.447 193.361 420.166C194.365 420.885 196.374 419.801 197.847 417.743Z" fill="#D80505"/>
<path d="M197.491 415.156C198.075 414.34 198.484 413.495 198.706 412.725C198.702 412.722 198.699 412.718 198.695 412.715C197.69 411.996 195.682 413.081 194.209 415.138C193.624 415.954 193.216 416.8 192.993 417.569C192.997 417.573 193.001 417.576 193.004 417.58C194.009 418.299 196.017 417.214 197.491 415.156Z" fill="#F52206"/>
<path d="M187.758 275.047L200.53 284.898L198.985 276.672C195.649 273.708 191.237 271.797 186.087 271.329C182.939 271.043 177.478 270.677 173.17 270.677C168.803 270.677 164.233 271.027 161.179 271.329C156.497 271.791 152.132 273.713 148.707 276.694L146.871 283.876L159.508 274.923C159.508 274.923 166.019 273.932 174.198 273.932C182.376 273.932 187.758 275.047 187.758 275.047Z" fill="#7D581F"/>
<path d="M189.123 279.032C196.044 282.17 201.018 288.802 201.018 288.802C201.018 288.802 201.202 283.284 198.663 280.5C194.821 276.286 187.758 275.047 187.758 275.047L187.833 277.139C187.863 277.966 188.37 278.691 189.123 279.032Z" fill="#88C4FF"/>
<path d="M201.018 288.802C201.018 288.802 201.025 287.74 200.824 286.304C199.275 284.546 193.854 278.8 187.833 277.139C187.863 277.966 188.37 278.69 189.123 279.032C196.044 282.17 201.018 288.802 201.018 288.802Z" fill="#D5FAFC"/>
<path d="M158.143 278.908C158.896 278.567 159.403 277.842 159.432 277.016L159.507 274.923C159.507 274.923 152.444 276.162 148.602 280.376C146.063 283.161 146.248 288.678 146.248 288.678C146.248 288.678 151.222 282.046 158.143 278.908Z" fill="#88C4FF"/>
<path d="M159.433 277.016C153.412 278.676 147.991 284.422 146.443 286.18C146.242 287.616 146.249 288.678 146.249 288.678C146.249 288.678 151.223 282.046 158.143 278.908C158.897 278.566 159.403 277.842 159.433 277.016Z" fill="#D5FAFC"/>
<path d="M195.336 333.598C196.002 330.941 198.806 319.282 198.467 317.217C198.128 315.151 195.104 313.386 189.732 312.215C186.536 311.519 182.871 311.138 179.574 310.944C179.916 312.423 182.01 321.885 182.459 333.327C183.943 333.499 185.475 333.723 187.008 334.009C191.707 334.886 194.669 336.256 195.336 333.598Z" fill="url(#paint7_linear_21_83)"/>
<defs>
<linearGradient id="paint0_linear_21_83" x1="137.647" y1="334.799" x2="153.538" y2="362.983" gradientUnits="userSpaceOnUse">
<stop stop-color="#72B3DD"/>
<stop offset="0.9946" stop-color="#2E81BA"/>
</linearGradient>
<linearGradient id="paint1_linear_21_83" x1="140.131" y1="392.283" x2="151.778" y2="371.627" gradientUnits="userSpaceOnUse">
<stop stop-color="#72B3DD"/>
<stop offset="0.9946" stop-color="#2E81BA"/>
</linearGradient>
<linearGradient id="paint2_linear_21_83" x1="151.916" y1="311.564" x2="194.116" y2="335.928" gradientUnits="userSpaceOnUse">
<stop stop-color="#72B3DD"/>
<stop offset="0.9946" stop-color="#2E81BA"/>
</linearGradient>
<linearGradient id="paint3_linear_21_83" x1="155.457" y1="394.007" x2="194.196" y2="416.373" gradientUnits="userSpaceOnUse">
<stop stop-color="#72B3DD"/>
<stop offset="0.9946" stop-color="#2E81BA"/>
</linearGradient>
<linearGradient id="paint4_linear_21_83" x1="180.376" y1="404.916" x2="199.022" y2="404.916" gradientUnits="userSpaceOnUse">
<stop stop-color="#72B3DD"/>
<stop offset="0.9946" stop-color="#2E81BA"/>
</linearGradient>
<linearGradient id="paint5_linear_21_83" x1="209.683" y1="335.101" x2="193.359" y2="362.72" gradientUnits="userSpaceOnUse">
<stop stop-color="#72B3DD"/>
<stop offset="0.9946" stop-color="#2E81BA"/>
</linearGradient>
<linearGradient id="paint6_linear_21_83" x1="207.145" y1="392.064" x2="195.175" y2="371.812" gradientUnits="userSpaceOnUse">
<stop stop-color="#72B3DD"/>
<stop offset="0.9946" stop-color="#2E81BA"/>
</linearGradient>
<linearGradient id="paint7_linear_21_83" x1="179.575" y1="323.048" x2="198.495" y2="323.048" gradientUnits="userSpaceOnUse">
<stop stop-color="#72B3DD"/>
<stop offset="0.9946" stop-color="#2E81BA"/>
</linearGradient>
</defs>
</svg>
