<svg width="348" height="694" viewBox="0 0 348 694" fill="none" xmlns="http://www.w3.org/2000/svg">
<path d="M154.468 465.29C164.069 465.745 183.322 465.863 192.917 465.29C210.483 464.242 221.61 457.215 221.61 439.466L223.905 262.716C223.905 244.968 211.676 231.659 193.49 230.006C188.63 229.564 180.2 229 173.55 229C166.81 229 159.755 229.54 155.041 230.006C138.563 231.632 124.626 244.968 124.626 262.716L126.921 439.466C126.923 457.215 137.29 464.476 154.468 465.29Z" fill="#C98415"/>
<path d="M218.677 286.49C219.216 282.692 215.787 250.954 215.787 250.954L201.44 239.392C201.44 239.392 190.398 237.754 174.777 237.754C159.156 237.754 147.306 239.138 147.306 239.138L132.956 249.374C132.956 249.374 129.8 277.879 129.8 284.716C129.8 291.553 134.36 296.942 134.36 296.942H214.08C216.485 294.483 218.138 290.288 218.677 286.49Z" fill="#FEAB22"/>
<path d="M125.549 329.754C125.743 329.045 125.743 328.742 125.743 328.742L128.077 328.945V325.503C127.105 325.503 125.548 325.199 125.548 325.199C125.548 325.199 125.548 323.579 121.852 323.68C118.156 323.781 113.683 324.49 111.738 326.211C109.793 327.932 109.404 331.172 110.96 331.881C112.517 332.589 125.354 330.463 125.549 329.754Z" fill="#FEAA23"/>
<path d="M157.44 262.43L151.701 237.945L149.406 239.476L155.91 263.578L157.058 283.089L157.44 262.43Z" fill="#FFBC5A"/>
<path d="M202.338 428.468C205.455 428.468 207.981 425.676 207.981 422.232V328.907C207.981 328.907 195.069 323.834 176.992 323.834C158.915 323.834 140.552 329.541 140.552 329.541V422.232C140.552 425.676 143.748 428.468 146.865 428.468H202.338Z" fill="#FEAA23"/>
<path d="M138.009 350.872C137.991 349.091 137.736 347.318 137.249 345.589C137.249 345.589 133.508 325.103 131.534 319.802C130.701 317.565 127.574 319.2 127.524 320.531C126.928 336.658 128.563 377.732 128.563 377.732L138.284 377.632L138.009 350.872Z" fill="#273043"/>
<path opacity="0.59" d="M136.269 350.696C136.252 349.06 136.074 347.43 135.737 345.841L130.809 322.584C130.557 321.396 129.064 321.574 129.033 322.797C128.664 337.612 130.216 375.346 130.216 375.346L136.521 375.281L136.269 350.696Z" fill="url(#paint0_linear_21_83)"/>
<path d="M132.536 422.691C134.357 418.825 137.627 403.955 137.627 403.955C138.069 402.697 138.286 401.411 138.272 400.124L138.074 380.779L128.652 380.876C128.652 380.876 127.78 410.59 128.638 422.235C128.709 423.195 131.768 424.322 132.536 422.691Z" fill="#273043"/>
<path opacity="0.59" d="M131.786 420.693L136.159 403.799C136.458 402.644 136.603 401.464 136.591 400.281L136.409 382.509L130.298 382.572C130.298 382.572 129.449 409.87 130.063 420.571C130.112 421.453 131.563 421.556 131.786 420.693Z" fill="url(#paint1_linear_21_83)"/>
<path d="M237.653 331.88C239.209 331.171 238.82 327.931 236.875 326.21C234.93 324.489 230.456 323.78 226.761 323.679C223.066 323.578 223.066 325.198 223.066 325.198C223.066 325.198 221.51 325.502 220.537 325.502V328.944L222.871 328.741C222.871 328.741 222.871 329.045 223.065 329.753C223.26 330.463 236.097 332.589 237.653 331.88Z" fill="#FEAA23"/>
<path d="M151.842 329.86C159.542 328.228 168.539 327.279 174.223 327.278C179.928 327.276 189.754 328.219 197.454 329.85C205.154 331.482 208.368 332.029 209.468 327.134C210.568 322.239 215.518 303.836 214.968 300.028C214.418 296.221 209.468 292.957 200.668 290.782C191.868 288.606 180.88 288.063 174.267 288.063C167.654 288.063 156.666 288.607 147.866 290.782C139.066 292.957 134.115 296.221 133.565 300.028C133.015 303.835 137.965 322.382 139.065 327.277C140.165 332.172 144.141 331.491 151.842 329.86Z" fill="#273043"/>
<path opacity="0.59" d="M154.169 327.039C161.419 325.659 170.132 325.021 175.344 324.982C180.388 324.944 187.656 325.409 194.911 326.763C202.166 328.117 206.738 330.232 207.767 326.13C208.796 322.028 213.124 304.03 212.6 300.842C212.076 297.654 207.409 294.929 199.117 293.122C190.825 291.315 180.475 290.877 174.246 290.889C168.017 290.9 157.669 291.374 149.383 293.211C141.097 295.048 136.44 297.79 135.927 300.98C135.415 304.17 140.011 321.889 141.055 325.987C142.099 330.084 146.919 328.419 154.169 327.039Z" fill="url(#paint2_linear_21_83)"/>
<path d="M174.266 461.178C174.292 461.178 174.318 461.178 174.344 461.178C194.613 461.169 204.709 459.392 204.709 459.392L212.875 447.876L214.894 442.086C214.894 442.086 210.744 443.579 203.353 445.11C196.212 446.589 175.649 447.174 174.267 447.212C172.885 447.174 152.322 446.588 145.181 445.11C137.79 443.579 133.64 442.086 133.64 442.086L135.659 447.876L143.825 459.392C143.825 459.392 153.92 461.168 174.19 461.178C174.215 461.178 174.24 461.178 174.266 461.178Z" fill="#FEAA23"/>
<path d="M148.255 447.613C157.055 448.824 168.043 449.126 174.656 449.126C181.269 449.126 192.257 448.823 201.057 447.613C209.857 446.402 214.808 444.587 215.358 442.468C215.908 440.35 211.144 429.087 210.044 426.363C208.944 423.639 204.911 424.651 197.207 425.52C188.046 426.554 174.656 426.428 174.656 426.428C174.656 426.428 159.805 426.428 152.105 425.52C144.405 424.612 140.798 424.067 139.459 426.937C138.217 429.599 133.404 440.35 133.954 442.468C134.504 444.587 139.454 446.403 148.255 447.613Z" fill="#273043"/>
<path opacity="0.59" d="M149.752 444.939C158.096 445.883 168.518 446.127 174.791 446.133C181.064 446.139 191.487 445.914 199.838 444.985C208.189 444.056 212.889 442.655 213.417 441.016C213.944 439.377 209.282 429.771 208.245 427.663C207.208 425.555 202.909 426.996 195.602 427.691C188.295 428.387 174.851 428.569 174.851 428.569C174.851 428.569 161.873 428.258 154.571 427.549C147.269 426.84 142.514 425.495 141.463 427.602C140.412 429.709 135.684 439.306 136.2 440.945C136.717 442.586 141.407 443.995 149.752 444.939Z" fill="url(#paint3_linear_21_83)"/>
<path opacity="0.59" d="M199.838 444.98C208.189 444.046 212.889 442.638 213.417 440.991C213.944 439.344 209.281 429.688 208.245 427.568C207.209 425.448 204.63 426.897 197.323 427.597C195.176 427.803 191.365 428.142 188.577 428.243C189.583 435.706 185.371 444.575 184.675 445.976C189.634 445.815 195.073 445.513 199.838 444.98Z" fill="url(#paint4_linear_21_83)"/>
<path d="M217.648 348.892H213.392V353.148H217.648V348.892Z" fill="#1F2530"/>
<path d="M192.86 347.362H155.673C151.152 347.362 147.486 351.027 147.486 355.549V358.839H201.046V355.549C201.047 351.027 197.381 347.362 192.86 347.362Z" fill="#FEFEFE"/>
<path d="M164.654 348.892H160.398V353.148H164.654V348.892Z" fill="#1F2530"/>
<path d="M168.91 353.148H164.654V357.404H168.91V353.148Z" fill="#1F2530"/>
<path d="M173.167 348.892H168.911V353.148H173.167V348.892Z" fill="#1F2530"/>
<path d="M181.774 348.892H177.518V353.148H181.774V348.892Z" fill="#1F2530"/>
<path d="M177.423 353.148H173.167V357.404H177.423V353.148Z" fill="#1F2530"/>
<path d="M185.935 353.148H181.679V357.404H185.935V353.148Z" fill="#1F2530"/>
<path d="M190.191 348.892H185.935V353.148H190.191V348.892Z" fill="#1F2530"/>
<path d="M194.447 353.148H190.191V357.404H194.447V353.148Z" fill="#1F2530"/>
<path d="M160.35 353.148H156.094V357.404H160.35V353.148Z" fill="#1F2530"/>
<path d="M237.762 331.88C239.318 331.171 238.929 327.931 236.984 326.21C235.039 324.489 230.565 323.78 226.87 323.679C223.174 323.578 223.174 325.198 223.174 325.198C223.174 325.198 221.618 325.502 220.645 325.502V328.944L222.979 328.741C222.979 328.741 222.979 329.045 223.174 329.753C223.369 330.461 236.206 332.589 237.762 331.88Z" fill="#FEAA23"/>
<path d="M199.317 239.476L197.021 237.945L191.282 262.43L191.665 283.089L192.813 263.578L199.317 239.476Z" fill="#FFBC5A"/>
<path d="M220.817 320.531C220.768 319.2 217.64 317.565 216.807 319.802C214.833 325.104 211.091 345.589 211.091 345.589C210.604 347.318 210.349 349.091 210.331 350.872L210.057 377.632L219.778 377.732C219.778 377.732 221.413 336.658 220.817 320.531Z" fill="#273043"/>
<path opacity="0.59" d="M219.307 322.797C219.277 321.575 217.783 321.396 217.531 322.584L212.603 345.841C212.266 347.431 212.088 349.06 212.071 350.696L211.819 375.281L218.124 375.346C218.124 375.346 219.676 337.611 219.307 322.797Z" fill="url(#paint5_linear_21_83)"/>
<path d="M219.702 422.234C220.56 410.589 219.688 380.875 219.688 380.875L210.266 380.778L210.068 400.123C210.055 401.41 210.271 402.696 210.713 403.954C210.713 403.954 213.983 418.824 215.804 422.69C216.572 424.322 219.631 423.195 219.702 422.234Z" fill="#273043"/>
<path opacity="0.59" d="M218.278 420.57C218.892 409.87 218.043 382.571 218.043 382.571L211.932 382.508L211.75 400.28C211.738 401.463 211.883 402.643 212.181 403.798L216.554 420.692C216.777 421.556 218.227 421.453 218.278 420.57Z" fill="url(#paint6_linear_21_83)"/>
<path d="M143.621 459.759C145.172 458.649 144.586 455.174 142.312 451.998C140.038 448.822 136.938 447.147 135.387 448.258C133.836 449.368 134.422 452.843 136.696 456.019C138.97 459.195 142.07 460.869 143.621 459.759Z" fill="#D80505"/>
<path d="M144.171 455.766C144.177 455.761 144.182 455.755 144.188 455.75C143.845 454.562 143.214 453.257 142.312 451.997C140.038 448.821 136.938 447.146 135.387 448.257C135.38 448.262 135.376 448.268 135.37 448.272C135.713 449.46 136.344 450.765 137.246 452.025C139.52 455.201 142.62 456.876 144.171 455.766Z" fill="#F52206"/>
<path d="M211.644 456.018C213.918 452.842 214.504 449.367 212.953 448.257C211.402 447.147 208.302 448.821 206.028 451.997C203.754 455.173 203.168 458.648 204.719 459.758C206.269 460.869 209.37 459.195 211.644 456.018Z" fill="#D80505"/>
<path d="M211.094 452.025C211.996 450.765 212.628 449.46 212.97 448.272C212.964 448.267 212.959 448.261 212.953 448.257C211.402 447.147 208.302 448.821 206.028 451.997C205.126 453.257 204.495 454.562 204.152 455.75C204.158 455.755 204.163 455.761 204.169 455.766C205.72 456.876 208.82 455.201 211.094 452.025Z" fill="#F52206"/>
<path d="M196.071 235.746L215.786 250.953L213.401 238.254C208.252 233.679 201.44 230.729 193.491 230.007C188.631 229.565 180.201 229.001 173.551 229.001C166.811 229.001 159.756 229.541 155.042 230.007C147.815 230.72 141.077 233.687 135.79 238.289L132.955 249.375L152.462 235.555C152.462 235.555 162.513 234.025 175.138 234.025C187.763 234.025 196.071 235.746 196.071 235.746Z" fill="#7D581F"/>
<path d="M198.178 241.898C208.861 246.742 216.539 256.979 216.539 256.979C216.539 256.979 216.824 248.462 212.904 244.163C206.974 237.659 196.071 235.746 196.071 235.746L196.186 238.976C196.232 240.252 197.015 241.371 198.178 241.898Z" fill="#88C4FF"/>
<path d="M216.539 256.979C216.539 256.979 216.55 255.339 216.24 253.123C213.849 250.409 205.481 241.539 196.187 238.976C196.233 240.252 197.015 241.37 198.178 241.898C208.861 246.742 216.539 256.979 216.539 256.979Z" fill="#D5FAFC"/>
<path d="M150.355 241.707C151.518 241.18 152.301 240.061 152.346 238.785L152.461 235.555C152.461 235.555 141.558 237.468 135.628 243.972C131.708 248.271 131.994 256.788 131.994 256.788C131.994 256.788 139.672 246.55 150.355 241.707Z" fill="#88C4FF"/>
<path d="M152.347 238.785C143.053 241.348 134.685 250.218 132.294 252.932C131.984 255.148 131.995 256.788 131.995 256.788C131.995 256.788 139.673 246.551 150.356 241.707C151.519 241.179 152.301 240.061 152.347 238.785Z" fill="#D5FAFC"/>
<path d="M207.768 326.129C208.797 322.027 213.125 304.029 212.601 300.841C212.078 297.653 207.41 294.928 199.118 293.121C194.184 292.046 188.527 291.458 183.438 291.158C183.965 293.442 187.197 308.047 187.891 325.71C190.182 325.976 192.546 326.321 194.912 326.763C202.167 328.116 206.738 330.231 207.768 326.129Z" fill="url(#paint7_linear_21_83)"/>
<defs>
<linearGradient id="paint0_linear_21_83" x1="118.716" y1="327.982" x2="143.247" y2="371.489" gradientUnits="userSpaceOnUse">
<stop stop-color="#72B3DD"/>
<stop offset="0.9946" stop-color="#2E81BA"/>
</linearGradient>
<linearGradient id="paint1_linear_21_83" x1="122.552" y1="416.717" x2="140.529" y2="384.832" gradientUnits="userSpaceOnUse">
<stop stop-color="#72B3DD"/>
<stop offset="0.9946" stop-color="#2E81BA"/>
</linearGradient>
<linearGradient id="paint2_linear_21_83" x1="140.744" y1="292.116" x2="205.885" y2="329.725" gradientUnits="userSpaceOnUse">
<stop stop-color="#72B3DD"/>
<stop offset="0.9946" stop-color="#2E81BA"/>
</linearGradient>
<linearGradient id="paint3_linear_21_83" x1="146.209" y1="419.378" x2="206.008" y2="453.903" gradientUnits="userSpaceOnUse">
<stop stop-color="#72B3DD"/>
<stop offset="0.9946" stop-color="#2E81BA"/>
</linearGradient>
<linearGradient id="paint4_linear_21_83" x1="184.675" y1="436.218" x2="213.458" y2="436.218" gradientUnits="userSpaceOnUse">
<stop stop-color="#72B3DD"/>
<stop offset="0.9946" stop-color="#2E81BA"/>
</linearGradient>
<linearGradient id="paint5_linear_21_83" x1="229.914" y1="328.448" x2="204.716" y2="371.083" gradientUnits="userSpaceOnUse">
<stop stop-color="#72B3DD"/>
<stop offset="0.9946" stop-color="#2E81BA"/>
</linearGradient>
<linearGradient id="paint6_linear_21_83" x1="225.996" y1="416.379" x2="207.519" y2="385.117" gradientUnits="userSpaceOnUse">
<stop stop-color="#72B3DD"/>
<stop offset="0.9946" stop-color="#2E81BA"/>
</linearGradient>
<linearGradient id="paint7_linear_21_83" x1="183.438" y1="309.843" x2="212.645" y2="309.843" gradientUnits="userSpaceOnUse">
<stop stop-color="#72B3DD"/>
<stop offset="0.9946" stop-color="#2E81BA"/>
</linearGradient>
</defs>
</svg>
