<svg width="71" height="137" viewBox="0 0 71 137" fill="none" xmlns="http://www.w3.org/2000/svg">
<path d="M46.2521 0.496009C46.2521 0.496009 38.0281 0 35.1769 0C32.4905 0 24.1018 0.496009 24.1018 0.496009C13.877 0.496009 5.58789 9.77717 5.58789 20.002L7.90213 121.83C7.90213 132.054 13.877 136.707 24.1018 136.707H46.2527C56.4775 136.707 62.4523 132.054 62.4523 121.83L64.7666 20.002C64.7666 9.7766 56.4775 0.496009 46.2521 0.496009Z" fill="#A8392E"/>
<path d="M35.3688 3.69168C26.06 3.69168 18.9975 5.20397 18.9975 5.20397L10.0095 13.822C10.0095 13.822 8.56525 28.3371 8.56525 32.4194C8.56525 36.5018 11.2827 39.7199 11.2827 39.7199H58.7906C60.2239 38.2508 61.2091 35.7459 61.53 33.4778C61.8509 31.2096 60.2458 13.6711 60.2458 13.6711L51.2579 5.35552C51.2579 5.35552 44.6776 3.69168 35.3688 3.69168Z" fill="#FF5E64"/>
<path d="M22.6137 56.8339C18.5769 57.7257 17.3504 58.1998 15.1197 59.0784L18.7515 114.529C18.793 115.162 18.9312 115.784 19.1686 116.37C19.4123 116.972 19.7655 117.701 20.1889 118.161C20.375 118.364 20.7454 118.641 21.1464 118.914C22.0964 119.562 23.2169 119.901 24.3605 119.901H34.9563H35.1764H45.7285C47.2119 119.901 48.6649 119.35 49.7186 118.286C49.7779 118.227 49.8344 118.167 49.8886 118.106C50.3155 117.622 50.6415 117.044 50.8737 116.543C51.1727 115.898 51.3357 115.197 51.3818 114.486L55.0125 59.0784C55.0125 59.0784 52.2212 57.8824 47.5184 56.8339C44.3786 56.1339 40.5072 55.4869 35.1758 55.4869C30.3284 55.4875 26.6379 55.945 22.6137 56.8339Z" fill="#FF5E64"/>
<path d="M13.26 40.6054L13.1839 40.5409C13.0411 40.4211 9.68579 37.544 9.68579 33.3937C9.68579 29.3557 11.0437 14.9627 11.0575 14.8181L11.0667 14.7213L19.7182 6.00013L19.7954 5.98347C19.8628 5.96791 26.6263 4.46829 35.3867 4.46829C44.1522 4.46829 50.4687 6.12 50.5309 6.13671L50.5995 6.15513L59.2498 14.5692L59.2584 14.6695C59.3206 15.385 60.7799 32.2196 60.4752 34.4854C60.1612 36.8169 58.3142 38.8073 56.9649 40.2609L56.8848 40.3467L56.7391 40.3778L13.26 40.6054ZM11.587 14.965C11.4677 16.2359 10.2268 29.5545 10.2268 33.3937C10.2268 36.9684 12.9748 39.6214 13.4599 40.0627L56.6181 39.8369C58.0025 38.3447 59.6513 36.5335 59.9365 34.4134C60.2217 32.2939 58.8488 16.2452 58.7261 14.8164L50.3229 6.64249C49.623 6.4662 43.5905 5.0098 35.3849 5.0098C27.1875 5.0098 20.7563 6.33083 19.989 6.49502L11.587 14.965Z" fill="#A8392E"/>
<path d="M50.3022 37.4155C45.2825 36.3353 39.0173 36.0737 35.2467 36.0806C31.4761 36.0869 25.212 36.3704 20.1958 37.4685C15.1802 38.5666 12.3607 40.2056 12.0502 42.1125C11.7396 44.0195 14.5822 55.1799 15.2136 57.6295C15.845 60.0791 18.0371 58.1693 22.4259 57.3443C26.8147 56.5199 35.2824 56.5049 35.2824 56.5049C35.2824 56.5049 43.7495 56.4899 48.1418 57.2994C52.5335 58.1088 54.7325 60.0111 55.3553 57.5592C55.978 55.1072 58.7808 43.937 58.464 42.0312C58.1471 40.1249 55.3219 38.4962 50.3022 37.4155Z" fill="#3E687E"/>
<path d="M29.1077 69.097C25.5214 69.097 22.6143 72.004 22.6143 75.5903V98.9706C22.6143 102.557 25.5214 105.464 29.1077 105.464H41.4675C45.0538 105.464 47.9609 102.557 47.9609 98.9706V75.5909C47.9609 72.0046 45.0538 69.0975 41.4675 69.0975L29.1077 69.097Z" fill="#25303D"/>
<path opacity="0.59" d="M28.5633 70.5298C26.1298 70.5298 24.1572 72.5024 24.1572 74.9359V99.5698C24.1572 102.003 26.1298 103.976 28.5633 103.976H42.0114C44.4449 103.976 46.4175 102.003 46.4175 99.5698V74.9359C46.4175 72.5024 44.4449 70.5298 42.0114 70.5298H28.5633Z" fill="url(#paint0_linear_21_3)"/>
<path d="M47.0788 82.2006H23.7158V85.738H47.0788V82.2006Z" fill="#25303D"/>
<path d="M13.8332 78.4646H9.45481C8.81302 78.4646 8.29624 78.99 8.30661 79.6318L8.96799 119.993C9.00256 122.084 11.5202 123.122 13.018 121.662L17.3815 117.409C17.6246 117.172 17.7502 116.84 17.7254 116.502L14.9791 79.528C14.9342 78.9283 14.4347 78.4646 13.8332 78.4646Z" fill="#25303D"/>
<path d="M7.40613 45.3762L8.27606 76.3053C8.29795 77.0778 8.93052 77.6931 9.70366 77.6931H13.1834C14.1754 77.6931 14.963 76.8595 14.9071 75.8692L14.1005 61.5759C14.1005 61.5759 10.2158 45.7892 9.7198 44.9625C9.22435 44.1364 7.8192 43.9711 7.40613 45.3762Z" fill="#25303D"/>
<path d="M24.2291 20.733L24.9187 32.0692L25.1486 20.0665L22.3907 5.84058L21.0709 8.20669L24.2291 20.733Z" fill="#FE878C"/>
<path d="M45.1644 32.0692L45.8626 20.7808L49.0624 8.30691L47.7258 5.9512L44.9316 20.1166L45.1644 32.0692Z" fill="#FE878C"/>
<path d="M9.13274 46.2006C9.02558 45.7599 8.36651 45.8382 8.37745 46.2916C8.54683 53.406 9.24911 72.6383 9.37125 75.9821C9.38162 76.2621 9.6115 76.481 9.89149 76.481H12.8291C13.3545 76.481 13.7716 76.0385 13.7399 75.5137L12.9593 62.4383C12.9305 61.9561 12.8584 61.4779 12.7438 61.0084L9.13274 46.2006Z" fill="url(#paint1_linear_21_3)"/>
<path d="M12.8325 79.7867H10.6306C9.9502 79.7867 9.40347 80.3467 9.42017 81.0271C9.56478 86.8994 10.1835 111.94 10.4215 119.629C10.4485 120.513 11.5017 120.952 12.1509 120.352L15.4382 117.318C15.9343 116.86 16.1964 116.203 16.152 115.529L13.8614 80.7494C13.8257 80.2078 13.3758 79.7867 12.8325 79.7867Z" fill="url(#paint2_linear_21_3)"/>
<path d="M11.4711 6.29684C8.35956 9.33928 6.83862 13.3496 7.80648 15.2162C8.61822 16.7809 10.4065 17.0528 13.7525 15.7001C17.0024 14.3866 19.9192 11.1615 21.5686 8.07644C22.8528 5.67406 23.0872 3.46184 21.3583 2.21744C19.4595 0.85033 14.3373 3.49406 11.4711 6.29684Z" fill="#A8392E"/>
<path d="M5.03658 49.2609C3.4661 49.3439 1.56492 49.9223 0.738777 51.3275C-0.0879423 52.7326 -0.253272 55.3775 0.408104 55.9559C1.06948 56.5343 6.52408 54.7991 6.60704 54.2201C6.68943 53.6417 6.68943 53.3934 6.68943 53.3934L7.6815 53.5587V50.7485C7.26843 50.7485 6.60704 50.5002 6.60704 50.5002C6.60704 50.5002 6.60705 49.178 5.03658 49.2609Z" fill="#25303D"/>
<path d="M12.1999 6.88742C9.72037 9.31169 8.50823 12.508 9.27964 13.9955C9.92604 15.2428 11.3519 15.4593 14.0182 14.3809C16.6078 13.3341 18.9324 10.7641 20.2465 8.30526C21.2697 6.39084 21.4563 4.62788 20.0788 3.63582C18.566 2.54755 14.4842 4.65441 12.1999 6.88742Z" fill="#D6E5FE"/>
<path d="M9.25545 14.0231C9.90184 15.2704 11.3277 15.487 13.994 14.4091C14.3379 14.2702 14.6761 14.1026 15.0085 13.9142C14.6899 13.9211 11.8883 13.9476 10.7977 12.7009C9.87073 11.6415 10.0395 10.0894 10.1438 9.51328C9.11142 11.286 8.74156 13.0333 9.25545 14.0231Z" fill="#FE9D6D"/>
<path d="M17.3648 132.009C16.8803 132.009 16.7121 132.613 17.1349 132.835L20.9643 134.846C21.0346 134.883 21.1135 134.902 21.1942 134.902H49.6057C49.6834 134.902 49.7601 134.884 49.8286 134.849L53.8107 132.838C54.241 132.621 54.0763 132.009 53.5877 132.009H17.3648Z" fill="#FF5E64"/>
<path d="M18.0602 131.929C17.0998 131.921 16.5951 132.336 16.3324 132.728C16.1048 133.069 16.2166 133.537 16.583 133.721C17.7364 134.303 19.5316 134.7 20.6388 134.906C21.2109 135.012 21.6453 134.401 21.3601 133.894C20.7771 132.859 19.3777 131.94 18.0602 131.929Z" fill="#FEAA23"/>
<path d="M56.3358 78.4646C55.7344 78.4646 55.2349 78.9283 55.1905 79.528L52.4442 116.502C52.4188 116.84 52.545 117.172 52.7881 117.409L57.1516 121.662C58.6495 123.122 61.1671 122.084 61.2011 119.993L61.8624 79.6318C61.8728 78.99 61.356 78.4646 60.7142 78.4646H56.3358Z" fill="#25303D"/>
<path d="M60.4486 44.9625C59.9526 45.7892 56.0679 61.5759 56.0679 61.5759L55.2613 75.8692C55.2055 76.8595 55.9936 77.6931 56.9851 77.6931H60.4648C61.2379 77.6931 61.8705 77.0778 61.8924 76.3053L62.7623 45.3762C62.3498 43.9711 60.9447 44.1364 60.4486 44.9625Z" fill="#25303D"/>
<path d="M61.0369 46.2006L57.4252 61.0084C57.3106 61.4774 57.2386 61.9561 57.2098 62.4383L56.4291 75.5137C56.398 76.0385 56.8145 76.481 57.3405 76.481H60.2781C60.5581 76.481 60.788 76.2621 60.7983 75.9821C60.9211 72.6383 61.6228 53.406 61.7921 46.2916C61.8025 45.8382 61.144 45.7599 61.0369 46.2006Z" fill="url(#paint3_linear_21_3)"/>
<path d="M57.3365 79.7867C56.7938 79.7867 56.3433 80.2078 56.3082 80.7499L54.0175 115.53C53.9732 116.203 54.2359 116.861 54.7313 117.319L58.0186 120.353C58.6679 120.952 59.7204 120.513 59.7481 119.63C59.9866 111.941 60.6048 86.8994 60.7494 81.0277C60.7661 80.3473 60.2194 79.7872 59.539 79.7872L57.3365 79.7867Z" fill="url(#paint4_linear_21_3)"/>
<path d="M48.8106 2.21744C47.0823 3.46184 47.3162 5.67406 48.6004 8.07644C50.2498 11.1615 53.1666 14.3866 56.4165 15.7001C59.7631 17.0528 61.5513 16.7809 62.3631 15.2162C63.3309 13.349 61.81 9.33871 58.6984 6.29684C55.8317 3.49406 50.7095 0.85033 48.8106 2.21744Z" fill="#A8392E"/>
<path d="M65.1324 49.2609C63.5619 49.178 63.5619 50.5007 63.5619 50.5007C63.5619 50.5007 62.9006 50.749 62.4875 50.749V53.5593L63.4796 53.3939C63.4796 53.3939 63.4795 53.6423 63.5625 54.2207C63.6449 54.7991 69.1001 56.5349 69.7615 55.9565C70.4228 55.3781 70.2575 52.7332 69.4308 51.328C68.6041 49.9218 66.7029 49.3433 65.1324 49.2609Z" fill="#25303D"/>
<path d="M50.0896 3.63696C48.7121 4.62903 48.8988 6.39191 49.922 8.30633C51.2361 10.7652 53.5607 13.3346 56.1509 14.382C58.8177 15.4599 60.243 15.2433 60.8894 13.9966C61.6608 12.509 60.4487 9.31276 57.9691 6.88849C55.6848 4.65433 51.6031 2.54754 50.0896 3.63696Z" fill="#D6E5FE"/>
<path d="M55.1772 13.9274C55.5097 14.1164 55.8484 14.2835 56.1918 14.4223C58.8586 15.5002 60.2839 15.2836 60.9309 14.0364C61.4442 13.046 61.0749 11.2986 60.0419 9.52594C60.1456 10.1021 60.315 11.6541 59.388 12.7136C58.2975 13.9609 55.4958 13.9349 55.1772 13.9274Z" fill="#FE9D6D"/>
<path d="M49.2652 134.39C49.1863 134.705 49.4398 135.004 49.763 134.976C50.6934 134.897 52.6556 134.635 54.1253 133.802C54.623 133.519 54.7233 132.837 54.3252 132.426C54.0302 132.122 53.5549 131.862 52.7927 131.868C51.2413 131.881 49.5769 133.154 49.2652 134.39Z" fill="#FEAA23"/>
<path d="M50.6196 34.5217C45.4542 33.2214 39.0052 32.8959 35.1239 32.8959C31.2427 32.8959 24.7937 33.2208 19.6283 34.5217C14.4629 35.822 11.5576 37.7727 11.2349 40.0489C10.9123 42.3245 13.8176 55.6546 14.4629 58.5807C15.1087 61.5067 17.3682 59.231 21.8878 58.2551C26.4074 57.2798 35.1234 57.2798 35.1234 57.2798C35.1234 57.2798 43.8393 57.2798 48.3589 58.2551C52.8785 59.2305 55.138 61.5061 55.7839 58.5807C56.4297 55.6546 59.335 42.3245 59.0124 40.0489C58.6903 37.7727 55.785 35.822 50.6196 34.5217Z" fill="#25303D"/>
<path d="M49.9041 36.9696C45.0025 35.9072 38.8848 35.6503 35.2035 35.6566C31.5215 35.6629 25.405 35.9418 20.5075 37.022C15.6099 38.1022 12.8567 39.7136 12.5537 41.5888C12.2506 43.4641 15.0258 54.4389 15.6428 56.8482C16.2592 59.2575 18.3995 57.3789 22.6852 56.5677C26.9709 55.7565 35.2386 55.7421 35.2386 55.7421C35.2386 55.7421 43.5064 55.7277 47.7949 56.5233C52.0835 57.3189 54.2301 59.1901 54.8385 56.7785C55.4468 54.3675 58.1834 43.3822 57.874 41.5082C57.5646 39.6341 54.8056 38.0319 49.9041 36.9696Z" fill="url(#paint5_linear_21_3)"/>
<path d="M47.7949 56.5233C52.0835 57.3189 54.2301 59.1901 54.8384 56.7785C55.4468 54.3675 58.1833 43.3823 57.874 41.5082C57.5646 39.6341 54.8056 38.032 49.9046 36.9696C46.9509 36.3295 43.5582 35.9833 40.5209 35.8093C41.1426 38.3229 43.284 47.6927 42.9204 55.9858C44.6845 56.1011 46.4387 56.2716 47.7949 56.5233Z" fill="url(#paint6_linear_21_3)"/>
<path d="M12.1999 6.88739C11.3709 7.69798 10.6877 8.59443 10.1686 9.48509C10.1709 9.48279 16.2229 3.52697 20.8508 6.502C20.8837 6.52274 20.9107 6.53713 20.9424 6.55672C21.2311 5.35495 21.0214 4.31509 20.0794 3.63643C18.566 2.54758 14.4842 4.65439 12.1999 6.88739Z" fill="#78C2FC"/>
<path d="M46.0494 121.333H23.5447C23.0182 121.333 22.517 121.555 22.1638 121.945C21.261 122.941 19.4163 124.98 17.8372 126.737C16.7587 127.937 17.6114 129.847 19.2245 129.847H50.441C52.0639 129.847 52.912 127.917 51.8145 126.722L47.4222 121.937C47.0696 121.552 46.5713 121.333 46.0494 121.333Z" fill="#25303D"/>
<path d="M50.1086 3.65021C49.1661 4.32886 48.9564 5.36873 49.245 6.57049C49.2767 6.55091 49.3044 6.53653 49.3366 6.51522C53.9645 3.54018 60.0166 9.49599 60.0189 9.49887C59.4998 8.6082 58.8165 7.71182 57.9875 6.90124C55.7038 4.66766 51.6215 2.56078 50.1086 3.65021Z" fill="#78C2FC"/>
<path d="M45.2865 122.325H23.9998C23.7475 122.325 23.5067 122.427 23.3304 122.607C22.5474 123.412 20.2643 125.757 18.7272 127.356C18.1563 127.95 18.578 128.937 19.4019 128.937H50.0302C50.8627 128.937 51.2792 127.931 50.691 127.342L45.9473 122.599C45.7722 122.424 45.5348 122.325 45.2865 122.325Z" fill="url(#paint7_linear_21_3)"/>
<defs>
<linearGradient id="paint0_linear_21_3" x1="44.5053" y1="103.219" x2="26.0693" y2="71.287" gradientUnits="userSpaceOnUse">
<stop stop-color="#72B3DD"/>
<stop offset="0.9946" stop-color="#2E81BA"/>
</linearGradient>
<linearGradient id="paint1_linear_21_3" x1="13.7417" y1="61.1942" x2="8.37705" y2="61.1942" gradientUnits="userSpaceOnUse">
<stop stop-color="#414751"/>
<stop offset="0.9838" stop-color="#292B2E"/>
</linearGradient>
<linearGradient id="paint2_linear_21_3" x1="16.1568" y1="100.208" x2="9.41965" y2="100.208" gradientUnits="userSpaceOnUse">
<stop stop-color="#414751"/>
<stop offset="0.9838" stop-color="#292B2E"/>
</linearGradient>
<linearGradient id="paint3_linear_21_3" x1="61.792" y1="61.1942" x2="56.4273" y2="61.1942" gradientUnits="userSpaceOnUse">
<stop stop-color="#414751"/>
<stop offset="0.9838" stop-color="#292B2E"/>
</linearGradient>
<linearGradient id="paint4_linear_21_3" x1="60.7493" y1="100.208" x2="54.0122" y2="100.208" gradientUnits="userSpaceOnUse">
<stop stop-color="#414751"/>
<stop offset="0.9838" stop-color="#292B2E"/>
</linearGradient>
<linearGradient id="paint5_linear_21_3" x1="15.3182" y1="36.4953" x2="53.8292" y2="58.7297" gradientUnits="userSpaceOnUse">
<stop stop-color="#414751"/>
<stop offset="0.9838" stop-color="#292B2E"/>
</linearGradient>
<linearGradient id="paint6_linear_21_3" x1="40.5205" y1="46.8885" x2="57.8982" y2="46.8885" gradientUnits="userSpaceOnUse">
<stop stop-color="#414751"/>
<stop offset="0.9838" stop-color="#292B2E"/>
</linearGradient>
<linearGradient id="paint7_linear_21_3" x1="34.7159" y1="122.325" x2="34.7159" y2="128.937" gradientUnits="userSpaceOnUse">
<stop stop-color="#414751"/>
<stop offset="0.9838" stop-color="#292B2E"/>
</linearGradient>
</defs>
</svg>
