<svg width="348" height="694" viewBox="0 0 348 694" fill="none" xmlns="http://www.w3.org/2000/svg">
<path d="M193.322 271.084C193.911 271.084 194.388 270.606 194.388 270.017C194.388 269.428 193.911 268.951 193.322 268.951H153.87C153.281 268.951 152.803 269.429 152.803 270.017C152.803 270.606 153.281 271.084 153.87 271.084H193.322Z" fill="#4E4E54"/>
<path d="M158.135 270.018H156.713V276.416H158.135V270.018Z" fill="#4E4E54"/>
<path d="M190.479 270.018H189.057V276.416H190.479V270.018Z" fill="#4E4E54"/>
<path d="M179.816 270.018H178.389V276.416H179.816V270.018Z" fill="#4E4E54"/>
<path d="M169.112 270.018H167.685V276.416H169.112V270.018Z" fill="#4E4E54"/>
<path d="M173.834 271.902L173.983 271.901C173.933 271.901 173.881 271.901 173.834 271.901V271.902Z" fill="#151347"/>
<path d="M173.924 419.914C173.874 419.913 173.846 419.911 173.846 419.911V419.916C171.939 419.967 152.767 420.383 149.823 416.313C146.723 412.03 142.228 412.03 142.228 412.03C142.228 412.03 142.72 413.739 143.47 415.789C144.881 419.646 148.564 422.552 153.113 423.39C158.151 424.318 165.617 425 173.777 425C182.075 425 189.609 424.32 194.684 423.393C199.254 422.558 202.964 419.656 204.38 415.783C205.128 413.736 205.619 412.03 205.619 412.03C205.619 412.03 201.125 412.03 198.025 416.313C195.08 420.383 175.909 419.968 174.002 419.916V419.911C174.002 419.911 173.973 419.913 173.924 419.914Z" fill="#25303D"/>
<path d="M159.776 419.764C166.637 420.047 180.394 420.12 187.251 419.764C199.803 419.112 207.755 414.741 207.755 403.7L209.395 293.753C209.395 282.713 200.656 274.434 187.661 273.406C184.188 273.131 178.164 272.781 173.412 272.781C168.596 272.781 163.554 273.117 160.186 273.406C148.411 274.418 138.452 282.713 138.452 293.753L140.092 403.7C140.092 414.741 147.501 419.258 159.776 419.764Z" fill="#2D3857"/>
<path d="M205.658 307.957C206.043 305.381 203.593 283.863 203.593 283.863L193.342 276.024C193.342 276.024 185.451 274.914 174.288 274.914C163.126 274.914 154.658 275.853 154.658 275.853L144.403 282.793C144.403 282.793 142.148 302.12 142.148 306.755C142.148 311.39 145.406 315.045 145.406 315.045H202.373C204.093 313.376 205.274 310.532 205.658 307.957Z" fill="#414D7A"/>
<path d="M139.11 335.454C139.249 335.013 139.249 334.824 139.249 334.824L140.917 334.95V332.809C140.222 332.809 139.11 332.62 139.11 332.62C139.11 332.62 139.11 331.612 136.469 331.675C133.828 331.738 130.632 332.179 129.242 333.25C127.852 334.32 127.574 336.336 128.686 336.776C129.798 337.218 138.972 335.895 139.11 335.454Z" fill="#273552"/>
<path d="M161.9 293.576L157.799 278.344L156.159 279.297L160.806 294.289L161.626 306.426L161.9 293.576Z" fill="#5665A1"/>
<path d="M161.523 394.93H186.017C189.157 394.93 191.704 392.384 191.704 389.243L196.324 330.165H151.216L155.836 389.243C155.836 392.384 158.382 394.93 161.523 394.93Z" fill="#414D7A"/>
<path d="M219.219 336.777C220.331 336.336 220.053 334.32 218.663 333.25C217.273 332.179 214.076 331.738 211.435 331.676C208.794 331.613 208.794 332.62 208.794 332.62C208.794 332.62 207.682 332.809 206.988 332.809V334.95L208.655 334.825C208.655 334.825 208.655 335.013 208.794 335.454C208.934 335.895 218.108 337.218 219.219 336.777Z" fill="#384BA1"/>
<path d="M157.899 335.519C163.401 334.504 169.83 333.914 173.892 333.913C177.969 333.912 184.99 334.498 190.493 335.513C195.995 336.528 198.292 336.868 199.078 333.824C199.864 330.779 203.402 319.331 203.009 316.963C202.615 314.594 199.078 312.565 192.79 311.211C186.501 309.858 178.65 309.52 173.924 309.52C169.198 309.52 161.347 309.858 155.058 311.211C148.77 312.565 145.232 314.594 144.839 316.963C144.446 319.331 147.984 330.868 148.77 333.913C149.555 336.958 152.396 336.535 157.899 335.519Z" fill="#273043"/>
<path opacity="0.59" d="M159.562 333.765C164.743 332.908 170.969 332.51 174.694 332.486C178.299 332.462 183.492 332.752 188.677 333.594C193.861 334.436 197.128 335.752 197.864 333.2C198.599 330.648 201.691 319.453 201.317 317.47C200.943 315.487 197.608 313.792 191.682 312.667C185.757 311.543 178.361 311.271 173.91 311.278C169.459 311.285 162.064 311.58 156.144 312.723C150.223 313.865 146.894 315.571 146.528 317.555C146.162 319.539 149.447 330.562 150.192 333.111C150.937 335.659 154.381 334.623 159.562 333.765Z" fill="url(#paint0_linear_21_194)"/>
<path d="M219.297 336.777C220.408 336.336 220.13 334.32 218.741 333.25C217.351 332.179 214.153 331.738 211.513 331.676C208.872 331.613 208.872 332.62 208.872 332.62C208.872 332.62 207.76 332.809 207.065 332.809V334.95L208.733 334.825C208.733 334.825 208.733 335.013 208.872 335.454C209.011 335.895 218.184 337.218 219.297 336.777Z" fill="#273552"/>
<path d="M191.824 279.297L190.184 278.344L186.083 293.576L186.357 306.426L187.177 294.289L191.824 279.297Z" fill="#5665A1"/>
<path d="M153.639 420.213C154.747 419.522 154.328 417.361 152.704 415.385C151.079 413.409 148.863 412.367 147.755 413.058C146.647 413.749 147.066 415.91 148.69 417.886C150.315 419.862 152.531 420.904 153.639 420.213Z" fill="#D83432"/>
<path d="M154.032 417.729C154.037 417.726 154.04 417.722 154.045 417.719C153.8 416.98 153.348 416.169 152.704 415.385C151.08 413.409 148.864 412.367 147.756 413.058C147.751 413.061 147.747 413.065 147.743 413.067C147.988 413.806 148.439 414.618 149.084 415.402C150.708 417.378 152.924 418.42 154.032 417.729Z" fill="#FE9D6D"/>
<path d="M202.247 417.887C203.872 415.911 204.29 413.749 203.182 413.059C202.074 412.368 199.858 413.41 198.234 415.386C196.609 417.361 196.19 419.523 197.298 420.214C198.407 420.904 200.622 419.862 202.247 417.887Z" fill="#D83432"/>
<path d="M201.854 415.402C202.499 414.619 202.95 413.807 203.195 413.068C203.191 413.065 203.187 413.061 203.183 413.059C202.074 412.368 199.859 413.41 198.234 415.386C197.589 416.169 197.138 416.981 196.894 417.72C196.898 417.723 196.901 417.727 196.906 417.73C198.014 418.42 200.229 417.378 201.854 415.402Z" fill="#FE9D6D"/>
<path d="M189.505 276.977L203.593 286.436L201.888 278.537C198.209 275.692 193.342 273.856 187.661 273.407C184.188 273.132 178.164 272.781 173.412 272.781C168.596 272.781 163.554 273.118 160.186 273.407C155.022 273.85 150.207 275.696 146.428 278.559L144.403 285.455L158.342 276.858C158.342 276.858 165.524 275.906 174.546 275.906C183.568 275.906 189.505 276.977 189.505 276.977Z" fill="#4C5478"/>
<path opacity="0.59" d="M197.863 333.199C198.598 330.648 201.691 319.452 201.317 317.469C200.943 315.486 197.607 313.791 191.682 312.667C188.157 311.998 184.114 311.633 180.477 311.446C180.854 312.867 183.163 321.952 183.659 332.939C185.296 333.104 186.985 333.319 188.676 333.593C193.861 334.435 197.128 335.751 197.863 333.199Z" fill="url(#paint1_linear_21_194)"/>
<path d="M149.379 288.07C152.767 286.877 155.809 283.95 157.528 281.15C158.868 278.969 159.112 276.961 157.309 275.832C155.33 274.591 149.988 276.99 146.999 279.534C143.755 282.295 142.169 285.935 143.178 287.63C144.025 289.051 145.89 289.297 149.379 288.07Z" fill="#2D3857"/>
<path d="M149.656 286.872C152.356 285.922 154.779 283.59 156.15 281.358C157.217 279.62 157.412 278.02 155.975 277.12C154.398 276.131 150.142 278.043 147.76 280.07C145.174 282.271 143.91 285.172 144.715 286.522C145.389 287.654 146.875 287.851 149.656 286.872Z" fill="#D6E5FE"/>
<path d="M144.69 286.547C145.364 287.679 146.85 287.876 149.631 286.897C149.989 286.771 150.342 286.619 150.689 286.448C150.357 286.454 147.436 286.478 146.299 285.347C145.332 284.385 145.508 282.977 145.617 282.453C144.54 284.062 144.154 285.648 144.69 286.547Z" fill="#D5FAFC"/>
<path d="M156.876 279.77C157.177 278.679 156.958 277.735 155.976 277.119C154.398 276.13 150.142 278.043 147.76 280.07C146.895 280.806 146.183 281.62 145.642 282.428C145.644 282.425 151.955 277.02 156.78 279.72C156.814 279.74 156.843 279.752 156.876 279.77Z" fill="#78C2FC"/>
<path d="M197.75 288.07C201.24 289.298 203.105 289.051 203.951 287.63C204.96 285.936 203.374 282.296 200.129 279.535C197.14 276.99 191.8 274.591 189.819 275.832C188.017 276.962 188.261 278.97 189.6 281.151C191.32 283.95 194.362 286.877 197.75 288.07Z" fill="#2D3857"/>
<path d="M197.473 286.872C200.254 287.851 201.74 287.654 202.415 286.522C203.219 285.172 201.955 282.271 199.37 280.07C196.988 278.043 192.732 276.131 191.154 277.12C189.718 278.02 189.912 279.62 190.979 281.358C192.349 283.59 194.773 285.922 197.473 286.872Z" fill="#D6E5FE"/>
<path d="M196.44 286.448C196.787 286.619 197.14 286.771 197.498 286.897C200.279 287.876 201.765 287.679 202.44 286.547C202.975 285.648 202.59 284.062 201.513 282.454C201.621 282.977 201.798 284.386 200.831 285.347C199.694 286.478 196.773 286.454 196.44 286.448Z" fill="#D5FAFC"/>
<path d="M201.487 282.428C200.947 281.62 200.234 280.806 199.369 280.07C196.987 278.043 192.731 276.131 191.153 277.12C190.17 277.736 189.952 278.679 190.253 279.771C190.287 279.753 190.315 279.74 190.349 279.721C195.174 277.02 201.485 282.426 201.487 282.428Z" fill="#78C2FC"/>
<path d="M158.047 411.349C163.498 412.099 170.303 412.286 174.399 412.286C178.495 412.286 185.301 412.099 190.751 411.349C196.201 410.599 199.268 409.475 199.609 408.163C199.949 406.85 196.999 399.874 196.317 398.188C195.636 396.501 193.139 397.127 188.366 397.666C182.692 398.306 174.399 398.228 174.399 398.228C174.399 398.228 165.202 398.228 160.432 397.666C155.663 397.103 153.846 396.174 152.6 398.543C151.753 400.154 148.849 406.851 149.19 408.163C149.531 409.474 152.597 410.599 158.047 411.349Z" fill="#273043"/>
<path opacity="0.59" d="M158.975 409.693C164.143 410.278 170.598 410.429 174.483 410.433C178.368 410.436 184.824 410.297 189.996 409.722C195.168 409.146 198.079 408.278 198.406 407.263C198.733 406.248 195.845 400.299 195.203 398.993C194.561 397.687 191.898 398.58 187.372 399.01C182.847 399.441 174.52 399.554 174.52 399.554C174.52 399.554 166.482 399.361 161.959 398.922C157.437 398.483 154.492 397.651 153.841 398.955C153.19 400.26 150.262 406.204 150.582 407.219C150.901 408.235 153.807 409.108 158.975 409.693Z" fill="url(#paint2_linear_21_194)"/>
<path opacity="0.59" d="M189.997 409.718C195.169 409.139 198.08 408.267 198.407 407.247C198.733 406.227 195.846 400.247 195.204 398.933C194.562 397.62 192.965 398.518 188.439 398.951C187.109 399.078 184.749 399.289 183.022 399.352C183.645 403.973 181.036 409.467 180.605 410.335C183.676 410.235 187.045 410.048 189.997 409.718Z" fill="url(#paint3_linear_21_194)"/>
<path d="M148.224 398.458L153.336 393.902C153.814 393.476 154.036 392.861 153.932 392.259L152.703 385.143C152.509 384.021 151.281 383.338 150.119 383.707L145.311 385.231C144.436 385.508 143.874 386.306 143.952 387.159L144.878 397.307C145.019 398.85 147.015 399.537 148.224 398.458Z" fill="#25303D"/>
<path d="M144.42 352.403L148.16 352.463C149.226 352.479 150.084 351.838 150.036 351.059L149.347 339.815C149.347 339.815 145.368 327.345 144.846 326.687C144.323 326.03 142.815 325.875 142.353 326.972L142.902 351.288C142.916 351.896 143.588 352.39 144.42 352.403Z" fill="#25303D"/>
<path opacity="0.59" d="M144.636 351.454L147.794 351.504C148.359 351.513 148.812 351.172 148.785 350.76L148.109 340.473C148.084 340.094 148.012 339.716 147.895 339.345L144.198 327.649C144.088 327.301 143.379 327.351 143.385 327.707C143.478 333.3 143.993 348.423 144.083 351.052C144.091 351.273 144.335 351.45 144.636 351.454Z" fill="url(#paint4_linear_21_194)"/>
<path d="M145.065 382.691L151.541 380.384C151.984 380.226 152.263 379.808 152.223 379.36L150.068 355.042C150.027 354.645 149.495 354.329 148.849 354.32L144.142 354.249C143.452 354.238 142.89 354.578 142.895 355.003L143.632 381.778C143.652 382.468 144.384 382.935 145.065 382.691Z" fill="#25303D"/>
<path opacity="0.59" d="M145.799 380.901L150.345 379.312C150.691 379.191 150.909 378.864 150.877 378.514L148.853 355.84C148.821 355.477 148.342 355.189 147.758 355.179L145.391 355.143C144.659 355.132 144.065 355.498 144.076 355.952C144.16 359.634 144.518 374.166 144.703 380.195C144.721 380.726 145.277 381.084 145.799 380.901Z" fill="url(#paint5_linear_21_194)"/>
<path opacity="0.59" d="M147.62 397.212L152.305 393.309C152.569 393.089 152.697 392.76 152.644 392.436L151.536 385.653C151.438 385.056 150.783 384.695 150.172 384.902L145.653 386.431C145.204 386.583 144.921 387 144.966 387.441L145.91 396.597C145.99 397.381 146.987 397.739 147.62 397.212Z" fill="url(#paint6_linear_21_194)"/>
<path d="M203.68 397.307L204.606 387.159C204.684 386.306 204.122 385.508 203.247 385.231L198.439 383.707C197.277 383.338 196.049 384.021 195.855 385.143L194.626 392.259C194.522 392.861 194.745 393.476 195.222 393.902L200.334 398.458C201.543 399.537 203.54 398.85 203.68 397.307Z" fill="#25303D"/>
<path d="M204.139 352.403C204.97 352.39 205.642 351.896 205.656 351.288L206.205 326.972C205.743 325.875 204.235 326.029 203.712 326.687C203.189 327.345 199.211 339.815 199.211 339.815L198.523 351.059C198.475 351.838 199.332 352.48 200.399 352.463L204.139 352.403Z" fill="#25303D"/>
<path opacity="0.59" d="M203.922 351.454C204.223 351.449 204.467 351.273 204.475 351.053C204.565 348.424 205.079 333.301 205.173 327.708C205.179 327.352 204.47 327.302 204.36 327.65L200.662 339.347C200.545 339.717 200.473 340.094 200.448 340.474L199.772 350.761C199.745 351.173 200.199 351.514 200.763 351.505L203.922 351.454Z" fill="url(#paint7_linear_21_194)"/>
<path d="M203.492 382.691C204.174 382.935 204.906 382.468 204.925 381.778L205.663 355.003C205.667 354.578 205.105 354.239 204.415 354.249L199.709 354.32C199.062 354.33 198.531 354.645 198.489 355.042L196.334 379.36C196.294 379.807 196.573 380.225 197.016 380.384L203.492 382.691Z" fill="#25303D"/>
<path opacity="0.59" d="M202.759 380.901C203.282 381.084 203.838 380.726 203.854 380.195C204.039 374.166 204.397 359.634 204.482 355.952C204.492 355.498 203.897 355.133 203.167 355.143L200.799 355.179C200.216 355.188 199.737 355.477 199.704 355.84L197.681 378.514C197.649 378.865 197.868 379.191 198.213 379.312L202.759 380.901Z" fill="url(#paint8_linear_21_194)"/>
<path opacity="0.59" d="M202.649 396.597L203.592 387.441C203.638 387 203.355 386.583 202.906 386.431L198.387 384.902C197.776 384.695 197.121 385.056 197.023 385.653L195.915 392.436C195.862 392.76 195.99 393.089 196.254 393.309L200.938 397.212C201.571 397.739 202.569 397.381 202.649 396.597Z" fill="url(#paint9_linear_21_194)"/>
<path d="M181.871 374.315C184.845 374.315 187.256 371.904 187.256 368.93V359.797C187.256 356.822 184.845 354.411 181.871 354.411H166.34C163.366 354.411 160.955 356.822 160.955 359.797V368.93C160.955 371.904 163.366 374.315 166.34 374.315H181.871Z" fill="#273043"/>
<defs>
<linearGradient id="paint0_linear_21_194" x1="150.476" y1="310.461" x2="195.928" y2="336.703" gradientUnits="userSpaceOnUse">
<stop stop-color="#72B3DD"/>
<stop offset="0.9946" stop-color="#2E81BA"/>
</linearGradient>
<linearGradient id="paint1_linear_21_194" x1="180.478" y1="323.069" x2="201.348" y2="323.069" gradientUnits="userSpaceOnUse">
<stop stop-color="#72B3DD"/>
<stop offset="0.9946" stop-color="#2E81BA"/>
</linearGradient>
<linearGradient id="paint2_linear_21_194" x1="156.78" y1="393.861" x2="193.817" y2="415.244" gradientUnits="userSpaceOnUse">
<stop stop-color="#72B3DD"/>
<stop offset="0.9946" stop-color="#2E81BA"/>
</linearGradient>
<linearGradient id="paint3_linear_21_194" x1="180.605" y1="404.291" x2="198.432" y2="404.291" gradientUnits="userSpaceOnUse">
<stop stop-color="#72B3DD"/>
<stop offset="0.9946" stop-color="#2E81BA"/>
</linearGradient>
<linearGradient id="paint4_linear_21_194" x1="148.787" y1="339.459" x2="143.385" y2="339.459" gradientUnits="userSpaceOnUse">
<stop stop-color="#72B3DD"/>
<stop offset="0.9946" stop-color="#2E81BA"/>
</linearGradient>
<linearGradient id="paint5_linear_21_194" x1="150.88" y1="368.047" x2="144.076" y2="368.047" gradientUnits="userSpaceOnUse">
<stop stop-color="#72B3DD"/>
<stop offset="0.9946" stop-color="#2E81BA"/>
</linearGradient>
<linearGradient id="paint6_linear_21_194" x1="144.961" y1="391.152" x2="152.655" y2="391.152" gradientUnits="userSpaceOnUse">
<stop stop-color="#72B3DD"/>
<stop offset="0.9946" stop-color="#2E81BA"/>
</linearGradient>
<linearGradient id="paint7_linear_21_194" x1="205.173" y1="339.459" x2="199.771" y2="339.459" gradientUnits="userSpaceOnUse">
<stop stop-color="#72B3DD"/>
<stop offset="0.9946" stop-color="#2E81BA"/>
</linearGradient>
<linearGradient id="paint8_linear_21_194" x1="204.482" y1="368.047" x2="197.678" y2="368.047" gradientUnits="userSpaceOnUse">
<stop stop-color="#72B3DD"/>
<stop offset="0.9946" stop-color="#2E81BA"/>
</linearGradient>
<linearGradient id="paint9_linear_21_194" x1="195.903" y1="391.152" x2="203.597" y2="391.152" gradientUnits="userSpaceOnUse">
<stop stop-color="#72B3DD"/>
<stop offset="0.9946" stop-color="#2E81BA"/>
</linearGradient>
</defs>
</svg>
