<svg width="88" height="89" viewBox="0 0 88 89" fill="none" xmlns="http://www.w3.org/2000/svg">
<path d="M84.7782 40.4822C85.9386 40.1401 86.7599 38.8974 86.6206 37.6957C86.4809 36.4939 85.3966 35.4729 84.1887 35.4054C86.6584 33.5856 87.9226 30.1448 86.898 27.2532C85.873 24.3617 82.44 22.4581 79.5254 23.4151C80.6756 21.9372 81.5472 19.9883 80.9359 18.2177C80.3245 16.4475 77.619 15.5478 76.5184 17.0632C76.9413 15.05 75.7181 12.8194 73.7934 12.094C71.8684 11.3683 69.0338 11.5634 68.0229 13.3547C68.4056 12.1378 68.7174 10.8416 68.4423 9.59621C68.1672 8.3504 67.1411 7.18615 65.8656 7.15337C64.6452 7.12216 63.6397 8.07105 62.8571 9.00745C63.0759 6.21971 62.6386 3.0855 60.4891 1.29658C58.5933 -0.281258 55.7256 -0.359682 53.5176 0.739809C51.3097 1.8393 49.7248 3.94501 48.8118 6.23647C49.0284 4.34103 47.1154 2.33519 45.2414 1.97897C43.367 1.62274 41.3276 2.9025 40.8333 4.74526C38.7373 2.18694 34.9866 1.3227 31.8056 2.22711C28.6246 3.13152 26.8302 6.46395 26.1271 9.42336C25.2352 8.02266 22.3995 6.10616 20.0514 7.37499C18.5906 8.16469 17.9757 10.1971 18.7053 11.6891C16.1049 10.6415 12.9192 11.8053 11.2695 14.0722C9.6203 16.3395 9.41039 19.4596 10.3394 22.105C8.43185 21.7538 6.35265 22.7975 5.49389 24.5369C4.63513 26.2762 5.07134 28.5615 6.51027 29.8623C5.33743 29.8412 4.2075 30.7078 3.92346 31.8459C3.63942 32.984 5.30622 35.1081 6.35108 35.641C3.45448 36.6282 0.208681 38.6356 0.0143779 41.6898C-0.179925 44.7436 1.61212 47.8318 4.36045 49.1783C2.67064 49.6414 1.42834 51.3839 1.54149 53.1326C1.65464 54.881 4.2036 56.1439 5.93907 56.3851C4.11894 57.7799 2.4342 60.8548 3.5251 62.8716C4.61601 64.8888 7.25823 65.9094 9.4217 65.1494C8.78261 66.0078 8.88054 67.3312 9.63942 68.0854C10.3983 68.84 13.0901 68.657 13.9445 68.0128C12.925 71.0097 12.403 74.8306 14.6648 77.046C16.9266 79.261 20.4911 80.0327 23.4662 78.9512C23.0077 80.0296 23.481 81.4162 24.5028 81.9894C25.5247 82.5626 26.955 82.243 27.6359 81.2898C28.1891 84.0148 30.6573 86.2348 33.4256 86.4978C36.1938 86.7608 39.0358 85.0448 40.092 82.4728C40.9109 85.0678 43.0725 87.1978 45.6792 87.9789C48.2855 88.76 51.2625 88.1692 53.3737 86.4525C56.5598 83.8614 57.3971 79.4198 58.0237 75.3608C59.0127 77.3417 60.6276 79.2828 62.8266 79.5419C65.0256 79.801 67.3612 77.3277 66.2468 75.4143C68.0724 77.1482 70.9148 77.9566 73.2024 76.9051C75.4899 75.8532 76.7002 72.6824 75.2804 70.6032C76.8516 71.8455 79.4716 70.7674 80.1067 68.8677C80.7419 66.968 79.6982 64.7959 78.0474 63.6617C80.3924 65.3059 84.017 63.6925 84.9819 60.9961C85.9472 58.3 85.2948 55.7027 83.1906 53.76C85.3947 52.254 87.2101 50.0164 87.6967 47.3913C88.1848 44.7667 87.1083 41.785 84.7782 40.4822Z" fill="#79AE28"/>
</svg>
