<svg width="18" height="18" viewBox="0 0 18 18" fill="none" xmlns="http://www.w3.org/2000/svg">
<path d="M0 14V4C0 1.33333 1.33333 0 4 0H14C15 0 15.8167 0.199998 16.45 0.599998C17.4833 1.2 18 2.33333 18 4V14C18 15.6667 17.4833 16.8167 16.45 17.45C15.8167 17.8167 15 18 14 18H4C1.33333 18 0 16.6667 0 14ZM16 9C16 7.06667 15.3167 5.41667 13.95 4.05C12.55 2.68334 10.9 2 9 2C7.06667 2 5.41665 2.68334 4.04999 4.05C2.68332 5.41667 2 7.06667 2 9C2 10.9333 2.68332 12.5833 4.04999 13.95C5.41665 15.3167 7.06667 16 9 16C10.9 16 12.55 15.3167 13.95 13.95C15.3167 12.5833 16 10.9333 16 9ZM9 5.5C9.96667 5.5 10.8 5.85 11.5 6.55C12.1667 7.21667 12.5 8.03333 12.5 9C12.5 9.96667 12.1667 10.8 11.5 11.5C10.8 12.1667 9.96667 12.5 9 12.5C8.03333 12.5 7.21665 12.1667 6.54999 11.5C5.84999 10.8 5.5 9.96667 5.5 9C5.5 8.03333 5.84999 7.21667 6.54999 6.55C7.21665 5.85 8.03333 5.5 9 5.5Z" fill="#FF9900"/>
</svg>
