<svg width="200" height="200" viewBox="0 0 200 200" fill="none" xmlns="http://www.w3.org/2000/svg">
<path d="M112.905 86.25L121.155 99.3C121.388 99.7 121.488 100.133 121.455 100.6L120.905 101.75L107.155 115.65L106.355 116.15L105.505 116.25L88.255 114.25C87.7883 114.183 87.405 114 87.105 113.7L78.655 105.8C78.255 105.467 78.0383 105.05 78.005 104.55C77.9717 104.017 78.105 103.55 78.405 103.15L92.905 83.75L93.755 83.1L94.805 83L111.505 85.35L112.305 85.65L112.905 86.25ZM119.455 100.35L111.205 87.3L94.505 84.95L80.005 104.35L88.455 112.25L105.705 114.25L119.455 100.35Z" fill="#5F7E80"/>
<path d="M119.455 100.35L105.705 114.25L88.4549 112.25L80.0049 104.35L94.5049 84.9502L111.205 87.3002L119.455 100.35ZM91.2049 100.1L87.2549 100.65L85.7049 102.55L90.6549 108.6L102.955 110.8L108.455 105.3L106.205 102.3H103.255L104.005 99.3502L102.005 96.6502L104.405 90.2502L96.7049 88.9502L91.2049 95.7502V100.1Z" fill="#A6C9CB"/>
<path d="M91.2051 100.1V95.7502L96.7051 88.9502L104.405 90.2502L102.005 96.6502L104.005 99.3502L103.255 102.3H106.205L108.455 105.3L102.955 110.8L90.6551 108.6L85.7051 102.55L87.2551 100.65L91.2051 100.1Z" fill="#B5D5D7"/>
</svg>
