<svg width="88" height="89" viewBox="0 0 88 89" fill="none" xmlns="http://www.w3.org/2000/svg">
<path d="M84.7782 40.4822C85.9386 40.1401 86.7599 38.8974 86.6206 37.6957C86.4809 36.4939 85.3966 35.4729 84.1887 35.4054C86.6584 33.5856 87.9226 30.1448 86.898 27.2532C85.873 24.3617 82.44 22.4581 79.5254 23.4151C80.6756 21.9372 81.5472 19.9883 80.9359 18.2177C80.3245 16.4475 77.619 15.5478 76.5184 17.0632C76.9413 15.05 75.7181 12.8194 73.7934 12.094C71.8684 11.3683 69.0338 11.5634 68.0229 13.3547C68.4056 12.1378 68.7174 10.8416 68.4423 9.59621C68.1672 8.3504 67.1411 7.18615 65.8656 7.15337C64.6452 7.12216 63.6397 8.07105 62.8571 9.00745C63.0759 6.21971 62.6386 3.0855 60.4891 1.29658C58.5933 -0.281258 55.7256 -0.359682 53.5176 0.739809C51.3097 1.8393 49.7248 3.94501 48.8118 6.23647C49.0284 4.34103 47.1154 2.33519 45.2414 1.97897C43.367 1.62274 41.3276 2.9025 40.8333 4.74526C38.7373 2.18694 34.9866 1.3227 31.8056 2.22711C28.6246 3.13152 26.8302 6.46395 26.1271 9.42336C25.2352 8.02266 22.3995 6.10616 20.0514 7.37499C18.5906 8.16469 17.9757 10.1971 18.7053 11.6891C16.1049 10.6415 12.9192 11.8053 11.2695 14.0722C9.6203 16.3395 9.41039 19.4596 10.3394 22.105C8.43185 21.7538 6.35265 22.7975 5.49389 24.5369C4.63513 26.2762 5.07134 28.5615 6.51027 29.8623C5.33743 29.8412 4.2075 30.7078 3.92346 31.8459C3.63942 32.984 5.30622 35.1081 6.35108 35.641C3.45448 36.6282 0.208681 38.6356 0.0143779 41.6898C-0.179925 44.7436 1.61212 47.8318 4.36045 49.1783C2.67064 49.6414 1.42834 51.3839 1.54149 53.1326C1.65464 54.881 4.2036 56.1439 5.93907 56.3851C4.11894 57.7799 2.4342 60.8548 3.5251 62.8716C4.61601 64.8888 7.25823 65.9094 9.4217 65.1494C8.78261 66.0078 8.88054 67.3312 9.63942 68.0854C10.3983 68.84 13.0901 68.657 13.9445 68.0128C12.925 71.0097 12.403 74.8306 14.6648 77.046C16.9266 79.261 20.4911 80.0327 23.4662 78.9512C23.0077 80.0296 23.481 81.4162 24.5028 81.9894C25.5247 82.5626 26.955 82.243 27.6359 81.2898C28.1891 84.0148 30.6573 86.2348 33.4256 86.4978C36.1938 86.7608 39.0358 85.0448 40.092 82.4728C40.9109 85.0678 43.0725 87.1978 45.6792 87.9789C48.2855 88.76 51.2625 88.1692 53.3737 86.4525C56.5598 83.8614 57.3971 79.4198 58.0237 75.3608C59.0127 77.3417 60.6276 79.2828 62.8266 79.5419C65.0256 79.801 67.3612 77.3277 66.2468 75.4143C68.0724 77.1482 70.9148 77.9566 73.2024 76.9051C75.4899 75.8532 76.7002 72.6824 75.2804 70.6032C76.8516 71.8455 79.4716 70.7674 80.1067 68.8677C80.7419 66.968 79.6982 64.7959 78.0474 63.6617C80.3924 65.3059 84.017 63.6925 84.9819 60.9961C85.9472 58.3 85.2948 55.7027 83.1906 53.76C85.3947 52.254 87.2101 50.0164 87.6967 47.3913C88.1848 44.7667 87.1083 41.785 84.7782 40.4822Z" fill="#79AE28"/>
<path d="M55.8961 40.247C56.2446 40.144 56.4915 39.771 56.4494 39.4101C56.4077 39.0492 56.0819 38.7425 55.719 38.7222C56.4607 38.1756 56.8404 37.142 56.5329 36.2735C56.2251 35.405 55.1939 34.8334 54.3183 35.1206C54.664 34.6766 54.9258 34.0913 54.742 33.5595C54.5583 33.0277 53.7459 32.7577 53.4151 33.2126C53.5423 32.6079 53.1747 31.938 52.5965 31.7199C52.0183 31.5018 51.1669 31.5603 50.8634 32.0987C50.9785 31.7331 51.0721 31.3437 50.9894 30.9696C50.9067 30.5954 50.5985 30.2458 50.2157 30.2361C49.8489 30.2267 49.547 30.5115 49.3121 30.7928C49.378 29.9555 49.2465 29.0141 48.6008 28.4768C48.0312 28.0027 47.1701 27.9793 46.5068 28.3094C45.8435 28.6399 45.3675 29.2723 45.0936 29.9606C45.1588 29.3913 44.584 28.7889 44.021 28.6816C43.458 28.5747 42.8455 28.959 42.6972 29.5127C42.0678 28.7445 40.941 28.4846 39.9855 28.7565C39.03 29.0281 38.4912 30.0293 38.2797 30.9181C38.0117 30.4975 37.1599 29.9216 36.4549 30.3028C36.016 30.54 35.8314 31.1506 36.0507 31.5985C35.2696 31.2836 34.3125 31.6332 33.8174 32.3145C33.3219 32.9953 33.259 33.9325 33.538 34.7273C32.9649 34.6219 32.3406 34.9352 32.0827 35.4577C31.8248 35.9801 31.9559 36.6664 32.3882 37.0573C32.0359 37.0511 31.6964 37.3113 31.611 37.6531C31.5255 37.9949 32.0265 38.6328 32.3402 38.7932C31.4701 39.0897 30.4951 39.6925 30.437 40.6098C30.3784 41.5271 30.9169 42.4545 31.7425 42.8591C31.2348 42.9984 30.8618 43.5216 30.8958 44.0468C30.9297 44.572 31.6952 44.9512 32.2165 45.0238C31.6699 45.4428 31.1638 46.3663 31.4916 46.9723C31.8193 47.5782 32.6129 47.8849 33.2626 47.6566C33.0706 47.9145 33.1002 48.3121 33.3281 48.5384C33.556 48.7651 34.3644 48.7101 34.6211 48.5166C34.3148 49.4167 34.158 50.5645 34.8373 51.2298C35.5165 51.895 36.5872 52.1268 37.481 51.8022C37.3433 52.126 37.4853 52.5427 37.7924 52.7148C38.0994 52.8868 38.529 52.7908 38.7335 52.5045C38.8997 53.323 39.641 53.9898 40.4725 54.0686C41.3039 54.1474 42.1576 53.632 42.4748 52.8595C42.721 53.6391 43.3702 54.2785 44.1529 54.5134C44.9356 54.7483 45.8298 54.5708 46.4639 54.055C47.4209 53.2766 47.6726 51.9426 47.8607 50.7233C48.1576 51.3184 48.6429 51.9013 49.3035 51.9793C49.9641 52.0573 50.6656 51.3145 50.3308 50.7394C50.879 51.2602 51.7331 51.5029 52.4201 51.1873C53.1072 50.8712 53.4709 49.9188 53.0444 49.2946C53.5165 49.6676 54.3035 49.3437 54.4939 48.7733C54.6847 48.2029 54.3714 47.5505 53.8755 47.2095C54.5797 47.7035 55.6683 47.2189 55.9586 46.4089C56.2485 45.5989 56.0526 44.8189 55.4205 44.2352C56.0826 43.783 56.6277 43.1108 56.774 42.3223C56.9192 41.5337 56.5961 40.6383 55.8961 40.247Z" fill="#9DBB1D"/>
<path d="M65.1026 40.9774C65.5767 40.7932 65.8771 40.2442 65.7764 39.7456C65.6758 39.247 65.1861 38.8576 64.6777 38.8716C65.6485 38.023 66.0574 36.5377 65.5267 35.3625C64.9961 34.1873 63.4916 33.5103 62.3047 34.0133C62.7347 33.3539 63.0312 32.5072 62.7132 31.7874C62.3952 31.0675 61.2306 30.7854 60.8229 31.4588C60.9294 30.6009 60.3391 29.7093 59.5076 29.4729C58.6762 29.2364 57.4955 29.4175 57.135 30.2033C57.7526 29.913 58.5209 30.0176 58.9797 30.5224C59.3141 30.8908 59.3695 31.4475 59.2454 31.9294C59.121 32.4108 58.8432 32.8361 58.5693 33.2517C58.929 33.1159 59.2965 32.9789 59.6809 32.968C60.0648 32.9571 60.4752 33.096 60.6926 33.4128C60.8611 33.6582 60.8923 33.9731 60.8744 34.2704C60.8147 35.2673 60.2431 36.1678 59.3812 36.6726C60.6009 36.0952 60.7441 36.245 61.4101 36.1022C61.929 35.991 62.5334 36.0004 62.9134 36.3707C63.2115 36.6609 63.2997 37.112 63.2622 37.5259C63.1576 38.6773 62.0933 39.6606 60.9372 39.6734C61.6446 40.0652 62.4487 40.3028 63.0617 40.8299C63.675 41.357 64.0269 42.3352 63.5341 42.9766C63.0679 43.5833 62.1612 43.5556 61.4007 43.4698C61.8291 43.7823 62.2454 44.2317 62.5178 44.6871C63.0109 45.5107 62.3855 46.6367 61.5061 47.0207C60.6262 47.4046 59.6173 47.2638 58.6692 47.1159C59.7226 47.8443 60.9052 48.8494 60.7214 50.1166C60.6875 50.3515 60.5782 50.6067 60.3543 50.6859C60.2212 50.7327 60.0753 50.7074 59.9368 50.6816C59.4842 50.5973 59.0316 50.5127 58.579 50.4284C59.2131 51.1822 59.8408 52.2661 59.2802 53.0757C58.9907 53.4935 58.4472 53.6796 57.9395 53.6527C57.4319 53.6254 56.9524 53.4159 56.5037 53.1771C55.4066 52.5942 54.4128 51.8174 53.5822 50.8939C53.9825 51.4908 54.3886 52.1073 54.5439 52.8092C54.6992 53.5111 54.5505 54.3273 53.9938 54.7819C53.437 55.2364 52.4479 55.1256 52.1541 54.4697C52.2696 55.2825 52.2767 56.1104 52.1748 56.9251C52.1288 57.2938 52.0519 57.6785 51.8108 57.9606C51.4803 58.3472 50.9001 58.4479 50.4093 58.3156C49.9185 58.183 49.5033 57.8552 49.142 57.4974C48.6309 56.991 47.9829 56.5224 47.6442 55.8872C47.8436 56.6461 47.8631 57.4896 47.4901 58.1798C47.1171 58.8701 46.2774 59.3402 45.5272 59.1116C44.6126 58.833 44.2439 57.7628 44.0067 56.8369C43.7496 57.2594 43.492 57.6824 43.2349 58.1049C43.1479 58.2477 43.0457 58.4026 42.8838 58.4436C42.7168 58.4861 42.5459 58.3913 42.4128 58.2817C41.6625 57.6637 41.5143 56.5918 41.4191 55.6242C41.3336 56.8654 40.1744 57.9344 38.9306 57.9196C37.6867 57.9048 36.5533 56.8084 36.4975 55.5657C36.1936 56.6488 36.1545 58.0304 37.0211 58.7479C38.0461 59.5965 39.5658 59.7948 40.7741 59.2376C40.62 59.705 40.8666 60.2696 41.3149 60.4736C41.7628 60.6777 42.3508 60.4939 42.6025 60.071C42.9298 61.1927 44.0414 62.0363 45.2095 62.0491C46.3781 62.0624 47.508 61.2438 47.8603 60.1299C48.2942 61.188 49.2743 62.0043 50.3933 62.2399C51.5123 62.4756 52.7382 62.124 53.5623 61.3312C54.8057 60.1346 55.0008 58.2446 55.121 56.5232C55.6048 57.318 56.3488 58.0745 57.279 58.1061C58.2092 58.1377 59.1003 57.0199 58.5669 56.2575C59.3925 56.9196 60.611 57.1588 61.5322 56.6379C62.4534 56.117 62.849 54.7468 62.1814 53.9258C62.883 54.3913 63.9427 53.8478 64.142 53.03C64.3414 52.2122 63.8283 51.339 63.0972 50.9219C64.137 51.5283 65.5985 50.7257 65.9079 49.5626C66.2177 48.3995 65.1545 46.7577 64.2052 46.0179C65.6219 45.8993 66.4561 44.8861 66.5681 43.7698C66.6793 42.6523 66.1241 41.4413 65.1026 40.9774Z" fill="#699415"/>
<path d="M54.3601 20.618C53.403 20.0476 52.028 20.3418 51.3882 21.2536C51.2434 20.4288 50.6145 19.2942 50.0296 18.6953C49.4443 18.0964 48.5786 17.7402 47.7549 17.8911C46.7686 18.0722 45.9828 19.0242 45.9921 20.0273C45.689 19.3835 45.3027 18.6699 44.6133 18.4932C44.0382 18.3457 43.4194 18.6477 43.0397 19.1046C42.6601 19.5614 42.5232 20.3008 42.3835 20.8779C42.1744 19.9309 41.0019 18.3121 39.46 18.5384C38.5005 18.6793 37.7467 20.4846 37.8486 21.4491C36.6316 20.3539 34.6605 19.5419 33.302 20.4557C31.9434 21.3695 31.2036 23.0394 31.1841 24.6765C30.2075 24.1022 28.8579 24.2587 28.039 25.0413C27.22 25.8236 27.0019 27.1646 27.531 28.1666C26.8919 27.9204 26.0983 28.1697 25.7148 28.737C25.3312 29.3043 25.8205 30.8037 26.2875 31.3051C24.5009 31.2669 22.318 31.7191 21.6004 33.3558C20.8825 34.9926 21.2481 37.0452 22.4865 38.3339C21.4666 38.2501 20.4362 38.9575 20.1486 39.9395C19.8607 40.9216 21.0066 42.1244 21.9106 42.6039C20.6328 43.0047 19.0932 44.355 19.2883 45.68C19.483 47.005 20.7284 48.0936 22.0679 48.1096C21.5454 48.4526 21.3344 49.1982 21.6001 49.7643C21.8654 50.33 23.3788 50.7686 23.9766 50.586C22.8174 52.0265 21.7663 54.0183 22.5642 55.6862C23.3617 57.3542 25.1631 58.4908 27.0121 58.4927C26.5446 58.9925 26.5271 59.8482 26.973 60.3671C27.419 60.886 28.2676 60.9972 28.8322 60.6102C28.5907 62.2161 29.7393 62.849 31.0909 62.68C29.8521 60.8583 29.6305 60 30.5778 58.0113C29.8427 58.6488 28.5692 58.3 28.0839 57.4565C27.5985 56.6129 27.8103 55.4943 28.4018 54.7218C27.5692 55.2262 26.4007 54.9005 25.7901 54.1424C25.1794 53.3843 25.069 52.3109 25.3066 51.3671C25.5443 50.4229 26.0889 49.586 26.6847 48.8158C25.7905 48.8482 24.8646 48.8232 24.0503 48.4526C23.236 48.0819 22.5567 47.2867 22.5743 46.3921C22.5841 45.9032 22.7959 45.4381 23.0729 45.0351C23.5723 44.3086 24.2985 43.7409 25.124 43.4311C24.5357 43.0483 24.135 42.4057 23.6668 41.8829C23.371 41.552 23.0874 41.1463 23.1393 40.7054C23.1869 40.302 23.5162 39.9766 23.8896 39.8166C24.2629 39.6566 24.6785 39.632 25.0839 39.6098C24.2852 39.0476 23.7748 38.1627 23.3964 37.2622C23.1002 36.5587 22.8884 35.6886 23.3496 35.0807C23.5603 34.803 23.8806 34.6309 24.2032 34.499C25.5864 33.934 27.2668 34.2618 28.6121 34.9114C27.5985 33.7284 27.4381 32.7944 27.9762 32.1463C28.5146 31.4982 29.5212 31.4097 30.2992 31.7331C29.886 31.2345 29.4662 30.7253 29.2255 30.124C28.9848 29.5228 28.9485 28.8033 29.2895 28.2528C29.703 27.5845 30.5782 27.3223 31.3585 27.4147C32.1389 27.5072 32.8513 27.8884 33.5423 28.2626C33.3979 27.3624 33.14 26.2255 33.634 25.4592C34.1037 24.7304 35.0464 24.4081 35.9094 24.4904C36.7725 24.5728 37.5981 24.7312 38.3078 25.2298C37.8064 24.7417 38.0819 23.7136 38.5942 23.2376C39.1069 22.7612 39.9165 22.6988 40.5622 22.9688C41.2079 23.2384 41.7019 23.7909 42.0417 24.4023C42.2017 23.673 42.371 22.9223 42.8029 22.3133C43.2344 21.7042 44.0007 21.2684 44.7245 21.4518C45.1474 21.5587 45.4955 21.8564 45.7955 22.1728C46.4822 22.8974 47.0077 23.7737 47.323 24.7206C47.4077 23.8154 47.6519 22.7085 48.5294 22.4705C49.0659 22.325 49.6457 22.6024 50.0136 23.0191C50.3819 23.4358 50.5817 23.9703 50.774 24.492C51.1466 23.467 52.0491 22.5989 53.1314 22.4655C54.2137 22.332 55.3039 22.5915 55.4689 23.6695C55.9656 22.6719 55.3171 21.1885 54.3601 20.618Z" fill="#B6CC36"/>
<path d="M25.4238 67.2185C25.4788 67.1416 25.5296 67.0612 25.5709 66.9727C25.5104 67.0499 25.4636 67.133 25.4238 67.2185Z" fill="#699415"/>
<path d="M79.5225 46.5693C78.0586 49.446 74.773 51.0246 71.5908 50.483C72.5904 51.6094 73.6244 52.8006 73.9693 54.2669C74.3142 55.7327 73.7028 57.5419 72.2721 58.0125C70.7391 58.5162 69.1515 57.6648 67.5963 57.2341C68.2986 58.0429 68.8355 59.0406 68.8909 60.1104C68.9463 61.1799 68.4449 62.3141 67.4995 62.8174C66.5542 63.3207 65.1976 63.0062 64.7258 62.0449C65.0454 63.4042 65.2658 65.0843 64.1874 65.9715C63.5432 66.5013 62.6045 66.5447 61.8097 66.2914C61.015 66.0382 60.3302 65.5314 59.6615 65.0328C59.2932 64.7581 58.8956 64.4362 58.83 63.9817C58.9334 64.5595 59.0368 65.1506 58.9412 65.7296C58.8456 66.3086 58.5109 66.8829 57.9674 67.1038C57.3127 67.3695 56.5663 67.0632 55.981 66.6676C54.7664 65.8466 53.5183 64.6363 53.0669 63.2415C53.3529 65.4666 52.9393 67.7768 51.8995 69.7647C51.3798 70.7585 50.5889 71.7483 49.4808 71.9188C48.5799 72.0573 47.6178 71.5501 47.2222 70.7292C47.1355 71.595 47.0142 72.4853 46.5737 73.2356C46.1332 73.9859 45.2951 74.5677 44.4328 74.451C43.8585 74.3734 43.3657 74.0089 42.9385 73.6176C41.6201 72.4096 40.6584 70.8166 40.203 69.0874C40.015 70.0449 39.8183 71.025 39.3115 71.8583C38.8047 72.6921 37.9151 73.3632 36.9397 73.3308C35.7551 73.2918 34.7575 72.062 34.9631 70.895C34.5066 71.8357 33.6837 72.9485 32.688 72.6293C32.1898 72.4697 31.8749 71.9848 31.6471 71.5138C30.912 69.9937 30.6568 68.2462 30.9268 66.5794C30.4192 67.4276 29.894 68.2953 29.118 68.9075C28.342 69.5201 27.2483 69.831 26.3463 69.4268C25.5335 69.0628 25.0634 67.9949 25.4239 67.2181C24.777 68.1244 23.2655 68.2368 22.3576 67.5302C21.3724 66.7635 21.061 65.3667 21.2674 64.1358C21.4738 62.9048 22.1102 61.7948 22.7353 60.7144C21.5175 61.4612 20.1804 62.2364 18.7602 62.0827C17.34 61.9286 16.0376 60.3281 16.7364 59.0823C15.4501 59.9415 15.1289 62.2587 16.2261 63.3492C16.8414 63.961 19.0244 63.8127 19.7169 63.2903C18.8902 65.7206 18.4668 68.8189 20.301 70.6153C22.1352 72.4116 25.0255 73.037 27.4379 72.16C27.0661 73.0343 27.45 74.1588 28.2788 74.6239C29.1075 75.0885 30.267 74.8295 30.8195 74.0565C31.2682 76.2661 33.2698 78.0663 35.5144 78.2797C37.759 78.4928 40.0634 77.1014 40.9202 75.016C41.5842 77.1202 43.3373 78.8474 45.4508 79.4807C47.5643 80.1139 49.9783 79.6352 51.69 78.2431C54.2736 76.142 54.9525 72.54 55.4605 69.2489C56.2627 70.8552 57.5721 72.4292 59.3552 72.6391C61.1382 72.849 63.0321 70.8435 62.1289 69.2918C63.6096 70.6976 65.9143 71.3535 67.7691 70.5006C69.624 69.6477 70.6057 67.0764 69.4543 65.3905C70.7282 66.3979 72.8526 65.5236 73.3677 63.9832C73.8827 62.4428 73.0364 60.6816 71.6977 59.7616C73.599 61.0948 76.5381 59.7866 77.3208 57.6001C78.1035 55.4136 77.5744 53.3078 75.8682 51.7323C77.6556 50.5123 79.1281 48.6976 79.5225 46.5693Z" fill="#699415"/>
<path d="M57.0065 17.0504C56.9605 17.1658 56.9262 17.2852 56.916 17.4101C56.9496 17.2915 56.9777 17.1705 57.0065 17.0504Z" fill="#9DBB1D"/>
<path d="M81.215 29.3683C80.3274 26.8642 77.3543 25.2154 74.8299 26.0445C75.826 24.7643 76.581 23.0765 76.0515 21.5435C75.5221 20.0101 73.1791 19.231 72.2255 20.5435C72.5919 18.7998 71.5326 16.8681 69.8654 16.2396C68.1982 15.611 65.7433 15.7799 64.8678 17.3316C65.1994 16.2778 65.4694 15.1553 65.231 14.0765C64.993 12.9977 64.1042 11.9891 62.9996 11.961C61.9427 11.9341 61.0718 12.7554 60.3941 13.5669C60.5837 11.1526 60.2049 8.43817 58.3434 6.88842C56.7016 5.52167 54.2181 5.45377 52.3055 6.40617C50.3933 7.35857 49.0207 9.18222 48.2302 11.167C48.4179 9.52518 46.7609 7.78816 45.1378 7.47953C43.5147 7.17091 41.748 8.27938 41.3204 9.87517C39.5053 7.65941 36.2568 6.91105 33.5018 7.6945C30.7468 8.47796 29.1928 11.364 28.5838 13.927C27.8112 12.714 25.3555 11.0542 23.322 12.1529C22.0567 12.8369 21.5245 14.5973 22.1561 15.8892C19.9041 14.9817 17.1448 15.9899 15.7164 17.9532C14.288 19.9165 14.1062 22.6192 14.9107 24.9099C13.2584 24.6059 11.4578 25.5095 10.7145 27.016C9.97083 28.5224 10.3485 30.5013 11.5947 31.6278C10.5791 31.6094 9.60017 32.3601 9.35397 33.3457C9.10778 34.3312 10.5518 36.1713 11.4566 36.6324C8.94781 37.4873 6.13665 39.2263 5.96849 41.8712C5.80033 44.5162 7.35241 47.1904 9.73244 48.3566C8.26892 48.7577 7.19284 50.2668 7.29077 51.7811C7.3887 53.2953 9.59627 54.389 11.0992 54.5981C11.0992 54.5981 7.70044 52.4233 10.4043 50.0577C13.1078 47.6921 15.1355 47.3538 15.1355 47.3538C15.1355 47.3538 9.39026 47.016 9.72814 41.9465C10.066 36.8771 15.8112 38.229 15.8112 38.229C15.8112 38.229 11.418 35.8634 12.0937 34.1736C12.7695 32.4838 16.1491 32.1459 16.1491 32.1459C16.1491 32.1459 12.7695 30.1182 13.4457 28.4284C14.1214 26.7386 18.1772 27.4143 18.1772 27.4143C17.94 26.7304 17.6567 25.5162 17.4195 24.8322C17.0988 23.9071 16.8226 22.7542 17.5057 22.0531C17.9626 21.5841 18.716 21.5177 19.3391 21.7183C19.9622 21.9188 20.4866 22.3394 20.995 22.7514C20.931 21.9165 20.8678 21.0659 21.0609 20.2513C21.2541 19.4366 21.7476 18.6484 22.5155 18.3145C23.3009 17.9727 24.2428 18.1682 24.9595 18.6364C25.6762 19.1049 26.2026 19.8119 26.6536 20.54C26.9154 19.6262 27.0695 18.3238 27.7238 17.634C28.1296 17.2064 28.8124 17.1475 29.3711 17.3352C29.9298 17.5228 30.3945 17.9118 30.8444 18.2926C31.0492 16.1202 30.7289 13.5349 32.4109 12.144C33.478 11.2618 35.0878 11.2384 36.3262 11.8576C37.5646 12.4768 38.4612 13.6391 39.0371 14.8982C39.0203 14.1888 39.2135 13.4647 39.494 12.8131C39.7745 12.1615 40.4339 11.6161 41.1378 11.7043C41.535 11.7542 41.8834 11.9926 42.1819 12.2595C42.9985 12.9899 43.5658 13.9938 43.7706 15.0698C43.9887 13.9005 45.2174 13.0179 46.3953 13.1842C47.5732 13.3504 48.5092 14.5388 48.3949 15.7226C49.1128 14.6009 49.9489 13.5548 50.8846 12.6071C51.599 11.8833 52.4327 11.1873 53.4394 11.0421C54.8639 10.8365 56.2661 11.8595 56.8428 13.1783C57.3699 14.3843 57.3169 15.7636 57.0063 17.0503C57.4124 16.0359 59.0843 15.4249 60.002 16.0316C61.0238 16.7074 61.2642 18.1986 60.7843 19.3258C61.4089 18.3976 62.9103 18.2403 63.7136 19.0191C64.5174 19.7979 64.4074 21.3031 63.4991 21.9571C65.4386 20.9469 68.0757 20.0332 69.5736 21.6262C70.9415 23.0812 70.183 25.4323 69.3523 27.2485C70.1604 26.4701 71.6219 26.5349 72.3578 27.3816C73.094 28.2278 72.9551 29.6843 72.0722 30.3765C73.6286 29.7628 75.6348 29.7292 76.7378 30.9871C77.5369 31.8978 77.6344 33.2629 77.2915 34.4249C76.9485 35.5868 76.2298 36.5954 75.5232 37.5794C77.4132 37.0523 79.9637 38.9531 79.3789 40.826C80.3839 40.5294 81.0952 39.4534 80.9743 38.4124C80.8533 37.3714 79.9142 36.4873 78.8681 36.4288C81.0078 34.8529 82.1026 31.8724 81.215 29.3683Z" fill="#9DBB1D"/>
</svg>
