<svg width="200" height="200" viewBox="0 0 200 200" fill="none" xmlns="http://www.w3.org/2000/svg">
<path d="M140.779 96.4822C141.939 96.1401 142.76 94.8974 142.621 93.6957C142.481 92.4939 141.397 91.4729 140.189 91.4054C142.659 89.5856 143.923 86.1448 142.898 83.2532C141.873 80.3617 138.44 78.4581 135.526 79.4151C136.676 77.9372 137.548 75.9883 136.936 74.2177C136.325 72.4475 133.619 71.5478 132.519 73.0632C132.942 71.05 131.719 68.8194 129.794 68.094C127.869 67.3683 125.034 67.5634 124.023 69.3547C124.406 68.1378 124.718 66.8416 124.443 65.5962C124.168 64.3504 123.142 63.1861 121.866 63.1534C120.646 63.1222 119.64 64.0711 118.857 65.0075C119.076 62.2197 118.639 59.0855 116.49 57.2966C114.594 55.7187 111.726 55.6403 109.518 56.7398C107.31 57.8393 105.725 59.945 104.812 62.2365C105.029 60.341 103.116 58.3352 101.242 57.979C99.3675 57.6227 97.328 58.9025 96.8337 60.7453C94.7377 58.1869 90.987 57.3227 87.806 58.2271C84.625 59.1315 82.8306 62.4639 82.1275 65.4234C81.2356 64.0227 78.3999 62.1062 76.0518 63.375C74.591 64.1647 73.9761 66.1971 74.7058 67.6891C72.1053 66.6415 68.9196 67.8053 67.2699 70.0722C65.6207 72.3395 65.4108 75.4596 66.3398 78.105C64.4323 77.7538 62.3531 78.7975 61.4943 80.5369C60.6355 82.2762 61.0717 84.5615 62.5107 85.8623C61.3378 85.8412 60.2079 86.7078 59.9239 87.8459C59.6398 88.984 61.3066 91.1081 62.3515 91.641C59.4549 92.6282 56.2091 94.6356 56.0148 97.6898C55.8205 100.744 57.6125 103.832 60.3609 105.178C58.6711 105.641 57.4288 107.384 57.5419 109.133C57.6551 110.881 60.204 112.144 61.9395 112.385C60.1193 113.78 58.4346 116.855 59.5255 118.872C60.6164 120.889 63.2586 121.909 65.4221 121.149C64.783 122.008 64.881 123.331 65.6398 124.085C66.3987 124.84 69.0905 124.657 69.9449 124.013C68.9254 127.01 68.4034 130.831 70.6652 133.046C72.927 135.261 76.4916 136.033 79.4666 134.951C79.0081 136.03 79.4814 137.416 80.5033 137.989C81.5251 138.563 82.9555 138.243 83.6363 137.29C84.1896 140.015 86.6578 142.235 89.426 142.498C92.1942 142.761 95.0362 141.045 96.0924 138.473C96.9113 141.068 99.0729 143.198 101.68 143.979C104.286 144.76 107.263 144.169 109.374 142.453C112.56 139.861 113.397 135.42 114.024 131.361C115.013 133.342 116.628 135.283 118.827 135.542C121.026 135.801 123.362 133.328 122.247 131.414C124.073 133.148 126.915 133.957 129.203 132.905C131.49 131.853 132.701 128.682 131.281 126.603C132.852 127.845 135.472 126.767 136.107 124.868C136.742 122.968 135.699 120.796 134.048 119.662C136.393 121.306 140.017 119.692 140.982 116.996C141.948 114.3 141.295 111.703 139.191 109.76C141.395 108.254 143.211 106.016 143.697 103.391C144.185 100.767 143.109 97.785 140.779 96.4822Z" fill="#79AE28"/>
<path d="M111.896 96.2471C112.245 96.1441 112.492 95.7711 112.45 95.4102C112.408 95.0493 112.082 94.7426 111.719 94.7223C112.461 94.1757 112.841 93.1421 112.533 92.2736C112.225 91.4051 111.194 90.8335 110.319 91.1207C110.664 90.6767 110.926 90.0914 110.742 89.5596C110.559 89.0278 109.746 88.7578 109.415 89.2128C109.543 88.608 109.175 87.9381 108.597 87.72C108.019 87.5019 107.167 87.5604 106.864 88.0988C106.979 87.7333 107.072 87.3439 106.99 86.9697C106.907 86.5955 106.599 86.2459 106.216 86.2362C105.849 86.2268 105.547 86.5116 105.312 86.793C105.378 85.9557 105.247 85.0142 104.601 84.4769C104.031 84.0029 103.17 83.9794 102.507 84.3095C101.844 84.64 101.368 85.2725 101.094 85.9607C101.159 85.3915 100.584 84.7891 100.021 84.6818C99.4583 84.5749 98.8457 84.9592 98.6975 85.5128C98.0681 84.7446 96.9413 84.4847 95.9858 84.7567C95.0303 85.0282 94.4914 86.0294 94.28 86.9182C94.0119 86.4976 93.1602 85.9217 92.4552 86.3029C92.0162 86.5401 91.8317 87.1507 92.051 87.5986C91.2698 87.2838 90.3128 87.6334 89.8176 88.3146C89.3221 88.9954 89.2593 89.9326 89.5383 90.7274C88.9651 90.6221 88.3409 90.9354 88.083 91.4578C87.8251 91.9802 87.9562 92.6665 88.3885 93.0575C88.0361 93.0512 87.6967 93.3115 87.6112 93.6532C87.5258 93.995 88.0268 94.633 88.3405 94.7933C87.4704 95.0898 86.4954 95.6927 86.4372 96.6099C86.3787 97.5272 86.9171 98.4547 87.7427 98.8593C87.2351 98.9985 86.8621 99.5218 86.8961 100.047C86.93 100.572 87.6955 100.951 88.2168 101.024C87.6702 101.443 87.1641 102.366 87.4919 102.972C87.8196 103.578 88.6132 103.885 89.2628 103.657C89.0709 103.915 89.1005 104.312 89.3284 104.539C89.5562 104.765 90.3647 104.71 90.6214 104.517C90.3151 105.417 90.1583 106.565 90.8375 107.23C91.5168 107.895 92.5874 108.127 93.4813 107.802C93.3436 108.126 93.4856 108.543 93.7927 108.715C94.0997 108.887 94.5293 108.791 94.7338 108.505C94.9 109.323 95.6413 109.99 96.4727 110.069C97.3042 110.148 98.1579 109.632 98.4751 108.86C98.7213 109.639 99.3705 110.279 100.153 110.514C100.936 110.748 101.83 110.571 102.464 110.055C103.421 109.277 103.673 107.943 103.861 106.723C104.158 107.318 104.643 107.901 105.304 107.979C105.964 108.057 106.666 107.315 106.331 106.739C106.879 107.26 107.733 107.503 108.42 107.187C109.108 106.871 109.471 105.919 109.045 105.295C109.517 105.668 110.304 105.344 110.494 104.773C110.685 104.203 110.372 103.551 109.876 103.21C110.58 103.704 111.669 103.219 111.959 102.409C112.249 101.599 112.053 100.819 111.421 100.235C112.083 99.7832 112.628 99.1109 112.774 98.3224C112.919 97.5339 112.596 96.6384 111.896 96.2471Z" fill="#9DBB1D"/>
<path d="M121.102 96.9775C121.577 96.7933 121.877 96.2444 121.776 95.7457C121.676 95.2471 121.186 94.8577 120.678 94.8718C121.648 94.0232 122.057 92.5378 121.527 91.3626C120.996 90.1874 119.491 89.5105 118.305 90.0134C118.735 89.354 119.031 88.5073 118.713 87.7875C118.395 87.0676 117.23 86.7855 116.823 87.459C116.929 86.601 116.339 85.7094 115.507 85.473C114.676 85.2366 113.495 85.4176 113.135 86.2034C113.752 85.9131 114.521 86.0177 114.98 86.5226C115.314 86.8909 115.369 87.4476 115.245 87.9295C115.121 88.411 114.843 88.8362 114.569 89.2518C114.929 89.116 115.296 88.9791 115.681 88.9681C116.065 88.9572 116.475 89.0961 116.692 89.4129C116.861 89.6583 116.892 89.9732 116.874 90.2705C116.815 91.2674 116.243 92.1679 115.381 92.6728C116.601 92.0953 116.744 92.2451 117.41 92.1023C117.929 91.9911 118.533 92.0005 118.913 92.3708C119.211 92.6611 119.3 93.1121 119.262 93.5261C119.157 94.6774 118.093 95.6607 116.937 95.6736C117.644 96.0653 118.449 96.3029 119.062 96.83C119.675 97.3571 120.027 98.3353 119.534 98.9767C119.068 99.5834 118.161 99.5557 117.401 99.4699C117.829 99.7824 118.245 100.232 118.518 100.687C119.011 101.511 118.385 102.637 117.506 103.021C116.626 103.405 115.617 103.264 114.669 103.116C115.722 103.844 116.905 104.85 116.721 106.117C116.687 106.352 116.578 106.607 116.354 106.686C116.221 106.733 116.075 106.707 115.937 106.682C115.484 106.597 115.031 106.513 114.579 106.429C115.213 107.182 115.841 108.266 115.28 109.076C114.991 109.494 114.447 109.68 113.939 109.653C113.432 109.626 112.952 109.416 112.504 109.177C111.406 108.594 110.413 107.818 109.582 106.894C109.982 107.491 110.388 108.107 110.544 108.809C110.699 109.511 110.55 110.327 109.994 110.782C109.437 111.237 108.448 111.126 108.154 110.47C108.269 111.283 108.277 112.111 108.175 112.925C108.129 113.294 108.052 113.679 107.811 113.961C107.48 114.347 106.9 114.448 106.409 114.316C105.918 114.183 105.503 113.855 105.142 113.498C104.631 112.991 103.983 112.523 103.644 111.887C103.843 112.646 103.863 113.49 103.49 114.18C103.117 114.87 102.277 115.34 101.527 115.112C100.612 114.833 100.244 113.763 100.007 112.837C99.7494 113.26 99.4919 113.683 99.2348 114.105C99.1478 114.248 99.0455 114.403 98.8836 114.444C98.7166 114.486 98.5457 114.391 98.4127 114.282C97.6624 113.664 97.5141 112.592 97.4189 111.624C97.3335 112.865 96.1743 113.935 94.9304 113.92C93.6866 113.905 92.5531 112.809 92.4974 111.566C92.1934 112.649 92.1544 114.031 93.021 114.748C94.0459 115.597 95.5656 115.795 96.774 115.238C96.6199 115.705 96.8664 116.27 97.3147 116.474C97.7627 116.678 98.3506 116.494 98.6023 116.071C98.9297 117.193 100.041 118.036 101.209 118.049C102.378 118.063 103.508 117.244 103.86 116.13C104.294 117.188 105.274 118.004 106.393 118.24C107.512 118.476 108.738 118.124 109.562 117.331C110.806 116.135 111.001 114.245 111.121 112.523C111.605 113.318 112.349 114.075 113.279 114.106C114.209 114.138 115.1 113.02 114.567 112.258C115.392 112.92 116.611 113.159 117.532 112.638C118.453 112.117 118.849 110.747 118.181 109.926C118.883 110.391 119.943 109.848 120.142 109.03C120.341 108.212 119.828 107.339 119.097 106.922C120.137 107.528 121.598 106.726 121.908 105.563C122.218 104.4 121.154 102.758 120.205 102.018C121.622 101.899 122.456 100.886 122.568 99.7699C122.679 98.6525 122.124 97.4414 121.102 96.9775Z" fill="#699415"/>
<path d="M110.36 76.618C109.403 76.0475 108.028 76.3417 107.388 77.2535C107.243 76.4287 106.614 75.2941 106.03 74.6952C105.444 74.0963 104.579 73.7401 103.755 73.8911C102.769 74.0721 101.983 75.0241 101.992 76.0272C101.689 75.3835 101.303 74.6698 100.613 74.4931C100.038 74.3456 99.4194 74.6476 99.0398 75.1045C98.6602 75.5614 98.5232 76.3007 98.3835 76.8778C98.1744 75.9309 97.0019 74.3121 95.46 74.5384C94.5006 74.6792 93.7468 76.4845 93.8486 77.449C92.6317 76.3538 90.6606 75.5419 89.302 76.4557C87.9434 77.3694 87.2037 79.0393 87.1842 80.6765C86.2076 80.1022 84.858 80.2586 84.039 81.0413C83.2201 81.8236 83.002 83.1646 83.531 84.1665C82.8919 83.9203 82.0983 84.1696 81.7148 84.7369C81.3313 85.3042 81.8205 86.8037 82.2876 87.305C80.501 87.2668 78.318 87.719 77.6005 89.3558C76.8826 90.9925 77.2482 93.0452 78.4866 94.3339C77.4667 94.25 76.4362 94.9574 76.1487 95.9394C75.8607 96.9215 77.0067 98.1244 77.9107 98.6039C76.6329 99.0046 75.0933 100.355 75.2884 101.68C75.483 103.005 76.7285 104.094 78.0679 104.11C77.5455 104.453 77.3344 105.198 77.6001 105.764C77.8654 106.33 79.3789 106.769 79.9766 106.586C78.8174 108.026 77.7663 110.018 78.5642 111.686C79.3617 113.354 81.1631 114.491 83.0121 114.493C82.5447 114.992 82.5271 115.848 82.9731 116.367C83.419 116.886 84.2677 116.997 84.8322 116.61C84.5907 118.216 85.7394 118.849 87.0909 118.68C85.8521 116.858 85.6305 116 86.5778 114.011C85.8428 114.649 84.5693 114.3 84.0839 113.456C83.5985 112.613 83.8104 111.494 84.4019 110.722C83.5693 111.226 82.4007 110.9 81.7901 110.142C81.1795 109.384 81.0691 108.311 81.3067 107.367C81.5443 106.423 82.089 105.586 82.6848 104.816C81.7905 104.848 80.8646 104.823 80.0503 104.452C79.2361 104.082 78.5568 103.287 78.5743 102.392C78.5841 101.903 78.796 101.438 79.073 101.035C79.5724 100.309 80.2985 99.7408 81.1241 99.431C80.5357 99.0483 80.135 98.4057 79.6668 97.8828C79.3711 97.552 79.0874 97.1462 79.1393 96.7053C79.1869 96.3019 79.5162 95.9765 79.8896 95.8165C80.263 95.6566 80.6785 95.632 81.0839 95.6097C80.2852 95.0475 79.7749 94.1626 79.3964 93.2621C79.1003 92.5586 78.8884 91.6886 79.3496 91.0807C79.5603 90.8029 79.8806 90.6308 80.2033 90.4989C81.5864 89.934 83.2669 90.2617 84.6122 90.9113C83.5985 89.7284 83.4382 88.7943 83.9762 88.1462C84.5146 87.4982 85.5213 87.4096 86.2993 87.733C85.8861 87.2344 85.4663 86.7252 85.2255 86.124C84.9848 85.5227 84.9485 84.8033 85.2895 84.2528C85.7031 83.5844 86.5782 83.3222 87.3586 83.4147C88.1389 83.5071 88.8513 83.8883 89.5423 84.2625C89.398 83.3624 89.1401 82.2254 89.634 81.4592C90.1038 80.7303 91.0464 80.4081 91.9095 80.4904C92.7725 80.5727 93.5981 80.7311 94.3078 81.2297C93.8065 80.7416 94.0819 79.7136 94.5942 79.2375C95.1069 78.7612 95.9165 78.6987 96.5622 78.9687C97.2079 79.2383 97.7019 79.7908 98.0417 80.4022C98.2017 79.673 98.371 78.9223 98.803 78.3132C99.2345 77.7042 100.001 77.2684 100.725 77.4517C101.147 77.5586 101.495 77.8564 101.796 78.1728C102.482 78.8973 103.008 79.7736 103.323 80.7206C103.408 79.8154 103.652 78.7085 104.529 78.4705C105.066 78.3249 105.646 78.6024 106.014 79.0191C106.382 79.4358 106.582 79.9703 106.774 80.4919C107.147 79.467 108.049 78.5988 109.131 78.4654C110.214 78.332 111.304 78.5914 111.469 79.6695C111.966 78.6718 111.317 77.1884 110.36 76.618Z" fill="#B6CC36"/>
<path d="M81.4241 123.218C81.4791 123.142 81.5298 123.061 81.5711 122.973C81.5107 123.05 81.4639 123.133 81.4241 123.218Z" fill="#699415"/>
<path d="M135.522 102.569C134.058 105.446 130.773 107.025 127.59 106.483C128.59 107.609 129.624 108.801 129.969 110.267C130.314 111.733 129.702 113.542 128.272 114.013C126.739 114.516 125.151 113.665 123.596 113.234C124.298 114.043 124.835 115.041 124.89 116.11C124.946 117.18 124.445 118.314 123.499 118.817C122.554 119.321 121.197 119.006 120.725 118.045C121.045 119.404 121.265 121.084 120.187 121.972C119.543 122.501 118.604 122.545 117.809 122.292C117.015 122.038 116.33 121.531 115.661 121.033C115.293 120.758 114.895 120.436 114.83 119.982C114.933 120.56 115.036 121.151 114.941 121.73C114.845 122.309 114.51 122.883 113.967 123.104C113.312 123.37 112.566 123.063 111.981 122.668C110.766 121.847 109.518 120.636 109.066 119.242C109.352 121.467 108.939 123.777 107.899 125.765C107.379 126.759 106.589 127.748 105.48 127.919C104.58 128.057 103.617 127.55 103.222 126.729C103.135 127.595 103.014 128.485 102.573 129.236C102.133 129.986 101.295 130.568 100.432 130.451C99.8581 130.373 99.3653 130.009 98.9381 129.618C97.6197 128.41 96.658 126.817 96.2026 125.087C96.0146 126.045 95.8179 127.025 95.3111 127.858C94.8043 128.692 93.9147 129.363 92.9393 129.331C91.7547 129.292 90.7571 128.062 90.9627 126.895C90.5062 127.836 89.6833 128.949 88.6876 128.629C88.1894 128.47 87.8745 127.985 87.6467 127.514C86.9116 125.994 86.6564 124.246 86.9264 122.579C86.4188 123.428 85.8936 124.295 85.1176 124.908C84.3416 125.52 83.2479 125.831 82.3459 125.427C81.5331 125.063 81.063 123.995 81.4235 123.218C80.7766 124.125 79.2651 124.237 78.3572 123.53C77.372 122.764 77.0607 121.367 77.2671 120.136C77.4734 118.905 78.1098 117.795 78.7349 116.714C77.5172 117.461 76.18 118.236 74.7598 118.083C73.3396 117.929 72.0373 116.328 72.736 115.082C71.4497 115.942 71.1286 118.259 72.2257 119.349C72.841 119.961 75.024 119.813 75.7165 119.29C74.8898 121.721 74.4664 124.819 76.3006 126.615C78.1348 128.412 81.0251 129.037 83.4375 128.16C83.0657 129.034 83.4496 130.159 84.2784 130.624C85.1071 131.089 86.2667 130.83 86.8191 130.057C87.2678 132.266 89.2694 134.066 91.514 134.28C93.7586 134.493 96.063 133.101 96.9198 131.016C97.5838 133.12 99.3369 134.847 101.45 135.481C103.564 136.114 105.978 135.635 107.69 134.243C110.273 132.142 110.952 128.54 111.46 125.249C112.262 126.855 113.572 128.429 115.355 128.639C117.138 128.849 119.032 126.844 118.128 125.292C119.609 126.698 121.914 127.354 123.769 126.501C125.624 125.648 126.605 123.077 125.454 121.391C126.728 122.398 128.852 121.524 129.367 119.983C129.882 118.443 129.036 116.682 127.697 115.762C129.599 117.095 132.538 115.787 133.32 113.6C134.103 111.414 133.574 109.308 131.868 107.732C133.655 106.512 135.128 104.698 135.522 102.569Z" fill="#699415"/>
<path d="M113.006 73.0503C112.96 73.1658 112.926 73.2852 112.916 73.41C112.949 73.2914 112.978 73.1705 113.006 73.0503Z" fill="#9DBB1D"/>
<path d="M137.215 85.3684C136.327 82.8643 133.354 81.2154 130.83 82.0445C131.826 80.7644 132.581 79.0765 132.051 77.5435C131.522 76.0102 129.179 75.231 128.225 76.5436C128.592 74.7999 127.532 72.8682 125.865 72.2396C124.198 71.6111 121.743 71.78 120.867 73.3317C121.199 72.2779 121.469 71.1553 121.231 70.0765C120.993 68.9977 120.104 67.9891 118.999 67.961C117.942 67.9341 117.072 68.7554 116.394 69.567C116.583 67.1526 116.205 64.4382 114.343 62.8885C112.701 61.5217 110.218 61.4538 108.305 62.4062C106.393 63.3586 105.02 65.1823 104.23 67.1671C104.418 65.5252 102.761 63.7882 101.137 63.4796C99.5144 63.171 97.7477 64.2794 97.3201 65.8752C95.505 63.6595 92.2565 62.9111 89.5015 63.6946C86.7465 64.478 85.1925 67.3641 84.5834 69.9271C83.8109 68.7141 81.3552 67.0543 79.3216 68.153C78.0563 68.837 77.5241 70.5974 78.1558 71.8892C75.9038 70.9817 73.1445 71.9899 71.7161 73.9532C70.2877 75.9166 70.1059 78.6193 70.9104 80.9099C69.2581 80.606 67.4574 81.5096 66.7142 83.016C65.9705 84.5225 66.3482 86.5014 67.5944 87.6278C66.5788 87.6095 65.5998 88.3602 65.3537 89.3457C65.1075 90.3313 66.5515 92.1713 67.4563 92.6325C64.9475 93.4874 62.1363 95.2263 61.9682 97.8713C61.8 100.516 63.3521 103.19 65.7321 104.357C64.2686 104.758 63.1925 106.267 63.2904 107.781C63.3884 109.295 65.5959 110.389 67.0989 110.598C67.0989 110.598 63.7001 108.423 66.404 106.058C69.1075 103.692 71.1351 103.354 71.1351 103.354C71.1351 103.354 65.3899 103.016 65.7278 97.9466C66.0657 92.8771 71.8109 94.2291 71.8109 94.2291C71.8109 94.2291 67.4176 91.8635 68.0934 90.1737C68.7692 88.4839 72.1488 88.146 72.1488 88.146C72.1488 88.146 68.7692 86.1183 69.4453 84.4284C70.1211 82.7386 74.1769 83.4144 74.1769 83.4144C73.9397 82.7304 73.6564 81.5162 73.4192 80.8323C73.0985 79.9072 72.8222 78.7543 73.5054 78.0531C73.9623 77.5841 74.7157 77.5178 75.3388 77.7183C75.9619 77.9189 76.4863 78.3395 76.9947 78.7515C76.9307 77.9166 76.8675 77.066 77.0606 76.2513C77.2538 75.4367 77.7473 74.6485 78.5152 74.3145C79.3006 73.9727 80.2424 74.1682 80.9592 74.6364C81.6759 75.105 82.2022 75.812 82.6533 76.5401C82.9151 75.6263 83.0692 74.3239 83.7235 73.6341C84.1293 73.2065 84.8121 73.1476 85.3708 73.3352C85.9295 73.5229 86.3942 73.9119 86.8441 74.2927C87.0489 72.1202 86.7286 69.535 88.4106 68.144C89.4777 67.2619 91.0875 67.2385 92.3259 67.8577C93.5643 68.4769 94.4609 69.6392 95.0368 70.8982C95.02 70.1889 95.2132 69.4648 95.4937 68.8132C95.7742 68.1616 96.4336 67.6161 97.1375 67.7043C97.5346 67.7543 97.8831 67.9927 98.1815 68.2595C98.9982 68.9899 99.5655 69.9938 99.7703 71.0699C99.9884 69.9006 101.217 69.018 102.395 69.1842C103.573 69.3504 104.509 70.5389 104.395 71.7227C105.112 70.6009 105.949 69.5549 106.884 68.6072C107.599 67.8834 108.432 67.1873 109.439 67.0422C110.864 66.8366 112.266 67.8596 112.842 69.1784C113.37 70.3844 113.317 71.7636 113.006 73.0504C113.412 72.036 115.084 71.425 116.002 72.0317C117.024 72.7074 117.264 74.1987 116.784 75.3259C117.409 74.3976 118.91 74.2404 119.713 75.0192C120.517 75.798 120.407 77.3032 119.499 77.9571C121.438 76.947 124.075 76.0332 125.573 77.6263C126.941 79.0812 126.183 81.4324 125.352 83.2486C126.16 82.4702 127.622 82.535 128.357 83.3816C129.094 84.2279 128.955 85.6844 128.072 86.3766C129.628 85.7628 131.634 85.7293 132.738 86.9872C133.537 87.8978 133.634 89.263 133.291 90.4249C132.948 91.5868 132.23 92.5954 131.523 93.5794C133.413 93.0523 135.963 94.9532 135.379 96.826C136.384 96.5295 137.095 95.4534 136.974 94.4124C136.853 93.3715 135.914 92.4873 134.868 92.4288C137.007 90.8529 138.102 87.8725 137.215 85.3684Z" fill="#9DBB1D"/>
</svg>
