<svg width="200" height="200" viewBox="0 0 200 200" fill="none" xmlns="http://www.w3.org/2000/svg">
<path d="M80 98H76V102H80V106H84V102H88H96H104H112H116V106H120V102H124V98H120V94H116V98H112H104H96H88H84V94H80V98ZM114 96V94C114 93.4333 114.2 92.9667 114.6 92.6C114.967 92.2 115.433 92 116 92H120C120.567 92 121.05 92.2 121.45 92.6C121.817 92.9667 122 93.4333 122 94V96H124C124.567 96 125.05 96.2 125.45 96.6C125.817 96.9667 126 97.4333 126 98V102C126 102.567 125.817 103.05 125.45 103.45C125.05 103.817 124.567 104 124 104H122V106C122 106.567 121.817 107.05 121.45 107.45C121.05 107.817 120.567 108 120 108H116C115.433 108 114.967 107.817 114.6 107.45C114.2 107.05 114 106.567 114 106V104H86V106C86 106.567 85.8167 107.05 85.45 107.45C85.05 107.817 84.5667 108 84 108H80C79.4333 108 78.9667 107.817 78.6 107.45C78.2 107.05 78 106.567 78 106V104H76C75.4333 104 74.9667 103.817 74.6 103.45C74.2 103.05 74 102.567 74 102V98C74 97.4333 74.2 96.9667 74.6 96.6C74.9667 96.2 75.4333 96 76 96H78V94C78 93.4333 78.2 92.9667 78.6 92.6C78.9667 92.2 79.4333 92 80 92H84C84.5667 92 85.05 92.2 85.45 92.6C85.8167 92.9667 86 93.4333 86 94V96H114Z" fill="#4D5C5D"/>
<path d="M112 102V98H116H120V102H116H112ZM104 98V102H96V98H104ZM84 98H88V102H84H80V98H84Z" fill="#89A4A6"/>
<path d="M112 98V102H104V98H112ZM120 102V98H124V102H120ZM96 98V102H88V98H96ZM80 102H76V98H80V102Z" fill="#FFCC00"/>
<path d="M80 102H84V106H80V102ZM116 102H120V106H116V102ZM120 98H116V94H120V98ZM80 98V94H84V98H80Z" fill="#697E80"/>
</svg>
