<svg width="118" height="69" viewBox="0 0 118 69" fill="none" xmlns="http://www.w3.org/2000/svg">
<path d="M32.6212 51.4486C32.814 49.8338 34.6216 48.2914 35.2241 46.7248C36.0194 44.6522 37.5378 42.2421 37.2968 39.9766C37.2245 39.1813 37.9234 38.145 37.6583 37.3978C37.2727 36.2651 36.3086 35.2288 35.4651 34.2647C39.5381 31.2521 31.7295 25.3956 28.3795 24.1183C27.9457 23.7086 27.5842 23.4194 26.8611 23.2025C24.5716 22.5036 23.5352 20.7924 21.8241 19.4669C20.3539 18.3341 17.5823 18.7438 16.064 19.3705C14.642 19.9248 13.7985 21.1539 12.2079 20.9129C11.1233 20.7442 10.2557 21.419 9.43628 21.9251C9.07477 22.2626 8.73737 22.6 8.39995 22.9615C7.26722 24.0942 6.25498 24.7449 4.92944 25.8295C3.94131 26.6248 0.952819 30.023 1.16973 29.9748C0.856416 30.0471 0.66361 30.4086 0.68771 30.6978C0.760013 31.6859 0.784105 31.6859 1.26612 32.5536C1.91684 33.7104 0.663604 34.5057 0.22979 35.4698C-0.0353184 36.0964 0.157488 36.9399 0.22979 37.5665C0.398495 38.868 -0.0835258 40.073 0.0128772 41.3504C0.0851795 42.4349 1.65173 43.3266 0.711805 44.6281C0.398495 45.0619 0.157491 45.6644 0.157491 46.1946C0.205692 48.6288 3.5075 49.641 3.21829 51.6173C3.14599 52.1716 3.41108 52.6054 3.869 52.8705C4.92943 53.4971 6.01398 53.6899 6.7129 54.7745C7.26722 55.6421 7.79743 55.8108 8.71326 55.9795C10.1834 56.2687 9.19528 54.1479 11.9669 56.0518C12.4971 56.4133 13.3406 57.064 14.0636 56.9917C15.5097 56.8471 17.6064 58.2932 18.8597 57.8594C20.4262 57.3051 20.1852 55.6662 22.2579 55.9072C23.487 56.0518 24.2583 56.1723 25.391 55.6421C26.0417 55.3529 26.5478 54.7504 27.0057 54.2443C28.4518 52.7018 29.8496 53.0633 31.4162 52.509C31.85 52.3644 32.5489 51.9547 32.6212 51.4486Z" fill="#646D37"/>
<path d="M22.8121 54.1718C21.9204 53.8344 20.6431 53.6657 19.92 54.4852C18.0884 56.5337 17.7992 55.1359 15.7747 55.3287C13.3405 55.5697 13.0031 55.0395 11.3884 54.0031C11.0027 53.7621 10.4484 53.6416 10.0146 53.7139C8.18295 54.0272 8.42397 52.6294 7.38764 51.7618C6.78512 51.2557 6.1826 51.2316 5.58008 51.0629C5.58008 49.9301 5.14626 49.2071 4.23043 48.219C2.18186 46.074 3.65202 44.9413 2.9772 42.6276C2.56749 41.1815 2.23006 41.1333 2.18186 39.133C2.13366 37.6628 1.31425 36.1686 2.49518 34.843C3.45921 33.7585 3.09769 32.8186 2.47107 31.7099C2.27827 31.3966 4.73654 29.1071 4.95345 28.3599C5.38726 26.8416 6.95381 26.697 7.84554 25.7329C9.46029 24.0218 10.9787 22.0937 13.702 22.5757C16.6664 23.106 18.8355 16.647 22.1132 21.8527C23.4387 23.9736 25.3186 23.7808 27.1744 24.9135C27.2467 25.1545 27.4154 25.3714 27.7046 25.4437C30.2593 26.1427 29.2711 26.938 30.7654 27.6128C30.5485 27.5164 38.6463 31.1797 33.8503 33.1801C33.3683 33.3729 33.0308 34.0477 33.4165 34.5056C33.8985 35.084 36.0193 37.1808 35.7542 37.9761C35.3686 39.0607 35.3204 38.8438 35.2963 40.1211C35.2722 41.1333 34.26 42.1215 33.9708 43.0614C33.4165 44.8449 33.4888 46.7006 32.1632 48.1708C30.8618 49.5927 31.7053 50.7254 29.2229 50.9182C26.5236 51.1352 26.0657 55.3528 22.8121 54.1718Z" fill="#AFC243"/>
<path d="M22.0168 51.2556C21.2938 50.9905 20.2574 50.8459 19.6549 51.4966C18.1607 53.1596 17.9197 52.0268 16.2808 52.1714C14.2805 52.3642 14.0154 51.9304 12.6898 51.0869C12.3765 50.8941 11.9186 50.7977 11.5571 50.8459C10.0628 51.111 10.2556 49.9542 9.4121 49.2552C8.93009 48.8455 8.42399 48.8214 7.91787 48.6768C7.91787 47.7369 7.58045 47.1585 6.80923 46.3631C5.14627 44.6279 6.32721 43.688 5.7729 41.8081C5.43548 40.6272 5.17037 40.579 5.12217 38.9642C5.09807 37.7592 4.42325 36.5541 5.36318 35.4696C6.1344 34.5779 5.8693 33.8067 5.33908 32.9149C5.19448 32.6498 7.19483 30.7941 7.36354 30.1674C7.72505 28.9142 9.0024 28.7937 9.72543 28.0225C11.0269 26.6246 12.2801 25.034 14.4974 25.4437C16.9075 25.8775 18.6909 20.5994 21.3661 24.8653C22.4506 26.6005 23.9931 26.4318 25.5114 27.3717C25.5596 27.5646 25.7042 27.7333 25.9452 27.8056C28.0179 28.3599 27.2226 29.0106 28.4517 29.589C28.283 29.5167 34.8866 32.5052 30.9582 34.12C30.5485 34.2887 30.2834 34.8189 30.5967 35.2045C30.9823 35.6865 32.7417 37.3977 32.5006 38.0484C32.1873 38.9401 32.1391 38.7473 32.115 39.7836C32.0909 40.6272 31.2715 41.4225 31.0305 42.1937C30.5726 43.6398 30.6449 45.1581 29.5604 46.3631C28.4999 47.52 29.1988 48.4599 27.1744 48.6045C25.0535 48.7732 24.6679 52.2437 22.0168 51.2556Z" fill="#C3D944"/>
<path d="M21.2692 48.4842C20.6908 48.2673 19.8714 48.1468 19.4135 48.677C18.2325 49.9784 18.0397 49.0867 16.7624 49.2072C15.1958 49.3518 14.9789 49.0144 13.9426 48.3637C13.7016 48.195 13.3401 48.1227 13.0509 48.1709C11.8699 48.3637 12.0386 47.4719 11.3638 46.9176C10.9782 46.6043 10.5926 46.5802 10.207 46.4597C10.207 45.7367 9.94187 45.2788 9.33935 44.6522C8.03791 43.2784 8.95374 42.5554 8.54403 41.0611C8.27892 40.1453 8.06202 40.0971 8.03792 38.8198C8.01382 37.8798 7.4836 36.9158 8.23072 36.0723C8.83324 35.3734 8.61633 34.7708 8.20661 34.0719C8.08611 33.8791 9.65267 32.409 9.79727 31.927C10.0865 30.9388 11.0746 30.8665 11.653 30.2399C12.6894 29.1554 13.6534 27.9021 15.4127 28.2154C17.3167 28.5528 18.6905 24.4316 20.8113 27.7575C21.6549 29.1072 22.8599 28.9867 24.0649 29.7097C24.1131 29.8543 24.2095 29.9989 24.4023 30.0471C26.0412 30.4809 25.4146 31.0111 26.3786 31.4449C26.234 31.3726 31.4157 33.7345 28.3549 35.0119C28.0416 35.1324 27.8246 35.5662 28.0656 35.8795C28.379 36.241 29.7286 37.5906 29.5599 38.0967C29.3189 38.7957 29.2707 38.6511 29.2707 39.4705C29.2466 40.1212 28.5959 40.7478 28.4272 41.3745C28.0656 42.5072 28.1139 43.7122 27.2703 44.6522C26.4509 45.568 26.9811 46.291 25.3905 46.4115C23.6552 46.532 23.3419 49.2313 21.2692 48.4842Z" fill="#DBE23D"/>
<path d="M92.1255 36.0722C92.3424 34.2888 94.3186 32.5776 94.9934 30.8664C95.8851 28.5769 97.524 25.9017 97.283 23.4193C97.1866 22.5517 97.9578 21.3948 97.6686 20.5754C97.2348 19.3222 96.1744 18.1894 95.2586 17.129C99.7413 13.8031 91.1373 7.3441 87.4499 5.92215C86.9679 5.46424 86.5582 5.15093 85.7869 4.90992C83.2564 4.1387 82.1236 2.25884 80.2197 0.788691C78.6049 -0.464548 75.5441 -0.00663389 73.8571 0.668187C72.2905 1.29481 71.3747 2.64445 69.6153 2.35524C68.4344 2.16243 67.4704 2.90956 66.5545 3.48798C66.1448 3.84949 65.7592 4.2351 65.3977 4.62071C64.1445 5.87395 63.0117 6.59697 61.5657 7.77791C60.4811 8.64554 57.1793 12.4053 57.3962 12.3571C57.0588 12.4294 56.8419 12.8391 56.866 13.1524C56.9383 14.2369 56.9865 14.2369 57.5167 15.2009C58.2157 16.4783 56.8419 17.37 56.384 18.4063C56.0948 19.0812 56.2876 20.0211 56.384 20.72C56.5527 22.1661 56.0225 23.4916 56.143 24.9136C56.2394 26.0945 57.9506 27.0826 56.9142 28.5287C56.5768 28.9866 56.2876 29.6614 56.3117 30.2639C56.3599 32.9632 59.9991 34.0718 59.6858 36.265C59.5894 36.8916 59.9027 37.3495 60.4088 37.6629C61.5898 38.3618 62.7707 38.5546 63.5419 39.7837C64.1445 40.7237 64.7229 40.9165 65.7592 41.1093C67.374 41.4226 66.2894 39.0848 69.3502 41.1816C69.9528 41.5913 70.8686 42.2902 71.6639 42.2179C73.2786 42.0492 75.5682 43.6639 76.9661 43.1578C78.7013 42.5553 78.4121 40.7237 80.7017 41.0129C82.0513 41.1816 82.919 41.3021 84.1722 40.7237C84.8952 40.4103 85.4254 39.7355 85.9556 39.1812C87.5463 37.4942 89.0887 37.8798 90.824 37.2772C91.2819 37.1085 92.0531 36.6265 92.1255 36.0722Z" fill="#646D37"/>
<path d="M81.3049 39.0607C80.3168 38.6992 78.9189 38.5064 78.0995 39.3982C76.075 41.6636 75.7617 40.0971 73.5204 40.314C70.8211 40.5791 70.4596 40.0007 68.6761 38.8679C68.2423 38.6028 67.6398 38.4582 67.1578 38.5546C65.1333 38.9161 65.3984 37.3496 64.2657 36.4097C63.6149 35.8553 62.9401 35.8312 62.2653 35.6384C62.2653 34.3852 61.7833 33.5899 60.7711 32.5053C58.5297 30.1435 60.1203 28.8902 59.3973 26.3355C58.9394 24.7449 58.5779 24.6726 58.5297 22.4794C58.4815 20.8406 57.5657 19.2017 58.8671 17.7316C59.9275 16.5265 59.5419 15.4902 58.843 14.2611C58.6502 13.8995 61.3254 11.3931 61.5664 10.5495C62.0484 8.86249 63.7595 8.71788 64.7718 7.63335C66.5552 5.75349 68.2182 3.60852 71.2308 4.13874C74.5085 4.71715 76.8945 -2.39257 80.5096 3.34341C81.9797 5.68118 84.0524 5.46428 86.101 6.71752C86.1733 6.98262 86.3661 7.22363 86.7035 7.29594C89.5233 8.06716 88.4387 8.93479 90.1017 9.70601C89.8607 9.60961 98.8021 13.6344 93.4999 15.8517C92.9697 16.0686 92.6082 16.8157 93.0179 17.3219C93.5481 17.9726 95.91 20.2862 95.5966 21.1539C95.1628 22.3589 95.1146 22.1179 95.0664 23.5157C95.0423 24.6485 93.9337 25.733 93.5963 26.7693C92.9938 28.7215 93.0661 30.7701 91.5959 32.4089C90.174 33.9755 91.0898 35.2287 88.3664 35.4456C85.402 35.7348 84.8959 40.3863 81.3049 39.0607Z" fill="#AFC243"/>
<path d="M80.4376 35.8553C79.6423 35.5661 78.4854 35.3973 77.8347 36.1445C76.1717 38.0002 75.9066 36.7229 74.0991 36.8916C71.9059 37.1085 71.5926 36.6265 70.1466 35.7107C69.8091 35.4937 69.303 35.3732 68.8933 35.4455C67.2304 35.7348 67.4714 34.4574 66.5314 33.6862C66.0012 33.2283 65.4469 33.2042 64.8926 33.0596C64.8926 32.0232 64.507 31.3966 63.6635 30.5049C61.8318 28.5768 63.1332 27.5405 62.5307 25.4678C62.1451 24.1664 61.8559 24.1182 61.8077 22.3106C61.7595 20.9851 61.0365 19.6354 62.0728 18.4304C62.9404 17.4423 62.6271 16.5987 62.0487 15.6106C61.88 15.3214 64.0732 13.2728 64.2901 12.5739C64.6757 11.2002 66.0976 11.0797 66.9171 10.1879C68.3631 8.6455 69.7368 6.91024 72.1951 7.34406C74.8703 7.82607 76.8225 2.01779 79.7628 6.69334C80.9678 8.5973 82.6549 8.42859 84.3419 9.44082C84.4142 9.65773 84.5588 9.85054 84.8239 9.92284C87.1135 10.5495 86.2459 11.2725 87.5955 11.8991C87.4027 11.8027 94.6811 15.1045 90.3671 16.9121C89.9333 17.1049 89.62 17.7074 89.9815 18.1171C90.4153 18.6473 92.3434 20.5272 92.0782 21.2502C91.7167 22.2383 91.6685 22.0214 91.6444 23.1783C91.6203 24.0941 90.7045 24.9858 90.4394 25.8293C89.9333 27.42 90.0056 29.107 88.8005 30.4326C87.6437 31.7099 88.3908 32.7463 86.1495 32.915C83.7876 33.1319 83.3538 36.9398 80.4376 35.8553Z" fill="#C3D944"/>
<path d="M79.5939 32.7945C78.9673 32.5535 78.0515 32.433 77.5454 33.0114C76.2439 34.4575 76.027 33.4693 74.605 33.6139C72.8698 33.7826 72.6288 33.4211 71.496 32.674C71.2309 32.5053 70.8212 32.4089 70.5079 32.4812C69.2065 32.6981 69.3752 31.71 68.6522 31.1075C68.2425 30.7459 67.8086 30.7459 67.3748 30.6013C67.3748 29.806 67.0615 29.2758 66.4108 28.601C64.9647 27.0826 66.0011 26.2873 65.5191 24.6485C65.2299 23.6362 64.9888 23.588 64.9647 22.1661C64.9406 21.1297 64.3622 20.0693 65.1817 19.1294C65.8565 18.3582 65.6155 17.6833 65.1576 16.9121C65.0371 16.6952 66.7482 15.0804 66.9169 14.5261C67.2302 13.4416 68.3388 13.3452 68.9655 12.6704C70.0982 11.4653 71.1827 10.0916 73.1108 10.429C75.2076 10.8146 76.75 6.23547 79.0637 9.92289C80.0036 11.4171 81.3292 11.2966 82.6547 12.092C82.7029 12.2607 82.8234 12.4053 83.0403 12.4776C84.8479 12.9596 84.1489 13.538 85.2094 14.02C85.0648 13.9477 90.7767 16.5506 87.3784 17.9484C87.041 18.093 86.8 18.5751 87.0652 18.8884C87.4026 19.2981 88.9209 20.7923 88.704 21.3466C88.4389 22.1179 88.3907 21.9733 88.3666 22.865C88.3425 23.588 87.6436 24.2869 87.4267 24.9618C87.0411 26.215 87.0892 27.5405 86.1493 28.5769C85.2335 29.5891 85.836 30.3844 84.0767 30.529C82.2209 30.6495 81.9076 33.638 79.5939 32.7945Z" fill="#DBE23D"/>
<path d="M55.4926 41.9528C55.7095 40.1694 57.6858 38.4582 58.3606 36.7471C59.2523 34.4575 60.8912 31.7823 60.6502 29.2999C60.5538 28.4323 61.325 27.2755 61.0358 26.456C60.602 25.2028 59.5416 24.0701 58.6257 23.0096C63.1085 19.6837 54.5045 13.2247 50.8171 11.8028C50.3351 11.3449 49.9254 11.0315 49.1541 10.7905C46.6235 10.0193 45.4908 8.13945 43.5869 6.66931C41.9721 5.41607 38.9113 5.87398 37.2242 6.5488C35.6577 7.17542 34.7419 8.52507 32.9825 8.23586C31.8016 8.04305 30.8376 8.79017 29.9217 9.36859C29.512 9.7301 29.1264 10.1157 28.7649 10.5013C27.5116 11.7546 26.3789 12.4776 24.9329 13.6585C23.8483 14.5262 20.5465 18.2859 20.7634 18.2377C20.426 18.31 20.2091 18.7197 20.2332 19.033C20.3055 20.1175 20.3537 20.1175 20.8839 21.0816C21.5829 22.3589 20.2091 23.2506 19.7512 24.287C19.462 24.9618 19.6548 25.9017 19.7512 26.6006C19.9199 28.0467 19.3897 29.3722 19.5102 30.7942C19.6066 31.9751 21.3177 32.9632 20.2814 34.4093C19.944 34.8672 19.6548 35.542 19.6789 36.1445C19.7271 38.8438 23.3663 39.9525 23.053 42.1456C22.9566 42.7722 23.2699 43.2302 23.776 43.5435C24.957 44.2424 26.1379 44.4352 26.9091 45.6643C27.5116 46.6043 28.0901 46.7971 29.1264 46.9899C30.7411 47.3032 29.6566 44.9654 32.7174 47.0622C33.3199 47.4719 34.2358 48.1708 35.0311 48.0985C36.6458 47.9298 38.9354 49.5446 40.3333 49.0384C42.0685 48.4359 41.7793 46.6043 44.0689 46.8935C45.4185 47.0622 46.2861 47.1827 47.5394 46.6043C48.2624 46.291 48.7926 45.6161 49.3228 45.0618C50.9135 43.3748 52.4559 43.7604 54.1912 43.1579C54.6491 42.9651 55.4203 42.483 55.4926 41.9528Z" fill="#646D37"/>
<path d="M44.6955 44.9414C43.7074 44.5798 42.3096 44.387 41.4901 45.2788C39.4657 47.5442 39.1524 45.9777 36.911 46.1946C34.2117 46.4597 33.8502 45.8813 32.0667 44.7486C31.6329 44.4834 31.0304 44.3388 30.5484 44.4352C28.5239 44.7968 28.789 43.2302 27.6563 42.2903C27.0056 41.736 26.3307 41.7119 25.6559 41.5191C25.6559 40.2658 25.1739 39.4705 24.1617 38.386C21.9203 36.0241 23.511 34.7708 22.7879 32.2162C22.33 30.6255 21.9685 30.5532 21.9203 28.36C21.8721 26.7212 20.9563 25.0823 22.2577 23.6122C23.3182 22.4071 22.9325 21.3708 22.2336 20.1417C22.0408 19.7802 24.716 17.2737 24.957 16.4302C25.439 14.7431 27.1502 14.5985 28.1624 13.514C29.9459 11.6341 31.6088 9.48913 34.6214 10.0194C37.8991 10.5978 40.2851 3.48804 43.9002 9.22403C45.3703 11.5618 47.443 11.3449 49.4916 12.5981C49.5639 12.8632 49.7567 13.1042 50.0941 13.1766C52.9139 13.9478 51.8293 14.8154 53.4923 15.5866C53.2513 15.4902 62.1927 19.5151 56.8905 21.7323C56.3603 21.9492 55.9988 22.6964 56.4085 23.2025C56.9387 23.8532 59.3006 26.1669 58.9873 27.0345C58.5535 28.2395 58.5053 27.9985 58.4571 29.3964C58.433 30.5291 57.3243 31.6136 56.9869 32.65C56.3844 34.6021 56.4567 36.6507 54.9866 38.2895C53.5646 39.8561 54.4804 41.1093 51.757 41.3262C48.7927 41.5914 48.2624 46.2669 44.6955 44.9414Z" fill="#AFC243"/>
<path d="M43.8048 41.7359C43.0094 41.4467 41.8526 41.278 41.2019 42.0251C39.5389 43.8808 39.2738 42.6035 37.4663 42.7722C35.2731 42.9891 34.9598 42.5071 33.5137 41.5913C33.1763 41.3744 32.6702 41.2539 32.2605 41.3262C30.5976 41.6154 30.8386 40.338 29.8986 39.5668C29.3684 39.1089 28.8141 39.0848 28.2598 38.9402C28.2598 37.9039 27.8742 37.2772 27.0306 36.3855C25.199 34.4574 26.5004 33.4211 25.8979 31.3484C25.5123 30.047 25.2231 29.9988 25.1749 28.1912C25.1267 26.8657 24.4037 25.5161 25.44 24.311C26.3076 23.3229 25.9943 22.4794 25.4159 21.4912C25.2472 21.202 27.4403 19.1535 27.6573 18.4545C28.0429 17.0808 29.4648 16.9603 30.2842 16.0686C31.7303 14.5261 33.104 12.7909 35.5623 13.2247C38.2375 13.7067 40.1897 7.8984 43.1299 12.574C44.335 14.4779 46.022 14.3092 47.7091 15.3214C47.7814 15.5383 47.926 15.7312 48.1911 15.8035C50.4807 16.4301 49.6131 17.1531 50.9627 17.7797C50.7699 17.6833 58.0483 20.9851 53.7343 22.7927C53.3005 22.9855 52.9872 23.588 53.3487 23.9977C53.7825 24.5279 55.7105 26.4078 55.4454 27.1308C55.0839 28.1189 55.0357 27.902 55.0116 29.0589C54.9875 29.9747 54.0717 30.8664 53.8066 31.71C53.3005 33.3006 53.3728 34.9877 52.1677 36.3132C51.0109 37.5905 51.758 38.6269 49.5167 38.7956C47.1548 39.0125 46.7451 42.8204 43.8048 41.7359Z" fill="#C3D944"/>
<path d="M42.9845 38.6751C42.3579 38.4341 41.4421 38.3136 40.936 38.892C39.6345 40.3381 39.4176 39.3499 37.9957 39.4945C36.2604 39.6633 36.0194 39.3017 34.8867 38.5546C34.6216 38.3859 34.2119 38.2895 33.8985 38.3618C32.5971 38.5787 32.7658 37.5906 32.0428 36.9881C31.6331 36.6266 31.1993 36.6266 30.7654 36.482C30.7654 35.6866 30.4521 35.1564 29.8014 34.4816C28.3554 32.9632 29.3917 32.1679 28.9097 30.5291C28.6205 29.5168 28.3795 29.4686 28.3554 28.0467C28.3313 27.0104 27.7528 25.9499 28.5723 25.01C29.2471 24.2388 29.0061 23.5639 28.5482 22.7927C28.4277 22.5758 30.1388 20.9611 30.3075 20.4067C30.6208 19.3222 31.7295 19.2258 32.3561 18.551C33.4888 17.346 34.5734 15.9722 36.5014 16.3096C38.5982 16.6952 40.1406 12.1161 42.4543 15.8035C43.3942 17.2977 44.7198 17.1772 46.0453 17.9726C46.0935 18.1413 46.214 18.2859 46.4309 18.3582C48.2385 18.8402 47.5396 19.4186 48.6 19.9006C48.4554 19.8283 54.1673 22.4312 50.7691 23.8291C50.4317 23.9737 50.1907 24.4557 50.4558 24.769C50.7932 25.1787 52.3115 26.6729 52.0946 27.2273C51.8295 27.9985 51.7813 27.8539 51.7572 28.7456C51.7331 29.4686 51.0342 30.1676 50.8173 30.8424C50.4317 32.0956 50.4799 33.4212 49.5399 34.4575C48.6241 35.4697 49.2266 36.265 47.4673 36.4097C45.6115 36.5061 45.2741 39.5187 42.9845 38.6751Z" fill="#DBE23D"/>
<path d="M47.2502 63.6676C47.4189 62.3661 48.8409 61.137 49.3229 59.8838C49.9736 58.2208 51.1787 56.2927 50.9858 54.4852C50.9135 53.8586 51.492 53.015 51.2751 52.4125C50.9618 51.5208 50.1905 50.6773 49.5157 49.906C52.7693 47.496 46.5272 42.7963 43.852 41.7841C43.5146 41.4467 43.2013 41.2298 42.647 41.0611C40.8153 40.5067 39.9718 39.133 38.5981 38.0726C37.4171 37.1567 35.1999 37.4941 33.9707 38.0003C32.838 38.4582 32.1632 39.4222 30.8858 39.2294C30.0182 39.0848 29.3193 39.615 28.6686 40.0488C28.3793 40.3139 28.0901 40.579 27.825 40.8683C26.9333 41.7841 26.1139 42.3143 25.0293 43.1578C24.234 43.7844 21.848 46.5078 22.0167 46.4837C21.7757 46.5319 21.6311 46.8211 21.6311 47.0622C21.6793 47.8334 21.7034 47.8575 22.1131 48.5564C22.6193 49.4722 21.6311 50.1229 21.2937 50.8942C21.0768 51.3762 21.2214 52.0751 21.2937 52.5812C21.4142 53.6176 21.0286 54.5816 21.125 55.6179C21.1973 56.4855 22.4506 57.1845 21.6793 58.2449C21.4383 58.5823 21.2214 59.0643 21.2455 59.4981C21.2696 61.4503 23.9207 62.2456 23.7038 63.8363C23.6315 64.2942 23.8484 64.6075 24.234 64.8485C25.0775 65.3546 25.9452 65.4992 26.5236 66.391C26.9574 67.0658 27.3912 67.2104 28.1383 67.355C29.3193 67.596 28.5239 65.8848 30.7412 67.4032C31.175 67.6924 31.8499 68.1985 32.4042 68.1503C33.561 68.0298 35.2481 69.1867 36.2603 68.8492C37.5135 68.4154 37.3207 67.0899 38.9837 67.2827C39.9718 67.4032 40.5743 67.4996 41.4902 67.0658C42.0204 66.8248 42.406 66.3428 42.7916 65.933C43.9484 64.7039 45.0571 64.9931 46.3344 64.5593C46.6236 64.4147 47.202 64.0532 47.2502 63.6676Z" fill="#646D37"/>
<path d="M39.3939 65.8366C38.6709 65.5715 37.6586 65.4269 37.0802 66.0776C35.6101 67.7165 35.3691 66.5838 33.7784 66.7525C31.8263 66.9453 31.5611 66.5115 30.2597 65.692C29.9464 65.4992 29.5126 65.4028 29.1511 65.451C27.6809 65.7161 27.8737 64.5834 27.0543 63.8845C26.5723 63.4989 26.0903 63.4748 25.6083 63.3302C25.6083 62.4143 25.2708 61.8359 24.5237 61.0647C22.8849 59.3535 24.0658 58.4377 23.5115 56.5819C23.1741 55.4251 22.909 55.3769 22.8849 53.7863C22.8608 52.6053 22.1859 51.4003 23.1259 50.3398C23.8971 49.4722 23.6079 48.7251 23.1018 47.8334C22.9572 47.5683 24.9093 45.7607 25.078 45.1341C25.4154 43.9049 26.6687 43.8085 27.3917 43.0373C28.6691 41.6636 29.8982 40.1211 32.0914 40.5067C34.4532 40.9405 36.1885 35.7589 38.8155 39.9283C39.8759 41.6154 41.3943 41.4708 42.8644 42.3866C42.9126 42.5794 43.0572 42.7481 43.2982 42.8204C45.3468 43.3747 44.5515 44.0013 45.7565 44.5557C45.5878 44.4834 52.0468 47.3996 48.2148 49.0143C47.8292 49.183 47.5641 49.7132 47.8774 50.0747C48.263 50.5326 49.9741 52.2197 49.7331 52.8463C49.4198 53.7139 49.3716 53.5452 49.3475 54.5575C49.3234 55.3769 48.5281 56.1722 48.2871 56.9193C47.8533 58.3413 47.9015 59.8355 46.841 61.0165C45.8047 62.1492 46.4795 63.065 44.5033 63.2096C42.3824 63.4025 41.9968 66.8007 39.3939 65.8366Z" fill="#AFC243"/>
<path d="M38.767 63.523C38.1886 63.3061 37.3451 63.1856 36.8631 63.7158C35.658 65.0655 35.4652 64.1255 34.1638 64.2701C32.5731 64.4147 32.3562 64.0773 31.2958 63.4025C31.0548 63.2338 30.6933 63.1615 30.38 63.2097C29.1749 63.4266 29.3436 62.5108 28.6688 61.9323C28.2832 61.619 27.8976 61.5949 27.4879 61.4744C27.4879 60.7273 27.1987 60.2694 26.5962 59.6187C25.2706 58.2208 26.2105 57.4737 25.7767 55.9554C25.5116 55.0154 25.2947 54.9672 25.2465 53.6658C25.2224 52.7018 24.6681 51.7377 25.4393 50.8701C26.0659 50.1712 25.849 49.5446 25.4152 48.8215C25.2947 48.6046 26.8854 47.1345 27.03 46.6284C27.3192 45.6402 28.3314 45.5438 28.9339 44.9172C29.9943 43.8086 30.9825 42.5312 32.7659 42.8445C34.694 43.182 36.1159 38.9643 38.2609 42.3866C39.1285 43.7604 40.3577 43.6399 41.5868 44.387C41.635 44.5316 41.7314 44.6762 41.9483 44.7244C43.6113 45.1823 42.9847 45.6884 43.9487 46.1464C43.8041 46.074 49.1063 48.4841 45.9491 49.7856C45.6358 49.9302 45.4188 50.364 45.6598 50.6532C45.9732 51.0388 47.371 52.4125 47.1782 52.9187C46.9131 53.6417 46.889 53.4971 46.8649 54.3165C46.8408 54.9913 46.1901 55.618 45.9973 56.2446C45.6358 57.4014 45.6839 58.6064 44.8163 59.5946C43.9728 60.5345 44.5271 61.2575 42.9124 61.378C41.2012 61.5226 40.8879 64.2942 38.767 63.523Z" fill="#C3D944"/>
<path d="M38.1647 61.2816C37.7068 61.1129 37.0561 61.0164 36.6705 61.4503C35.7305 62.5107 35.5859 61.7877 34.5496 61.8841C33.2963 62.0046 33.1276 61.7395 32.2841 61.2092C32.0913 61.0887 31.8021 61.0164 31.5852 61.0647C30.6453 61.2334 30.7658 60.5103 30.2355 60.0524C29.9222 59.7873 29.633 59.7873 29.2956 59.6909C29.2956 59.1125 29.0787 58.7269 28.5967 58.2449C27.5604 57.1362 28.3075 56.5578 27.946 55.3769C27.7291 54.6297 27.5604 54.6056 27.5363 53.5934C27.5122 52.8463 27.1025 52.0751 27.6809 51.4002C28.1629 50.8459 27.9942 50.3639 27.6568 49.7855C27.5604 49.6168 28.8136 48.46 28.9341 48.0502C29.151 47.2549 29.9463 47.1826 30.4283 46.7006C31.2478 45.833 32.0431 44.8207 33.4409 45.0858C34.9593 45.351 36.0679 42.0491 37.755 44.7243C38.4298 45.8089 39.3938 45.7125 40.3579 46.2909C40.4061 46.4114 40.4784 46.5319 40.623 46.556C41.9244 46.9175 41.4424 47.3272 42.1895 47.6646C42.0931 47.6164 46.2384 49.4963 43.7561 50.5085C43.5151 50.6049 43.3464 50.9664 43.5392 51.1833C43.7802 51.4725 44.8888 52.5571 44.7442 52.9668C44.5514 53.5211 44.5273 53.4006 44.5032 54.0513C44.5032 54.5815 43.973 55.0877 43.8284 55.5697C43.5392 56.4855 43.5874 57.4254 42.8884 58.1967C42.2136 58.9197 42.6474 59.4981 41.3942 59.5945C40.0687 59.7391 39.8277 61.9082 38.1647 61.2816Z" fill="#DBE23D"/>
<path d="M117.649 36.2891C116.203 34.9877 115.89 32.1679 114.781 30.5291C113.287 28.3359 111.937 25.2028 109.575 23.9013C108.756 23.4434 108.201 22.0456 107.286 21.8046C105.912 21.419 104.249 21.66 102.731 21.8287C102.538 15.8035 91.4997 19.4668 87.9569 21.8528C87.2579 21.9974 86.7277 22.1661 86.0529 22.7204C83.8115 24.5039 81.4255 24.3352 78.9673 25.1064C76.8464 25.7571 75.3763 28.7697 74.9424 30.6978C74.5327 32.4571 75.1594 34.1201 73.8097 35.5179C72.918 36.4578 72.9662 37.7593 72.918 38.9402C72.9903 39.5186 73.0867 40.0971 73.2313 40.6514C73.5687 42.5312 73.5205 43.9773 73.6651 46.0017C73.7856 47.496 75.087 52.75 75.1594 52.5089C75.0147 52.8705 75.2557 53.2802 75.545 53.473C76.5572 54.0755 76.5813 54.0514 77.7622 54.1719C79.3288 54.3406 79.2806 56.1 79.9072 57.1604C80.3169 57.8352 81.2809 58.2449 81.9558 58.5823C83.3295 59.3054 84.1971 60.6068 85.5227 61.378C86.6313 62.0287 88.5835 61.1129 89.2101 62.9205C89.427 63.523 89.8367 64.1737 90.3669 64.5352C92.777 66.15 96.0065 63.5953 97.7658 65.2341C98.272 65.6921 98.8504 65.7162 99.4529 65.4511C100.803 64.8485 101.694 63.9086 103.261 63.9568C104.466 64.005 104.996 63.5953 105.816 62.8241C107.093 61.5708 104.345 61.0888 108.105 59.691C108.828 59.4259 110.033 59.0162 110.443 58.269C111.286 56.7266 114.13 55.6902 114.564 54.1478C115.094 52.2438 113.311 51.3521 114.95 49.4964C115.914 48.3877 116.564 47.7129 116.83 46.2427C116.998 45.3992 116.733 44.5075 116.564 43.7122C116.034 41.2539 117.36 40.1453 117.89 38.2172C118.035 37.687 118.107 36.6988 117.649 36.2891Z" fill="#646D37"/>
<path d="M113.648 47.737C112.708 48.3877 111.671 49.5204 111.985 50.7978C112.732 54.0032 111.165 53.3283 109.984 55.4251C108.562 57.9798 107.815 57.9557 105.694 58.8233C105.188 59.0402 104.706 59.4981 104.465 59.9801C103.525 62.0046 102.32 60.7996 100.778 61.2334C99.886 61.4744 99.4522 62.0528 98.8496 62.5348C97.741 61.7636 96.7288 61.6913 95.1381 61.9323C91.6676 62.4866 91.523 60.2693 88.7996 59.3535C87.1126 58.7751 86.8234 59.0643 84.8471 57.7629C83.377 56.7988 81.3525 56.606 80.8464 54.5575C80.4367 52.8945 79.2798 52.5812 77.7615 52.4366C77.3277 52.3884 76.7493 48.46 76.1467 47.7128C74.9417 46.2427 75.8575 44.628 75.5442 43.0855C74.9658 40.338 74.0982 37.5423 76.4359 35.2046C78.9665 32.674 74.1223 26.1427 81.4489 26.4801C84.4374 26.6247 85.5219 24.6484 87.8838 23.588C88.173 23.6844 88.4863 23.6603 88.7755 23.4193C91.1856 21.3948 91.3061 22.8891 92.9932 21.9009C92.7522 22.0455 101.838 16.5988 100.537 22.6722C100.392 23.2988 100.826 24.07 101.549 23.9977C102.441 23.9254 105.959 23.2506 106.538 24.07C107.333 25.2027 107.092 25.1063 108.321 25.974C109.309 26.697 109.575 28.3599 110.322 29.2758C111.695 31.011 113.551 32.2161 114.081 34.5297C114.587 36.7711 116.275 36.6988 114.78 39.2776C113.214 42.0492 117.022 45.3751 113.648 47.737Z" fill="#AFC243"/>
<path d="M110.274 46.5319C109.503 47.0621 108.659 47.978 108.9 49.0143C109.527 51.6172 108.225 51.087 107.261 52.7981C106.105 54.8949 105.478 54.8708 103.767 55.5938C103.357 55.7625 102.947 56.1481 102.779 56.5337C102.007 58.1726 101.019 57.2085 99.766 57.546C99.043 57.7388 98.6815 58.2208 98.1995 58.6064C97.2837 57.9798 96.4642 57.9075 95.1869 58.1244C92.343 58.5582 92.2466 56.7747 90.0052 56.0276C88.6315 55.5697 88.3905 55.7866 86.7757 54.7262C85.5707 53.9308 83.9077 53.7621 83.498 52.0992C83.1606 50.7254 82.2207 50.4844 80.9674 50.3639C80.6059 50.3398 80.148 47.1103 79.6419 46.5078C78.6538 45.3028 79.425 43.9772 79.1358 42.724C78.6538 40.4826 77.9549 38.193 79.8588 36.2891C81.9315 34.2164 77.979 28.8902 83.9559 29.1553C86.3901 29.2758 87.2818 27.661 89.2099 26.7934C89.4509 26.8657 89.6919 26.8657 89.9329 26.6488C91.9092 24.9858 92.0056 26.215 93.3793 25.3955C93.1865 25.516 100.61 21.0815 99.5491 26.0222C99.4286 26.5283 99.7901 27.1549 100.369 27.1067C101.092 27.0344 103.96 26.5042 104.442 27.179C105.092 28.0948 104.9 28.0225 105.888 28.7455C106.683 29.324 106.924 30.6977 107.502 31.4448C108.611 32.8668 110.153 33.8308 110.587 35.7348C110.997 37.5664 112.371 37.5182 111.166 39.615C109.912 41.8805 113.021 44.6038 110.274 46.5319Z" fill="#C3D944"/>
<path d="M107.021 45.3992C106.418 45.809 105.768 46.532 105.961 47.3514C106.443 49.4 105.43 48.9662 104.683 50.3158C103.767 51.9547 103.285 51.9306 101.936 52.509C101.622 52.6536 101.309 52.9428 101.14 53.2561C100.538 54.5575 99.7667 53.7863 98.7785 54.0514C98.2001 54.2201 97.935 54.5816 97.5494 54.895C96.8264 54.4129 96.1998 54.3647 95.1634 54.5093C92.9221 54.8467 92.8497 53.4489 91.0904 52.8705C90.0059 52.509 89.8131 52.6777 88.5598 51.8583C87.6199 51.2316 86.3184 51.1111 86.0051 49.7856C85.74 48.7011 84.9929 48.5082 84.0289 48.4359C83.7396 48.4118 83.3782 45.8813 82.9925 45.4234C82.2213 44.4834 82.8238 43.4471 82.6069 42.459C82.2454 40.6996 81.6911 38.892 83.1853 37.3978C84.8001 35.7589 81.6911 31.5895 86.4148 31.8064C88.3188 31.9028 89.0177 30.6255 90.5602 29.9507C90.7289 29.9989 90.9458 29.9989 91.1386 29.8543C92.681 28.5528 92.7534 29.5168 93.8379 28.8661C93.6933 28.9625 99.5016 25.4679 98.6821 29.3722C98.5857 29.7579 98.8749 30.264 99.3328 30.2158C99.9113 30.1676 102.153 29.7338 102.538 30.264C103.044 30.987 102.9 30.9147 103.671 31.4931C104.298 31.951 104.49 33.0115 104.948 33.614C105.816 34.7226 107.021 35.4938 107.358 36.9881C107.696 38.41 108.756 38.3859 107.816 40.0248C106.732 41.7359 109.19 43.8809 107.021 45.3992Z" fill="#DBE23D"/>
<path d="M77.0397 51.3762C77.2807 49.4482 79.4257 47.5924 80.1487 45.7367C81.1127 43.2543 82.8962 40.3622 82.6311 37.687C82.5347 36.7471 83.3782 35.4938 83.0649 34.6021C82.5829 33.2525 81.4501 32.0233 80.4379 30.8665C85.2822 27.2755 75.9793 20.2863 72.0026 18.7438C71.4724 18.2377 71.0386 17.9244 70.1951 17.6593C67.4476 16.8158 66.2184 14.7913 64.1699 13.2006C62.4346 11.851 59.1087 12.3571 57.3012 13.0801C55.6141 13.755 54.6019 15.201 52.6979 14.9118C51.4206 14.719 50.3602 15.5143 49.372 16.1409C48.9382 16.5265 48.5285 16.9363 48.1188 17.3701C46.7691 18.7197 45.5641 19.515 43.9734 20.7924C42.7925 21.7323 39.2256 25.8053 39.4666 25.733C39.1051 25.8294 38.8641 26.2633 38.8882 26.6007C38.9605 27.7575 39.0087 27.7816 39.5871 28.8179C40.3583 30.1917 38.8641 31.1557 38.358 32.2884C38.0447 33.0115 38.2616 34.0478 38.358 34.7949C38.5508 36.3374 37.9723 37.7834 38.0929 39.3259C38.1893 40.6032 40.0691 41.6877 38.9364 43.2302C38.5749 43.7363 38.2616 44.4593 38.2857 45.11C38.3339 48.0262 42.2864 49.2072 41.9249 51.5931C41.8285 52.268 42.1418 52.75 42.6961 53.0874C43.9493 53.8586 45.2508 54.0514 46.0943 55.377C46.745 56.3892 47.3717 56.6061 48.4803 56.823C50.2396 57.1604 49.0587 54.6298 52.3605 56.9194C53.0112 57.3532 53.9994 58.1245 54.867 58.0281C56.6022 57.8593 59.1087 59.5705 60.603 59.0644C62.4828 58.4137 62.1695 56.4374 64.6519 56.7266C66.0979 56.8953 67.0379 57.0399 68.4116 56.4133C69.1828 56.0759 69.7854 55.3529 70.3397 54.7503C72.0508 52.9187 73.7379 53.3525 75.6178 52.7018C76.1239 52.4849 76.9674 51.9788 77.0397 51.3762Z" fill="#646D37"/>
<path d="M65.3498 54.6299C64.2893 54.2442 62.771 54.0273 61.8792 54.9914C59.6861 57.4255 59.3487 55.7626 56.9386 56.0036C54.0224 56.2928 53.6127 55.6662 51.7087 54.4371C51.2508 54.1478 50.6001 54.0032 50.0699 54.0996C47.8767 54.4852 48.19 52.7982 46.9368 51.7619C46.2378 51.1593 45.5148 51.1352 44.7677 50.9183C44.7677 49.5687 44.2616 48.7011 43.1529 47.5442C40.7188 44.9896 42.454 43.6399 41.6587 40.8683C41.1526 39.1572 40.767 39.0849 40.7188 36.6989C40.6706 34.9395 39.6824 33.1561 41.0803 31.5895C42.213 30.2881 41.8033 29.1794 41.0562 27.8539C40.8393 27.4683 43.7555 24.769 44.0206 23.8532C44.5267 22.0215 46.4065 21.8528 47.4911 20.7201C49.4191 18.6956 51.2267 16.3578 54.4803 16.9604C58.0231 17.587 60.6019 9.89884 64.5062 16.1168C66.0969 18.6474 68.3383 18.4064 70.5555 19.7561C70.6278 20.0453 70.8447 20.2863 71.1821 20.3827C74.2188 21.2021 73.062 22.1661 74.8454 22.9856C74.6044 22.865 84.2448 27.2273 78.5088 29.6133C77.9304 29.8543 77.5447 30.6496 78.0026 31.2039C78.5811 31.9028 81.1116 34.4093 80.7742 35.3492C80.3163 36.6507 80.244 36.3856 80.2199 37.9039C80.1958 39.1331 78.9908 40.2899 78.6293 41.4226C77.9786 43.5435 78.075 45.7608 76.4602 47.5201C74.9178 49.2072 75.93 50.5568 72.9656 50.7978C69.7843 51.0147 69.2059 56.0518 65.3498 54.6299Z" fill="#AFC243"/>
<path d="M64.41 51.1593C63.5423 50.8459 62.3132 50.6531 61.5902 51.4485C59.8067 53.4488 59.5175 52.0751 57.5654 52.2679C55.1794 52.5089 54.8661 51.9787 53.2754 50.9905C52.8898 50.7495 52.3596 50.629 51.9258 50.7013C50.1423 51.0146 50.3833 49.6409 49.3711 48.7974C48.7927 48.3154 48.2143 48.2913 47.6117 48.1226C47.6117 47.0139 47.202 46.315 46.2862 45.351C44.3099 43.2783 45.7078 42.1456 45.0571 39.9042C44.6474 38.5063 44.334 38.434 44.2858 36.506C44.2376 35.0599 43.4423 33.6139 44.575 32.3125C45.515 31.252 45.1776 30.3362 44.551 29.2517C44.3822 28.9383 46.7441 26.7211 46.961 25.974C47.3948 24.4797 48.9132 24.3592 49.7808 23.4193C51.3474 21.7563 52.8416 19.8765 55.4927 20.3344C58.3848 20.8405 60.4816 14.5743 63.687 19.6355C64.9884 21.7081 66.8201 21.5153 68.6276 22.6239C68.6999 22.865 68.8686 23.0578 69.1578 23.1301C71.6402 23.8049 70.7003 24.5761 72.1463 25.2509C71.9535 25.1545 79.8104 28.7214 75.1348 30.6736C74.6528 30.8664 74.3395 31.5171 74.7251 31.975C75.183 32.5294 77.2798 34.5779 76.9906 35.3492C76.605 36.4096 76.5568 36.1927 76.5327 37.4218C76.5086 38.4099 75.5204 39.374 75.2312 40.2898C74.701 42.0251 74.7733 43.8326 73.4719 45.2546C72.2186 46.6283 73.038 47.7369 70.628 47.9298C68.0251 48.1949 67.5672 52.3161 64.41 51.1593Z" fill="#C3D944"/>
<path d="M63.4945 47.8334C62.8197 47.5924 61.8316 47.4478 61.2772 48.0744C59.8794 49.641 59.6384 48.5564 58.1201 48.7251C56.2643 48.9179 55.9992 48.5082 54.77 47.7129C54.4808 47.5201 54.047 47.4237 53.7096 47.496C52.3118 47.737 52.5046 46.6766 51.7092 46.0018C51.2513 45.6161 50.7934 45.592 50.3114 45.4715C50.3114 44.6039 49.974 44.0496 49.2751 43.3025C47.7085 41.6636 48.8172 40.796 48.311 39.0366C47.9977 37.928 47.7567 37.8798 47.7085 36.3614C47.6844 35.2287 47.0337 34.096 47.9495 33.0837C48.6726 32.2643 48.4074 31.5413 47.9254 30.6737C47.7808 30.4327 49.6607 28.6974 49.8294 28.0949C50.1668 26.938 51.3477 26.8175 52.0467 26.0704C53.2758 24.769 54.4326 23.2747 56.5294 23.6603C58.7949 24.0701 60.4578 19.1294 62.9643 23.106C63.9765 24.7208 65.4226 24.5762 66.8445 25.4438C66.8927 25.6366 67.0132 25.7812 67.2542 25.8535C69.2064 26.3837 68.4593 26.9863 69.592 27.5165C69.4233 27.4442 75.6172 30.2399 71.9539 31.7823C71.5683 31.9269 71.3273 32.4571 71.6165 32.7945C71.978 33.2283 73.6168 34.8431 73.3999 35.4456C73.1107 36.2891 73.0625 36.1204 73.0384 37.0845C73.0143 37.8557 72.2431 38.6269 72.0262 39.3499C71.6165 40.6996 71.6647 42.1215 70.6283 43.2543C69.6402 44.3388 70.2909 45.2064 68.387 45.351C66.3384 45.5197 65.9769 48.7492 63.4945 47.8334Z" fill="#DBE23D"/>
</svg>
