<svg width="200" height="200" viewBox="0 0 200 200" fill="none" xmlns="http://www.w3.org/2000/svg">
<rect width="200" height="200" fill="white"/>
<path d="M140.778 96.4822C141.939 96.1401 142.76 94.8974 142.621 93.6957C142.481 92.4939 141.397 91.4729 140.189 91.4054C142.658 89.5856 143.923 86.1448 142.898 83.2532C141.873 80.3617 138.44 78.4581 135.525 79.4151C136.676 77.9372 137.547 75.9883 136.936 74.2177C136.324 72.4475 133.619 71.5478 132.518 73.0632C132.941 71.05 131.718 68.8194 129.793 68.094C127.868 67.3683 125.034 67.5634 124.023 69.3547C124.406 68.1378 124.717 66.8416 124.442 65.5962C124.167 64.3504 123.141 63.1861 121.866 63.1534C120.645 63.1222 119.64 64.0711 118.857 65.0075C119.076 62.2197 118.639 59.0855 116.489 57.2966C114.593 55.7187 111.726 55.6403 109.518 56.7398C107.31 57.8393 105.725 59.945 104.812 62.2365C105.028 60.341 103.115 58.3352 101.241 57.979C99.367 57.6227 97.3276 58.9025 96.8333 60.7453C94.7373 58.1869 90.9866 57.3227 87.8056 58.2271C84.6246 59.1315 82.8302 62.4639 82.1271 65.4234C81.2352 64.0227 78.3995 62.1062 76.0514 63.375C74.5906 64.1647 73.9757 66.1971 74.7053 67.6891C72.1049 66.6415 68.9192 67.8053 67.2695 70.0722C65.6203 72.3395 65.4104 75.4596 66.3394 78.105C64.4318 77.7538 62.3526 78.7975 61.4939 80.5369C60.6351 82.2762 61.0713 84.5615 62.5103 85.8623C61.3374 85.8412 60.2075 86.7078 59.9235 87.8459C59.6394 88.984 61.3062 91.1081 62.3511 91.641C59.4545 92.6282 56.2087 94.6356 56.0144 97.6898C55.8201 100.744 57.6121 103.832 60.3605 105.178C58.6706 105.641 57.4283 107.384 57.5415 109.133C57.6546 110.881 60.2036 112.144 61.9391 112.385C60.1189 113.78 58.4342 116.855 59.5251 118.872C60.616 120.889 63.2582 121.909 65.4217 121.149C64.7826 122.008 64.8805 123.331 65.6394 124.085C66.3983 124.84 69.0901 124.657 69.9445 124.013C68.925 127.01 68.403 130.831 70.6648 133.046C72.9266 135.261 76.4911 136.033 79.4662 134.951C79.0077 136.03 79.481 137.416 80.5028 137.989C81.5247 138.563 82.955 138.243 83.6359 137.29C84.1891 140.015 86.6573 142.235 89.4256 142.498C92.1938 142.761 95.0358 141.045 96.092 138.473C96.9109 141.068 99.0725 143.198 101.679 143.979C104.285 144.76 107.262 144.169 109.374 142.453C112.56 139.861 113.397 135.42 114.024 131.361C115.013 133.342 116.628 135.283 118.827 135.542C121.026 135.801 123.361 133.328 122.247 131.414C124.072 133.148 126.915 133.957 129.202 132.905C131.49 131.853 132.7 128.682 131.28 126.603C132.852 127.845 135.472 126.767 136.107 124.868C136.742 122.968 135.698 120.796 134.047 119.662C136.392 121.306 140.017 119.692 140.982 116.996C141.947 114.3 141.295 111.703 139.191 109.76C141.395 108.254 143.21 106.016 143.697 103.391C144.185 100.767 143.108 97.785 140.778 96.4822Z" fill="#79AE28"/>
<path d="M111.896 96.247C112.245 96.144 112.492 95.771 112.449 95.4101C112.408 95.0492 112.082 94.7425 111.719 94.7222C112.461 94.1756 112.84 93.142 112.533 92.2735C112.225 91.405 111.194 90.8334 110.318 91.1206C110.664 90.6766 110.926 90.0913 110.742 89.5595C110.558 89.0277 109.746 88.7577 109.415 89.2126C109.542 88.6079 109.175 87.938 108.597 87.7199C108.018 87.5018 107.167 87.5603 106.863 88.0987C106.978 87.7331 107.072 87.3437 106.989 86.9696C106.907 86.5954 106.598 86.2458 106.216 86.2361C105.849 86.2267 105.547 86.5115 105.312 86.7928C105.378 85.9555 105.247 85.0141 104.601 84.4768C104.031 84.0027 103.17 83.9793 102.507 84.3094C101.843 84.6399 101.367 85.2723 101.094 85.9606C101.159 85.3913 100.584 84.7889 100.021 84.6816C99.458 84.5747 98.8455 84.959 98.6972 85.5127C98.0678 84.7445 96.941 84.4846 95.9855 84.7565C95.03 85.0281 94.4912 86.0293 94.2797 86.9181C94.0117 86.4975 93.1599 85.9216 92.4549 86.3028C92.016 86.54 91.8314 87.1506 92.0507 87.5985C91.2696 87.2836 90.3125 87.6332 89.8174 88.3145C89.3219 88.9953 89.259 89.9325 89.538 90.7273C88.9649 90.6219 88.3406 90.9352 88.0827 91.4577C87.8248 91.9801 87.9559 92.6664 88.3882 93.0574C88.0359 93.0511 87.6964 93.3113 87.611 93.6531C87.5255 93.9949 88.0265 94.6328 88.3402 94.7932C87.4701 95.0897 86.4951 95.6925 86.437 96.6098C86.3784 97.5271 86.9169 98.4545 87.7425 98.8591C87.2348 98.9984 86.8618 99.5216 86.8958 100.047C86.9297 100.572 87.6952 100.951 88.2165 101.024C87.6699 101.443 87.1638 102.366 87.4916 102.972C87.8193 103.578 88.6129 103.885 89.2626 103.657C89.0706 103.915 89.1002 104.312 89.3281 104.538C89.556 104.765 90.3644 104.71 90.6211 104.517C90.3148 105.417 90.158 106.565 90.8373 107.23C91.5165 107.895 92.5872 108.127 93.481 107.802C93.3433 108.126 93.4853 108.543 93.7924 108.715C94.0994 108.887 94.529 108.791 94.7335 108.504C94.8997 109.323 95.641 109.99 96.4725 110.069C97.3039 110.147 98.1576 109.632 98.4748 108.86C98.721 109.639 99.3702 110.279 100.153 110.513C100.936 110.748 101.83 110.571 102.464 110.055C103.421 109.277 103.673 107.943 103.861 106.723C104.158 107.318 104.643 107.901 105.304 107.979C105.964 108.057 106.666 107.314 106.331 106.739C106.879 107.26 107.733 107.503 108.42 107.187C109.107 106.871 109.471 105.919 109.044 105.295C109.517 105.668 110.303 105.344 110.494 104.773C110.685 104.203 110.371 103.551 109.875 103.21C110.58 103.703 111.668 103.219 111.959 102.409C112.248 101.599 112.053 100.819 111.421 100.235C112.083 99.783 112.628 99.1108 112.774 98.3223C112.919 97.5337 112.596 96.6383 111.896 96.247Z" fill="#9DBB1D"/>
<path d="M121.103 96.9774C121.577 96.7932 121.877 96.2442 121.776 95.7456C121.676 95.247 121.186 94.8576 120.678 94.8716C121.648 94.023 122.057 92.5377 121.527 91.3625C120.996 90.1873 119.492 89.5103 118.305 90.0133C118.735 89.3539 119.031 88.5072 118.713 87.7874C118.395 87.0675 117.231 86.7854 116.823 87.4588C116.929 86.6009 116.339 85.7093 115.508 85.4729C114.676 85.2364 113.496 85.4175 113.135 86.2033C113.753 85.913 114.521 86.0176 114.98 86.5224C115.314 86.8908 115.369 87.4475 115.245 87.9294C115.121 88.4108 114.843 88.8361 114.569 89.2517C114.929 89.1159 115.297 88.9789 115.681 88.968C116.065 88.9571 116.475 89.096 116.693 89.4128C116.861 89.6582 116.892 89.9731 116.874 90.2704C116.815 91.2673 116.243 92.1678 115.381 92.6726C116.601 92.0952 116.744 92.245 117.41 92.1022C117.929 91.991 118.533 92.0004 118.913 92.3707C119.211 92.6609 119.3 93.112 119.262 93.5259C119.158 94.6773 118.093 95.6606 116.937 95.6734C117.645 96.0652 118.449 96.3028 119.062 96.8299C119.675 97.357 120.027 98.3352 119.534 98.9766C119.068 99.5833 118.161 99.5556 117.401 99.4698C117.829 99.7823 118.245 100.232 118.518 100.687C119.011 101.511 118.385 102.637 117.506 103.021C116.626 103.405 115.617 103.264 114.669 103.116C115.723 103.844 116.905 104.849 116.721 106.117C116.687 106.352 116.578 106.607 116.354 106.686C116.221 106.733 116.075 106.707 115.937 106.682C115.484 106.597 115.032 106.513 114.579 106.428C115.213 107.182 115.841 108.266 115.28 109.076C114.991 109.494 114.447 109.68 113.94 109.653C113.432 109.625 112.952 109.416 112.504 109.177C111.407 108.594 110.413 107.817 109.582 106.894C109.982 107.491 110.389 108.107 110.544 108.809C110.699 109.511 110.551 110.327 109.994 110.782C109.437 111.236 108.448 111.126 108.154 110.47C108.27 111.282 108.277 112.11 108.175 112.925C108.129 113.294 108.052 113.678 107.811 113.961C107.48 114.347 106.9 114.448 106.409 114.316C105.918 114.183 105.503 113.855 105.142 113.497C104.631 112.991 103.983 112.522 103.644 111.887C103.844 112.646 103.863 113.49 103.49 114.18C103.117 114.87 102.277 115.34 101.527 115.112C100.613 114.833 100.244 113.763 100.007 112.837C99.7496 113.259 99.492 113.682 99.2349 114.105C99.1479 114.248 99.0457 114.403 98.8838 114.444C98.7168 114.486 98.5459 114.391 98.4128 114.282C97.6625 113.664 97.5143 112.592 97.4191 111.624C97.3336 112.865 96.1744 113.934 94.9306 113.92C93.6867 113.905 92.5533 112.808 92.4975 111.566C92.1936 112.649 92.1545 114.03 93.0211 114.748C94.0461 115.597 95.5658 115.795 96.7741 115.238C96.62 115.705 96.8666 116.27 97.3149 116.474C97.7628 116.678 98.3508 116.494 98.6025 116.071C98.9298 117.193 100.041 118.036 101.21 118.049C102.378 118.062 103.508 117.244 103.86 116.13C104.294 117.188 105.274 118.004 106.393 118.24C107.512 118.476 108.738 118.124 109.562 117.331C110.806 116.135 111.001 114.245 111.121 112.523C111.605 113.318 112.349 114.074 113.279 114.106C114.209 114.138 115.1 113.02 114.567 112.257C115.393 112.92 116.611 113.159 117.532 112.638C118.453 112.117 118.849 110.747 118.181 109.926C118.883 110.391 119.943 109.848 120.142 109.03C120.341 108.212 119.828 107.339 119.097 106.922C120.137 107.528 121.599 106.726 121.908 105.563C122.218 104.4 121.155 102.758 120.205 102.018C121.622 101.899 122.456 100.886 122.568 99.7698C122.679 98.6523 122.124 97.4413 121.103 96.9774Z" fill="#699415"/>
<path d="M110.36 76.6181C109.403 76.0477 108.028 76.3418 107.388 77.2537C107.243 76.4288 106.614 75.2942 106.03 74.6953C105.444 74.0964 104.579 73.7402 103.755 73.8912C102.769 74.0722 101.983 75.0242 101.992 76.0274C101.689 75.3836 101.303 74.67 100.613 74.4932C100.038 74.3457 99.4194 74.6477 99.0397 75.1046C98.6601 75.5615 98.5232 76.3009 98.3835 76.8779C98.1744 75.931 97.0019 74.3122 95.46 74.5385C94.5005 74.6793 93.7467 76.4846 93.8486 77.4491C92.6316 76.3539 90.6605 75.542 89.302 76.4558C87.9434 77.3695 87.2036 79.0395 87.1841 80.6766C86.2075 80.1023 84.8579 80.2587 84.039 81.0414C83.22 81.8237 83.0019 83.1647 83.531 84.1667C82.8919 83.9205 82.0983 84.1698 81.7148 84.7371C81.3312 85.3044 81.8205 86.8038 82.2875 87.3052C80.5009 87.2669 78.318 87.7191 77.6004 89.3559C76.8825 90.9926 77.2481 93.0453 78.4865 94.334C77.4666 94.2501 76.4362 94.9575 76.1486 95.9396C75.8607 96.9216 77.0066 98.1245 77.9106 98.604C76.6328 99.0047 75.0932 100.355 75.2883 101.68C75.483 103.005 76.7284 104.094 78.0679 104.11C77.5454 104.453 77.3344 105.198 77.6001 105.764C77.8654 106.33 79.3788 106.769 79.9766 106.586C78.8174 108.027 77.7663 110.018 78.5642 111.686C79.3617 113.354 81.1631 114.491 83.0121 114.493C82.5446 114.993 82.5271 115.848 82.973 116.367C83.419 116.886 84.2676 116.997 84.8322 116.61C84.5907 118.216 85.7393 118.849 87.0909 118.68C85.8521 116.858 85.6305 116 86.5778 114.011C85.8427 114.649 84.5692 114.3 84.0839 113.457C83.5985 112.613 83.8103 111.494 84.4018 110.722C83.5692 111.226 82.4007 110.901 81.7901 110.142C81.1794 109.384 81.069 108.311 81.3066 107.367C81.5443 106.423 82.0889 105.586 82.6847 104.816C81.7905 104.848 80.8646 104.823 80.0503 104.453C79.236 104.082 78.5567 103.287 78.5743 102.392C78.5841 101.903 78.7959 101.438 79.0729 101.035C79.5723 100.309 80.2985 99.741 81.124 99.4312C80.5357 99.0484 80.135 98.4058 79.6668 97.883C79.371 97.5521 79.0874 97.1463 79.1393 96.7054C79.1869 96.302 79.5162 95.9766 79.8896 95.8167C80.2629 95.6567 80.6785 95.6321 81.0839 95.6099C80.2852 95.0476 79.7748 94.1627 79.3964 93.2622C79.1002 92.5588 78.8884 91.6887 79.3496 91.0808C79.5603 90.803 79.8806 90.6309 80.2032 90.4991C81.5864 89.9341 83.2668 90.2618 84.6121 90.9115C83.5985 89.7285 83.4381 88.7944 83.9762 88.1464C84.5146 87.4983 85.5212 87.4097 86.2992 87.7332C85.886 87.2345 85.4662 86.7254 85.2255 86.1241C84.9848 85.5229 84.9485 84.8034 85.2895 84.2529C85.703 83.5845 86.5782 83.3223 87.3585 83.4148C88.1389 83.5073 88.8513 83.8885 89.5423 84.2626C89.3979 83.3625 89.14 82.2256 89.634 81.4593C90.1037 80.7304 91.0464 80.4082 91.9094 80.4905C92.7725 80.5728 93.5981 80.7312 94.3078 81.2298C93.8064 80.7417 94.0819 79.7137 94.5942 79.2377C95.1069 78.7613 95.9165 78.6988 96.5622 78.9688C97.2079 79.2384 97.7019 79.7909 98.0417 80.4023C98.2017 79.6731 98.371 78.9224 98.8029 78.3134C99.2344 77.7043 100.001 77.2685 100.724 77.4519C101.147 77.5588 101.495 77.8565 101.795 78.1729C102.482 78.8974 103.008 79.7737 103.323 80.7207C103.408 79.8155 103.652 78.7086 104.529 78.4706C105.066 78.3251 105.646 78.6025 106.014 79.0192C106.382 79.4359 106.582 79.9704 106.774 80.492C107.147 79.4671 108.049 78.599 109.131 78.4655C110.214 78.3321 111.304 78.5916 111.469 79.6696C111.966 78.6719 111.317 77.1885 110.36 76.6181Z" fill="#B6CC36"/>
<path d="M81.4238 123.218C81.4788 123.142 81.5296 123.061 81.5709 122.973C81.5104 123.05 81.4636 123.133 81.4238 123.218Z" fill="#699415"/>
<path d="M135.523 102.569C134.059 105.446 130.773 107.025 127.591 106.483C128.59 107.609 129.624 108.801 129.969 110.267C130.314 111.733 129.703 113.542 128.272 114.012C126.739 114.516 125.152 113.665 123.596 113.234C124.299 114.043 124.835 115.041 124.891 116.11C124.946 117.18 124.445 118.314 123.5 118.817C122.554 119.321 121.198 119.006 120.726 118.045C121.045 119.404 121.266 121.084 120.187 121.971C119.543 122.501 118.604 122.545 117.81 122.291C117.015 122.038 116.33 121.531 115.661 121.033C115.293 120.758 114.896 120.436 114.83 119.982C114.933 120.559 115.037 121.151 114.941 121.73C114.846 122.309 114.511 122.883 113.967 123.104C113.313 123.369 112.566 123.063 111.981 122.667C110.766 121.847 109.518 120.636 109.067 119.241C109.353 121.467 108.939 123.777 107.899 125.765C107.38 126.758 106.589 127.748 105.481 127.919C104.58 128.057 103.618 127.55 103.222 126.729C103.136 127.595 103.014 128.485 102.574 129.236C102.133 129.986 101.295 130.568 100.433 130.451C99.8585 130.373 99.3657 130.009 98.9385 129.618C97.6201 128.41 96.6584 126.817 96.203 125.087C96.015 126.045 95.8183 127.025 95.3115 127.858C94.8047 128.692 93.9151 129.363 92.9397 129.331C91.7551 129.292 90.7575 128.062 90.9631 126.895C90.5066 127.836 89.6837 128.948 88.688 128.629C88.1898 128.47 87.8749 127.985 87.6471 127.514C86.912 125.994 86.6568 124.246 86.9268 122.579C86.4192 123.428 85.894 124.295 85.118 124.907C84.342 125.52 83.2483 125.831 82.3463 125.427C81.5335 125.063 81.0634 123.995 81.4239 123.218C80.777 124.124 79.2655 124.237 78.3576 123.53C77.3724 122.763 77.061 121.367 77.2674 120.136C77.4738 118.905 78.1102 117.795 78.7353 116.714C77.5175 117.461 76.1804 118.236 74.7602 118.083C73.34 117.929 72.0376 116.328 72.7364 115.082C71.4501 115.941 71.1289 118.259 72.2261 119.349C72.8414 119.961 75.0244 119.813 75.7169 119.29C74.8902 121.721 74.4668 124.819 76.301 126.615C78.1352 128.412 81.0255 129.037 83.4379 128.16C83.0661 129.034 83.45 130.159 84.2788 130.624C85.1075 131.088 86.267 130.829 86.8195 130.056C87.2682 132.266 89.2698 134.066 91.5144 134.28C93.759 134.493 96.0634 133.101 96.9202 131.016C97.5842 133.12 99.3373 134.847 101.451 135.481C103.564 136.114 105.978 135.635 107.69 134.243C110.274 132.142 110.953 128.54 111.461 125.249C112.263 126.855 113.572 128.429 115.355 128.639C117.138 128.849 119.032 126.843 118.129 125.292C119.61 126.698 121.914 127.353 123.769 126.501C125.624 125.648 126.606 123.076 125.454 121.39C126.728 122.398 128.853 121.524 129.368 119.983C129.883 118.443 129.036 116.682 127.698 115.762C129.599 117.095 132.538 115.787 133.321 113.6C134.104 111.414 133.574 109.308 131.868 107.732C133.656 106.512 135.128 104.698 135.523 102.569Z" fill="#699415"/>
<path d="M113.007 73.0504C112.961 73.1659 112.926 73.2853 112.916 73.4101C112.95 73.2915 112.978 73.1706 113.007 73.0504Z" fill="#9DBB1D"/>
<path d="M137.215 85.3684C136.327 82.8643 133.354 81.2154 130.83 82.0445C131.826 80.7644 132.581 79.0765 132.052 77.5435C131.522 76.0102 129.179 75.231 128.226 76.5436C128.592 74.7999 127.533 72.8682 125.865 72.2396C124.198 71.6111 121.743 71.78 120.868 73.3317C121.199 72.2779 121.469 71.1553 121.231 70.0765C120.993 68.9977 120.104 67.9891 119 67.961C117.943 67.9341 117.072 68.7554 116.394 69.567C116.584 67.1526 116.205 64.4382 114.343 62.8885C112.702 61.5217 110.218 61.4538 108.306 62.4062C106.393 63.3586 105.021 65.1823 104.23 67.1671C104.418 65.5252 102.761 63.7882 101.138 63.4796C99.5147 63.171 97.748 64.2794 97.3204 65.8752C95.5053 63.6595 92.2568 62.9111 89.5018 63.6946C86.7468 64.478 85.1928 67.3641 84.5838 69.9271C83.8112 68.7141 81.3555 67.0543 79.322 68.153C78.0567 68.837 77.5245 70.5974 78.1561 71.8892C75.9041 70.9817 73.1448 71.9899 71.7164 73.9532C70.288 75.9166 70.1062 78.6193 70.9107 80.9099C69.2584 80.606 67.4578 81.5096 66.7145 83.016C65.9708 84.5225 66.3485 86.5014 67.5947 87.6278C66.5791 87.6095 65.6002 88.3602 65.354 89.3457C65.1078 90.3313 66.5518 92.1713 67.4566 92.6325C64.9478 93.4874 62.1367 95.2263 61.9685 97.8713C61.8003 100.516 63.3524 103.19 65.7324 104.357C64.2689 104.758 63.1928 106.267 63.2908 107.781C63.3887 109.295 65.5963 110.389 67.0992 110.598C67.0992 110.598 63.7004 108.423 66.4043 106.058C69.1078 103.692 71.1355 103.354 71.1355 103.354C71.1355 103.354 65.3903 103.016 65.7281 97.9466C66.066 92.8771 71.8112 94.2291 71.8112 94.2291C71.8112 94.2291 67.418 91.8635 68.0937 90.1737C68.7695 88.4839 72.1491 88.146 72.1491 88.146C72.1491 88.146 68.7695 86.1183 69.4457 84.4284C70.1214 82.7386 74.1772 83.4144 74.1772 83.4144C73.94 82.7304 73.6567 81.5162 73.4195 80.8323C73.0988 79.9072 72.8226 78.7542 73.5057 78.0531C73.9626 77.5841 74.716 77.5178 75.3391 77.7183C75.9622 77.9189 76.4866 78.3395 76.995 78.7515C76.931 77.9166 76.8678 77.066 77.0609 76.2513C77.2541 75.4367 77.7476 74.6485 78.5155 74.3145C79.3009 73.9727 80.2428 74.1682 80.9595 74.6364C81.6762 75.105 82.2026 75.812 82.6536 76.5401C82.9154 75.6263 83.0695 74.3239 83.7238 73.6341C84.1296 73.2065 84.8124 73.1476 85.3711 73.3352C85.9298 73.5229 86.3945 73.9119 86.8444 74.2927C87.0492 72.1202 86.7289 69.535 88.4109 68.144C89.478 67.2619 91.0878 67.2385 92.3262 67.8577C93.5646 68.4769 94.4612 69.6392 95.0371 70.8982C95.0203 70.1889 95.2135 69.4648 95.494 68.8132C95.7745 68.1616 96.4339 67.6161 97.1378 67.7043C97.535 67.7543 97.8834 67.9927 98.1819 68.2595C98.9985 68.9899 99.5658 69.9938 99.7706 71.0699C99.9887 69.9006 101.217 69.018 102.395 69.1842C103.573 69.3504 104.509 70.5389 104.395 71.7227C105.113 70.6009 105.949 69.5549 106.885 68.6072C107.599 67.8834 108.433 67.1873 109.439 67.0422C110.864 66.8366 112.266 67.8596 112.843 69.1784C113.37 70.3844 113.317 71.7636 113.006 73.0504C113.412 72.036 115.084 71.425 116.002 72.0317C117.024 72.7074 117.264 74.1987 116.784 75.3259C117.409 74.3976 118.91 74.2404 119.714 75.0192C120.517 75.798 120.407 77.3032 119.499 77.9571C121.439 76.947 124.076 76.0332 125.574 77.6263C126.941 79.0812 126.183 81.4324 125.352 83.2486C126.16 82.4702 127.622 82.535 128.358 83.3816C129.094 84.2279 128.955 85.6844 128.072 86.3766C129.629 85.7628 131.635 85.7293 132.738 86.9872C133.537 87.8978 133.634 89.263 133.291 90.4249C132.949 91.5868 132.23 92.5954 131.523 93.5794C133.413 93.0523 135.964 94.9532 135.379 96.826C136.384 96.5295 137.095 95.4534 136.974 94.4124C136.853 93.3715 135.914 92.4873 134.868 92.4288C137.008 90.8529 138.103 87.8725 137.215 85.3684Z" fill="#9DBB1D"/>
</svg>
