<svg width="200" height="200" viewBox="0 0 200 200" fill="none" xmlns="http://www.w3.org/2000/svg">
<rect width="200" height="200" fill="white"/>
<path d="M121.518 140.039C143.668 128.452 152.148 100.945 140.459 78.6051C128.77 56.257 101.342 47.5396 79.1918 59.1258C57.0418 70.7119 48.5622 98.2191 60.2514 120.559C71.9405 142.899 99.3685 151.625 121.518 140.039Z" fill="url(#paint0_radial_11_95623)"/>
<path d="M120.221 114.545C125.134 108.125 125.031 102.879 124.294 95.3347C124.104 93.3456 123.953 91.3485 123.581 89.3831C123.256 87.6635 123.28 86.0626 121.473 85.3652C118.731 84.3033 117.091 84.4777 117.701 82.0209C118.026 80.7133 114.293 78.6529 113.413 77.6147C109.578 73.0659 105.465 71.1718 99.7034 75.0709C96.9297 76.949 98.6097 72.7013 95.2813 70.9578C91.8895 69.1747 87.4674 68.3189 83.5367 69.4125C77.5296 71.0846 73.6544 74.1516 74.4627 80.2299C74.7559 82.4568 72.7509 83.7723 70.7539 83.2255C66.7439 82.124 62.409 90.7145 61.6403 95.8894C61.2599 98.473 61.5214 101.08 62.1079 103.521C63.0588 107.507 65.4997 111.446 68.0039 113.887C69.1214 114.973 68.1545 115.931 68.099 117.12C67.7028 125.647 81.1037 128.675 90.2649 129.641C102.128 130.901 117.091 127.312 119.674 116.486C119.833 115.884 119.722 115.202 120.221 114.545Z" fill="#64A019"/>
<mask id="mask0_11_95623" style="mask-type:luminance" maskUnits="userSpaceOnUse" x="61" y="68" width="64" height="62">
<path d="M120.221 114.545C125.134 108.125 125.031 102.879 124.294 95.3347C124.104 93.3456 123.953 91.3485 123.581 89.3831C123.256 87.6635 123.28 86.0626 121.473 85.3652C118.731 84.3033 117.091 84.4777 117.701 82.0209C118.026 80.7133 114.293 78.6529 113.413 77.6147C109.578 73.0659 105.465 71.1718 99.7034 75.0709C96.9297 76.949 98.6097 72.7013 95.2813 70.9578C91.8895 69.1747 87.4674 68.3189 83.5367 69.4125C77.5296 71.0846 73.6544 74.1516 74.4627 80.2299C74.7559 82.4568 72.7509 83.7723 70.7539 83.2255C66.7439 82.124 62.409 90.7145 61.6403 95.8894C61.2599 98.473 61.5214 101.08 62.1079 103.521C63.0588 107.507 65.4997 111.446 68.0039 113.887C69.1214 114.973 68.1545 115.931 68.099 117.12C67.7028 125.647 81.1037 128.675 90.2649 129.641C102.128 130.901 117.091 127.312 119.674 116.486C119.833 115.884 119.722 115.202 120.221 114.545Z" fill="white"/>
</mask>
<g mask="url(#mask0_11_95623)">
<path opacity="0.92" d="M94.8717 100.081C109.691 92.3306 118.551 80.0392 114.676 72.6294C110.801 65.2117 95.6404 65.4891 80.8288 73.2396C66.0172 80.9901 57.1493 93.2816 61.0246 100.691C64.8998 108.101 80.0522 107.832 94.8717 100.081Z" fill="url(#paint1_radial_11_95623)"/>
</g>
<path d="M67.1083 111.509C66.6407 119.584 69.668 123.872 74.5022 129.704C75.7781 131.242 77.0223 132.819 78.425 134.237C79.6534 135.482 80.533 136.821 82.4191 136.385C85.2879 135.727 86.548 134.665 87.4197 137.043C87.8873 138.311 92.1271 137.922 93.4426 138.295C99.1723 139.912 103.634 139.175 106.217 132.716C107.462 129.601 108.452 134.063 112.185 133.643C115.989 133.215 120.141 131.448 122.773 128.341C126.806 123.586 128.304 118.871 124.223 114.291C122.733 112.61 123.652 110.399 125.618 109.734C129.556 108.394 128.328 98.8529 126.069 94.1376C124.936 91.7839 123.256 89.771 121.402 88.0751C118.382 85.3093 114.15 83.4153 110.711 82.7972C109.181 82.5198 109.435 81.1884 108.817 80.174C104.363 72.8831 91.5723 77.8996 83.4414 82.2266C72.9093 87.8374 62.5357 99.1937 66.4585 109.607C66.6804 110.185 67.1479 110.693 67.1083 111.509Z" fill="#639B13"/>
<mask id="mask1_11_95623" style="mask-type:luminance" maskUnits="userSpaceOnUse" x="65" y="76" width="64" height="63">
<path d="M67.4793 111.311C67.0117 119.386 70.0311 123.674 74.8732 129.506C76.1491 131.044 77.3933 132.621 78.796 134.039C80.0323 135.283 80.904 136.623 82.7901 136.187C85.6589 135.529 86.919 134.467 87.7907 136.845C88.2583 138.113 92.4981 137.724 93.8136 138.089C99.5433 139.706 104.005 138.969 106.588 132.51C107.833 129.395 108.823 133.857 112.556 133.437C116.36 133.009 120.512 131.242 123.151 128.135C127.185 123.38 128.675 118.665 124.602 114.084C123.112 112.404 124.031 110.193 125.996 109.528C129.935 108.188 128.707 98.6468 126.448 93.9316C125.315 91.5779 123.635 89.565 121.78 87.869C118.761 85.1033 114.529 83.2092 111.09 82.5911C109.56 82.3137 109.814 80.9823 109.196 79.968C104.742 72.6771 91.9513 77.6935 83.8203 82.0205C73.2882 87.6313 62.9146 98.9876 66.8374 109.401C67.0593 109.987 67.5268 110.495 67.4793 111.311Z" fill="white"/>
</mask>
<g mask="url(#mask1_11_95623)">
<path opacity="0.92" d="M118.275 125.417C129.053 111.437 130.384 94.3909 121.247 87.3616C112.117 80.3243 95.9823 85.9589 85.2045 99.9384C74.4346 113.918 73.0953 130.956 82.2327 137.994C91.3621 145.031 107.497 139.396 118.275 125.417Z" fill="url(#paint2_radial_11_95623)"/>
</g>
<path d="M114.506 97.8388C114.434 97.6961 114.339 97.5614 114.268 97.4267C114.102 97.1097 113.896 96.8085 113.61 96.6025C113.388 96.444 113.127 96.3489 112.937 96.1666C111.597 94.859 112.057 93.9873 111.542 92.9412C111.383 92.6084 110.892 92.6005 110.543 92.4578C109.703 92.1012 110.401 90.2388 109.577 89.8822C109.378 89.795 109.703 89.375 109.188 88.9392C108.356 88.2339 107.12 88.6776 105.939 88.4795C105.915 88.4795 105.892 88.4557 105.892 88.4716C105.868 88.6301 106.082 88.5033 105.487 88.4161C104.83 88.3131 104.045 88.6142 103.316 88.4954C101.438 88.1784 100.796 87.0372 99.4882 85.9039C97.4357 84.1208 91.4049 80.9033 88.8134 84.5805C88.2825 85.3333 87.1809 85.9594 86.2379 85.5473C81.9584 83.685 77.7345 87.8693 74.3981 90.3022C73.5977 90.8887 72.9082 91.7683 72.7022 92.7352C72.5754 93.3137 73.0984 93.7971 73.5501 94.3122C74.0732 94.9145 73.4868 95.707 73.4868 96.4836C73.4868 97.2523 74.0019 97.9497 73.7562 99.0671C73.3996 100.644 71.7354 101.31 71.2995 103.148C71.0459 104.234 71.6878 105.494 71.4421 106.564C71.2282 107.507 70.8161 108.014 70.2296 108.783C70.0315 109.037 69.7383 109.195 69.6749 109.441C69.3658 110.526 69.9285 111.787 70.6021 112.722C71.8622 114.473 74.303 115.384 74.8657 117.564C75.0083 118.118 74.4457 119.062 74.6517 119.838C74.9211 120.845 75.8959 121.59 76.8073 122.057C79.2085 123.293 80.0248 122.311 81.8396 124.347C82.7113 125.322 83.1392 122.913 83.4008 122.493C84.5974 120.567 85.9684 119.696 88.2349 119.648C89.495 119.624 90.3826 120.829 90.3905 121.986C90.4063 123.84 88.433 125.893 89.5267 127.327C89.8674 127.771 90.4777 127.819 90.9769 128.064C94.7254 129.863 99.3931 127.509 103.332 125.409C103.744 125.187 104.132 124.942 104.521 124.696C106.795 123.254 109.672 120.924 108.863 119.371C108.079 117.865 109.22 116.137 110.94 116.066C111.098 116.058 111.352 116.153 111.415 116.01C112.057 114.394 110.837 112.73 112.556 112.27C112.913 112.175 113.896 112.484 114.538 111.929C118.112 108.838 116.622 102.269 114.506 97.8388Z" fill="#76AE10"/>
<path d="M80.3441 92.0217C79.9795 92.5923 79.2425 93.2262 79.2425 93.7651C79.2425 94.0821 79.4803 94.621 79.512 94.835C79.3139 94.8825 78.664 94.9459 78.4897 95.0807C77.9429 95.5086 77.6893 96.3803 77.3406 96.9668C77.1662 97.26 77.2138 97.26 77.5625 97.2838C78.2361 97.3234 79.2188 97.3155 79.7576 97.0223C80.3282 96.7132 80.5343 95.9841 80.352 95.469C80.8751 95.2629 81.4298 94.9301 81.4615 94.2485C81.4932 93.5987 81.1128 92.6477 80.8037 91.9979C80.6611 91.665 80.5264 91.7364 80.3441 92.0217Z" fill="#0D8234"/>
<path d="M78.6416 111.731C78.7604 111.129 79.1804 110.336 78.9982 109.877C78.8952 109.607 78.5148 109.227 78.4117 109.052C78.5623 108.941 79.1012 108.68 79.2042 108.498C79.5291 107.951 79.4578 107.119 79.5608 106.508C79.6163 106.199 79.5688 106.215 79.2755 106.318C78.6891 106.508 77.857 106.841 77.4845 107.269C77.0962 107.721 77.1675 108.41 77.4925 108.791C77.12 109.14 76.7554 109.607 76.9456 110.201C77.1279 110.764 77.7777 111.454 78.2453 111.905C78.491 112.143 78.5782 112.04 78.6416 111.731Z" fill="#0D8234"/>
<path d="M77.2384 110.304C77.3494 109.655 77.7852 108.799 77.5792 108.315C77.4603 108.03 77.0403 107.626 76.9294 107.452C77.0879 107.333 77.6584 107.032 77.7615 106.841C78.1022 106.247 78.0071 105.359 78.1022 104.702C78.1498 104.369 78.1022 104.385 77.7852 104.496C77.1592 104.717 76.2716 105.09 75.8912 105.558C75.487 106.049 75.5742 106.794 75.9308 107.19C75.5346 107.57 75.1542 108.086 75.384 108.712C75.598 109.314 76.3033 110.035 76.8184 110.503C77.0879 110.748 77.183 110.637 77.2384 110.304Z" fill="#0D8234"/>
<path d="M71.8526 102.594C72.3677 103.077 72.8749 103.957 73.4296 104.06C73.7545 104.123 74.3489 103.981 74.5787 103.989C74.5946 104.203 74.5312 104.876 74.6342 105.09C74.967 105.74 75.815 106.168 76.346 106.635C76.6154 106.873 76.6233 106.818 76.7105 106.469C76.8769 105.78 77.0592 104.781 76.869 104.163C76.663 103.513 75.9497 103.164 75.3871 103.252C75.2761 102.681 75.0384 102.039 74.3489 101.873C73.6911 101.714 72.6371 101.92 71.916 102.11C71.5435 102.198 71.591 102.348 71.8526 102.594Z" fill="#0D8234"/>
<path d="M74.6252 94.6372C75.1404 95.1444 75.6475 96.0637 76.2102 96.1826C76.5431 96.2539 77.1612 96.1271 77.391 96.135C77.3989 96.3569 77.3197 97.0464 77.4227 97.2683C77.7476 97.9419 78.6114 98.4015 79.1424 98.9008C79.4118 99.1544 79.4198 99.0989 79.5228 98.7423C79.713 98.0449 79.927 97.0147 79.7447 96.3728C79.5545 95.6991 78.8254 95.3267 78.2469 95.398C78.1518 94.8036 77.922 94.1459 77.2167 93.9557C76.543 93.7734 75.4573 93.9636 74.7124 94.1379C74.3241 94.2251 74.3637 94.3757 74.6252 94.6372Z" fill="#0D8234"/>
<path d="M80.4157 93.591C79.8372 93.8921 78.91 94.0665 78.6564 94.5103C78.5058 94.7718 78.4424 95.3345 78.3711 95.5326C78.1809 95.4771 77.6103 95.2156 77.3963 95.2473C76.7307 95.3345 76.0967 95.9447 75.5261 96.2617C75.2408 96.4202 75.2804 96.4439 75.5578 96.6262C76.1046 96.9828 76.9208 97.4504 77.5152 97.4742C78.1413 97.498 78.6643 96.9828 78.7673 96.4677C79.2983 96.547 79.9323 96.539 80.2889 95.9843C80.6297 95.4613 80.7723 94.4786 80.8357 93.7891C80.8516 93.4404 80.7089 93.4325 80.4157 93.591Z" fill="#0D8234"/>
<path d="M82.8435 91.0391C82.3681 91.4353 81.5359 91.784 81.3854 92.2516C81.2982 92.5289 81.3457 93.0678 81.322 93.266C81.1318 93.2501 80.5453 93.1233 80.3551 93.1946C79.7529 93.4165 79.2774 94.106 78.8098 94.5181C78.572 94.7241 78.6196 94.74 78.9128 94.8509C79.4913 95.0728 80.3551 95.3423 80.9178 95.2472C81.5042 95.1442 81.8926 94.5577 81.8846 94.0505C82.3997 94.0188 82.9862 93.8841 83.2081 93.2977C83.4221 92.7429 83.3587 91.7919 83.2715 91.1421C83.2239 90.8172 83.0892 90.841 82.8435 91.0391Z" fill="#0D8234"/>
<path d="M80.7017 93.2341C81.0029 92.5843 81.7003 91.8156 81.621 91.245C81.5814 90.9121 81.2565 90.3733 81.1851 90.1593C81.3912 90.08 82.0648 89.9295 82.2312 89.7551C82.7543 89.2321 82.9048 88.2732 83.1901 87.6154C83.3328 87.2826 83.2773 87.2905 82.9207 87.3143C82.1995 87.3697 81.1693 87.5044 80.6383 87.8848C80.0757 88.289 79.9568 89.0894 80.2262 89.6045C79.7032 89.8898 79.1643 90.3178 79.2198 91.0389C79.2752 91.7284 79.8062 92.6873 80.2104 93.3213C80.4164 93.6541 80.5511 93.567 80.7017 93.2341Z" fill="#0D8234"/>
<path d="M88.0958 92.0459C87.4064 91.8082 86.5505 91.19 85.9799 91.3247C85.647 91.404 85.1399 91.7923 84.9259 91.8795C84.8229 91.6814 84.593 91.0157 84.4028 90.8651C83.8164 90.3896 82.8258 90.3421 82.1284 90.1202C81.7718 90.0092 81.7876 90.0647 81.851 90.4292C81.9778 91.1504 82.2394 92.1806 82.6752 92.6799C83.1428 93.2109 83.967 93.2426 84.4662 92.9176C84.8149 93.4169 85.3063 93.9162 86.0354 93.7815C86.7248 93.6547 87.6362 93.0127 88.2385 92.5293C88.5475 92.2916 88.4445 92.1648 88.0958 92.0459Z" fill="#0D8234"/>
<path d="M85.6487 84.4779C85.712 85.2228 85.4902 86.2689 85.8547 86.7444C86.0687 87.0217 86.6313 87.3308 86.8136 87.4972C86.671 87.6716 86.1479 88.1629 86.0845 88.4007C85.8864 89.1456 86.2509 90.0807 86.3381 90.8257C86.3777 91.1981 86.4253 91.1665 86.7344 90.9525C87.3525 90.5325 88.2005 89.8668 88.4857 89.2486C88.7869 88.5988 88.4699 87.8142 87.9627 87.4893C88.2797 86.9663 88.5412 86.2927 88.1133 85.6745C87.7091 85.0881 86.7264 84.5096 86.029 84.145C85.6804 83.9548 85.617 84.1054 85.6487 84.4779Z" fill="#0D8234"/>
<path d="M95.9757 90.8489C95.318 90.9202 94.3829 90.7379 93.9708 91.0628C93.7251 91.253 93.4636 91.7602 93.3209 91.9187C93.1624 91.7999 92.7186 91.3402 92.5126 91.2847C91.8548 91.1262 91.0306 91.4591 90.3729 91.5463C90.04 91.5938 90.0717 91.6255 90.2619 91.9029C90.6423 92.4418 91.2446 93.1867 91.7914 93.4245C92.3699 93.6781 93.0594 93.3928 93.3447 92.941C93.8123 93.2184 94.4145 93.4403 94.9534 93.052C95.4685 92.6874 95.9678 91.8078 96.2769 91.1897C96.4354 90.8727 96.3086 90.8172 95.9757 90.8489Z" fill="#0D8234"/>
<path d="M98.8931 85.6585C98.3146 85.8724 97.427 85.92 97.1259 86.3083C96.9515 86.5381 96.8247 87.0533 96.7296 87.2276C96.5632 87.1563 96.056 86.8393 95.85 86.8393C95.216 86.8393 94.5424 87.3306 93.9718 87.5604C93.6786 87.6793 93.7182 87.7031 93.9559 87.9091C94.4235 88.3133 95.1367 88.8522 95.6915 88.9473C96.2779 89.0424 96.8327 88.6303 96.9832 88.1548C97.4746 88.2974 98.061 88.3608 98.4652 87.8933C98.8456 87.4416 99.1071 86.5381 99.2418 85.9041C99.3211 85.5713 99.1863 85.5475 98.8931 85.6585Z" fill="#0D8234"/>
<path d="M99.1693 92.0379C99.1534 91.3722 99.407 90.4371 99.1059 89.9933C98.9315 89.7318 98.4402 89.4227 98.2896 89.2642C98.4244 89.1137 98.9236 88.7016 98.9949 88.4955C99.2089 87.8378 98.9395 86.9819 98.8998 86.3083C98.884 85.9675 98.8364 85.9992 98.5432 86.1735C97.9647 86.5143 97.1643 87.0691 96.879 87.6079C96.5778 88.1785 96.8156 88.8918 97.2515 89.2167C96.9345 89.6763 96.665 90.2628 97.0137 90.8334C97.3466 91.3802 98.1945 91.9587 98.7968 92.3232C99.1059 92.5055 99.1772 92.3787 99.1693 92.0379Z" fill="#0D8234"/>
<path d="M104.188 98.7424C103.942 98.1084 103.871 97.1258 103.435 96.8008C103.181 96.6106 102.603 96.4759 102.405 96.3808C102.484 96.1906 102.825 95.628 102.817 95.3981C102.801 94.6928 102.246 93.9637 101.985 93.3297C101.85 93.0128 101.818 93.0524 101.596 93.3218C101.161 93.8449 100.574 94.6453 100.487 95.2634C100.392 95.9133 100.859 96.5235 101.39 96.682C101.24 97.2288 101.176 97.8786 101.715 98.3224C102.223 98.7345 103.229 99.004 103.934 99.1466C104.283 99.2179 104.315 99.0674 104.188 98.7424Z" fill="#0D8234"/>
<path d="M111.881 94.6135C111.334 94.9939 110.43 95.2871 110.224 95.7705C110.106 96.0558 110.113 96.6343 110.066 96.8403C109.868 96.8086 109.258 96.6185 109.044 96.6739C108.386 96.8483 107.823 97.5457 107.292 97.9419C107.023 98.14 107.07 98.1638 107.371 98.3064C107.966 98.5917 108.853 98.9563 109.456 98.9008C110.09 98.8453 110.549 98.2589 110.581 97.72C111.128 97.7359 111.762 97.6408 112.047 97.0385C112.324 96.4679 112.34 95.4535 112.309 94.7561C112.301 94.4153 112.158 94.4233 111.881 94.6135Z" fill="#0D8234"/>
<path d="M113.091 101.263C112.679 100.755 112.314 99.8757 111.823 99.7093C111.53 99.6142 110.959 99.6618 110.753 99.6301C110.769 99.432 110.911 98.8138 110.84 98.6078C110.618 97.9659 109.889 97.4666 109.461 96.9673C109.239 96.7137 109.231 96.7613 109.105 97.0703C108.859 97.6806 108.566 98.584 108.669 99.1784C108.772 99.8044 109.39 100.217 109.921 100.209C109.945 100.755 110.087 101.366 110.705 101.611C111.292 101.841 112.298 101.786 112.98 101.706C113.321 101.667 113.305 101.524 113.091 101.263Z" fill="#0D8234"/>
<path d="M107.835 102.452C108.08 103.078 108.167 104.037 108.603 104.354C108.857 104.536 109.428 104.663 109.618 104.758C109.546 104.948 109.214 105.503 109.221 105.725C109.245 106.414 109.8 107.127 110.069 107.745C110.204 108.055 110.236 108.015 110.45 107.753C110.87 107.23 111.433 106.438 111.52 105.828C111.607 105.186 111.131 104.599 110.616 104.441C110.751 103.902 110.806 103.26 110.283 102.832C109.784 102.428 108.786 102.182 108.088 102.047C107.732 101.992 107.708 102.135 107.835 102.452Z" fill="#0D8234"/>
<path d="M108.875 110.741C108.257 110.868 107.361 110.796 106.996 111.145C106.783 111.351 106.584 111.858 106.466 112.025C106.307 111.922 105.839 111.533 105.633 111.502C104.991 111.414 104.247 111.811 103.628 111.961C103.319 112.032 103.351 112.072 103.565 112.31C103.977 112.785 104.619 113.427 105.166 113.602C105.744 113.784 106.362 113.443 106.584 112.983C107.06 113.197 107.646 113.348 108.122 112.928C108.574 112.532 108.962 111.652 109.192 111.034C109.318 110.717 109.192 110.677 108.875 110.741Z" fill="#0D8234"/>
<path d="M101.44 117.785C101.971 118.411 102.43 119.497 103.056 119.695C103.421 119.806 104.134 119.735 104.396 119.767C104.38 120.012 104.213 120.789 104.309 121.043C104.602 121.835 105.521 122.453 106.068 123.063C106.345 123.372 106.361 123.317 106.512 122.929C106.805 122.16 107.154 121.027 107.011 120.29C106.868 119.513 106.092 119.006 105.426 119.03C105.378 118.356 105.196 117.587 104.42 117.294C103.682 117.017 102.438 117.112 101.574 117.231C101.139 117.286 101.17 117.46 101.44 117.785Z" fill="#0D8234"/>
<path d="M96.8676 117.041C96.5506 118.048 95.7027 119.3 95.9166 120.108C96.0434 120.584 96.622 121.297 96.7567 121.606C96.4793 121.764 95.5283 122.121 95.3144 122.398C94.6566 123.262 94.6328 124.681 94.3475 125.695C94.2049 126.21 94.2762 126.186 94.7993 126.075C95.8295 125.854 97.3035 125.449 98.0009 124.792C98.7458 124.102 98.7538 122.913 98.2703 122.208C98.9677 121.693 99.673 120.956 99.4511 119.918C99.2372 118.935 98.2703 117.643 97.5571 116.795C97.2005 116.375 97.0261 116.534 96.8676 117.041Z" fill="#0D8234"/>
<path d="M92.4905 116.573C91.8407 116.922 90.7946 117.136 90.5093 117.651C90.3429 117.952 90.2795 118.594 90.2003 118.816C89.9863 118.761 89.3364 118.467 89.0908 118.507C88.3379 118.618 87.6247 119.315 86.9828 119.688C86.6578 119.878 86.7054 119.902 87.0224 120.1C87.6484 120.496 88.5836 121.011 89.2572 121.027C89.9704 121.043 90.5569 120.449 90.6599 119.862C91.2622 119.949 91.9754 119.926 92.3717 119.292C92.7521 118.689 92.8947 117.572 92.9502 116.795C92.9819 116.399 92.8234 116.391 92.4905 116.573Z" fill="#0D8234"/>
<path d="M82.246 114.901C82.3887 115.583 82.3015 116.581 82.6898 116.977C82.9196 117.207 83.4744 117.437 83.6566 117.564C83.5457 117.746 83.1177 118.253 83.0781 118.483C82.983 119.196 83.4189 120.02 83.5853 120.694C83.6645 121.035 83.7042 120.995 83.9736 120.765C84.4967 120.306 85.2099 119.6 85.408 118.998C85.6141 118.364 85.2337 117.675 84.7265 117.429C84.9642 116.906 85.1307 116.256 84.671 115.733C84.2272 115.234 83.2604 114.806 82.5788 114.544C82.2222 114.418 82.1747 114.56 82.246 114.901Z" fill="#0D8234"/>
<path d="M83.8933 111.636C84.139 112.207 84.2341 113.094 84.6461 113.372C84.8839 113.538 85.4149 113.633 85.5971 113.72C85.5337 113.895 85.2405 114.418 85.2564 114.624C85.296 115.258 85.8269 115.908 86.0885 116.47C86.2232 116.756 86.247 116.716 86.4372 116.47C86.8176 115.979 87.3168 115.234 87.3802 114.671C87.4436 114.077 86.9919 113.546 86.5085 113.419C86.6194 112.92 86.6591 112.326 86.1598 111.945C85.6843 111.589 84.765 111.383 84.1231 111.28C83.7823 111.208 83.7665 111.343 83.8933 111.636Z" fill="#0D8234"/>
<path d="M76.1575 113.459C76.2447 114.109 76.0941 115.036 76.427 115.432C76.6251 115.67 77.1323 115.916 77.2908 116.05C77.1798 116.209 76.7361 116.661 76.6885 116.875C76.5459 117.532 76.9025 118.341 77.0055 118.983C77.061 119.307 77.0927 119.276 77.3621 119.078C77.8852 118.681 78.6063 118.071 78.8282 117.516C79.066 116.93 78.7569 116.264 78.2972 115.995C78.5588 115.519 78.7569 114.925 78.3607 114.402C77.9803 113.903 77.1006 113.435 76.4745 113.142C76.1655 112.999 76.11 113.134 76.1575 113.459Z" fill="#0D8234"/>
<path d="M117.194 114.758C117.392 113.76 118.081 112.46 117.788 111.699C117.614 111.256 116.988 110.629 116.821 110.344C117.075 110.17 117.954 109.726 118.129 109.433C118.668 108.529 118.549 107.158 118.723 106.152C118.81 105.645 118.739 105.668 118.248 105.835C117.273 106.152 115.902 106.699 115.3 107.404C114.658 108.149 114.777 109.29 115.315 109.916C114.689 110.487 114.095 111.263 114.42 112.246C114.729 113.173 115.791 114.315 116.568 115.052C116.94 115.424 117.091 115.265 117.194 114.758Z" fill="#0D8234"/>
<path d="M118.563 118.491C118.753 117.413 119.466 116.002 119.133 115.202C118.935 114.726 118.254 114.069 118.064 113.767C118.325 113.569 119.26 113.078 119.442 112.761C120.005 111.778 119.839 110.312 120.005 109.227C120.084 108.68 120.013 108.711 119.482 108.894C118.444 109.258 116.986 109.876 116.352 110.645C115.678 111.461 115.829 112.682 116.423 113.34C115.765 113.966 115.147 114.814 115.512 115.852C115.86 116.842 117.033 118.039 117.881 118.816C118.309 119.22 118.468 119.038 118.563 118.491Z" fill="#0D8234"/>
<path d="M113.394 119.101C114.242 119.894 115.082 121.352 115.994 121.518C116.525 121.621 117.515 121.392 117.888 121.4C117.912 121.748 117.809 122.866 117.983 123.214C118.53 124.284 119.932 124.989 120.804 125.766C121.248 126.154 121.264 126.067 121.399 125.497C121.676 124.363 121.977 122.707 121.66 121.693C121.327 120.623 120.146 120.044 119.219 120.187C119.045 119.244 118.649 118.19 117.507 117.921C116.422 117.659 114.678 118 113.49 118.309C112.895 118.459 112.967 118.705 113.394 119.101Z" fill="#0D8234"/>
<path d="M108.331 127.407C109.187 128.247 110.011 129.761 110.947 129.959C111.493 130.078 112.516 129.864 112.896 129.88C112.912 130.236 112.777 131.385 112.952 131.75C113.49 132.859 114.909 133.628 115.789 134.444C116.232 134.856 116.248 134.769 116.415 134.183C116.732 133.026 117.08 131.33 116.779 130.276C116.462 129.166 115.266 128.54 114.307 128.667C114.148 127.692 113.768 126.599 112.603 126.29C111.493 125.996 109.694 126.305 108.466 126.591C107.832 126.733 107.895 126.979 108.331 127.407Z" fill="#0D8234"/>
<path d="M111.762 122.628C110.803 123.128 109.282 123.413 108.854 124.15C108.6 124.586 108.497 125.513 108.378 125.838C108.069 125.751 107.118 125.315 106.77 125.362C105.668 125.513 104.622 126.511 103.679 127.034C103.203 127.304 103.275 127.344 103.726 127.637C104.63 128.231 105.985 129 106.968 129.032C108.006 129.071 108.87 128.223 109.028 127.367C109.908 127.502 110.946 127.486 111.532 126.575C112.095 125.711 112.333 124.086 112.428 122.953C112.483 122.391 112.254 122.375 111.762 122.628Z" fill="#0D8234"/>
<path d="M104.557 128.001C103.765 128.659 102.402 129.23 102.148 130.006C101.997 130.466 102.093 131.354 102.045 131.678C101.736 131.655 100.769 131.441 100.444 131.56C99.4456 131.916 98.669 133.065 97.8923 133.747C97.504 134.088 97.5753 134.111 98.0588 134.302C99.0177 134.674 100.436 135.118 101.363 134.951C102.338 134.777 102.972 133.81 102.956 132.978C103.804 132.931 104.771 132.701 105.136 131.734C105.484 130.815 105.381 129.246 105.247 128.176C105.175 127.629 104.953 127.669 104.557 128.001Z" fill="#0D8234"/>
<path d="M97.0877 136.283C97.5949 135.205 98.7361 133.937 98.6093 133.002C98.5379 132.455 98.007 131.567 97.896 131.203C98.2289 131.068 99.3463 130.815 99.6236 130.537C100.487 129.673 100.733 128.088 101.209 127.003C101.446 126.448 101.359 126.464 100.757 126.503C99.5682 126.591 97.8722 126.82 96.9847 127.447C96.0575 128.104 95.8673 129.428 96.2952 130.284C95.4314 130.751 94.5359 131.464 94.631 132.661C94.7182 133.794 95.6057 135.371 96.2714 136.433C96.6201 136.972 96.8341 136.83 97.0877 136.283Z" fill="#0D8234"/>
<path d="M99.5251 131.234C98.3839 130.838 96.9733 129.815 96.0302 130.045C95.4834 130.172 94.6434 130.814 94.2867 130.965C94.1203 130.64 93.7399 129.538 93.4309 129.284C92.4561 128.508 90.8315 128.421 89.6745 128.056C89.088 127.874 89.1118 127.961 89.2228 128.563C89.4367 129.752 89.8568 131.456 90.5858 132.28C91.3546 133.152 92.7176 133.199 93.5418 132.668C94.1124 133.493 94.9287 134.317 96.1253 134.095C97.2665 133.881 98.7722 132.819 99.7707 132.026C100.27 131.638 100.104 131.44 99.5251 131.234Z" fill="#0D8234"/>
<path d="M86.3473 128.421C86.4582 129.65 86.0937 131.385 86.688 132.162C87.0367 132.622 87.9798 133.137 88.2651 133.406C88.0352 133.699 87.1635 134.508 87.0605 134.904C86.7356 136.132 87.3379 137.678 87.4805 138.906C87.5518 139.524 87.6232 139.469 88.1383 139.12C89.1527 138.422 90.5633 137.329 91.0308 136.307C91.5222 135.229 90.9991 133.937 90.167 133.398C90.6901 132.526 91.1259 131.425 90.4206 130.403C89.747 129.436 88.1383 128.469 86.9812 127.875C86.4107 127.558 86.2918 127.795 86.3473 128.421Z" fill="#0D8234"/>
<path d="M86.8752 122.818C85.7895 122.929 84.2521 122.635 83.5705 123.174C83.1743 123.491 82.7305 124.331 82.4927 124.585C82.2312 124.387 81.5021 123.626 81.1534 123.539C80.0598 123.269 78.7047 123.824 77.6189 123.967C77.0721 124.038 77.1197 124.101 77.4446 124.553C78.0707 125.441 79.0613 126.669 79.9726 127.073C80.9315 127.493 82.0648 127.018 82.5324 126.273C83.309 126.725 84.2917 127.097 85.1872 126.455C86.0351 125.853 86.8673 124.411 87.3744 123.38C87.636 122.857 87.422 122.762 86.8752 122.818Z" fill="#0D8234"/>
<path d="M74.0817 126.511C74.3195 127.502 74.2244 128.968 74.8029 129.53C75.1436 129.863 75.9758 130.172 76.2373 130.363C76.0867 130.624 75.4686 131.393 75.4289 131.726C75.3101 132.764 75.9837 133.96 76.2452 134.943C76.3799 135.442 76.4275 135.387 76.8079 135.038C77.5607 134.349 78.5751 133.287 78.8366 132.391C79.114 131.448 78.5355 130.458 77.7826 130.117C78.1075 129.34 78.3294 128.389 77.6321 127.636C76.9664 126.923 75.532 126.329 74.5255 125.98C74.0262 125.798 73.9628 126.012 74.0817 126.511Z" fill="#0D8234"/>
<path d="M73.1272 129.222C73.0955 128.112 73.5155 126.575 73.0242 125.846C72.7389 125.418 71.9226 124.902 71.677 124.641C71.8989 124.395 72.723 123.714 72.8419 123.365C73.1985 122.279 72.7468 120.861 72.6834 119.759C72.6517 119.197 72.5804 119.244 72.097 119.537C71.146 120.108 69.8225 121.011 69.355 121.899C68.8557 122.842 69.252 124.023 69.9731 124.554C69.4501 125.307 69.0063 126.273 69.5848 127.224C70.1316 128.136 71.5264 129.079 72.5328 129.681C73.0242 129.998 73.1431 129.784 73.1272 129.222Z" fill="#0D8234"/>
<path d="M73.8301 115.313C73.4259 114.259 73.307 112.642 72.5859 112.104C72.1659 111.787 71.207 111.573 70.882 111.406C71.0088 111.089 71.5715 110.162 71.5636 109.789C71.5398 108.632 70.6205 107.42 70.1847 106.374C69.9628 105.843 69.9152 105.914 69.5507 106.358C68.8295 107.222 67.8706 108.545 67.7121 109.56C67.5536 110.63 68.3302 111.636 69.202 111.905C68.9563 112.801 68.8533 113.887 69.7329 114.608C70.565 115.297 72.2293 115.733 73.3942 115.971C73.9886 116.09 74.0361 115.852 73.8301 115.313Z" fill="#0D8234"/>
<path d="M67.5362 103.228C66.6407 103.854 65.1429 104.337 64.8021 105.146C64.604 105.613 64.6199 106.564 64.5406 106.913C64.2157 106.865 63.2092 106.548 62.8605 106.643C61.7748 106.937 60.8476 108.086 59.968 108.736C59.5242 109.068 59.5955 109.092 60.0948 109.338C61.0774 109.813 62.5435 110.416 63.5421 110.321C64.5882 110.225 65.3489 109.251 65.4044 108.371C66.3079 108.395 67.3539 108.236 67.8294 107.246C68.2811 106.303 68.3049 104.631 68.2653 103.481C68.2257 102.895 67.9879 102.911 67.5362 103.228Z" fill="#0D8234"/>
<path d="M65.2962 102.752C64.6146 101.912 64.0203 100.462 63.1961 100.192C62.7127 100.034 61.7696 100.121 61.4289 100.066C61.4526 99.7408 61.6904 98.7185 61.5715 98.3777C61.199 97.3237 59.9945 96.4916 59.2891 95.6674C58.9325 95.2474 58.9008 95.3266 58.7027 95.8417C58.3065 96.8561 57.8151 98.346 57.9815 99.3287C58.1559 100.359 59.1703 101.04 60.0499 101.025C60.0975 101.92 60.3273 102.942 61.3417 103.339C62.3085 103.719 63.9648 103.624 65.0981 103.489C65.6766 103.41 65.637 103.18 65.2962 102.752Z" fill="#0D8234"/>
<path d="M65.1841 87.9647C65.5962 88.9949 65.7309 90.5878 66.4441 91.1029C66.8642 91.4041 67.8072 91.6101 68.1242 91.7686C67.9974 92.0777 67.4585 93.0049 67.4744 93.3695C67.514 94.5106 68.4333 95.6914 68.8692 96.7058C69.091 97.2209 69.1386 97.1496 69.4952 96.7137C70.1926 95.8499 71.1198 94.5423 71.2625 93.5438C71.4051 92.4898 70.6285 91.5071 69.7647 91.2614C69.9945 90.3739 70.0817 89.3119 69.2099 88.6145C68.3778 87.9488 66.7374 87.5447 65.5883 87.3228C65.0097 87.2039 64.978 87.4416 65.1841 87.9647Z" fill="#0D8234"/>
<path d="M81.2759 84.1208C80.2615 84.3347 78.7716 84.2079 78.1773 84.7864C77.8286 85.1272 77.4957 85.9673 77.2976 86.2367C77.0281 86.0703 76.2674 85.4284 75.9266 85.3808C74.8647 85.2382 73.6284 85.8959 72.6219 86.1416C72.1068 86.2684 72.1623 86.3239 72.511 86.7201C73.2004 87.5047 74.2545 88.5666 75.1579 88.8519C76.1089 89.153 77.1391 88.5904 77.5036 87.8375C78.2882 88.1941 79.255 88.4398 80.0396 87.7503C80.7845 87.0926 81.4264 85.6423 81.8068 84.62C82.005 84.0811 81.791 84.0098 81.2759 84.1208Z" fill="#0D8234"/>
<path d="M82.4942 72.4235C83.1995 73.2636 83.8177 74.7138 84.6498 74.9753C85.1411 75.1259 86.0842 75.0308 86.4329 75.0783C86.417 75.4112 86.1951 76.4414 86.3219 76.7822C86.7103 77.8441 87.9386 78.6604 88.6677 79.4766C89.0402 79.8887 89.0639 79.8095 89.2541 79.2944C89.6424 78.2721 90.11 76.7584 89.9277 75.7757C89.7375 74.7376 88.6994 74.064 87.8197 74.0956C87.7563 73.1922 87.5106 72.1699 86.4804 71.7816C85.4977 71.417 83.8335 71.5438 82.6844 71.6944C82.098 71.7657 82.1376 72.0035 82.4942 72.4235Z" fill="#0D8234"/>
<path d="M110.01 73.5334C108.813 73.4224 107.22 72.7646 106.364 73.2005C105.865 73.4541 105.207 74.2624 104.898 74.4923C104.66 74.2228 104.042 73.2401 103.678 73.0737C102.56 72.5507 100.967 72.8518 99.7708 72.7726C99.1606 72.7329 99.2082 72.8122 99.4539 73.3669C99.9373 74.4685 100.746 76.0059 101.641 76.632C102.584 77.2897 103.916 77.0203 104.581 76.315C105.326 76.9727 106.309 77.583 107.41 77.0837C108.456 76.6161 109.661 75.2372 110.438 74.2387C110.826 73.7473 110.612 73.5888 110.01 73.5334Z" fill="#0D8234"/>
<path d="M112.167 84.1683C111.089 84.7468 109.361 85.0955 108.886 85.9435C108.608 86.4427 108.505 87.4967 108.371 87.8692C108.014 87.7741 106.936 87.2986 106.54 87.3541C105.296 87.5443 104.123 88.6934 103.061 89.3036C102.522 89.6127 102.609 89.6602 103.132 89.9931C104.163 90.6508 105.716 91.5067 106.825 91.5305C107.998 91.5543 108.973 90.5795 109.139 89.6048C110.138 89.7474 111.319 89.7078 111.977 88.6617C112.603 87.6711 112.84 85.8246 112.935 84.5408C112.975 83.883 112.714 83.8751 112.167 84.1683Z" fill="#0D8234"/>
<path d="M114.406 88.773C114.644 89.8984 114.501 91.5388 115.135 92.1966C115.507 92.5849 116.435 92.9574 116.736 93.1713C116.553 93.4646 115.84 94.3125 115.785 94.685C115.626 95.8579 116.347 97.2209 116.617 98.3383C116.752 98.901 116.815 98.8455 117.251 98.4572C118.115 97.7044 119.295 96.5315 119.612 95.5329C119.945 94.4789 119.327 93.3457 118.495 92.9415C118.883 92.0777 119.161 91.0079 118.4 90.144C117.671 89.3199 116.07 88.6145 114.937 88.1866C114.366 87.9647 114.287 88.2024 114.406 88.773Z" fill="#0D8234"/>
<path d="M107.96 93.9319C108.364 94.875 108.531 96.3411 109.197 96.7928C109.593 97.0622 110.465 97.2287 110.766 97.3634C110.663 97.6566 110.179 98.5204 110.203 98.8533C110.266 99.9073 111.146 100.969 111.574 101.904C111.796 102.372 111.836 102.308 112.153 101.896C112.779 101.08 113.603 99.8518 113.706 98.9246C113.817 97.9419 113.072 97.0622 112.271 96.8562C112.462 96.032 112.517 95.0493 111.693 94.4233C110.908 93.8289 109.387 93.4881 108.325 93.3217C107.786 93.2345 107.754 93.4564 107.96 93.9319Z" fill="#0D8234"/>
<path d="M123.156 95.9055C123.298 96.9753 123.053 98.5128 123.607 99.1626C123.932 99.5509 124.772 99.963 125.042 100.185C124.852 100.446 124.122 101.191 124.043 101.54C123.813 102.626 124.4 103.957 124.574 105.027C124.661 105.566 124.725 105.51 125.161 105.185C126.024 104.536 127.213 103.521 127.578 102.61C127.966 101.643 127.459 100.542 126.706 100.098C127.134 99.3132 127.467 98.3305 126.809 97.4667C126.183 96.6425 124.733 95.8659 123.702 95.3904C123.179 95.1526 123.084 95.3666 123.156 95.9055Z" fill="#0D8234"/>
<defs>
<radialGradient id="paint0_radial_11_95623" cx="0" cy="0" r="1" gradientTransform="matrix(21.1655 40.4582 40.1052 -20.9759 100.353 99.5806)" gradientUnits="userSpaceOnUse">
<stop offset="0.0032" stop-color="#003107"/>
<stop offset="0.4356" stop-color="#869489"/>
<stop offset="0.64" stop-color="#CDD2CF"/>
<stop offset="0.6804" stop-color="#D7DBD8"/>
<stop offset="0.794" stop-color="#EDEFEE"/>
<stop offset="0.9027" stop-color="#FAFBFB"/>
<stop offset="1" stop-color="white"/>
</radialGradient>
<radialGradient id="paint1_radial_11_95623" cx="0" cy="0" r="1" gradientTransform="matrix(7.02243 13.4218 26.8282 -14.0317 87.848 86.6589)" gradientUnits="userSpaceOnUse">
<stop stop-color="#007007"/>
<stop offset="1" stop-color="white"/>
</radialGradient>
<radialGradient id="paint2_radial_11_95623" cx="0" cy="0" r="1" gradientTransform="matrix(16.5352 12.7386 19.5082 -25.3188 101.739 112.675)" gradientUnits="userSpaceOnUse">
<stop stop-color="#007007"/>
<stop offset="1" stop-color="white"/>
</radialGradient>
</defs>
</svg>
