<svg width="48" height="16" viewBox="0 0 48 16" fill="none" xmlns="http://www.w3.org/2000/svg">
<path d="M46 12H44V14C44 14.5667 43.8167 15.05 43.45 15.45C43.05 15.8167 42.5667 16 42 16H38C37.4333 16 36.9667 15.8167 36.6 15.45C36.2 15.05 36 14.5667 36 14V12H12V14C12 14.5667 11.8167 15.05 11.45 15.45C11.05 15.8167 10.5667 16 10 16H6C5.43333 16 4.96667 15.8167 4.60001 15.45C4.20001 15.05 4 14.5667 4 14V12H2C1.43333 12 0.966673 11.8167 0.600006 11.45C0.200006 11.05 0 10.5667 0 10V6C0 5.43333 0.200006 4.96667 0.600006 4.60001C0.966673 4.20001 1.43333 4 2 4H4V2C4 1.43333 4.20001 0.966673 4.60001 0.600006C4.96667 0.200006 5.43333 0 6 0H10C10.5667 0 11.05 0.200006 11.45 0.600006C11.8167 0.966673 12 1.43333 12 2V4H36V2C36 1.43333 36.2 0.966673 36.6 0.600006C36.9667 0.200006 37.4333 0 38 0H42C42.5667 0 43.05 0.200006 43.45 0.600006C43.8167 0.966673 44 1.43333 44 2V4H46C46.5667 4 47.05 4.20001 47.45 4.60001C47.8167 4.96667 48 5.43333 48 6V10C48 10.5667 47.8167 11.05 47.45 11.45C47.05 11.8167 46.5667 12 46 12ZM42 6V2H38V6H30H22H14H10V2H6V6H2V10H6V14H10V10H18H26H34H38V14H42V10H46V6H42Z" fill="#4D5C5D"/>
</svg>
