<svg width="200" height="200" viewBox="0 0 200 200" fill="none" xmlns="http://www.w3.org/2000/svg">
<path d="M91 105C91 107.667 92.3333 109 95 109H105C106 109 106.817 108.817 107.45 108.45C108.483 107.817 109 106.667 109 105V95C109 93.3333 108.483 92.2 107.45 91.6C106.817 91.2 106 91 105 91H95C92.3333 91 91 92.3333 91 95V105ZM89 95C89 91 91 89 95 89H105C106.433 89 107.617 89.3 108.55 89.9H108.45C110.15 90.7333 111 92.4333 111 95V105C111 107.533 110.167 109.25 108.5 110.15L108.45 110.2C107.55 110.733 106.4 111 105 111H95C91 111 89 109 89 105V95Z" fill="#C67700"/>
<path d="M91.3496 105.45V95.45C91.3496 92.7833 92.6829 91.45 95.3496 91.45H105.35C106.35 91.45 107.166 91.6499 107.8 92.0499C108.833 92.6499 109.35 93.7833 109.35 95.45V105.45C109.35 107.117 108.833 108.267 107.8 108.9C107.166 109.267 106.35 109.45 105.35 109.45H95.3496C92.6829 109.45 91.3496 108.117 91.3496 105.45ZM107.35 100.45C107.35 98.5166 106.666 96.8666 105.3 95.5C103.9 94.1333 102.25 93.45 100.35 93.45C98.4163 93.45 96.7663 94.1333 95.3996 95.5C94.0329 96.8666 93.3496 98.5166 93.3496 100.45C93.3496 102.383 94.0329 104.033 95.3996 105.4C96.7663 106.767 98.4163 107.45 100.35 107.45C102.25 107.45 103.9 106.767 105.3 105.4C106.666 104.033 107.35 102.383 107.35 100.45ZM100.35 96.95C101.316 96.95 102.15 97.3 102.85 98C103.516 98.6666 103.85 99.4833 103.85 100.45C103.85 101.417 103.516 102.25 102.85 102.95C102.15 103.617 101.316 103.95 100.35 103.95C99.3829 103.95 98.5663 103.617 97.8996 102.95C97.1996 102.25 96.8496 101.417 96.8496 100.45C96.8496 99.4833 97.1996 98.6666 97.8996 98C98.5663 97.3 99.3829 96.95 100.35 96.95Z" fill="#FF9900"/>
<path d="M100.35 96.95C99.3829 96.95 98.5663 97.3 97.8996 98C97.1996 98.6666 96.8496 99.4833 96.8496 100.45C96.8496 101.417 97.1996 102.25 97.8996 102.95C98.5663 103.617 99.3829 103.95 100.35 103.95C101.316 103.95 102.15 103.617 102.85 102.95C103.516 102.25 103.85 101.417 103.85 100.45C103.85 99.4833 103.516 98.6666 102.85 98C102.15 97.3 101.316 96.95 100.35 96.95ZM107.35 100.45C107.35 102.383 106.666 104.033 105.3 105.4C103.9 106.767 102.25 107.45 100.35 107.45C98.4163 107.45 96.7663 106.767 95.3996 105.4C94.0329 104.033 93.3496 102.383 93.3496 100.45C93.3496 98.5166 94.0329 96.8666 95.3996 95.5C96.7663 94.1333 98.4163 93.45 100.35 93.45C102.25 93.45 103.9 94.1333 105.3 95.5C106.666 96.8666 107.35 98.5166 107.35 100.45Z" fill="white"/>
</svg>
