<svg width="52" height="16" viewBox="0 0 52 16" fill="none" xmlns="http://www.w3.org/2000/svg">
<path d="M6 6H2V10H6V14H10V10H14H22H30H38H42V14H46V10H50V6H46V2H42V6H38H30H22H14H10V2H6V6ZM40 4V2C40 1.43333 40.2 0.966673 40.6 0.600006C40.9667 0.200006 41.4333 0 42 0H46C46.5667 0 47.05 0.200006 47.45 0.600006C47.8167 0.966673 48 1.43333 48 2V4H50C50.5667 4 51.05 4.20001 51.45 4.60001C51.8167 4.96667 52 5.43333 52 6V10C52 10.5667 51.8167 11.05 51.45 11.45C51.05 11.8167 50.5667 12 50 12H48V14C48 14.5667 47.8167 15.05 47.45 15.45C47.05 15.8167 46.5667 16 46 16H42C41.4333 16 40.9667 15.8167 40.6 15.45C40.2 15.05 40 14.5667 40 14V12H12V14C12 14.5667 11.8167 15.05 11.45 15.45C11.05 15.8167 10.5667 16 10 16H6C5.43333 16 4.96667 15.8167 4.60001 15.45C4.20001 15.05 4 14.5667 4 14V12H2C1.43333 12 0.966673 11.8167 0.600006 11.45C0.200006 11.05 0 10.5667 0 10V6C0 5.43333 0.200006 4.96667 0.600006 4.60001C0.966673 4.20001 1.43333 4 2 4H4V2C4 1.43333 4.20001 0.966673 4.60001 0.600006C4.96667 0.200006 5.43333 0 6 0H10C10.5667 0 11.05 0.200006 11.45 0.600006C11.8167 0.966673 12 1.43333 12 2V4H40Z" fill="#4D5C5D"/>
<path d="M38 10V6H42H46V10H42H38ZM30 6V10H22V6H30ZM10 6H14V10H10H6V6H10Z" fill="#89A4A6"/>
<path d="M38 6V10H30V6H38ZM46 10V6H50V10H46ZM22 6V10H14V6H22ZM6 10H2V6H6V10Z" fill="#FFCC00"/>
<path d="M6 10H10V14H6V10ZM42 10H46V14H42V10ZM46 6H42V2H46V6ZM6 6V2H10V6H6Z" fill="#697E80"/>
</svg>
