<svg width="200" height="200" viewBox="0 0 200 200" fill="none" xmlns="http://www.w3.org/2000/svg">
<path d="M151.516 84.1541C148.772 77.917 145.474 71.0224 142.946 65.3785C140.816 60.6255 139.258 56.6939 138.422 54.6755C138.177 54.0846 138.033 53.6818 137.899 53.4529C135.915 50.0713 124.002 47.4802 124.002 47.4802L102.431 53.3169C102.431 53.3169 96.5256 64.0713 88.3162 66.4432C80.1076 68.8152 69.3313 64.5511 67.31 64.9795C63.6579 65.7533 50.3615 92.6446 50.3615 92.6446C50.3615 92.6446 41.9889 101.04 40.4988 101.914L43.2826 133.002L61.9448 149.324C61.9448 149.324 82.3254 145.155 86.0137 149.294C88.2301 151.782 118.639 149.213 126.851 148.669L140.557 149.568C140.557 149.568 152.085 144.169 150.801 138.106C149.516 132.043 148.931 123.297 148.931 123.297L159.631 102.024C159.631 102.024 155.801 93.8937 151.516 84.1541Z" fill="#A6A7A8"/>
<path d="M142.967 65.4798C141.026 61.1476 139.584 57.5009 138.711 55.3269C138.343 54.411 138.062 53.7226 137.886 53.4226C135.903 50.0411 124.002 47.4802 124.002 47.4802C124.002 47.4802 132.378 57.1102 132.449 63.4304C132.521 69.7507 129.211 78.0545 129.211 78.0545L120.713 71.8295L122.082 83.6123L121.193 106.475L151.386 118.414L159.63 102.021C159.63 102.021 155.8 93.862 151.505 84.102C148.771 77.8891 145.487 71.1048 142.967 65.4798Z" fill="#919194"/>
<path d="M138.685 98.8568C133.321 97.4588 121.707 102.453 121.707 102.453L108.768 119.132L86.4255 121.331L82.5724 103.14L80.1052 121.402L68.4916 126.396L61.944 149.324C61.944 149.324 82.7606 144.805 86.0129 149.294C86.7708 150.34 90.3458 152 90.3458 152C90.3458 152 123.677 150.876 129.067 151.156L143.324 150.67C143.324 150.67 152.085 144.168 150.8 138.105C149.515 132.042 148.93 123.296 148.93 123.296L159.63 102.023C159.63 102.023 144.05 100.255 138.685 98.8568Z" fill="#A6A7A8"/>
<path d="M122.006 85.917L124.408 83.2964L98.7457 85.7749L122.006 85.917Z" fill="#919194"/>
<path d="M88.7197 66.3578L66.4152 64.7468L84.1971 74.9186L87.794 91.8965L99.1499 85.6896L96.9857 73.4768L88.7197 66.3578Z" fill="#919194"/>
<path d="M66.4151 64.7468C59.6528 68.7132 50.3606 92.6446 50.3606 92.6446L62.531 108.228L80.1044 121.401L82.5716 103.139L87.7931 91.8965L85.8141 74.5763L66.4151 64.7468Z" fill="#B6B8BA"/>
<path d="M43.2818 133.002L61.9441 149.324L68.4918 126.396L40.498 101.914L43.2818 133.002Z" fill="#B6B8BA"/>
<path d="M119.858 103.689C118.117 107.436 111.317 115.213 108.768 119.131L123.177 103.409L122.007 85.917C122.007 85.917 121.598 99.9418 119.858 103.689Z" fill="#B6B8BA"/>
<path d="M102.43 53.3176C102.43 53.3176 102.201 53.7331 101.776 54.4132L120.712 71.831L106.146 52.3125L102.43 53.3176Z" fill="#B6B8BA"/>
<path d="M102.842 111.094L108.768 119.131L123.177 103.409L122.006 85.917L102.842 111.094Z" fill="#B6B8BA"/>
<path d="M108.768 119.132C108.768 119.132 92.5765 140.791 90.3458 152L143.324 150.671C143.324 150.671 151.043 145.235 151.142 139.723C151.242 134.211 148.93 123.297 148.93 123.297C148.93 123.297 122.57 128.457 108.768 119.132Z" fill="#89898F"/>
<path d="M80.1052 121.401L68.4916 126.396L61.944 149.323C61.944 149.323 82.7145 145.188 86.0129 149.294C86.8214 150.3 90.3458 152 90.3458 152L94.1535 123.917C90.9579 120.792 80.1052 121.401 80.1052 121.401Z" fill="#89898F"/>
<path d="M80.1052 121.401L94.1542 123.916L102.843 111.094L82.5731 103.139C82.5731 103.139 79.3344 117.764 80.1052 121.401Z" fill="#919194"/>
<path d="M124.002 47.481C124.002 47.481 132.72 58.728 132.449 63.4312L143.007 65.4185L137.928 53.4007C137.928 53.4007 134.217 47.8512 124.002 47.481Z" fill="#606063"/>
<path d="M40.498 101.914L66.3851 126.42L61.9441 149.324L69.6343 127.139L80.1053 121.402L68.525 124.559L40.498 101.914Z" fill="#D3D8DE"/>
<path d="M66.4152 64.7468L82.184 76.049L84.7691 89.5805L72.2518 86.3191L83.7225 92.6181L80.372 102.057L80.1052 121.402L82.5725 103.14L87.794 91.8965L85.8142 74.5763L66.4152 64.7468Z" fill="#D3D8DE"/>
<path d="M80.1055 121.401L80.7289 116.87L62.5321 108.229L80.1055 121.401Z" fill="#D3D8DE"/>
<path d="M123.031 100.06L122.006 85.917L120.507 101.44L108.679 116.053L102.841 111.094L108.767 119.131L123.177 103.409C123.177 103.409 129.302 100.422 131.514 100.235C133.728 100.048 142.675 99.666 142.675 99.666L135.966 97.3212L123.031 100.06Z" fill="#D3D8DE"/>
<path d="M124.002 47.481C126.361 50.6418 129.364 58.1719 129.364 58.1719C127.135 56.9545 121.916 58.9048 121.916 58.9048C121.916 58.9048 128.67 58.8822 130.049 61.4061C131.428 63.9299 131.148 71.9965 131.148 71.9965C131.148 71.9965 133.388 65.204 131.976 59.8714C130.565 54.538 124.002 47.481 124.002 47.481Z" fill="#D3D8DE"/>
<path d="M118.1 70.1315L106.258 74.0473L120.713 71.8302L113.614 62.2471L118.1 70.1315Z" fill="#D3D8DE"/>
<path d="M137.812 98.0556L143.024 90.7576L135.967 97.3203L137.812 98.0556Z" fill="#D3D8DE"/>
<path d="M84.1971 74.9184L91.3471 74.1084L81.5562 73.0845L84.1971 74.9184Z" fill="#D3D8DE"/>
<path d="M98.2869 133.46C97.0288 136.824 90.8476 147.916 90.3466 152C90.3466 152 98.9149 136.424 100.925 132.619C102.935 128.814 108.768 119.132 108.768 119.132L107.233 117.204C107.233 117.204 99.5451 130.096 98.2869 133.46Z" fill="#D3D8DE"/>
<path d="M127.681 123.01C117.655 121.656 108.768 119.132 108.768 119.132C123.169 131.288 149.322 132.788 149.322 132.788L148.93 123.297C143.168 124.157 135.136 124.017 127.681 123.01Z" fill="#919194"/>
<path d="M79.1852 147.467C82.3332 147.548 84.8148 148.123 86.0132 149.294L88.5537 132.706L94.1538 123.917L85.5001 130.255L79.1852 147.467Z" fill="#919194"/>
<path d="M127.645 122.731C127.097 122.662 126.578 122.585 126.095 122.502C118.787 121.234 108.869 119.111 108.869 119.111L102.842 111.095L106.153 119L107.646 121.06L131.093 124.822L146.387 125.243C146.387 125.243 149.431 131.638 149.609 137.795C149.787 143.952 143.326 150.671 143.326 150.671C143.326 150.671 150.881 145.128 151.912 140.686C152.942 136.245 148.932 123.296 148.932 123.296C148.932 123.296 135.388 123.709 127.645 122.731Z" fill="#606063"/>
<path d="M70.927 127.675L86.0135 132.68L87.5535 139.288L88.5533 132.706L94.1534 123.916L85.4997 130.255L70.927 127.675Z" fill="#606063"/>
<path d="M89.9252 105.946L99.1675 111.028L94.1538 123.916L102.842 111.095L109.874 101.792L102.173 109.265L89.9252 105.946Z" fill="#606063"/>
<path d="M155.979 104.063L145.022 124.123L148.93 123.296L159.63 102.023L142.675 99.666L155.979 104.063Z" fill="#606063"/>
<path d="M143.007 65.4185C143.007 65.4185 123.062 78.9348 122.007 85.917C122.007 85.917 133.252 77.3502 142.918 72.8511L151.486 84.1782C151.486 84.1782 147.398 75.0009 146.008 71.8582C145.196 70.0235 143.007 65.4185 143.007 65.4185Z" fill="#606063"/>
</svg>
