<svg width="200" height="200" viewBox="0 0 200 200" fill="none" xmlns="http://www.w3.org/2000/svg">
<path d="M99.5685 141.444C122.138 141.61 140.564 123.288 140.73 100.52C140.897 77.7515 122.733 59.1597 100.171 59.0012C77.6008 58.8269 59.1676 77.1492 59.0011 99.9173C58.8347 122.685 76.9985 141.277 99.5685 141.444Z" fill="url(#paint0_radial_21_3291)"/>
<path d="M109.354 120.577C115.995 117.542 118.143 113.318 120.758 106.994C121.448 105.33 122.177 103.674 122.716 101.946C123.183 100.44 123.888 99.1724 122.739 97.8489C121.004 95.836 119.625 95.2812 121.154 93.5774C121.971 92.674 119.87 89.4486 119.609 88.244C118.484 82.9898 116.003 79.7406 109.758 80.4063C106.747 80.7312 109.893 78.0605 107.983 75.2551C106.042 72.4022 102.872 69.8345 99.2817 69.042C93.7819 67.8295 89.3915 68.63 87.4578 73.8128C86.7525 75.7148 84.597 75.9129 83.2339 74.6291C80.4998 72.0535 73.4071 77.0541 70.5937 80.8501C69.191 82.7441 68.2955 84.9393 67.7249 87.1266C66.7898 90.7086 67.0672 94.8771 68.0261 97.8885C68.454 99.2278 67.2811 99.5845 66.7343 100.504C62.7957 107.137 72.1946 115.228 79.0813 119.888C88.0046 125.927 101.445 129.414 108.102 121.885C108.475 121.473 108.681 120.886 109.354 120.577Z" fill="#64A019"/>
<mask id="mask0_21_3291" style="mask-type:luminance" maskUnits="userSpaceOnUse" x="65" y="68" width="59" height="59">
<path d="M109.354 120.577C115.995 117.542 118.143 113.318 120.758 106.994C121.448 105.33 122.177 103.674 122.716 101.946C123.183 100.44 123.889 99.1724 122.739 97.8489C121.004 95.836 119.625 95.2812 121.154 93.5774C121.971 92.674 119.871 89.4486 119.609 88.244C118.484 82.9898 116.003 79.7406 109.759 80.4063C106.747 80.7312 109.893 78.0605 107.983 75.2551C106.042 72.4022 102.872 69.8345 99.2818 69.042C93.782 67.8295 89.3916 68.63 87.4579 73.8128C86.7526 75.7148 84.5971 75.9129 83.234 74.6291C80.4999 72.0535 73.4072 77.0541 70.5939 80.8501C69.1912 82.7441 68.2956 84.9393 67.7251 87.1266C66.7899 90.7086 67.0673 94.8771 68.0262 97.8885C68.4541 99.2278 67.2813 99.5845 66.7344 100.504C62.7958 107.137 72.1947 115.228 79.0814 119.888C88.0048 125.927 101.445 129.414 108.102 121.885C108.475 121.473 108.681 120.886 109.354 120.577Z" fill="white"/>
</mask>
<g mask="url(#mask0_21_3291)">
<path opacity="0.92" d="M95.285 98.2927C110.382 98.4036 122.665 92.3728 122.721 84.8125C122.776 77.2522 110.58 71.047 95.4831 70.9361C80.3863 70.8251 68.1027 76.8559 68.0472 84.4163C67.9918 91.9766 80.1881 98.1817 95.285 98.2927Z" fill="url(#paint1_radial_21_3291)"/>
</g>
<path d="M68.3083 95.6137C64.5123 101.851 65.0987 106.55 66.4776 113.254C66.8422 115.022 67.1592 116.805 67.6822 118.532C68.1419 120.046 68.2687 121.48 69.9567 121.94C72.5243 122.63 73.9746 122.32 73.6576 124.587C73.4912 125.792 77.0415 127.281 77.9291 128.137C81.8043 131.854 85.6796 133.162 90.482 129.112C92.7961 127.155 91.6866 131.133 94.8407 132.385C98.0503 133.661 102.108 134.01 105.531 132.655C110.762 130.578 113.955 127.456 112.648 122.075C112.172 120.102 113.845 118.731 115.691 119.032C119.4 119.634 122.467 111.511 122.665 106.796C122.76 104.442 122.277 102.128 121.516 99.9882C120.28 96.5013 117.72 93.1966 115.231 91.2471C114.13 90.3754 114.899 89.4244 114.835 88.3545C114.383 80.6595 102.06 79.2251 93.7471 79.2251C82.9772 79.2251 69.8853 83.877 68.5936 93.8465C68.5302 94.3854 68.6887 94.9876 68.3083 95.6137Z" fill="#639B13"/>
<mask id="mask1_21_3291" style="mask-type:luminance" maskUnits="userSpaceOnUse" x="65" y="79" width="59" height="55">
<path d="M68.678 95.6137C64.882 101.851 65.4684 106.55 66.8553 113.254C67.2198 115.022 67.5368 116.805 68.0599 118.532C68.5116 120.046 68.6384 121.48 70.3343 121.94C72.902 122.63 74.3522 122.32 74.0352 124.587C73.8688 125.792 77.4112 127.281 78.3067 128.137C82.182 131.854 86.0572 133.162 90.8597 129.112C93.1737 127.155 92.0643 131.133 95.2184 132.385C98.4279 133.661 102.485 134.01 105.909 132.655C111.147 130.578 114.333 127.456 113.026 122.075C112.55 120.102 114.222 118.731 116.069 119.032C119.778 119.634 122.844 111.511 123.043 106.796C123.138 104.442 122.654 102.128 121.893 99.9882C120.657 96.5013 118.097 93.1966 115.609 91.2471C114.507 90.3754 115.276 89.4244 115.213 88.3545C114.761 80.6595 102.438 79.2251 94.1247 79.2251C83.3548 79.2251 70.263 83.877 68.9712 93.8465C68.9078 94.3854 69.0663 94.9876 68.678 95.6137Z" fill="white"/>
</mask>
<g mask="url(#mask1_21_3291)">
<path opacity="0.92" d="M103.184 128.407C117.702 121.837 125.991 108.817 121.704 99.3385C117.409 89.8525 102.161 87.4988 87.643 94.0685C73.1247 100.638 64.8353 113.659 69.1226 123.137C73.41 132.623 88.6653 134.985 103.184 128.407Z" fill="url(#paint2_radial_21_3291)"/>
</g>
<path d="M111.886 104.839C111.894 104.696 111.87 104.553 111.87 104.411C111.87 104.094 111.838 103.761 111.696 103.476C111.585 103.254 111.418 103.072 111.347 102.842C110.832 101.233 111.569 100.726 111.608 99.6797C111.624 99.3469 111.228 99.1329 111.014 98.8714C110.499 98.2374 111.838 97.0407 111.331 96.4067C111.204 96.2562 111.648 96.0501 111.418 95.4874C111.054 94.5682 109.881 94.4017 109.025 93.744C109.009 93.7361 109.001 93.7044 108.993 93.7202C108.906 93.8312 109.136 93.8312 108.692 93.4983C108.209 93.1417 107.456 93.0466 106.933 92.6424C105.57 91.5884 105.546 90.4076 104.983 88.9494C104.104 86.6592 100.664 81.5318 97.0346 83.3624C96.2897 83.7349 95.1485 83.7745 94.57 83.0454C91.9548 79.7487 86.8116 81.2861 83.1186 81.8091C82.231 81.9359 81.3038 82.348 80.7332 83.0296C80.3924 83.4417 80.5985 84.0439 80.7411 84.6462C80.9075 85.3515 80.0992 85.7319 79.7743 86.3501C79.4414 86.9603 79.5603 87.7369 78.8867 88.5215C77.9357 89.631 76.319 89.4487 75.1937 90.7325C74.528 91.4933 74.5043 92.7613 73.8623 93.5142C73.2917 94.1719 72.7529 94.4097 71.9524 94.7663C71.683 94.8852 71.3898 94.8852 71.2313 95.0516C70.526 95.7886 70.4388 97.0328 70.5814 98.063C70.843 99.9888 72.4042 101.756 71.9287 103.729C71.8098 104.236 70.9539 104.744 70.7875 105.449C70.5735 106.368 71.0332 107.375 71.5641 108.136C72.951 110.141 74.0208 109.705 74.6073 112.098C74.8846 113.247 76.2477 111.512 76.636 111.282C78.4112 110.251 79.8694 110.141 81.6921 111.06C82.7065 111.575 82.9046 112.914 82.4212 113.841C81.6445 115.323 79.2037 116.124 79.4652 117.725C79.5445 118.224 80.012 118.525 80.3132 118.921C82.5401 121.941 87.2553 122.052 91.2891 122.052C91.7091 122.052 92.1212 122.02 92.5412 121.988C94.9662 121.798 98.2471 121.164 98.263 119.587C98.2788 118.057 99.9193 117.162 101.322 117.836C101.449 117.899 101.615 118.081 101.726 117.994C102.923 116.972 102.661 115.133 104.222 115.498C104.547 115.569 105.205 116.235 105.95 116.068C110.087 115.133 111.688 109.269 111.886 104.839Z" fill="#76AE10"/>
<path d="M87.1204 85.7077C86.5894 86.0088 85.7335 86.199 85.5037 86.6269C85.369 86.8805 85.3294 87.4115 85.266 87.5938C85.0837 87.5462 84.5448 87.3243 84.3467 87.356C83.7286 87.467 83.15 88.0534 82.627 88.3704C82.3655 88.5289 82.4051 88.5527 82.6666 88.7112C83.1897 89.0282 83.9742 89.4323 84.529 89.4323C85.1154 89.4323 85.5909 88.9331 85.6622 88.4417C86.1615 88.4972 86.7479 88.4655 87.0649 87.9425C87.3661 87.4432 87.4612 86.516 87.5008 85.8741C87.5246 85.5571 87.3898 85.5571 87.1204 85.7077Z" fill="#0D8234"/>
<path d="M77.4095 100.694C77.7582 100.258 78.4318 99.8139 78.4793 99.3701C78.511 99.1086 78.3684 98.6489 78.3604 98.4667C78.5269 98.4429 79.0658 98.4587 79.2243 98.3636C79.7156 98.0704 80.0088 97.373 80.3496 96.9292C80.5239 96.7074 80.4764 96.6994 80.199 96.6519C79.6522 96.5568 78.8439 96.4696 78.3684 96.6519C77.8691 96.8421 77.6314 97.4285 77.7265 97.8644C77.2827 97.9833 76.7913 98.2051 76.6962 98.7599C76.6091 99.2829 76.823 100.107 77.0132 100.67C77.1162 100.955 77.2272 100.908 77.4095 100.694Z" fill="#0D8234"/>
<path d="M76.89 98.9582C77.2625 98.4827 77.9598 97.9913 78.0074 97.5158C78.0312 97.2385 77.8727 96.7392 77.8568 96.549C78.0391 96.5252 78.6097 96.5252 78.784 96.4143C79.3071 96.0814 79.6082 95.3365 79.9648 94.8531C80.1471 94.6074 80.0996 94.6074 79.7984 94.5599C79.204 94.4727 78.3402 94.3935 77.841 94.5995C77.31 94.8214 77.0643 95.4475 77.1832 95.9229C76.7077 96.0577 76.1847 96.3033 76.0975 96.9056C76.0103 97.4762 76.2718 98.348 76.4779 98.9423C76.5809 99.2435 76.7077 99.1959 76.89 98.9582Z" fill="#0D8234"/>
<path d="M75.8714 90.5267C76.0775 91.129 76.1092 92.0483 76.5054 92.3653C76.7353 92.5476 77.2741 92.6981 77.4485 92.7932C77.3692 92.9676 77.0285 93.4827 77.0285 93.6967C77.0205 94.3544 77.5119 95.0518 77.7338 95.6541C77.8447 95.9552 77.8764 95.9156 78.0904 95.6779C78.5183 95.2024 79.0889 94.4812 79.192 93.9106C79.3029 93.3083 78.8829 92.7298 78.3995 92.5555C78.558 92.0562 78.6372 91.446 78.1538 91.0181C77.6942 90.6139 76.767 90.3286 76.1171 90.1701C75.7922 90.0829 75.7684 90.2176 75.8714 90.5267Z" fill="#0D8234"/>
<path d="M81.4568 85.359C81.655 85.9851 81.6629 86.9282 82.0591 87.261C82.2969 87.4591 82.8437 87.6176 83.018 87.7286C82.9309 87.9029 82.5743 88.426 82.5663 88.6399C82.5426 89.3135 83.026 90.0506 83.2399 90.6687C83.3509 90.9857 83.3826 90.9461 83.6045 90.7004C84.0562 90.2249 84.6585 89.4958 84.7853 88.9094C84.92 88.2912 84.5 87.681 84.0087 87.4988C84.183 86.9836 84.2781 86.3655 83.7947 85.9138C83.335 85.4858 82.3841 85.1688 81.7184 84.9945C81.3855 84.9073 81.3538 85.042 81.4568 85.359Z" fill="#0D8234"/>
<path d="M86.5191 86.9841C85.9327 86.9762 85.1243 86.7226 84.7202 86.9762C84.4824 87.1188 84.1971 87.5468 84.0545 87.6657C83.9277 87.5389 83.579 87.0871 83.3967 87.0237C82.8261 86.8098 82.0653 87.0237 81.471 87.0396C81.1698 87.0475 81.1936 87.0792 81.3362 87.3407C81.6215 87.8558 82.0733 88.577 82.5408 88.8465C83.0322 89.1318 83.6661 88.9416 83.9673 88.5691C84.3556 88.8623 84.8628 89.1159 85.3779 88.8306C85.8693 88.5532 86.4002 87.8321 86.741 87.317C86.9233 87.0554 86.8202 86.9841 86.5191 86.9841Z" fill="#0D8234"/>
<path d="M89.5357 85.9853C88.9889 86.0962 88.1805 86.0249 87.8556 86.334C87.6654 86.5162 87.4832 86.968 87.3722 87.1185C87.2296 87.0314 86.8175 86.6747 86.6273 86.651C86.0567 86.5717 85.3831 86.9204 84.8363 87.0472C84.5589 87.1106 84.5906 87.1423 84.7729 87.3563C85.1453 87.7842 85.7159 88.3627 86.1993 88.5212C86.7145 88.6877 87.2692 88.3865 87.4752 87.9744C87.8953 88.1646 88.4183 88.3073 88.8462 87.9348C89.2504 87.5782 89.5991 86.7936 89.8131 86.2468C89.9319 85.9615 89.8131 85.9219 89.5357 85.9853Z" fill="#0D8234"/>
<path d="M86.8972 86.8252C87.4123 86.4369 88.2919 86.1119 88.4742 85.6364C88.5772 85.3511 88.5535 84.7885 88.5931 84.5824C88.7912 84.6062 89.3935 84.7726 89.5995 84.7092C90.2414 84.5111 90.7645 83.8137 91.2717 83.4095C91.5332 83.2035 91.4856 83.1877 91.1845 83.0529C90.5901 82.7914 89.7105 82.4665 89.124 82.5378C88.5059 82.6171 88.07 83.2114 88.0621 83.7345C87.5232 83.7424 86.913 83.8533 86.6515 84.4556C86.4058 85.0262 86.4217 86.0168 86.4771 86.6984C86.493 87.0391 86.6356 87.0233 86.8972 86.8252Z" fill="#0D8234"/>
<path d="M93.2928 89.0126C92.8411 88.5292 92.4211 87.6733 91.9139 87.5385C91.6127 87.4593 91.0501 87.5544 90.8361 87.5306C90.8361 87.3325 90.9391 86.6985 90.8519 86.5004C90.5825 85.8743 89.8217 85.4147 89.3541 84.9471C89.1164 84.7094 89.1085 84.7569 89.0055 85.0739C88.7994 85.7079 88.5696 86.6351 88.7043 87.2216C88.8549 87.8397 89.4968 88.2122 90.0278 88.1725C90.0912 88.7194 90.2734 89.3296 90.9074 89.5277C91.5097 89.7179 92.5082 89.5911 93.1977 89.4643C93.5464 89.4009 93.5147 89.2582 93.2928 89.0126Z" fill="#0D8234"/>
<path d="M94.5502 81.944C94.2887 82.5621 93.6626 83.3071 93.7577 83.838C93.8132 84.1471 94.1302 84.6385 94.2015 84.8445C94.0193 84.9238 93.3853 85.0902 93.2347 85.2566C92.7671 85.7638 92.6562 86.6672 92.4105 87.2933C92.2837 87.6103 92.3392 87.6024 92.672 87.5627C93.3457 87.4914 94.3046 87.325 94.788 86.9446C95.3031 86.5484 95.3823 85.7955 95.1208 85.32C95.5963 85.0347 96.0877 84.6147 96.0163 83.9411C95.945 83.2992 95.4061 82.4195 95.0099 81.841C94.8038 81.5398 94.685 81.627 94.5502 81.944Z" fill="#0D8234"/>
<path d="M100.077 91.3978C99.5227 91.1759 98.857 90.6371 98.3895 90.7163C98.1121 90.7638 97.6842 91.0571 97.5019 91.1205C97.4306 90.954 97.2721 90.4072 97.1215 90.2725C96.6619 89.8604 95.8614 89.7812 95.3067 89.5751C95.0214 89.4721 95.0293 89.5117 95.069 89.8129C95.1403 90.4072 95.3067 91.2552 95.6395 91.6752C95.9962 92.1269 96.6619 92.1824 97.0819 91.9447C97.3434 92.3647 97.7238 92.7926 98.3182 92.7134C98.8808 92.642 99.6575 92.1586 100.165 91.7941C100.434 91.6197 100.355 91.5167 100.077 91.3978Z" fill="#0D8234"/>
<path d="M104.606 88.4981C104.059 88.4189 103.33 88.086 102.926 88.2683C102.688 88.3792 102.364 88.7359 102.221 88.8389C102.11 88.7042 101.848 88.2366 101.682 88.1494C101.175 87.88 100.43 87.9909 99.883 87.9275C99.5977 87.8958 99.6215 87.9354 99.7245 88.197C99.9227 88.72 100.263 89.4491 100.668 89.7582C101.096 90.0831 101.714 89.988 102.039 89.6789C102.371 90.0038 102.807 90.305 103.33 90.0989C103.83 89.9008 104.416 89.2906 104.796 88.8468C104.979 88.617 104.884 88.5377 104.606 88.4981Z" fill="#0D8234"/>
<path d="M102.114 93.7045C102.383 93.1657 102.977 92.5317 102.93 92.0482C102.898 91.7709 102.637 91.3112 102.589 91.121C102.763 91.0576 103.334 90.9388 103.477 90.804C103.928 90.3761 104.071 89.5757 104.325 89.0209C104.451 88.7436 104.412 88.7436 104.103 88.7594C103.501 88.7911 102.629 88.8862 102.169 89.1953C101.686 89.5202 101.575 90.1938 101.781 90.6376C101.337 90.8674 100.869 91.2161 100.901 91.8263C100.933 92.4049 101.361 93.2211 101.694 93.7679C101.868 94.0453 101.979 93.974 102.114 93.7045Z" fill="#0D8234"/>
<path d="M103.275 101.177C103.346 100.567 103.711 99.7506 103.497 99.3068C103.37 99.0453 102.966 98.6966 102.855 98.5302C102.998 98.4113 103.513 98.1102 103.6 97.9279C103.885 97.3652 103.751 96.541 103.814 95.9308C103.846 95.6218 103.798 95.6376 103.513 95.7565C102.942 95.9942 102.142 96.3826 101.801 96.8263C101.444 97.3018 101.563 97.9834 101.92 98.34C101.571 98.7125 101.246 99.2038 101.484 99.7823C101.714 100.337 102.403 100.971 102.903 101.383C103.156 101.597 103.243 101.486 103.275 101.177Z" fill="#0D8234"/>
<path d="M111.151 101.154C110.557 101.225 109.709 101.074 109.344 101.376C109.13 101.55 108.892 102.017 108.766 102.16C108.623 102.049 108.219 101.645 108.021 101.597C107.418 101.463 106.681 101.772 106.087 101.859C105.786 101.907 105.818 101.938 105.992 102.184C106.349 102.667 106.895 103.333 107.403 103.547C107.934 103.769 108.552 103.499 108.797 103.087C109.225 103.333 109.772 103.523 110.256 103.167C110.715 102.826 111.159 102.025 111.428 101.463C111.571 101.17 111.452 101.114 111.151 101.154Z" fill="#0D8234"/>
<path d="M109.303 106.962C109.192 106.376 109.279 105.528 108.946 105.187C108.756 104.989 108.281 104.791 108.13 104.672C108.225 104.521 108.598 104.085 108.629 103.895C108.724 103.293 108.352 102.58 108.225 102.001C108.162 101.7 108.13 101.732 107.9 101.93C107.448 102.318 106.83 102.912 106.656 103.427C106.474 103.966 106.791 104.561 107.219 104.775C107.013 105.219 106.862 105.773 107.25 106.225C107.623 106.661 108.447 107.033 109.025 107.263C109.319 107.382 109.358 107.263 109.303 106.962Z" fill="#0D8234"/>
<path d="M104.616 105.679C104.552 106.281 104.204 107.082 104.418 107.517C104.544 107.771 104.949 108.112 105.059 108.27C104.917 108.389 104.418 108.698 104.33 108.873C104.053 109.435 104.196 110.236 104.148 110.846C104.124 111.155 104.164 111.131 104.449 111.012C105.012 110.775 105.789 110.378 106.114 109.935C106.454 109.459 106.327 108.793 105.979 108.445C106.32 108.072 106.637 107.581 106.391 107.018C106.161 106.487 105.472 105.861 104.972 105.465C104.727 105.275 104.647 105.378 104.616 105.679Z" fill="#0D8234"/>
<path d="M101.916 112.732C101.369 112.574 100.687 112.13 100.251 112.257C99.9977 112.336 99.6173 112.653 99.4509 112.732C99.3637 112.582 99.1577 112.074 99.0071 111.963C98.5316 111.623 97.7708 111.623 97.2161 111.48C96.9387 111.409 96.9466 111.448 97.018 111.726C97.1448 112.28 97.3825 113.065 97.7471 113.437C98.1274 113.826 98.7694 113.818 99.1418 113.548C99.4271 113.921 99.8313 114.285 100.386 114.159C100.917 114.032 101.599 113.501 102.042 113.105C102.28 112.899 102.193 112.811 101.916 112.732Z" fill="#0D8234"/>
<path d="M93.015 115.18C93.1656 115.909 93.0784 116.971 93.4905 117.391C93.7362 117.637 94.3305 117.875 94.5207 118.017C94.4018 118.207 93.9422 118.754 93.9105 119C93.8075 119.761 94.283 120.64 94.4573 121.362C94.5445 121.726 94.5841 121.686 94.8694 121.441C95.4241 120.949 96.1849 120.197 96.391 119.547C96.605 118.865 96.2008 118.136 95.6619 117.875C95.9155 117.312 96.0898 116.622 95.5985 116.068C95.1309 115.537 94.0928 115.085 93.3637 114.808C92.9833 114.665 92.9357 114.816 93.015 115.18Z" fill="#0D8234"/>
<path d="M89.6848 112.652C89.0112 113.318 87.7987 113.96 87.6244 114.697C87.5213 115.133 87.6798 115.941 87.664 116.25C87.3787 116.258 86.4673 116.139 86.182 116.266C85.2945 116.678 84.6684 117.795 84.0106 118.485C83.6778 118.833 83.7491 118.849 84.2087 118.984C85.1201 119.246 86.4673 119.547 87.3074 119.317C88.1949 119.079 88.7021 118.136 88.615 117.375C89.3916 117.264 90.2633 116.971 90.5249 116.052C90.7705 115.172 90.5486 113.738 90.3426 112.763C90.2237 112.264 90.0256 112.311 89.6848 112.652Z" fill="#0D8234"/>
<path d="M86.3918 110.425C85.7262 110.425 84.7989 110.156 84.3552 110.441C84.0936 110.608 83.7687 111.091 83.6102 111.242C83.4596 111.107 83.0634 110.6 82.8574 110.521C82.2075 110.291 81.3437 110.544 80.678 110.568C80.3373 110.576 80.369 110.624 80.5354 110.917C80.8682 111.495 81.3913 112.312 81.9222 112.605C82.4849 112.922 83.2061 112.7 83.531 112.272C83.9748 112.597 84.5533 112.882 85.1397 112.549C85.6945 112.232 86.2888 111.4 86.6613 110.806C86.8594 110.497 86.7326 110.425 86.3918 110.425Z" fill="#0D8234"/>
<path d="M78.9404 104.751C78.7661 105.354 78.2747 106.114 78.4174 106.59C78.4966 106.875 78.8532 107.287 78.9404 107.469C78.774 107.565 78.2113 107.786 78.0925 107.961C77.7121 108.484 77.7121 109.332 77.5536 109.942C77.4743 110.251 77.5219 110.235 77.8309 110.164C78.4411 110.021 79.3129 109.76 79.725 109.363C80.1608 108.943 80.145 108.238 79.8518 107.826C80.2639 107.509 80.676 107.065 80.5254 106.447C80.3827 105.861 79.7963 105.108 79.3604 104.616C79.1227 104.347 79.0276 104.442 78.9404 104.751Z" fill="#0D8234"/>
<path d="M81.6313 102.841C81.5838 103.396 81.2906 104.149 81.4966 104.545C81.6155 104.775 81.9959 105.084 82.1068 105.227C81.98 105.338 81.5283 105.631 81.4491 105.805C81.2113 106.328 81.3619 107.073 81.3302 107.628C81.3143 107.913 81.354 107.89 81.6075 107.771C82.1147 107.541 82.8359 107.16 83.1212 106.733C83.4223 106.289 83.2955 105.671 82.9627 105.362C83.2638 105.013 83.5412 104.553 83.3114 104.038C83.0895 103.555 82.4397 103 81.9721 102.635C81.7264 102.461 81.6551 102.556 81.6313 102.841Z" fill="#0D8234"/>
<path d="M74.6947 101.01C74.4886 101.565 73.9735 102.239 74.0765 102.698C74.132 102.968 74.4331 103.388 74.5045 103.562C74.346 103.642 73.7992 103.808 73.6724 103.958C73.284 104.426 73.2206 105.219 73.0304 105.773C72.9353 106.059 72.975 106.051 73.2761 106.003C73.8626 105.908 74.6947 105.726 75.1068 105.377C75.5426 105.013 75.5822 104.347 75.3287 103.943C75.7328 103.673 76.1528 103.285 76.0577 102.698C75.9706 102.144 75.4634 101.391 75.0909 100.899C74.8928 100.654 74.7977 100.733 74.6947 101.01Z" fill="#0D8234"/>
<path d="M106.851 119.452C107.438 118.739 108.539 117.994 108.619 117.265C108.666 116.837 108.436 116.069 108.421 115.775C108.698 115.744 109.586 115.76 109.847 115.601C110.663 115.11 111.147 113.968 111.709 113.239C111.995 112.867 111.923 112.859 111.464 112.78C110.552 112.621 109.229 112.471 108.444 112.78C107.62 113.097 107.224 114.064 107.39 114.785C106.653 114.975 105.845 115.339 105.687 116.259C105.536 117.131 105.9 118.486 106.21 119.413C106.368 119.888 106.55 119.817 106.851 119.452Z" fill="#0D8234"/>
<path d="M106.345 123.01C106.955 122.234 108.12 121.409 108.192 120.625C108.239 120.165 107.97 119.349 107.946 119.032C108.239 118.984 109.198 118.992 109.475 118.818C110.339 118.271 110.831 117.035 111.417 116.242C111.718 115.838 111.639 115.83 111.14 115.759C110.165 115.608 108.738 115.482 107.906 115.822C107.027 116.187 106.63 117.225 106.821 118.002C106.036 118.224 105.172 118.636 105.03 119.618C104.887 120.554 105.315 122.004 105.656 122.986C105.838 123.486 106.036 123.407 106.345 123.01Z" fill="#0D8234"/>
<path d="M101.973 121.315C102.313 122.305 102.369 123.819 103.019 124.342C103.407 124.651 104.287 124.889 104.58 125.047C104.445 125.333 103.89 126.181 103.89 126.529C103.875 127.615 104.691 128.772 105.055 129.755C105.246 130.254 105.293 130.191 105.65 129.794C106.355 129.01 107.29 127.813 107.473 126.87C107.663 125.879 106.965 124.913 106.165 124.635C106.426 123.803 106.553 122.797 105.761 122.099C105.008 121.434 103.47 120.966 102.393 120.704C101.846 120.586 101.798 120.808 101.973 121.315Z" fill="#0D8234"/>
<path d="M94.4117 125.776C94.7366 126.806 94.7524 128.368 95.4102 128.922C95.7985 129.247 96.7019 129.517 96.9952 129.691C96.8525 129.984 96.2581 130.84 96.2423 131.205C96.1947 132.322 97.0031 133.535 97.3597 134.557C97.542 135.08 97.5895 135.009 97.9699 134.612C98.7148 133.82 99.7134 132.615 99.9194 131.656C100.141 130.642 99.4519 129.636 98.6277 129.326C98.913 128.478 99.0794 127.448 98.279 126.711C97.5182 126.006 95.957 125.483 94.8554 125.19C94.3007 125.031 94.2452 125.253 94.4117 125.776Z" fill="#0D8234"/>
<path d="M99.1805 123.423C98.2058 123.415 96.8744 122.995 96.2166 123.407C95.8283 123.644 95.3528 124.342 95.1151 124.548C94.9011 124.342 94.3384 123.597 94.0373 123.486C93.0942 123.137 91.8342 123.494 90.8594 123.51C90.3681 123.518 90.4077 123.581 90.6454 124.009C91.113 124.865 91.8659 126.054 92.6346 126.497C93.4429 126.965 94.4969 126.656 94.9883 126.046C95.6302 126.529 96.4702 126.949 97.3261 126.474C98.1424 126.022 99.022 124.825 99.5768 123.969C99.8541 123.541 99.6719 123.43 99.1805 123.423Z" fill="#0D8234"/>
<path d="M91.1592 124.643C90.2478 124.833 88.9165 124.706 88.3855 125.221C88.0764 125.522 87.7673 126.267 87.593 126.513C87.3553 126.362 86.6737 125.784 86.3726 125.736C85.4216 125.602 84.32 126.18 83.4166 126.394C82.957 126.505 83.0045 126.553 83.3136 126.909C83.9238 127.615 84.8669 128.573 85.6673 128.835C86.5152 129.112 87.4345 128.613 87.7753 127.939C88.4727 128.256 89.3365 128.486 90.0418 127.868C90.7154 127.282 91.2939 125.99 91.6426 125.079C91.809 124.619 91.6188 124.556 91.1592 124.643Z" fill="#0D8234"/>
<path d="M81.6929 128.082C82.5488 127.44 83.999 126.909 84.3001 126.109C84.4745 125.641 84.4269 124.706 84.4903 124.373C84.8153 124.413 85.8059 124.683 86.1466 124.58C87.2006 124.255 88.0645 123.098 88.9045 122.432C89.3324 122.091 89.2532 122.067 88.7539 121.845C87.7712 121.41 86.321 120.879 85.3462 121.005C84.3239 121.132 83.6107 122.115 83.5948 122.979C82.7072 122.987 81.6929 123.177 81.2649 124.167C80.8528 125.11 80.8845 126.743 80.9717 127.868C81.0272 128.431 81.257 128.407 81.6929 128.082Z" fill="#0D8234"/>
<path d="M85.7686 125.094C85.0237 124.294 84.3342 122.883 83.4942 122.661C83.0028 122.535 82.0598 122.685 81.7111 122.653C81.7111 122.321 81.8854 121.282 81.7428 120.95C81.299 119.911 80.0389 119.159 79.2702 118.382C78.8819 117.986 78.8661 118.065 78.6917 118.596C78.3589 119.634 77.9706 121.172 78.2004 122.138C78.4461 123.161 79.508 123.779 80.3876 123.7C80.4907 124.595 80.7918 125.609 81.8379 125.934C82.8364 126.251 84.4848 126.037 85.618 125.831C86.1966 125.728 86.149 125.498 85.7686 125.094Z" fill="#0D8234"/>
<path d="M76.4605 117.256C76.0246 118.279 75.0023 119.507 75.1449 120.387C75.2321 120.902 75.7552 121.71 75.874 122.043C75.565 122.178 74.5268 122.455 74.2811 122.725C73.5045 123.565 73.3301 125.055 72.9181 126.093C72.712 126.616 72.7913 126.6 73.3539 126.544C74.4634 126.426 76.0484 126.148 76.8488 125.53C77.6967 124.88 77.8315 123.636 77.3956 122.844C78.1881 122.376 78.9964 121.679 78.8696 120.561C78.7508 119.499 77.8632 118.049 77.2054 117.09C76.8726 116.591 76.6824 116.733 76.4605 117.256Z" fill="#0D8234"/>
<path d="M79.2625 113.017C78.3511 112.644 77.2496 111.757 76.4809 111.899C76.0292 111.979 75.3159 112.462 75.0227 112.565C74.8959 112.296 74.6423 111.384 74.3966 111.162C73.6438 110.489 72.3203 110.354 71.401 110.005C70.9335 109.831 70.9493 109.902 71.0127 110.402C71.1395 111.376 71.401 112.779 71.9637 113.484C72.5501 114.229 73.6596 114.324 74.3491 113.928C74.777 114.618 75.4031 115.331 76.3858 115.204C77.3209 115.085 78.5889 114.285 79.4369 113.683C79.8569 113.373 79.7301 113.207 79.2625 113.017Z" fill="#0D8234"/>
<path d="M67.4985 110.536C67.2607 111.424 66.5713 112.549 66.7931 113.246C66.9199 113.659 67.4509 114.253 67.5856 114.514C67.3479 114.657 66.5396 115.006 66.3652 115.259C65.8263 116.044 65.858 117.28 65.652 118.176C65.5489 118.627 65.6123 118.612 66.0641 118.493C66.9516 118.263 68.2196 117.843 68.8061 117.249C69.4242 116.615 69.3846 115.584 68.9329 114.99C69.5193 114.514 70.1057 113.841 69.868 112.953C69.6461 112.105 68.7506 111.02 68.0928 110.314C67.76 109.942 67.6173 110.084 67.4985 110.536Z" fill="#0D8234"/>
<path d="M65.5883 112.289C66.0321 111.393 67.0227 110.347 66.9356 109.554C66.888 109.087 66.4601 108.334 66.3729 108.025C66.6582 107.922 67.6013 107.732 67.839 107.502C68.5839 106.789 68.8217 105.465 69.2417 104.554C69.4557 104.094 69.3764 104.102 68.8772 104.126C67.8786 104.173 66.4442 104.34 65.6834 104.847C64.883 105.386 64.7008 106.495 65.0494 107.225C64.3124 107.605 63.5516 108.183 63.5992 109.19C63.6547 110.149 64.36 111.496 64.9068 112.399C65.1762 112.859 65.3585 112.74 65.5883 112.289Z" fill="#0D8234"/>
<path d="M72.0525 101.503C72.1793 100.496 72.7737 99.1569 72.425 98.4198C72.2189 97.9919 71.5533 97.4134 71.3631 97.1439C71.6008 96.9458 72.4408 96.4465 72.5914 96.1454C73.0669 95.2103 72.845 93.8551 72.9401 92.8407C72.9877 92.3256 72.9163 92.3653 72.4408 92.5555C71.4978 92.9438 70.1743 93.5857 69.6196 94.3306C69.0332 95.1152 69.2313 96.2484 69.8098 96.8269C69.2313 97.4372 68.6924 98.2613 69.0886 99.2044C69.4611 100.108 70.6023 101.162 71.4265 101.843C71.8544 102.192 71.9891 102.018 72.0525 101.503Z" fill="#0D8234"/>
<path d="M72.169 89.2025C71.1863 89.3214 69.7916 89.0678 69.1813 89.567C68.8247 89.8603 68.4364 90.621 68.2224 90.8588C67.9847 90.6844 67.3111 90.0029 66.9941 89.9316C66.0035 89.7018 64.7751 90.2248 63.8004 90.3674C63.3011 90.4388 63.3566 90.4943 63.6498 90.9063C64.2362 91.7068 65.1476 92.8083 65.9797 93.157C66.8594 93.5216 67.8737 93.0778 68.2858 92.3962C68.9991 92.8004 69.8946 93.1174 70.695 92.523C71.4558 91.9604 72.1849 90.6448 72.6366 89.7097C72.8585 89.2263 72.6604 89.1391 72.169 89.2025Z" fill="#0D8234"/>
<path d="M70.5736 87.8715C70.3834 86.9047 70.526 85.502 69.9871 84.9393C69.6701 84.6064 68.8856 84.2736 68.632 84.0913C68.7905 83.8457 69.4086 83.1245 69.4641 82.8075C69.6146 81.809 69.0124 80.6361 68.7984 79.6772C68.6874 79.1938 68.6399 79.2413 68.2595 79.5662C67.5146 80.2002 66.4922 81.1908 66.207 82.0388C65.9058 82.9343 66.4289 83.9091 67.1342 84.2657C66.7934 85.0027 66.5398 85.914 67.1817 86.659C67.7919 87.3722 69.155 87.9983 70.1139 88.3708C70.5973 88.561 70.6686 88.3549 70.5736 87.8715Z" fill="#0D8234"/>
<path d="M76.7658 76.0395C76.6549 77.038 76.0922 78.3614 76.4409 79.0747C76.6469 79.4947 77.3126 80.0574 77.5028 80.3189C77.273 80.517 76.4488 81.0163 76.3062 81.3174C75.8545 82.2446 76.0843 83.576 76.005 84.5745C75.9654 85.0817 76.0288 85.0421 76.4964 84.844C77.4157 84.4557 78.7153 83.8058 79.2463 83.0609C79.809 82.2763 79.6029 81.1668 79.0244 80.6042C79.5871 79.994 80.1022 79.1777 79.7059 78.2584C79.3255 77.3788 78.1923 76.3565 77.3681 75.6987C76.9481 75.3658 76.8213 75.5323 76.7658 76.0395Z" fill="#0D8234"/>
<path d="M91.2173 79.8044C90.3139 79.5428 89.1806 78.8138 88.4674 79.0198C88.0474 79.1466 87.4213 79.6696 87.1519 79.7964C87.0092 79.5508 86.6764 78.7107 86.4228 78.5285C85.6382 77.9658 84.3782 77.9658 83.4668 77.728C83.0072 77.6092 83.023 77.6805 83.1339 78.1401C83.3479 79.0515 83.7442 80.3512 84.3385 80.9614C84.9725 81.6033 86.0265 81.5875 86.6447 81.1437C87.1202 81.7539 87.7858 82.3641 88.7051 82.1501C89.5769 81.9362 90.7022 81.0565 91.4471 80.4066C91.8117 80.0817 91.669 79.9312 91.2173 79.8044Z" fill="#0D8234"/>
<path d="M97.1527 70.9997C97.3588 71.9666 97.2399 73.3851 97.7867 73.9478C98.1116 74.2806 98.9041 74.5976 99.1656 74.7878C99.0071 75.0414 98.3969 75.7705 98.3494 76.0954C98.2146 77.1019 98.8407 78.2748 99.0705 79.2416C99.1894 79.7329 99.2449 79.6775 99.6173 79.3446C100.362 78.6948 101.377 77.6804 101.646 76.8245C101.931 75.9211 101.393 74.9463 100.679 74.5897C101.012 73.8448 101.25 72.9255 100.592 72.1805C99.966 71.4752 98.5871 70.865 97.6124 70.5005C97.1131 70.3024 97.0418 70.5084 97.1527 70.9997Z" fill="#0D8234"/>
<path d="M118.606 83.5601C117.702 82.9657 116.704 81.7612 115.84 81.7532C115.333 81.7453 114.461 82.1099 114.12 82.1574C114.049 81.8404 113.962 80.7943 113.748 80.509C113.074 79.6135 111.687 79.1856 110.76 78.615C110.301 78.3218 110.301 78.401 110.261 78.9478C110.182 80.0335 110.166 81.5947 110.618 82.4744C111.093 83.4016 112.266 83.7503 113.09 83.4729C113.399 84.313 113.93 85.2164 115.016 85.2877C116.054 85.3591 117.591 84.7726 118.637 84.305C119.168 84.0673 119.065 83.8612 118.606 83.5601Z" fill="#0D8234"/>
<path d="M115.822 92.9433C114.72 92.9512 113.199 92.4916 112.454 92.9671C112.018 93.2444 111.487 94.0448 111.226 94.2826C110.98 94.0528 110.33 93.2127 109.981 93.0938C108.912 92.7135 107.485 93.1335 106.384 93.1731C105.821 93.1889 105.868 93.2603 106.146 93.7516C106.693 94.7105 107.564 96.0498 108.444 96.5412C109.371 97.0642 110.56 96.6917 111.107 95.9864C111.844 96.5253 112.803 96.9929 113.762 96.4381C114.681 95.9151 115.656 94.5441 116.282 93.5614C116.583 93.0621 116.377 92.9433 115.822 92.9433Z" fill="#0D8234"/>
<path d="M115.654 97.5639C115.369 98.5624 114.553 99.8145 114.782 100.599C114.917 101.067 115.496 101.756 115.646 102.057C115.377 102.216 114.449 102.588 114.243 102.866C113.617 103.729 113.617 105.124 113.356 106.131C113.221 106.638 113.3 106.614 113.808 106.495C114.822 106.257 116.256 105.829 116.93 105.172C117.643 104.474 117.627 103.309 117.136 102.628C117.818 102.105 118.491 101.368 118.245 100.353C118.016 99.3866 117.041 98.1424 116.32 97.3261C115.963 96.9061 115.805 97.0567 115.654 97.5639Z" fill="#0D8234"/>
<path d="M108.327 98.9424C108.247 99.8617 107.756 101.098 108.097 101.748C108.295 102.136 108.921 102.635 109.103 102.873C108.897 103.055 108.152 103.547 108.026 103.824C107.629 104.688 107.875 105.908 107.827 106.836C107.804 107.303 107.859 107.271 108.287 107.073C109.127 106.693 110.308 106.059 110.783 105.362C111.283 104.625 111.069 103.61 110.522 103.103C111.021 102.524 111.481 101.764 111.093 100.924C110.72 100.123 109.65 99.2039 108.874 98.6175C108.477 98.3163 108.358 98.4827 108.327 98.9424Z" fill="#0D8234"/>
<path d="M119.59 106.962C119.249 107.874 118.402 108.991 118.56 109.752C118.655 110.196 119.154 110.885 119.265 111.178C119.004 111.305 118.108 111.59 117.894 111.836C117.244 112.605 117.149 113.912 116.84 114.832C116.682 115.299 116.753 115.283 117.244 115.204C118.211 115.054 119.582 114.753 120.264 114.174C120.985 113.572 121.048 112.47 120.636 111.804C121.31 111.361 121.991 110.719 121.833 109.752C121.682 108.833 120.858 107.596 120.24 106.78C119.931 106.368 119.765 106.503 119.59 106.962Z" fill="#0D8234"/>
<defs>
<radialGradient id="paint0_radial_21_3291" cx="0" cy="0" r="1" gradientTransform="matrix(-0.298033 41.223 40.863 0.298033 99.8654 100.216)" gradientUnits="userSpaceOnUse">
<stop offset="0.0032" stop-color="#003107"/>
<stop offset="0.4356" stop-color="#869489"/>
<stop offset="0.64" stop-color="#CDD2CF"/>
<stop offset="0.6804" stop-color="#D7DBD8"/>
<stop offset="0.794" stop-color="#EDEFEE"/>
<stop offset="0.9027" stop-color="#FAFBFB"/>
<stop offset="1" stop-color="white"/>
</radialGradient>
<radialGradient id="paint1_radial_21_3291" cx="0" cy="0" r="1" gradientTransform="matrix(-0.0986883 13.6762 27.3327 0.19935 95.38 84.6137)" gradientUnits="userSpaceOnUse">
<stop stop-color="#007007"/>
<stop offset="1" stop-color="white"/>
</radialGradient>
<radialGradient id="paint2_radial_21_3291" cx="0" cy="0" r="1" gradientTransform="matrix(7.77284 17.168 26.2901 -11.8994 95.4091 111.241)" gradientUnits="userSpaceOnUse">
<stop stop-color="#007007"/>
<stop offset="1" stop-color="white"/>
</radialGradient>
</defs>
</svg>
