<svg width="200" height="200" viewBox="0 0 200 200" fill="none" xmlns="http://www.w3.org/2000/svg">
<rect width="200" height="200" fill="white"/>
<path d="M99.5685 141.444C122.138 141.61 140.564 123.288 140.73 100.52C140.897 77.7515 122.733 59.1597 100.171 59.0012C77.6008 58.8269 59.1676 77.1492 59.0011 99.9173C58.8347 122.685 76.9985 141.277 99.5685 141.444Z" fill="url(#paint0_radial_8_90)"/>
<path d="M109.354 120.578C115.995 117.542 118.143 113.318 120.758 106.994C121.448 105.33 122.177 103.674 122.715 101.946C123.183 100.44 123.888 99.1725 122.739 97.849C121.004 95.8361 119.625 95.2814 121.154 93.5775C121.971 92.6741 119.87 89.4487 119.609 88.2441C118.484 82.9899 116.003 79.7407 109.758 80.4064C106.747 80.7313 109.893 78.0607 107.983 75.2553C106.042 72.4023 102.872 69.8346 99.2817 69.0422C93.7818 67.8297 89.3915 68.6301 87.4578 73.8129C86.7525 75.7149 84.5969 75.913 83.2338 74.6292C80.4998 72.0536 73.407 77.0542 70.5937 80.8502C69.191 82.7442 68.2955 84.9394 67.7249 87.1267C66.7898 90.7087 67.0671 94.8772 68.026 97.8887C68.454 99.228 67.2811 99.5846 66.7343 100.504C62.7956 107.137 72.1945 115.228 79.0812 119.888C88.0046 125.927 101.445 129.414 108.102 121.885C108.475 121.473 108.681 120.887 109.354 120.578Z" fill="#64A019"/>
<mask id="mask0_8_90" style="mask-type:luminance" maskUnits="userSpaceOnUse" x="65" y="68" width="59" height="59">
<path d="M109.354 120.578C115.995 117.542 118.143 113.318 120.758 106.994C121.448 105.33 122.177 103.674 122.715 101.946C123.183 100.44 123.888 99.1725 122.739 97.849C121.004 95.8361 119.625 95.2814 121.154 93.5775C121.971 92.6741 119.87 89.4487 119.609 88.2441C118.484 82.9899 116.003 79.7407 109.758 80.4064C106.747 80.7313 109.893 78.0607 107.983 75.2553C106.042 72.4023 102.872 69.8346 99.2817 69.0422C93.7818 67.8297 89.3915 68.6301 87.4578 73.8129C86.7525 75.7149 84.5969 75.913 83.2338 74.6292C80.4998 72.0536 73.407 77.0542 70.5937 80.8502C69.191 82.7442 68.2955 84.9394 67.7249 87.1267C66.7898 90.7087 67.0671 94.8772 68.026 97.8887C68.454 99.228 67.2811 99.5846 66.7343 100.504C62.7956 107.137 72.1945 115.228 79.0812 119.888C88.0046 125.927 101.445 129.414 108.102 121.885C108.475 121.473 108.681 120.887 109.354 120.578Z" fill="white"/>
</mask>
<g mask="url(#mask0_8_90)">
<path opacity="0.92" d="M95.2848 98.2928C110.382 98.4038 122.665 92.3729 122.721 84.8126C122.776 77.2523 110.58 71.0471 95.4829 70.9362C80.3861 70.8253 68.1025 76.8561 68.0471 84.4164C67.9916 91.9767 80.1879 98.1819 95.2848 98.2928Z" fill="url(#paint1_radial_8_90)"/>
</g>
<path d="M68.3086 95.6138C64.5126 101.851 65.0991 106.55 66.478 113.255C66.8425 115.022 67.1595 116.805 67.6826 118.533C68.1422 120.046 68.269 121.481 69.957 121.94C72.5247 122.63 73.9749 122.321 73.6579 124.587C73.4915 125.792 77.0418 127.282 77.9294 128.137C81.8047 131.854 85.6799 133.162 90.4824 129.112C92.7964 127.155 91.687 131.133 94.8411 132.385C98.0506 133.661 102.108 134.01 105.532 132.655C110.762 130.578 113.956 127.456 112.648 122.075C112.173 120.102 113.845 118.731 115.691 119.032C119.4 119.634 122.467 111.511 122.665 106.796C122.76 104.442 122.277 102.128 121.516 99.9884C120.28 96.5014 117.72 93.1967 115.232 91.2472C114.13 90.3755 114.899 89.4245 114.835 88.3547C114.384 80.6596 102.061 79.2252 93.7474 79.2252C82.9775 79.2252 69.8857 83.8771 68.5939 93.8466C68.5305 94.3855 68.689 94.9878 68.3086 95.6138Z" fill="#639B13"/>
<mask id="mask1_8_90" style="mask-type:luminance" maskUnits="userSpaceOnUse" x="65" y="79" width="59" height="55">
<path d="M68.6783 95.6138C64.8823 101.851 65.4687 106.55 66.8556 113.255C67.2201 115.022 67.5371 116.805 68.0602 118.533C68.5119 120.046 68.6387 121.481 70.3346 121.94C72.9023 122.63 74.3525 122.321 74.0355 124.587C73.8691 125.792 77.4115 127.282 78.307 128.137C82.1823 131.854 86.0575 133.162 90.86 129.112C93.1741 127.155 92.0646 131.133 95.2187 132.385C98.4282 133.661 102.486 134.01 105.909 132.655C111.148 130.578 114.333 127.456 113.026 122.075C112.55 120.102 114.222 118.731 116.069 119.032C119.778 119.634 122.845 111.511 123.043 106.796C123.138 104.442 122.655 102.128 121.894 99.9884C120.657 96.5014 118.098 93.1967 115.609 91.2472C114.508 90.3755 115.276 89.4245 115.213 88.3547C114.761 80.6596 102.438 79.2252 94.125 79.2252C83.3551 79.2252 70.2633 83.8771 68.9715 93.8466C68.9081 94.3855 69.0666 94.9878 68.6783 95.6138Z" fill="white"/>
</mask>
<g mask="url(#mask1_8_90)">
<path opacity="0.92" d="M103.184 128.407C117.702 121.837 125.992 108.817 121.704 99.3388C117.409 89.8527 102.162 87.4991 87.6434 94.0688C73.125 100.638 64.8356 113.659 69.123 123.137C73.4103 132.623 88.6657 134.985 103.184 128.407Z" fill="url(#paint2_radial_8_90)"/>
</g>
<path d="M111.886 104.839C111.894 104.696 111.87 104.553 111.87 104.411C111.87 104.094 111.838 103.761 111.695 103.476C111.585 103.254 111.418 103.072 111.347 102.842C110.832 101.233 111.569 100.726 111.608 99.6797C111.624 99.3469 111.228 99.1329 111.014 98.8714C110.499 98.2374 111.838 97.0407 111.331 96.4067C111.204 96.2562 111.648 96.0501 111.418 95.4874C111.054 94.5682 109.881 94.4017 109.025 93.744C109.009 93.7361 109.001 93.7044 108.993 93.7202C108.906 93.8312 109.136 93.8312 108.692 93.4983C108.209 93.1417 107.456 93.0466 106.933 92.6424C105.57 91.5884 105.546 90.4076 104.983 88.9494C104.103 86.6592 100.664 81.5318 97.0345 83.3624C96.2895 83.7349 95.1484 83.7745 94.5698 83.0454C91.9546 79.7487 86.8114 81.2861 83.1184 81.8091C82.2308 81.9359 81.3036 82.348 80.733 83.0296C80.3923 83.4417 80.5983 84.0439 80.741 84.6462C80.9074 85.3515 80.099 85.7319 79.7741 86.3501C79.4413 86.9603 79.5602 87.7369 78.8865 88.5215C77.9356 89.631 76.3189 89.4487 75.1936 90.7325C74.5279 91.4933 74.5041 92.7613 73.8622 93.5142C73.2916 94.1719 72.7527 94.4097 71.9523 94.7663C71.6828 94.8852 71.3896 94.8852 71.2311 95.0516C70.5258 95.7886 70.4386 97.0328 70.5813 98.063C70.8428 99.9888 72.404 101.756 71.9285 103.729C71.8096 104.236 70.9538 104.744 70.7873 105.449C70.5734 106.368 71.033 107.375 71.564 108.136C72.9508 110.141 74.0207 109.705 74.6071 112.098C74.8845 113.247 76.2476 111.512 76.6359 111.282C78.4111 110.251 79.8692 110.141 81.6919 111.06C82.7063 111.575 82.9044 112.914 82.421 113.841C81.6444 115.323 79.2035 116.124 79.4651 117.725C79.5443 118.224 80.0119 118.525 80.313 118.921C82.5399 121.941 87.2552 122.052 91.2889 122.052C91.709 122.052 92.1211 122.02 92.5411 121.988C94.9661 121.798 98.247 121.164 98.2628 119.587C98.2787 118.057 99.9191 117.162 101.322 117.836C101.449 117.899 101.615 118.081 101.726 117.994C102.923 116.972 102.661 115.133 104.222 115.498C104.547 115.569 105.205 116.235 105.95 116.068C110.087 115.133 111.688 109.269 111.886 104.839Z" fill="#76AE10"/>
<path d="M87.1201 85.7079C86.5891 86.0091 85.7332 86.1992 85.5034 86.6272C85.3687 86.8808 85.329 87.4117 85.2656 87.594C85.0834 87.5465 84.5445 87.3246 84.3464 87.3563C83.7282 87.4672 83.1497 88.0537 82.6267 88.3707C82.3651 88.5292 82.4048 88.5529 82.6663 88.7114C83.1893 89.0284 83.9739 89.4326 84.5286 89.4326C85.1151 89.4326 85.5906 88.9333 85.6619 88.442C86.1612 88.4975 86.7476 88.4658 87.0646 87.9427C87.3657 87.4435 87.4608 86.5162 87.5005 85.8743C87.5242 85.5573 87.3895 85.5573 87.1201 85.7079Z" fill="#0D8234"/>
<path d="M77.4091 100.694C77.7578 100.258 78.4314 99.8139 78.4789 99.3701C78.5106 99.1086 78.368 98.6489 78.3601 98.4667C78.5265 98.4429 79.0654 98.4587 79.2239 98.3636C79.7152 98.0704 80.0084 97.373 80.3492 96.9292C80.5235 96.7074 80.476 96.6994 80.1986 96.6519C79.6518 96.5568 78.8435 96.4696 78.368 96.6519C77.8687 96.8421 77.631 97.4285 77.7261 97.8644C77.2823 97.9833 76.7909 98.2051 76.6958 98.7599C76.6087 99.2829 76.8226 100.107 77.0128 100.67C77.1158 100.955 77.2268 100.908 77.4091 100.694Z" fill="#0D8234"/>
<path d="M76.8898 98.9583C77.2623 98.4828 77.9597 97.9915 78.0072 97.516C78.031 97.2386 77.8725 96.7393 77.8566 96.5491C78.0389 96.5254 78.6095 96.5254 78.7838 96.4144C79.3069 96.0816 79.608 95.3366 79.9646 94.8532C80.1469 94.6075 80.0994 94.6076 79.7982 94.56C79.2039 94.4728 78.3401 94.3936 77.8408 94.5996C77.3098 94.8215 77.0641 95.4476 77.183 95.9231C76.7075 96.0578 76.1845 96.3035 76.0973 96.9058C76.0101 97.4763 76.2717 98.3481 76.4777 98.9424C76.5807 99.2436 76.7075 99.196 76.8898 98.9583Z" fill="#0D8234"/>
<path d="M75.8717 90.5268C76.0777 91.1291 76.1094 92.0484 76.5057 92.3654C76.7355 92.5477 77.2744 92.6982 77.4487 92.7933C77.3695 92.9677 77.0287 93.4828 77.0287 93.6968C77.0208 94.3545 77.5121 95.0519 77.734 95.6542C77.845 95.9554 77.8767 95.9157 78.0906 95.678C78.5186 95.2025 79.0892 94.4813 79.1922 93.9108C79.3032 93.3085 78.8831 92.73 78.3997 92.5556C78.5582 92.0563 78.6375 91.4461 78.154 91.0182C77.6944 90.614 76.7672 90.3287 76.1174 90.1702C75.7924 90.083 75.7687 90.2178 75.8717 90.5268Z" fill="#0D8234"/>
<path d="M81.4564 85.3592C81.6545 85.9852 81.6624 86.9283 82.0587 87.2611C82.2964 87.4592 82.8432 87.6177 83.0176 87.7287C82.9304 87.903 82.5738 88.4261 82.5658 88.64C82.5421 89.3137 83.0255 90.0507 83.2395 90.6688C83.3504 90.9858 83.3821 90.9462 83.604 90.7005C84.0557 90.225 84.658 89.4959 84.7848 88.9095C84.9195 88.2914 84.4995 87.6811 84.0082 87.4989C84.1825 86.9838 84.2776 86.3656 83.7942 85.9139C83.3346 85.486 82.3836 85.169 81.7179 84.9946C81.385 84.9074 81.3533 85.0422 81.4564 85.3592Z" fill="#0D8234"/>
<path d="M86.5189 86.9841C85.9325 86.9762 85.1242 86.7226 84.72 86.9762C84.4823 87.1188 84.197 87.5468 84.0543 87.6657C83.9275 87.5389 83.5788 87.0871 83.3966 87.0237C82.826 86.8098 82.0652 87.0237 81.4708 87.0396C81.1697 87.0475 81.1934 87.0792 81.3361 87.3407C81.6214 87.8558 82.0731 88.577 82.5407 88.8465C83.032 89.1318 83.666 88.9416 83.9671 88.5691C84.3555 88.8623 84.8627 89.1159 85.3778 88.8306C85.8691 88.5532 86.4001 87.8321 86.7408 87.317C86.9231 87.0554 86.8201 86.9841 86.5189 86.9841Z" fill="#0D8234"/>
<path d="M89.5355 85.9853C88.9887 86.0962 88.1804 86.0249 87.8555 86.334C87.6653 86.5162 87.483 86.968 87.3721 87.1185C87.2294 87.0314 86.8173 86.6747 86.6271 86.651C86.0565 86.5717 85.3829 86.9204 84.8361 87.0472C84.5587 87.1106 84.5904 87.1423 84.7727 87.3563C85.1452 87.7842 85.7158 88.3627 86.1992 88.5212C86.7143 88.6877 87.269 88.3865 87.4751 87.9744C87.8951 88.1646 88.4181 88.3073 88.8461 87.9348C89.2503 87.5782 89.5989 86.7936 89.8129 86.2468C89.9318 85.9615 89.8129 85.9219 89.5355 85.9853Z" fill="#0D8234"/>
<path d="M86.8975 86.8253C87.4127 86.437 88.2923 86.1121 88.4746 85.6366C88.5776 85.3513 88.5538 84.7886 88.5935 84.5826C88.7916 84.6063 89.3939 84.7728 89.5999 84.7094C90.2418 84.5112 90.7649 83.8138 91.2721 83.4097C91.5336 83.2036 91.486 83.1878 91.1849 83.0531C90.5905 82.7915 89.7109 82.4666 89.1244 82.5379C88.5063 82.6172 88.0704 83.2116 88.0625 83.7346C87.5236 83.7425 86.9134 83.8535 86.6519 84.4558C86.4062 85.0263 86.4221 86.017 86.4775 86.6985C86.4934 87.0393 86.636 87.0234 86.8975 86.8253Z" fill="#0D8234"/>
<path d="M93.2928 89.0127C92.8411 88.5293 92.4211 87.6734 91.9139 87.5387C91.6127 87.4594 91.0501 87.5545 90.8361 87.5307C90.8361 87.3326 90.9391 86.6986 90.8519 86.5005C90.5825 85.8745 89.8217 85.4148 89.3541 84.9472C89.1164 84.7095 89.1085 84.7571 89.0055 85.074C88.7994 85.708 88.5696 86.6352 88.7043 87.2217C88.8549 87.8398 89.4968 88.2123 90.0278 88.1727C90.0912 88.7195 90.2734 89.3297 90.9074 89.5278C91.5097 89.718 92.5082 89.5912 93.1977 89.4644C93.5464 89.401 93.5147 89.2584 93.2928 89.0127Z" fill="#0D8234"/>
<path d="M94.55 81.9441C94.2885 82.5623 93.6624 83.3072 93.7575 83.8382C93.813 84.1472 94.13 84.6386 94.2013 84.8446C94.019 84.9239 93.385 85.0903 93.2345 85.2567C92.7669 85.7639 92.6559 86.6674 92.4103 87.2934C92.2835 87.6104 92.3389 87.6025 92.6718 87.5628C93.3454 87.4915 94.3043 87.3251 94.7877 86.9447C95.3028 86.5485 95.3821 85.7956 95.1206 85.3201C95.5961 85.0348 96.0874 84.6148 96.0161 83.9412C95.9448 83.2993 95.4059 82.4196 95.0096 81.8411C94.8036 81.54 94.6847 81.6271 94.55 81.9441Z" fill="#0D8234"/>
<path d="M100.077 91.3981C99.5227 91.1762 98.857 90.6373 98.3894 90.7165C98.1121 90.7641 97.6841 91.0573 97.5019 91.1207C97.4305 90.9543 97.272 90.4075 97.1215 90.2728C96.6618 89.8607 95.8614 89.7814 95.3067 89.5754C95.0214 89.4723 95.0293 89.512 95.0689 89.8131C95.1403 90.4075 95.3067 91.2554 95.6395 91.6755C95.9961 92.1272 96.6618 92.1826 97.0818 91.9449C97.3434 92.3649 97.7238 92.7929 98.3181 92.7136C98.8808 92.6423 99.6574 92.1589 100.165 91.7943C100.434 91.62 100.355 91.517 100.077 91.3981Z" fill="#0D8234"/>
<path d="M104.606 88.4981C104.059 88.4189 103.33 88.086 102.926 88.2683C102.688 88.3792 102.363 88.7359 102.221 88.8389C102.11 88.7042 101.848 88.2366 101.682 88.1494C101.174 87.88 100.43 87.9909 99.8827 87.9275C99.5974 87.8958 99.6212 87.9354 99.7242 88.197C99.9224 88.72 100.263 89.4491 100.667 89.7582C101.095 90.0831 101.713 89.988 102.038 89.6789C102.371 90.0038 102.807 90.305 103.33 90.0989C103.829 89.9008 104.416 89.2906 104.796 88.8468C104.978 88.617 104.883 88.5377 104.606 88.4981Z" fill="#0D8234"/>
<path d="M102.113 93.7047C102.383 93.1658 102.977 92.5318 102.93 92.0484C102.898 91.771 102.636 91.3114 102.589 91.1212C102.763 91.0578 103.334 90.9389 103.477 90.8042C103.928 90.3762 104.071 89.5758 104.324 89.0211C104.451 88.7437 104.412 88.7437 104.103 88.7596C103.5 88.7913 102.629 88.8864 102.169 89.1954C101.686 89.5203 101.575 90.194 101.781 90.6377C101.337 90.8676 100.869 91.2163 100.901 91.8265C100.933 92.405 101.361 93.2213 101.693 93.7681C101.868 94.0454 101.979 93.9741 102.113 93.7047Z" fill="#0D8234"/>
<path d="M103.275 101.177C103.346 100.567 103.711 99.7509 103.497 99.3071C103.37 99.0456 102.966 98.6969 102.855 98.5304C102.997 98.4116 103.513 98.1104 103.6 97.9281C103.885 97.3655 103.75 96.5413 103.814 95.9311C103.845 95.622 103.798 95.6379 103.513 95.7567C102.942 95.9945 102.142 96.3828 101.801 96.8266C101.444 97.3021 101.563 97.9836 101.92 98.3402C101.571 98.7127 101.246 99.204 101.484 99.7826C101.714 100.337 102.403 100.971 102.902 101.383C103.156 101.597 103.243 101.486 103.275 101.177Z" fill="#0D8234"/>
<path d="M111.151 101.154C110.557 101.225 109.709 101.075 109.344 101.376C109.13 101.55 108.892 102.018 108.766 102.16C108.623 102.049 108.219 101.645 108.021 101.598C107.418 101.463 106.681 101.772 106.087 101.859C105.786 101.907 105.818 101.938 105.992 102.184C106.349 102.667 106.895 103.333 107.403 103.547C107.933 103.769 108.552 103.5 108.797 103.087C109.225 103.333 109.772 103.523 110.255 103.167C110.715 102.826 111.159 102.026 111.428 101.463C111.571 101.17 111.452 101.114 111.151 101.154Z" fill="#0D8234"/>
<path d="M109.303 106.962C109.192 106.376 109.279 105.528 108.946 105.187C108.756 104.989 108.281 104.791 108.13 104.672C108.225 104.521 108.598 104.086 108.629 103.895C108.724 103.293 108.352 102.58 108.225 102.001C108.162 101.7 108.13 101.732 107.9 101.93C107.449 102.318 106.83 102.913 106.656 103.428C106.474 103.967 106.791 104.561 107.219 104.775C107.013 105.219 106.862 105.774 107.25 106.225C107.623 106.661 108.447 107.034 109.026 107.263C109.319 107.382 109.358 107.263 109.303 106.962Z" fill="#0D8234"/>
<path d="M104.616 105.679C104.553 106.281 104.204 107.082 104.418 107.518C104.545 107.771 104.949 108.112 105.06 108.27C104.917 108.389 104.418 108.698 104.331 108.873C104.053 109.435 104.196 110.236 104.148 110.846C104.125 111.155 104.164 111.131 104.45 111.012C105.012 110.775 105.789 110.378 106.114 109.935C106.455 109.459 106.328 108.794 105.979 108.445C106.32 108.072 106.637 107.581 106.391 107.018C106.161 106.487 105.472 105.861 104.973 105.465C104.727 105.275 104.648 105.378 104.616 105.679Z" fill="#0D8234"/>
<path d="M101.915 112.732C101.368 112.574 100.687 112.13 100.251 112.257C99.9974 112.336 99.617 112.653 99.4506 112.732C99.3634 112.582 99.1574 112.074 99.0068 111.964C98.5313 111.623 97.7705 111.623 97.2158 111.48C96.9384 111.409 96.9463 111.448 97.0177 111.726C97.1445 112.281 97.3822 113.065 97.7468 113.438C98.1271 113.826 98.7691 113.818 99.1415 113.549C99.4268 113.921 99.831 114.286 100.386 114.159C100.917 114.032 101.598 113.501 102.042 113.105C102.28 112.899 102.193 112.812 101.915 112.732Z" fill="#0D8234"/>
<path d="M93.0149 115.18C93.1655 115.909 93.0783 116.971 93.4904 117.391C93.7361 117.637 94.3304 117.875 94.5206 118.017C94.4018 118.208 93.9421 118.754 93.9104 119C93.8074 119.761 94.2829 120.641 94.4572 121.362C94.5444 121.726 94.584 121.687 94.8693 121.441C95.4241 120.95 96.1848 120.197 96.3909 119.547C96.6049 118.865 96.2007 118.136 95.6618 117.875C95.9154 117.312 96.0897 116.623 95.5984 116.068C95.1308 115.537 94.0927 115.085 93.3636 114.808C92.9832 114.665 92.9357 114.816 93.0149 115.18Z" fill="#0D8234"/>
<path d="M89.6846 112.652C89.011 113.318 87.7985 113.96 87.6241 114.697C87.5211 115.133 87.6796 115.941 87.6638 116.25C87.3785 116.258 86.4671 116.139 86.1818 116.266C85.2942 116.678 84.6682 117.795 84.0104 118.485C83.6776 118.834 83.7489 118.849 84.2085 118.984C85.1199 119.246 86.4671 119.547 87.3072 119.317C88.1947 119.079 88.7019 118.136 88.6148 117.375C89.3914 117.264 90.2631 116.971 90.5246 116.052C90.7703 115.172 90.5484 113.738 90.3424 112.763C90.2235 112.264 90.0254 112.311 89.6846 112.652Z" fill="#0D8234"/>
<path d="M86.3917 110.426C85.726 110.426 84.7988 110.156 84.355 110.441C84.0935 110.608 83.7686 111.091 83.6101 111.242C83.4595 111.107 83.0633 110.6 82.8572 110.521C82.2074 110.291 81.3436 110.544 80.6779 110.568C80.3371 110.576 80.3688 110.624 80.5353 110.917C80.8681 111.495 81.3911 112.312 81.9221 112.605C82.4848 112.922 83.2059 112.7 83.5308 112.272C83.9746 112.597 84.5532 112.882 85.1396 112.549C85.6943 112.232 86.2887 111.4 86.6612 110.806C86.8593 110.497 86.7325 110.426 86.3917 110.426Z" fill="#0D8234"/>
<path d="M78.9402 104.751C78.7658 105.354 78.2745 106.115 78.4172 106.59C78.4964 106.875 78.853 107.287 78.9402 107.47C78.7738 107.565 78.2111 107.787 78.0922 107.961C77.7118 108.484 77.7118 109.332 77.5533 109.942C77.4741 110.251 77.5216 110.235 77.8307 110.164C78.4409 110.021 79.3127 109.76 79.7248 109.364C80.1606 108.944 80.1448 108.238 79.8516 107.826C80.2636 107.509 80.6757 107.066 80.5252 106.447C80.3825 105.861 79.7961 105.108 79.3602 104.617C79.1225 104.347 79.0274 104.442 78.9402 104.751Z" fill="#0D8234"/>
<path d="M81.6309 102.842C81.5834 103.396 81.2902 104.149 81.4962 104.545C81.6151 104.775 81.9955 105.084 82.1064 105.227C81.9796 105.338 81.5279 105.631 81.4487 105.806C81.2109 106.329 81.3615 107.074 81.3298 107.628C81.3139 107.914 81.3536 107.89 81.6072 107.771C82.1143 107.541 82.8355 107.161 83.1208 106.733C83.4219 106.289 83.2951 105.671 82.9623 105.362C83.2634 105.013 83.5408 104.553 83.311 104.038C83.0891 103.555 82.4393 103 81.9717 102.636C81.726 102.461 81.6547 102.556 81.6309 102.842Z" fill="#0D8234"/>
<path d="M74.6944 101.011C74.4884 101.565 73.9733 102.239 74.0763 102.699C74.1318 102.968 74.4329 103.388 74.5042 103.562C74.3457 103.642 73.7989 103.808 73.6721 103.959C73.2838 104.426 73.2204 105.219 73.0302 105.773C72.9351 106.059 72.9747 106.051 73.2759 106.003C73.8623 105.908 74.6944 105.726 75.1065 105.377C75.5424 105.013 75.582 104.347 75.3284 103.943C75.7326 103.673 76.1526 103.285 76.0575 102.699C75.9703 102.144 75.4631 101.391 75.0907 100.9C74.8925 100.654 74.7974 100.733 74.6944 101.011Z" fill="#0D8234"/>
<path d="M106.851 119.453C107.438 118.739 108.539 117.994 108.619 117.265C108.666 116.837 108.436 116.069 108.42 115.775C108.698 115.744 109.585 115.76 109.847 115.601C110.663 115.11 111.147 113.969 111.709 113.24C111.995 112.867 111.923 112.859 111.464 112.78C110.552 112.621 109.229 112.471 108.444 112.78C107.62 113.097 107.224 114.064 107.39 114.785C106.653 114.975 105.845 115.34 105.686 116.259C105.536 117.131 105.9 118.486 106.209 119.413C106.368 119.888 106.55 119.817 106.851 119.453Z" fill="#0D8234"/>
<path d="M106.345 123.011C106.955 122.234 108.12 121.41 108.191 120.625C108.239 120.165 107.969 119.349 107.946 119.032C108.239 118.985 109.198 118.993 109.475 118.818C110.339 118.271 110.83 117.035 111.417 116.243C111.718 115.839 111.639 115.831 111.139 115.759C110.164 115.609 108.738 115.482 107.906 115.823C107.026 116.187 106.63 117.225 106.82 118.002C106.036 118.224 105.172 118.636 105.029 119.619C104.887 120.554 105.314 122.004 105.655 122.987C105.838 123.486 106.036 123.407 106.345 123.011Z" fill="#0D8234"/>
<path d="M101.973 121.315C102.314 122.305 102.369 123.819 103.019 124.342C103.407 124.651 104.287 124.889 104.58 125.047C104.446 125.333 103.891 126.181 103.891 126.529C103.875 127.615 104.691 128.772 105.056 129.755C105.246 130.254 105.293 130.191 105.65 129.794C106.355 129.01 107.291 127.813 107.473 126.87C107.663 125.879 106.966 124.913 106.165 124.635C106.427 123.803 106.554 122.797 105.761 122.099C105.008 121.434 103.471 120.966 102.393 120.704C101.846 120.586 101.799 120.808 101.973 121.315Z" fill="#0D8234"/>
<path d="M94.4117 125.776C94.7366 126.806 94.7524 128.368 95.4102 128.922C95.7985 129.247 96.7019 129.517 96.9952 129.691C96.8525 129.984 96.2581 130.84 96.2423 131.205C96.1947 132.322 97.0031 133.535 97.3597 134.557C97.542 135.08 97.5895 135.009 97.9699 134.612C98.7148 133.82 99.7134 132.615 99.9194 131.656C100.141 130.642 99.4519 129.636 98.6277 129.327C98.913 128.479 99.0794 127.448 98.279 126.711C97.5182 126.006 95.957 125.483 94.8554 125.19C94.3007 125.031 94.2452 125.253 94.4117 125.776Z" fill="#0D8234"/>
<path d="M99.1801 123.423C98.2053 123.415 96.874 122.995 96.2162 123.407C95.8279 123.645 95.3524 124.342 95.1146 124.548C94.9007 124.342 94.338 123.597 94.0369 123.486C93.0938 123.137 91.8337 123.494 90.859 123.51C90.3676 123.518 90.4073 123.581 90.645 124.009C91.1126 124.865 91.8654 126.054 92.6342 126.498C93.4425 126.965 94.4965 126.656 94.9878 126.046C95.6298 126.529 96.4698 126.949 97.3257 126.474C98.1419 126.022 99.0216 124.825 99.5763 123.97C99.8537 123.542 99.6714 123.431 99.1801 123.423Z" fill="#0D8234"/>
<path d="M91.1589 124.643C90.2476 124.833 88.9162 124.706 88.3852 125.221C88.0761 125.522 87.7671 126.267 87.5927 126.513C87.355 126.362 86.6734 125.784 86.3723 125.736C85.4213 125.602 84.3198 126.18 83.4163 126.394C82.9567 126.505 83.0042 126.553 83.3133 126.909C83.9235 127.615 84.8666 128.573 85.667 128.835C86.5149 129.112 87.4342 128.613 87.775 127.939C88.4724 128.256 89.3362 128.486 90.0415 127.868C90.7151 127.282 91.2936 125.99 91.6423 125.079C91.8087 124.619 91.6186 124.556 91.1589 124.643Z" fill="#0D8234"/>
<path d="M81.6927 128.083C82.5485 127.441 83.9988 126.91 84.2999 126.109C84.4743 125.642 84.4267 124.707 84.4901 124.374C84.815 124.413 85.8057 124.683 86.1464 124.58C87.2004 124.255 88.0642 123.098 88.9043 122.432C89.3322 122.091 89.253 122.068 88.7537 121.846C87.771 121.41 86.3208 120.879 85.346 121.006C84.3237 121.132 83.6105 122.115 83.5946 122.979C82.707 122.987 81.6927 123.177 81.2647 124.168C80.8526 125.111 80.8843 126.743 80.9715 127.869C81.027 128.431 81.2568 128.407 81.6927 128.083Z" fill="#0D8234"/>
<path d="M85.7683 125.094C85.0234 124.294 84.3339 122.883 83.4939 122.662C83.0026 122.535 82.0595 122.685 81.7108 122.654C81.7108 122.321 81.8852 121.283 81.7425 120.95C81.2987 119.912 80.0387 119.159 79.27 118.382C78.8816 117.986 78.8658 118.065 78.6914 118.596C78.3586 119.634 77.9703 121.172 78.2001 122.138C78.4458 123.161 79.5077 123.779 80.3874 123.7C80.4904 124.595 80.7915 125.61 81.8376 125.934C82.8361 126.251 84.4845 126.038 85.6178 125.831C86.1963 125.728 86.1487 125.499 85.7683 125.094Z" fill="#0D8234"/>
<path d="M76.4606 117.256C76.0247 118.279 75.0024 119.507 75.145 120.387C75.2322 120.902 75.7552 121.71 75.8741 122.043C75.565 122.178 74.5269 122.455 74.2812 122.725C73.5046 123.565 73.3302 125.055 72.9181 126.093C72.7121 126.616 72.7913 126.6 73.354 126.544C74.4635 126.426 76.0485 126.148 76.8489 125.53C77.6968 124.88 77.8316 123.636 77.3957 122.844C78.1882 122.376 78.9965 121.679 78.8697 120.561C78.7508 119.499 77.8633 118.049 77.2055 117.09C76.8727 116.591 76.6825 116.733 76.4606 117.256Z" fill="#0D8234"/>
<path d="M79.2628 113.017C78.3514 112.644 77.2499 111.757 76.4812 111.9C76.0294 111.979 75.3162 112.462 75.023 112.565C74.8962 112.296 74.6426 111.384 74.3969 111.163C73.6441 110.489 72.3206 110.354 71.4013 110.005C70.9338 109.831 70.9496 109.902 71.013 110.402C71.1398 111.376 71.4013 112.779 71.964 113.484C72.5504 114.229 73.6599 114.325 74.3494 113.928C74.7773 114.618 75.4034 115.331 76.3861 115.204C77.3212 115.085 78.5892 114.285 79.4371 113.683C79.8571 113.374 79.7303 113.207 79.2628 113.017Z" fill="#0D8234"/>
<path d="M67.4986 110.536C67.2608 111.424 66.5714 112.549 66.7933 113.247C66.9201 113.659 67.451 114.253 67.5858 114.515C67.348 114.657 66.5397 115.006 66.3653 115.26C65.8264 116.044 65.8581 117.28 65.6521 118.176C65.5491 118.628 65.6125 118.612 66.0642 118.493C66.9518 118.263 68.2197 117.843 68.8062 117.249C69.4243 116.615 69.3847 115.584 68.933 114.99C69.5194 114.515 70.1059 113.841 69.8681 112.953C69.6462 112.105 68.7507 111.02 68.0929 110.314C67.7601 109.942 67.6175 110.085 67.4986 110.536Z" fill="#0D8234"/>
<path d="M65.5879 112.289C66.0317 111.393 67.0223 110.347 66.9352 109.554C66.8876 109.087 66.4597 108.334 66.3725 108.025C66.6578 107.922 67.6009 107.732 67.8386 107.502C68.5835 106.789 68.8213 105.465 69.2413 104.554C69.4553 104.094 69.376 104.102 68.8768 104.126C67.8782 104.173 66.4438 104.34 65.683 104.847C64.8826 105.386 64.7004 106.495 65.049 107.225C64.312 107.605 63.5512 108.183 63.5988 109.19C63.6543 110.149 64.3596 111.496 64.9064 112.399C65.1758 112.859 65.3581 112.74 65.5879 112.289Z" fill="#0D8234"/>
<path d="M72.0521 101.503C72.1789 100.496 72.7733 99.1569 72.4246 98.4198C72.2186 97.9919 71.5529 97.4134 71.3627 97.1439C71.6004 96.9458 72.4404 96.4465 72.591 96.1454C73.0665 95.2103 72.8446 93.8551 72.9397 92.8407C72.9873 92.3256 72.9159 92.3653 72.4404 92.5555C71.4974 92.9438 70.1739 93.5857 69.6192 94.3306C69.0328 95.1152 69.2309 96.2484 69.8094 96.8269C69.2309 97.4372 68.692 98.2613 69.0882 99.2044C69.4607 100.108 70.6019 101.162 71.4261 101.843C71.854 102.192 71.9887 102.018 72.0521 101.503Z" fill="#0D8234"/>
<path d="M72.169 89.2027C71.1863 89.3216 69.7915 89.068 69.1813 89.5673C68.8247 89.8605 68.4363 90.6213 68.2224 90.859C67.9846 90.6847 67.311 90.0031 66.994 89.9318C66.0034 89.702 64.7751 90.225 63.8003 90.3677C63.301 90.439 63.3565 90.4945 63.6497 90.9066C64.2362 91.707 65.1475 92.8086 65.9796 93.1573C66.8593 93.5218 67.8737 93.078 68.2858 92.3965C68.999 92.8006 69.8945 93.1176 70.6949 92.5233C71.4557 91.9606 72.1848 90.6451 72.6365 89.7099C72.8584 89.2265 72.6603 89.1393 72.169 89.2027Z" fill="#0D8234"/>
<path d="M70.5736 87.8715C70.3834 86.9047 70.5261 85.502 69.9872 84.9393C69.6702 84.6064 68.8856 84.2736 68.6321 84.0913C68.7905 83.8457 69.4087 83.1245 69.4642 82.8075C69.6147 81.809 69.0124 80.6361 68.7985 79.6772C68.6875 79.1938 68.64 79.2413 68.2596 79.5662C67.5146 80.2002 66.4923 81.1908 66.207 82.0388C65.9059 82.9343 66.4289 83.9091 67.1343 84.2657C66.7935 85.0027 66.5399 85.914 67.1818 86.659C67.792 87.3722 69.1551 87.9983 70.114 88.3708C70.5974 88.561 70.6687 88.3549 70.5736 87.8715Z" fill="#0D8234"/>
<path d="M76.7658 76.0396C76.6548 77.0381 76.0922 78.3616 76.4409 79.0748C76.6469 79.4948 77.3126 80.0575 77.5028 80.319C77.273 80.5171 76.4488 81.0164 76.3061 81.3175C75.8544 82.2447 76.0842 83.5761 76.005 84.5747C75.9654 85.0819 76.0288 85.0422 76.4963 84.8441C77.4156 84.4558 78.7153 83.806 79.2463 83.061C79.8089 82.2765 79.6029 81.167 79.0244 80.6043C79.587 79.9941 80.1021 79.1778 79.7059 78.2585C79.3255 77.3789 78.1923 76.3566 77.3681 75.6988C76.9481 75.366 76.8213 75.5324 76.7658 76.0396Z" fill="#0D8234"/>
<path d="M91.217 79.8046C90.3135 79.5431 89.1803 78.814 88.467 79.02C88.047 79.1468 87.421 79.6699 87.1515 79.7967C87.0089 79.551 86.676 78.711 86.4224 78.5287C85.6379 77.966 84.3778 77.966 83.4665 77.7283C83.0068 77.6094 83.0227 77.6807 83.1336 78.1404C83.3476 79.0517 83.7438 80.3514 84.3382 80.9616C84.9722 81.6035 86.0262 81.5877 86.6443 81.1439C87.1198 81.7541 87.7855 82.3643 88.7048 82.1504C89.5765 81.9364 90.7019 81.0567 91.4468 80.4069C91.8113 80.082 91.6687 79.9314 91.217 79.8046Z" fill="#0D8234"/>
<path d="M97.1527 70.9999C97.3587 71.9667 97.2399 73.3853 97.7867 73.9479C98.1116 74.2808 98.9041 74.5977 99.1656 74.7879C99.0071 75.0415 98.3969 75.7706 98.3493 76.0956C98.2146 77.102 98.8407 78.2749 99.0705 79.2417C99.1894 79.7331 99.2448 79.6776 99.6173 79.3447C100.362 78.6949 101.377 77.6805 101.646 76.8246C101.931 75.9212 101.392 74.9464 100.679 74.5898C101.012 73.8449 101.25 72.9256 100.592 72.1807C99.966 71.4754 98.5871 70.8651 97.6123 70.5006C97.1131 70.3025 97.0417 70.5085 97.1527 70.9999Z" fill="#0D8234"/>
<path d="M118.606 83.5603C117.703 82.966 116.704 81.7614 115.84 81.7535C115.333 81.7456 114.461 82.1101 114.121 82.1576C114.049 81.8407 113.962 80.7946 113.748 80.5093C113.074 79.6138 111.688 79.1858 110.76 78.6152C110.301 78.322 110.301 78.4013 110.261 78.9481C110.182 80.0338 110.166 81.595 110.618 82.4746C111.093 83.4018 112.266 83.7505 113.09 83.4732C113.399 84.3132 113.93 85.2166 115.016 85.288C116.054 85.3593 117.592 84.7729 118.638 84.3053C119.169 84.0675 119.066 83.8615 118.606 83.5603Z" fill="#0D8234"/>
<path d="M115.822 92.9434C114.72 92.9513 113.199 92.4917 112.454 92.9672C112.018 93.2445 111.487 94.045 111.225 94.2827C110.98 94.0529 110.33 93.2128 109.981 93.094C108.911 92.7136 107.485 93.1336 106.383 93.1732C105.821 93.1891 105.868 93.2604 106.146 93.7517C106.692 94.7106 107.564 96.0499 108.444 96.5413C109.371 97.0643 110.56 96.6918 111.107 95.9865C111.844 96.5254 112.802 96.993 113.761 96.4383C114.681 95.9152 115.655 94.5442 116.281 93.5615C116.583 93.0623 116.377 92.9434 115.822 92.9434Z" fill="#0D8234"/>
<path d="M115.654 97.5639C115.369 98.5624 114.553 99.8145 114.782 100.599C114.917 101.067 115.496 101.756 115.646 102.057C115.377 102.216 114.45 102.588 114.244 102.866C113.618 103.729 113.618 105.124 113.356 106.131C113.221 106.638 113.301 106.614 113.808 106.495C114.822 106.257 116.257 105.829 116.93 105.172C117.643 104.474 117.628 103.309 117.136 102.628C117.818 102.105 118.491 101.368 118.246 100.353C118.016 99.3866 117.041 98.1424 116.32 97.3261C115.963 96.9061 115.805 97.0567 115.654 97.5639Z" fill="#0D8234"/>
<path d="M108.326 98.9425C108.247 99.8618 107.756 101.098 108.097 101.748C108.295 102.136 108.921 102.635 109.103 102.873C108.897 103.056 108.152 103.547 108.025 103.824C107.629 104.688 107.875 105.908 107.827 106.836C107.803 107.303 107.859 107.272 108.287 107.073C109.127 106.693 110.308 106.059 110.783 105.362C111.282 104.625 111.068 103.61 110.522 103.103C111.021 102.525 111.481 101.764 111.092 100.924C110.72 100.123 109.65 99.204 108.873 98.6176C108.477 98.3164 108.358 98.4829 108.326 98.9425Z" fill="#0D8234"/>
<path d="M119.59 106.962C119.249 107.874 118.401 108.991 118.56 109.752C118.655 110.196 119.154 110.885 119.265 111.178C119.004 111.305 118.108 111.59 117.894 111.836C117.244 112.605 117.149 113.912 116.84 114.832C116.682 115.299 116.753 115.283 117.244 115.204C118.211 115.054 119.582 114.753 120.264 114.174C120.985 113.572 121.048 112.47 120.636 111.804C121.31 111.361 121.991 110.719 121.833 109.752C121.682 108.833 120.858 107.596 120.24 106.78C119.931 106.368 119.764 106.503 119.59 106.962Z" fill="#0D8234"/>
<defs>
<radialGradient id="paint0_radial_8_90" cx="0" cy="0" r="1" gradientTransform="matrix(-0.298033 41.223 40.863 0.298033 99.8654 100.216)" gradientUnits="userSpaceOnUse">
<stop offset="0.0032" stop-color="#003107"/>
<stop offset="0.4356" stop-color="#869489"/>
<stop offset="0.64" stop-color="#CDD2CF"/>
<stop offset="0.6804" stop-color="#D7DBD8"/>
<stop offset="0.794" stop-color="#EDEFEE"/>
<stop offset="0.9027" stop-color="#FAFBFB"/>
<stop offset="1" stop-color="white"/>
</radialGradient>
<radialGradient id="paint1_radial_8_90" cx="0" cy="0" r="1" gradientTransform="matrix(-0.0986883 13.6762 27.3327 0.19935 95.3798 84.6138)" gradientUnits="userSpaceOnUse">
<stop stop-color="#007007"/>
<stop offset="1" stop-color="white"/>
</radialGradient>
<radialGradient id="paint2_radial_8_90" cx="0" cy="0" r="1" gradientTransform="matrix(7.77284 17.168 26.2901 -11.8994 95.4095 111.242)" gradientUnits="userSpaceOnUse">
<stop stop-color="#007007"/>
<stop offset="1" stop-color="white"/>
</radialGradient>
</defs>
</svg>
