<svg width="41" height="42" viewBox="0 0 41 42" fill="none" xmlns="http://www.w3.org/2000/svg">
<path d="M39.5835 18.9014C40.1253 18.7416 40.5087 18.1614 40.4437 17.6003C40.3785 17.0392 39.8722 16.5625 39.3082 16.531C40.4614 15.6813 41.0516 14.0748 40.5732 12.7247C40.0946 11.3746 38.4917 10.4858 37.1309 10.9327C37.6679 10.2426 38.0749 9.33266 37.7894 8.50597C37.504 7.67946 36.2408 7.25937 35.7269 7.96693C35.9244 7.02692 35.3533 5.98544 34.4546 5.64678C33.5558 5.30795 32.2323 5.39903 31.7603 6.23538C31.939 5.66719 32.0846 5.06202 31.9561 4.48053C31.8277 3.89885 31.3486 3.35526 30.7531 3.33995C30.1832 3.32538 29.7138 3.76842 29.3483 4.20564C29.4505 2.90402 29.2463 1.44064 28.2427 0.60538C27.3576 -0.131321 26.0186 -0.167938 24.9877 0.345421C23.9568 0.858781 23.2168 1.84195 22.7905 2.91184C22.8916 2.02686 21.9985 1.09031 21.1235 0.923991C20.2483 0.757669 19.2961 1.3552 19.0653 2.21559C18.0867 1.02109 16.3355 0.617577 14.8502 1.03985C13.365 1.46212 12.5272 3.01806 12.1989 4.39983C11.7825 3.74583 10.4584 2.851 9.36213 3.44343C8.68008 3.81214 8.39298 4.76107 8.73364 5.4577C7.51947 4.96857 6.03204 5.51198 5.26181 6.5704C4.49178 7.62899 4.39377 9.08582 4.82752 10.3209C3.93688 10.157 2.96609 10.6443 2.56513 11.4564C2.16417 12.2685 2.36784 13.3355 3.03969 13.9429C2.49208 13.933 1.96451 14.3376 1.83189 14.869C1.69927 15.4004 2.4775 16.3922 2.96536 16.641C1.61292 17.1019 0.0974345 18.0392 0.00671311 19.4652C-0.0840083 20.8911 0.752707 22.333 2.03592 22.9616C1.24694 23.1779 0.666903 23.9915 0.719733 24.8079C0.772562 25.6243 1.96269 26.2139 2.77299 26.3265C1.92316 26.9778 1.13654 28.4135 1.64589 29.3551C2.15524 30.297 3.38891 30.7735 4.39905 30.4186C4.10065 30.8194 4.14638 31.4374 4.5007 31.7895C4.85503 32.1418 6.11183 32.0564 6.51078 31.7556C6.03477 33.1549 5.79102 34.9389 6.84707 35.9732C7.90312 37.0074 9.56744 37.3678 10.9565 36.8628C10.7424 37.3663 10.9634 38.0137 11.4405 38.2814C11.9176 38.549 12.5855 38.3998 12.9034 37.9547C13.1617 39.227 14.3141 40.2636 15.6066 40.3863C16.8991 40.5091 18.2261 39.7079 18.7192 38.5071C19.1016 39.7187 20.1108 40.7132 21.3279 41.0779C22.5448 41.4426 23.9348 41.1668 24.9205 40.3652C26.4081 39.1554 26.799 37.0816 27.0916 35.1864C27.5534 36.1113 28.3074 37.0176 29.3341 37.1386C30.3609 37.2596 31.4513 36.1048 30.9311 35.2114C31.7834 36.021 33.1106 36.3984 34.1786 35.9075C35.2467 35.4163 35.8118 33.9358 35.1489 32.965C35.8825 33.5451 37.1058 33.0417 37.4023 32.1547C37.6989 31.2678 37.2116 30.2536 36.4408 29.724C37.5357 30.4917 39.2281 29.7384 39.6786 28.4794C40.1293 27.2206 39.8247 26.0079 38.8422 25.1009C39.8713 24.3977 40.7189 23.3529 40.9461 22.1273C41.174 20.9018 40.6714 19.5097 39.5835 18.9014Z" fill="#79AE28"/>
<path d="M26.0981 18.7917C26.2607 18.7436 26.3761 18.5694 26.3564 18.4009C26.3369 18.2324 26.1848 18.0892 26.0154 18.0798C26.3617 17.8245 26.5389 17.342 26.3954 16.9365C26.2516 16.5309 25.7702 16.2641 25.3614 16.3981C25.5228 16.1908 25.645 15.9176 25.5592 15.6693C25.4734 15.421 25.0941 15.2949 24.9396 15.5073C24.999 15.225 24.8274 14.9122 24.5574 14.8103C24.2875 14.7085 23.89 14.7358 23.7482 14.9872C23.802 14.8165 23.8457 14.6347 23.8071 14.46C23.7685 14.2853 23.6245 14.1221 23.4458 14.1175C23.2746 14.1132 23.1336 14.2462 23.0239 14.3775C23.0547 13.9866 22.9933 13.547 22.6918 13.2961C22.4258 13.0748 22.0238 13.0639 21.7141 13.218C21.4044 13.3723 21.1822 13.6676 21.0543 13.9889C21.0847 13.7231 20.8164 13.4419 20.5535 13.3918C20.2906 13.3419 20.0046 13.5213 19.9354 13.7798C19.6415 13.4211 19.1154 13.2998 18.6693 13.4267C18.2232 13.5535 17.9716 14.021 17.8728 14.436C17.7477 14.2396 17.35 13.9707 17.0208 14.1487C16.8159 14.2594 16.7297 14.5445 16.8321 14.7537C16.4674 14.6067 16.0205 14.7699 15.7893 15.088C15.558 15.4058 15.5287 15.8434 15.6589 16.2145C15.3913 16.1653 15.0998 16.3116 14.9794 16.5555C14.859 16.7995 14.9202 17.1199 15.122 17.3024C14.9575 17.2995 14.7991 17.421 14.7592 17.5806C14.7193 17.7402 14.9532 18.038 15.0996 18.1129C14.6934 18.2514 14.2382 18.5328 14.211 18.9611C14.1837 19.3894 14.4351 19.8224 14.8206 20.0113C14.5836 20.0764 14.4094 20.3207 14.4252 20.5659C14.4411 20.8111 14.7985 20.9881 15.0419 21.022C14.7867 21.2177 14.5504 21.6489 14.7034 21.9318C14.8564 22.2147 15.227 22.3579 15.5303 22.2513C15.4407 22.3717 15.4545 22.5574 15.5609 22.663C15.6673 22.7689 16.0447 22.7432 16.1646 22.6528C16.0216 23.0731 15.9484 23.609 16.2655 23.9196C16.5827 24.2302 17.0826 24.3385 17.4999 24.1869C17.4356 24.3381 17.5019 24.5326 17.6453 24.613C17.7887 24.6933 17.9892 24.6485 18.0847 24.5148C18.1623 24.897 18.5084 25.2083 18.8966 25.2451C19.2849 25.2819 19.6834 25.0413 19.8315 24.6806C19.9465 25.0445 20.2496 25.3431 20.6151 25.4528C20.9805 25.5625 21.398 25.4796 21.6941 25.2387C22.1409 24.8753 22.2584 24.2525 22.3462 23.6832C22.4849 23.961 22.7115 24.2332 23.0199 24.2696C23.3283 24.306 23.6559 23.9592 23.4996 23.6906C23.7555 23.9338 24.1543 24.0472 24.4751 23.8998C24.7959 23.7522 24.9657 23.3075 24.7666 23.0161C24.987 23.1902 25.3544 23.039 25.4433 22.7727C25.5324 22.5064 25.3861 22.2018 25.1546 22.0425C25.4834 22.2732 25.9917 22.0469 26.1272 21.6687C26.2626 21.2905 26.1711 20.9264 25.876 20.6538C26.1851 20.4427 26.4396 20.1288 26.5079 19.7607C26.5757 19.3925 26.4249 18.9744 26.0981 18.7917Z" fill="#9DBB1D"/>
<path d="M30.397 19.1327C30.6183 19.0467 30.7586 18.7904 30.7116 18.5575C30.6646 18.3247 30.436 18.1429 30.1986 18.1495C30.6518 17.7533 30.8427 17.0597 30.595 16.511C30.3472 15.9623 29.6448 15.6463 29.0906 15.8811C29.2914 15.5732 29.4298 15.1779 29.2814 14.8418C29.1329 14.5057 28.5891 14.374 28.3987 14.6884C28.4485 14.2878 28.1728 13.8715 27.7846 13.7611C27.3964 13.6507 26.8452 13.7353 26.6768 14.1022C26.9652 13.9666 27.3239 14.0155 27.5382 14.2512C27.6943 14.4232 27.7201 14.6831 27.6622 14.9081C27.6041 15.1329 27.4744 15.3315 27.3465 15.5255C27.5145 15.4621 27.6861 15.3981 27.8655 15.393C28.0448 15.3879 28.2364 15.4528 28.3379 15.6007C28.4166 15.7153 28.4312 15.8623 28.4228 16.0011C28.3949 16.4666 28.128 16.887 27.7256 17.1228C28.2951 16.8531 28.3619 16.9231 28.6729 16.8564C28.9152 16.8045 29.1974 16.8089 29.3748 16.9818C29.514 17.1173 29.5552 17.3279 29.5377 17.5212C29.4888 18.0587 28.9919 18.5178 28.4521 18.5238C28.7824 18.7067 29.1578 18.8177 29.444 19.0638C29.7304 19.3099 29.8947 19.7666 29.6646 20.0661C29.4469 20.3494 29.0236 20.3364 28.6685 20.2964C28.8686 20.4423 29.0629 20.6521 29.1901 20.8647C29.4204 21.2493 29.1283 21.7751 28.7177 21.9543C28.3069 22.1336 27.8358 22.0678 27.3931 21.9988C27.885 22.3389 28.4372 22.8081 28.3514 23.3998C28.3355 23.5095 28.2845 23.6286 28.1799 23.6656C28.1178 23.6875 28.0497 23.6756 27.985 23.6636C27.7737 23.6243 27.5624 23.5847 27.3511 23.5454C27.6471 23.8974 27.9402 24.4034 27.6784 24.7814C27.5433 24.9765 27.2895 25.0634 27.0525 25.0509C26.8155 25.0381 26.5916 24.9403 26.3821 24.8288C25.8698 24.5566 25.4058 24.1939 25.018 23.7627C25.2049 24.0414 25.3945 24.3293 25.467 24.657C25.5396 24.9847 25.4701 25.3658 25.2102 25.5781C24.9502 25.7903 24.4884 25.7386 24.3512 25.4323C24.4052 25.8118 24.4085 26.1984 24.3609 26.5787C24.3394 26.7509 24.3035 26.9305 24.1909 27.0622C24.0366 27.2427 23.7658 27.2897 23.5366 27.228C23.3074 27.166 23.1136 27.013 22.9449 26.846C22.7062 26.6095 22.4037 26.3907 22.2455 26.0942C22.3386 26.4485 22.3477 26.8423 22.1736 27.1646C21.9994 27.4869 21.6074 27.7064 21.2571 27.5996C20.8301 27.4696 20.6579 26.9699 20.5471 26.5376C20.4271 26.7349 20.3069 26.9323 20.1868 27.1296C20.1462 27.1963 20.0985 27.2686 20.0229 27.2877C19.9449 27.3076 19.8651 27.2633 19.803 27.2121C19.4527 26.9236 19.3834 26.4231 19.339 25.9714C19.2991 26.5509 18.7579 27.05 18.1771 27.0431C17.5963 27.0362 17.0671 26.5243 17.0411 25.944C16.8992 26.4498 16.8809 27.0948 17.2855 27.4298C17.7641 27.8261 18.4737 27.9186 19.0379 27.6585C18.9659 27.8767 19.081 28.1403 19.2903 28.2356C19.4995 28.3309 19.774 28.2451 19.8915 28.0476C20.0444 28.5713 20.5634 28.9652 21.1088 28.9712C21.6544 28.9774 22.1819 28.5952 22.3465 28.0751C22.549 28.5691 23.0066 28.9502 23.5291 29.0603C24.0516 29.1703 24.624 29.0062 25.0087 28.636C25.5893 28.0773 25.6804 27.1948 25.7365 26.3911C25.9624 26.7622 26.3098 27.1154 26.7441 27.1302C27.1784 27.1449 27.5944 26.623 27.3454 26.267C27.7309 26.5762 28.2998 26.6878 28.7299 26.4447C29.16 26.2015 29.3448 25.5617 29.0331 25.1784C29.3606 25.3957 29.8554 25.1419 29.9485 24.7601C30.0416 24.3783 29.802 23.9706 29.4606 23.7758C29.9461 24.0589 30.6285 23.6842 30.773 23.1412C30.9176 22.5981 30.4212 21.8315 29.978 21.4861C30.6394 21.4307 31.0289 20.9576 31.0812 20.4364C31.1331 19.9147 30.8739 19.3493 30.397 19.1327Z" fill="#699415"/>
<path d="M25.3811 9.62665C24.9343 9.36032 24.2923 9.49767 23.9935 9.9234C23.9259 9.53829 23.6323 9.00854 23.3592 8.7289C23.0859 8.44927 22.6817 8.28295 22.2971 8.35345C21.8366 8.43798 21.4697 8.88248 21.4741 9.35084C21.3325 9.05026 21.1522 8.71706 20.8303 8.63454C20.5618 8.56568 20.2728 8.70668 20.0956 8.92C19.9183 9.13333 19.8544 9.47854 19.7892 9.74797C19.6915 9.30584 19.1441 8.55002 18.4242 8.65568C17.9762 8.72144 17.6243 9.56434 17.6718 10.0147C17.1036 9.50331 16.1833 9.12422 15.549 9.55087C14.9146 9.97751 14.5692 10.7572 14.5601 11.5216C14.1042 11.2534 13.474 11.3265 13.0916 11.6919C12.7093 12.0572 12.6074 12.6833 12.8545 13.1511C12.5561 13.0362 12.1855 13.1526 12.0065 13.4175C11.8274 13.6823 12.0558 14.3824 12.2739 14.6165C11.4397 14.5987 10.4205 14.8098 10.0855 15.574C9.75026 16.3382 9.92095 17.2966 10.4992 17.8983C10.023 17.8592 9.54185 18.1894 9.40759 18.648C9.27315 19.1065 9.80819 19.6681 10.2303 19.892C9.63367 20.0791 8.91482 20.7096 9.0059 21.3282C9.09681 21.9469 9.6783 22.4552 10.3037 22.4626C10.0598 22.6228 9.96121 22.9709 10.0853 23.2352C10.2091 23.4994 10.9158 23.7041 11.1949 23.6189C10.6536 24.2915 10.1629 25.2214 10.5354 26.0002C10.9078 26.779 11.7489 27.3097 12.6122 27.3106C12.3939 27.5439 12.3857 27.9434 12.594 28.1857C12.8022 28.428 13.1984 28.4799 13.462 28.2992C13.3492 29.049 13.8855 29.3445 14.5166 29.2656C13.9382 28.4151 13.8347 28.0143 14.277 27.0858C13.9338 27.3835 13.3392 27.2206 13.1126 26.8267C12.886 26.4329 12.9849 25.9106 13.2611 25.5499C12.8723 25.7854 12.3267 25.6333 12.0416 25.2794C11.7565 24.9254 11.705 24.4243 11.8159 23.9836C11.9268 23.5427 12.1812 23.152 12.4593 22.7924C12.0418 22.8075 11.6095 22.7958 11.2293 22.6228C10.8491 22.4497 10.532 22.0784 10.5402 21.6607C10.5447 21.4325 10.6436 21.2153 10.773 21.0271C11.0061 20.6879 11.3452 20.4229 11.7306 20.2782C11.4559 20.0995 11.2688 19.7995 11.0502 19.5554C10.9121 19.4009 10.7797 19.2114 10.8039 19.0056C10.8262 18.8172 10.9799 18.6653 11.1543 18.5906C11.3286 18.5159 11.5226 18.5044 11.7119 18.494C11.339 18.2315 11.1007 17.8184 10.924 17.3979C10.7857 17.0695 10.6868 16.6632 10.9021 16.3794C11.0005 16.2497 11.1501 16.1693 11.3007 16.1078C11.9465 15.844 12.7311 15.997 13.3593 16.3003C12.886 15.748 12.8111 15.3119 13.0623 15.0093C13.3137 14.7067 13.7837 14.6653 14.147 14.8164C13.954 14.5835 13.758 14.3458 13.6456 14.0651C13.5332 13.7843 13.5163 13.4484 13.6755 13.1914C13.8686 12.8793 14.2772 12.7569 14.6416 12.8001C15.0059 12.8433 15.3385 13.0212 15.6612 13.1959C15.5938 12.7757 15.4734 12.2448 15.704 11.887C15.9233 11.5467 16.3634 11.3963 16.7664 11.4347C17.1694 11.4731 17.5548 11.5471 17.8862 11.7799C17.6521 11.552 17.7807 11.072 18.0199 10.8498C18.2593 10.6273 18.6373 10.5982 18.9388 10.7242C19.2403 10.8501 19.4709 11.1081 19.6296 11.3935C19.7043 11.0531 19.7834 10.7026 19.985 10.4182C20.1865 10.1338 20.5443 9.93033 20.8822 10.0159C21.0797 10.0659 21.2422 10.2049 21.3823 10.3526C21.7029 10.6909 21.9483 11.1 22.0955 11.5422C22.135 11.1195 22.249 10.6027 22.6587 10.4916C22.9092 10.4237 23.1799 10.5532 23.3517 10.7477C23.5237 10.9423 23.617 11.1919 23.7068 11.4354C23.8808 10.9569 24.3021 10.5515 24.8075 10.4892C25.3128 10.4269 25.8218 10.5481 25.8988 11.0514C26.1307 10.5856 25.828 9.89299 25.3811 9.62665Z" fill="#B6CC36"/>
<path d="M11.8711 31.3848C11.8968 31.3489 11.9205 31.3114 11.9398 31.27C11.9115 31.3061 11.8897 31.3449 11.8711 31.3848Z" fill="#699415"/>
<path d="M37.1289 21.7435C36.4454 23.0867 34.9113 23.8237 33.4255 23.5709C33.8923 24.0968 34.375 24.653 34.536 25.3376C34.6971 26.022 34.4116 26.8667 33.7436 27.0864C33.0278 27.3216 32.2866 26.9241 31.5605 26.723C31.8884 27.1006 32.139 27.5665 32.1649 28.066C32.1908 28.5653 31.9567 29.0949 31.5153 29.3299C31.0739 29.5649 30.4405 29.418 30.2202 28.9692C30.3694 29.6039 30.4724 30.3883 29.9688 30.8025C29.6681 31.0499 29.2298 31.0702 28.8587 30.9519C28.4876 30.8337 28.1679 30.5971 27.8556 30.3642C27.6837 30.236 27.498 30.0857 27.4674 29.8735C27.5157 30.1433 27.564 30.4193 27.5193 30.6896C27.4747 30.9599 27.3184 31.2281 27.0646 31.3312C26.759 31.4553 26.4105 31.3123 26.1372 31.1275C25.5701 30.7443 24.9873 30.1792 24.7766 29.5279C24.9101 30.5668 24.717 31.6455 24.2315 32.5736C23.9889 33.0376 23.6196 33.4998 23.1022 33.5794C22.6816 33.6441 22.2324 33.4072 22.0477 33.024C22.0072 33.4282 21.9505 33.8439 21.7449 34.1942C21.5392 34.5445 21.1479 34.8162 20.7453 34.7617C20.4771 34.7254 20.2471 34.5553 20.0476 34.3726C19.432 33.8086 18.983 33.0648 18.7704 32.2574C18.6826 32.7044 18.5908 33.162 18.3541 33.5512C18.1175 33.9405 17.7021 34.2538 17.2467 34.2387C16.6936 34.2204 16.2278 33.6462 16.3238 33.1014C16.1107 33.5406 15.7265 34.0601 15.2616 33.9111C15.0289 33.8366 14.8819 33.6102 14.7755 33.3903C14.4323 32.6806 14.3132 31.8646 14.4393 31.0864C14.2023 31.4824 13.957 31.8876 13.5947 32.1734C13.2324 32.4594 12.7217 32.6046 12.3006 32.4159C11.9211 32.2459 11.7016 31.7473 11.8699 31.3846C11.5679 31.8078 10.8621 31.8602 10.4382 31.5303C9.97824 31.1724 9.83287 30.5202 9.92924 29.9454C10.0256 29.3707 10.3227 28.8524 10.6146 28.348C10.046 28.6966 9.42171 29.0586 8.7586 28.9868C8.0955 28.9149 7.48741 28.1676 7.81368 27.5859C7.21306 27.9871 7.06313 29.069 7.5754 29.5782C7.86268 29.8638 8.88193 29.7946 9.20529 29.5507C8.81926 30.6854 8.62161 32.132 9.478 32.9707C10.3344 33.8095 11.6839 34.1015 12.8103 33.692C12.6367 34.1002 12.8159 34.6252 13.2029 34.8424C13.5898 35.0594 14.1312 34.9384 14.3892 34.5775C14.5987 35.6091 15.5332 36.4497 16.5812 36.5493C17.6293 36.6488 18.7052 35.9992 19.1052 35.0255C19.4153 36.0079 20.2338 36.8144 21.2206 37.1101C22.2074 37.4057 23.3345 37.1822 24.1337 36.5322C25.34 35.5512 25.657 33.8694 25.8942 32.3328C26.2687 33.0828 26.8801 33.8177 27.7126 33.9157C28.5452 34.0137 29.4294 33.0773 29.0077 32.3528C29.699 33.0092 30.7751 33.3154 31.6412 32.9172C32.5072 32.519 32.9655 31.3185 32.428 30.5313C33.0228 31.0017 34.0147 30.5934 34.2551 29.8742C34.4956 29.155 34.1005 28.3327 33.4754 27.9031C34.3632 28.5256 35.7355 27.9148 36.1009 26.8939C36.4663 25.873 36.2193 24.8898 35.4227 24.1542C36.2572 23.5845 36.9447 22.7373 37.1289 21.7435Z" fill="#699415"/>
<path d="M26.6165 7.96106C26.595 8.01498 26.579 8.07073 26.5742 8.12902C26.5899 8.07364 26.603 8.01717 26.6165 7.96106Z" fill="#9DBB1D"/>
<path d="M37.9191 13.7122C37.5047 12.543 36.1165 11.7731 34.9379 12.1602C35.403 11.5625 35.7555 10.7744 35.5083 10.0587C35.2611 9.34276 34.1671 8.97897 33.7219 9.59179C33.893 8.77767 33.3984 7.87574 32.6199 7.58226C31.8415 7.28878 30.6953 7.36766 30.2865 8.09216C30.4414 7.60011 30.5674 7.076 30.4561 6.5723C30.345 6.06859 29.93 5.59768 29.4143 5.58456C28.9208 5.57199 28.5142 5.95547 28.1977 6.33439C28.2863 5.20711 28.1094 3.93974 27.2402 3.21616C26.4737 2.57801 25.3141 2.54631 24.4211 2.99099C23.5283 3.43567 22.8874 4.28714 22.5184 5.21385C22.606 4.44727 21.8323 3.63625 21.0745 3.49215C20.3166 3.34805 19.4918 3.8656 19.2921 4.61069C18.4446 3.57613 16.9279 3.22672 15.6416 3.59252C14.3552 3.95832 13.6297 5.30584 13.3453 6.50253C12.9846 5.93616 11.838 5.1612 10.8885 5.67419C10.2977 5.99354 10.0493 6.8155 10.3442 7.41867C9.2927 6.99493 8.00438 7.46567 7.33745 8.38236C6.67052 9.29905 6.58563 10.561 6.96127 11.6305C6.18977 11.4886 5.34905 11.9105 5.00201 12.6138C4.6548 13.3172 4.83114 14.2412 5.41299 14.7671C4.9388 14.7585 4.48173 15.109 4.36678 15.5692C4.25183 16.0294 4.92605 16.8885 5.34851 17.1038C4.17714 17.503 2.8646 18.3149 2.78608 19.5498C2.70756 20.7848 3.43224 22.0334 4.54349 22.5779C3.86016 22.7652 3.35774 23.4698 3.40346 24.1768C3.44919 24.8838 4.47991 25.3944 5.18164 25.4921C5.18164 25.4921 3.59474 24.4767 4.85719 23.3722C6.11945 22.2677 7.0662 22.1097 7.0662 22.1097C7.0662 22.1097 4.38372 21.9519 4.54148 19.585C4.69925 17.218 7.38172 17.8493 7.38172 17.8493C7.38172 17.8493 5.33047 16.7448 5.64599 15.9558C5.96151 15.1668 7.53948 15.009 7.53948 15.009C7.53948 15.009 5.96151 14.0623 6.27721 13.2733C6.59274 12.4843 8.48641 12.7998 8.48641 12.7998C8.37565 12.4805 8.24339 11.9136 8.13263 11.5942C7.98289 11.1623 7.85391 10.624 8.17289 10.2966C8.38622 10.0776 8.73799 10.0467 9.02891 10.1403C9.31984 10.2339 9.56468 10.4303 9.80205 10.6227C9.77217 10.2329 9.74266 9.83573 9.83284 9.45535C9.92301 9.07498 10.1535 8.70698 10.512 8.55104C10.8787 8.39146 11.3184 8.48273 11.6531 8.70134C11.9877 8.92013 12.2335 9.25023 12.4441 9.59016C12.5663 9.16351 12.6383 8.55542 12.9438 8.23334C13.1332 8.03368 13.452 8.00618 13.7129 8.0938C13.9738 8.18143 14.1907 8.36305 14.4008 8.54085C14.4964 7.52652 14.3469 6.31944 15.1322 5.67C15.6304 5.25811 16.3821 5.24719 16.9603 5.5363C17.5385 5.8254 17.9571 6.36809 18.226 6.95595C18.2182 6.62477 18.3084 6.28666 18.4393 5.98243C18.5703 5.6782 18.8782 5.42353 19.2068 5.4647C19.3923 5.48802 19.555 5.59932 19.6943 5.72393C20.0756 6.06495 20.3405 6.53368 20.4361 7.03611C20.538 6.49014 21.1116 6.07807 21.6616 6.15567C22.2116 6.23328 22.6486 6.78818 22.5952 7.34089C22.9304 6.81715 23.3208 6.32874 23.7577 5.88624C24.0912 5.54831 24.4805 5.22332 24.9505 5.15555C25.6156 5.05955 26.2704 5.5372 26.5396 6.15294C26.7857 6.71603 26.7609 7.36001 26.6159 7.96081C26.8056 7.48716 27.5862 7.20189 28.0146 7.48517C28.4918 7.80069 28.604 8.49695 28.3799 9.02324C28.6716 8.58985 29.3726 8.51644 29.7476 8.88005C30.1229 9.24367 30.0715 9.94648 29.6475 10.2518C30.553 9.78016 31.7843 9.35352 32.4837 10.0973C33.1224 10.7766 32.7682 11.8744 32.3804 12.7224C32.7577 12.359 33.4401 12.3892 33.7837 12.7845C34.1274 13.1797 34.0626 13.8597 33.6503 14.1829C34.377 13.8963 35.3137 13.8807 35.8287 14.468C36.2018 14.8932 36.2473 15.5306 36.0872 16.0731C35.9271 16.6156 35.5915 17.0865 35.2616 17.546C36.1441 17.2998 37.3349 18.1874 37.0618 19.0618C37.5311 18.9233 37.8632 18.4209 37.8067 17.9349C37.7503 17.4489 37.3118 17.036 36.8234 17.0087C37.8224 16.2729 38.3336 14.8813 37.9191 13.7122Z" fill="#9DBB1D"/>
</svg>
