<svg width="103" height="60" viewBox="0 0 103 60" fill="none" xmlns="http://www.w3.org/2000/svg">
<path d="M22.1652 28.581C23.8052 25.8293 23.9163 22.8273 22.9157 19.8254C21.8039 16.4344 18.8576 14.7944 15.6889 13.766C15.5777 13.7382 15.4665 13.7382 15.3831 13.766C10.4355 12.1261 4.87638 13.905 1.54092 18.1299C-2.15589 22.7996 1.34635 31.5274 6.26616 34.0568C12.131 37.0587 18.9687 33.9734 22.1652 28.581Z" fill="#226533"/>
<path d="M7.60068 33.3064C4.54317 32.1111 2.90324 28.9147 1.73582 26.0795C0.429433 22.9108 0.735178 20.5482 2.87543 17.852C6.62783 13.0712 12.7984 13.1268 17.6627 15.8229C20.9147 18.1856 22.3601 22.4661 21.4985 26.4408C20.2199 32.3335 12.854 35.3632 7.60068 33.3064Z" fill="#68B345"/>
<path d="M11.9921 17.2127C11.4918 16.5178 10.4078 17.2683 10.9081 17.991C11.4084 18.7137 12.4925 17.9354 11.9921 17.2127Z" fill="#91C964"/>
<path d="M17.6628 19.4363C17.2737 18.9082 16.5232 18.7692 15.9673 19.1584C15.4392 19.5475 15.3002 20.298 15.6894 20.8539C16.0785 21.382 16.829 21.521 17.3849 21.1318C17.913 20.7427 18.0242 19.9922 17.6628 19.4363Z" fill="#91C964"/>
<path d="M12.2981 22.1603C11.9368 21.6322 11.1585 21.4932 10.6304 21.8824C10.1023 22.2437 9.96331 23.022 10.3524 23.5501C10.7138 24.0782 11.4921 24.2172 12.0202 23.828C12.5483 23.4389 12.6873 22.6884 12.2981 22.1603Z" fill="#91C964"/>
<path d="M9.32352 16.1842C8.96218 15.6561 8.1839 15.5171 7.65579 15.9063C7.12767 16.2676 6.9887 17.0459 7.37783 17.574C7.73918 18.1021 8.51745 18.2411 9.04557 17.852C9.57368 17.4628 9.71266 16.7123 9.32352 16.1842Z" fill="#91C964"/>
<path d="M6.48889 19.2695C6.12755 18.7692 5.34928 19.3251 5.71062 19.8254C6.07196 20.3257 6.85024 19.7698 6.48889 19.2695Z" fill="#91C964"/>
<path d="M6.3499 23.9114C5.84958 23.2165 4.84895 23.0497 4.15406 23.5222C3.45917 24.0226 3.29239 25.0232 3.76491 25.7181C4.26523 26.413 5.26588 26.5797 5.96077 26.1072C6.65566 25.6069 6.85021 24.6063 6.3499 23.9114Z" fill="#91C964"/>
<path d="M9.62997 27.914C9.60218 27.914 9.5466 27.8862 9.5188 27.8862C8.46257 27.6639 8.15682 29.3872 9.24085 29.5262C9.26864 29.5262 9.32422 29.5262 9.35202 29.554C10.4082 29.6929 10.6862 28.1364 9.62997 27.914Z" fill="#91C964"/>
<path d="M3.06944 21.2987C3.04165 21.2987 2.98605 21.2709 2.95826 21.2709C1.90202 21.0485 1.59627 22.7718 2.6803 22.9108C2.7081 22.9108 2.76369 22.9108 2.79149 22.9386C3.84772 23.0776 4.12567 21.521 3.06944 21.2987Z" fill="#91C964"/>
<path d="M16.4111 27.775C15.3271 26.2185 12.9367 27.914 14.0207 29.4706C15.1047 31.0271 17.4951 29.3316 16.4111 27.775Z" fill="#91C964"/>
<path d="M19.3304 24.4674C18.5799 23.3834 16.8844 24.5786 17.6626 25.6626C18.4131 26.7466 20.0809 25.5514 19.3304 24.4674Z" fill="#91C964"/>
<path d="M11.9093 30.9715C11.8538 30.8603 11.7704 30.7769 11.687 30.6935C11.3256 30.3044 10.6585 30.6379 10.5752 31.1105C10.4918 31.583 11.0199 32.1111 11.4924 31.8888C11.6036 31.8332 11.7148 31.7776 11.7982 31.722C12.0205 31.5274 12.0761 31.1939 11.9093 30.9715Z" fill="#91C964"/>
<path d="M15.3 16.5456C15.2444 16.4344 15.161 16.351 15.0776 16.2676C14.7163 15.8785 14.0492 16.212 13.9658 16.6846C13.8824 17.1571 14.4105 17.6852 14.883 17.4628C14.9942 17.4072 15.1054 17.3517 15.1888 17.2961C15.4111 17.1293 15.4667 16.7957 15.3 16.5456Z" fill="#91C964"/>
<path d="M5.1264 28.3031C4.57049 27.497 3.31969 28.3865 3.8756 29.1925C4.4593 29.9708 5.68231 29.1092 5.1264 28.3031Z" fill="#91C964"/>
<path d="M39.4815 32.1947C37.3968 27.525 33.5888 24.6065 28.7802 23.1334C23.3323 21.4378 18.468 23.8004 14.2153 26.9969C14.0485 27.1081 13.9929 27.2471 13.9374 27.4139C7.21083 32.3615 4.43128 41.256 6.84949 49.5113C9.54566 58.6839 24.1661 62.1305 32.0045 58.0168C41.2604 53.1525 43.5674 41.395 39.4815 32.1947Z" fill="#226533"/>
<path d="M32.2269 55.5985C27.8352 58.4893 22.1649 57.6832 17.3841 56.5992C12.0474 55.404 9.26779 52.7912 7.68345 47.51C4.90389 38.1985 10.6854 30.1934 18.6627 26.3576C24.7499 24.3007 31.671 26.3854 36.0627 31.1662C42.5669 38.2541 39.7317 50.6231 32.2269 55.5985Z" fill="#68B345"/>
<path d="M15.2445 35.002C13.8547 35.002 13.8547 37.1422 15.2445 37.1422C16.6343 37.1422 16.6343 35.002 15.2445 35.002Z" fill="#91C964"/>
<path d="M23.3607 29.6653C22.3045 29.6653 21.415 30.5547 21.415 31.611C21.415 32.6672 22.3045 33.5567 23.3607 33.5567C24.417 33.5567 25.3064 32.6672 25.3064 31.611C25.3064 30.5547 24.417 29.6653 23.3607 29.6653Z" fill="#91C964"/>
<path d="M21.9985 39.1713C20.9701 39.1713 20.1084 40.0329 20.1084 41.0614C20.1084 42.0898 20.9701 42.9515 21.9985 42.9515C23.0269 42.9515 23.8886 42.0898 23.8886 41.0614C23.8886 40.0329 23.0269 39.1713 21.9985 39.1713Z" fill="#91C964"/>
<path d="M11.436 37.5035C10.4076 37.5035 9.5459 38.3652 9.5459 39.3937C9.5459 40.4221 10.4076 41.2837 11.436 41.2837C12.4644 41.2837 13.3261 40.4221 13.3261 39.3937C13.3261 38.393 12.4644 37.5035 11.436 37.5035Z" fill="#91C964"/>
<path d="M12.8257 44.0912C11.825 44.0912 11.825 45.6477 12.8257 45.6477C13.8263 45.6477 13.8263 44.0912 12.8257 44.0912Z" fill="#91C964"/>
<path d="M18.7745 48.5663C17.4125 48.5663 16.2451 49.7059 16.2451 51.0957C16.2451 52.4854 17.3847 53.6251 18.7745 53.6251C20.1365 53.6251 21.3039 52.4854 21.3039 51.0957C21.3039 49.7059 20.1365 48.5663 18.7745 48.5663Z" fill="#91C964"/>
<path d="M27.0293 47.9825C26.9737 48.0381 26.9459 48.0659 26.8903 48.1215C25.6117 49.2889 27.613 51.2902 28.7804 50.0116C28.836 49.956 28.8638 49.9282 28.9194 49.8726C30.0868 48.594 28.2801 46.8151 27.0293 47.9825Z" fill="#91C964"/>
<path d="M12.3262 50.4285C12.2706 50.4841 12.2428 50.5118 12.1872 50.5674C10.9086 51.7349 12.9099 53.7361 14.0773 52.4575C14.1329 52.402 14.1607 52.3742 14.2163 52.3186C15.3837 51.04 13.6048 49.261 12.3262 50.4285Z" fill="#91C964"/>
<path d="M33.117 39.0045C30.0873 39.0045 30.0873 43.702 33.117 43.702C36.1467 43.702 36.1467 39.0045 33.117 39.0045Z" fill="#91C964"/>
<path d="M31.4769 32.139C29.3645 32.139 29.3645 35.4189 31.4769 35.4189C33.5894 35.4189 33.5894 32.139 31.4769 32.139Z" fill="#91C964"/>
<path d="M33.117 47.8158C32.9225 47.8158 32.7557 47.8436 32.5611 47.8714C31.6994 47.9826 31.5327 49.1778 32.0608 49.7059C32.5889 50.234 33.7841 50.0672 33.8953 49.2056C33.9231 49.011 33.9509 48.8442 33.9509 48.6497C33.9509 48.1771 33.5895 47.8158 33.117 47.8158Z" fill="#91C964"/>
<path d="M17.4119 30.0822C17.2174 30.0822 17.0506 30.1099 16.856 30.1377C15.9944 30.2489 15.8276 31.4441 16.3557 31.9722C16.8838 32.5004 18.079 32.3336 18.1902 31.4719C18.218 31.2774 18.2458 31.1106 18.2458 30.916C18.2736 30.4713 17.8845 30.1099 17.4119 30.0822Z" fill="#91C964"/>
<path d="M23.3608 54.2087C21.8042 54.2087 21.8042 56.6547 23.3608 56.6547C24.9451 56.6269 24.9451 54.2087 23.3608 54.2087Z" fill="#91C964"/>
<path d="M52.9071 20.1034C54.4915 15.4616 53.7132 10.9587 51.295 6.78933C48.571 2.06409 43.6234 0.563142 38.5646 0.00723129C38.3701 -0.0205643 38.2311 0.0350167 38.0921 0.118403C30.1704 -0.771054 22.4154 3.64844 18.7464 11.0143C14.6883 19.1862 22.6934 31.1104 30.8375 33.3341C40.5381 35.9469 49.8218 29.1926 52.9071 20.1034Z" fill="#226533"/>
<path d="M32.6169 31.7776C27.6693 30.9438 24.1948 26.691 21.5542 22.8274C18.5801 18.5191 18.33 14.8779 20.6648 10.1527C24.7785 1.81402 34.0344 -0.0482835 42.123 2.45332C47.7377 4.95491 51.2399 10.931 51.2121 17.1294C51.1565 26.3575 41.0945 33.1952 32.6169 31.7776Z" fill="#68B345"/>
<path d="M34.0895 6.31684C33.1167 5.42739 31.7269 6.92834 32.6998 7.81779C33.6726 8.70725 35.0624 7.2063 34.0895 6.31684Z" fill="#91C964"/>
<path d="M43.2621 7.84565C42.5117 7.15076 41.3165 7.20634 40.6494 7.95682C39.9545 8.7073 40.0101 9.90252 40.7605 10.5696C41.511 11.2645 42.7062 11.2089 43.3733 10.4584C44.0404 9.73574 43.9848 8.54054 43.2621 7.84565Z" fill="#91C964"/>
<path d="M36.1189 13.6271C35.3962 12.96 34.2288 12.9878 33.5339 13.7382C32.8668 14.4609 32.8946 15.6283 33.6451 16.3232C34.3678 16.9903 35.5352 16.9625 36.2301 16.212C36.8972 15.4616 36.8416 14.2942 36.1189 13.6271Z" fill="#91C964"/>
<path d="M29.781 5.59409C29.0583 4.927 27.8909 4.9548 27.196 5.70528C26.5289 6.42797 26.5567 7.59538 27.3072 8.29027C28.0299 8.95736 29.1973 8.92956 29.8922 8.17908C30.5593 7.4286 30.5037 6.26119 29.781 5.59409Z" fill="#91C964"/>
<path d="M26.4739 11.0977C25.779 10.4584 24.7784 11.5425 25.4733 12.1818C26.1682 12.8489 27.1688 11.7648 26.4739 11.0977Z" fill="#91C964"/>
<path d="M27.7518 18.1022C26.7789 17.2128 25.2224 17.2683 24.3329 18.2412C23.4435 19.214 23.4991 20.7706 24.4719 21.66C25.4448 22.5495 27.0013 22.4939 27.8908 21.5211C28.7524 20.5482 28.6968 19.0195 27.7518 18.1022Z" fill="#91C964"/>
<path d="M33.9226 23.0776C33.8671 23.0776 33.8115 23.0776 33.7281 23.0776C32.0603 23.0776 32.1715 25.7738 33.8115 25.6348C33.8671 25.6348 33.9226 25.6348 34.006 25.607C35.646 25.4958 35.5626 23.0776 33.9226 23.0776Z" fill="#91C964"/>
<path d="M22.0262 15.2393C21.9706 15.2393 21.915 15.2393 21.8316 15.2393C20.1639 15.2393 20.275 17.9354 21.915 17.7965C21.9706 17.7965 22.0262 17.7964 22.1095 17.7686C23.7495 17.6575 23.6661 15.2393 22.0262 15.2393Z" fill="#91C964"/>
<path d="M44.0129 20.7428C41.9004 18.7693 38.8429 22.077 40.9554 24.0227C43.0956 25.9962 46.1253 22.6885 44.0129 20.7428Z" fill="#91C964"/>
<path d="M47.3477 14.8501C45.8745 13.4881 43.7343 15.7674 45.2074 17.1571C46.6806 18.5191 48.8209 16.2399 47.3477 14.8501Z" fill="#91C964"/>
<path d="M38.2866 26.9133C38.1477 26.7743 38.0087 26.691 37.8419 26.5798C37.1748 26.1073 36.2853 26.8299 36.3131 27.5526C36.3409 28.2753 37.286 28.9424 37.9253 28.4143C38.0643 28.3031 38.2032 28.1919 38.3422 28.0529C38.648 27.7194 38.6202 27.2191 38.2866 26.9133Z" fill="#91C964"/>
<path d="M38.8149 4.26001C38.676 4.12103 38.537 4.03764 38.3702 3.92646C37.7031 3.45393 36.8137 4.17662 36.8415 4.8993C36.8693 5.62198 37.8143 6.28909 38.4536 5.76097C38.5926 5.64979 38.7316 5.53859 38.8705 5.39962C39.1485 5.09386 39.1207 4.59355 38.8149 4.26001Z" fill="#91C964"/>
<path d="M27.3075 25.051C26.1957 24.0226 24.6113 25.7459 25.7231 26.7466C26.8072 27.775 28.3915 26.0795 27.3075 25.051Z" fill="#91C964"/>
<path d="M100.966 45.7588C102.606 43.007 102.717 40.0051 101.716 37.0032C100.605 33.6121 97.6583 31.9722 94.4896 30.9437C94.3785 30.9159 94.2673 30.9159 94.1839 30.9437C89.2363 29.3038 83.6772 31.0827 80.3417 35.3076C76.6449 39.9773 80.1471 48.7051 85.0669 51.2345C90.904 54.2364 97.7695 51.1511 100.966 45.7588Z" fill="#226533"/>
<path d="M86.4005 50.484C83.343 49.2887 81.703 46.0923 80.5356 43.2571C79.2292 40.0884 79.535 37.7258 81.6753 35.0296C85.4277 30.2488 91.5983 30.3044 96.4625 33.0006C99.7146 35.3632 101.16 39.6437 100.298 43.6185C98.9919 49.5111 91.6539 52.5408 86.4005 50.484Z" fill="#68B345"/>
<path d="M90.7929 34.3904C90.2926 33.6955 89.2086 34.4459 89.7089 35.1686C90.1814 35.8635 91.2932 35.113 90.7929 34.3904Z" fill="#91C964"/>
<path d="M96.4353 36.614C96.0462 36.0859 95.2957 35.9469 94.7398 36.3361C94.1839 36.7252 94.0727 37.4757 94.4618 38.0316C94.851 38.5597 95.6014 38.6987 96.1573 38.3096C96.6855 37.9204 96.8244 37.1422 96.4353 36.614Z" fill="#91C964"/>
<path d="M91.0979 39.3379C90.7366 38.8098 89.9583 38.6708 89.4302 39.06C88.9021 39.4213 88.7631 40.1996 89.1522 40.7277C89.5136 41.2558 90.2919 41.3948 90.82 41.0057C91.3481 40.6165 91.4593 39.866 91.0979 39.3379Z" fill="#91C964"/>
<path d="M88.1243 33.3341C87.763 32.806 86.9847 32.667 86.4566 33.0562C85.9285 33.4175 85.7895 34.1958 86.1786 34.7239C86.54 35.252 87.3182 35.391 87.8463 35.0019C88.3745 34.6405 88.4856 33.89 88.1243 33.3341Z" fill="#91C964"/>
<path d="M85.2613 36.4472C84.9 35.9469 84.1217 36.5028 84.4831 37.0032C84.8444 37.5035 85.6227 36.9476 85.2613 36.4472Z" fill="#91C964"/>
<path d="M85.1223 41.0891C84.622 40.3942 83.6214 40.2274 82.9265 40.7C82.2316 41.2003 82.0648 42.2009 82.5374 42.8958C83.0377 43.5907 84.0383 43.7575 84.7332 43.285C85.4559 42.7847 85.6227 41.784 85.1223 41.0891Z" fill="#91C964"/>
<path d="M88.4025 45.0916C88.3747 45.0916 88.3191 45.0638 88.2913 45.0638C87.235 44.8415 86.9293 46.5648 88.0133 46.7038C88.0411 46.7038 88.0967 46.7038 88.1245 46.7316C89.1807 46.8706 89.4587 45.314 88.4025 45.0916Z" fill="#91C964"/>
<path d="M81.8702 38.4763C81.8424 38.4763 81.7868 38.4485 81.759 38.4485C80.7028 38.2261 80.3971 39.9495 81.4811 40.0884C81.5089 40.0884 81.5645 40.0884 81.5923 40.1162C82.6485 40.2552 82.8987 38.6986 81.8702 38.4763Z" fill="#91C964"/>
<path d="M95.1845 44.9526C94.1005 43.3961 91.7101 45.0916 92.7941 46.6481C93.8782 48.2047 96.2964 46.5092 95.1845 44.9526Z" fill="#91C964"/>
<path d="M98.1028 41.645C97.3524 40.561 95.6568 41.7562 96.4351 42.8402C97.2134 43.8964 98.8811 42.729 98.1028 41.645Z" fill="#91C964"/>
<path d="M90.7092 48.1214C90.6536 48.0102 90.5702 47.9268 90.4868 47.8434C90.1254 47.4543 89.4583 47.7878 89.375 48.2604C89.2916 48.7329 89.8197 49.261 90.2922 49.0386C90.4034 48.983 90.5146 48.9275 90.598 48.8719C90.7925 48.7051 90.8481 48.3715 90.7092 48.1214Z" fill="#91C964"/>
<path d="M94.0724 33.7233C94.0169 33.6121 93.9335 33.5287 93.8501 33.4454C93.4887 33.0562 92.8216 33.3898 92.7382 33.8623C92.6549 34.3348 93.183 34.8629 93.6555 34.6406C93.7667 34.585 93.8779 34.5294 93.9613 34.4738C94.1836 34.2792 94.2392 33.9735 94.0724 33.7233Z" fill="#91C964"/>
<path d="M83.9272 45.4808C83.3713 44.6748 82.1205 45.5642 82.6764 46.3703C83.2323 47.1486 84.4831 46.2869 83.9272 45.4808Z" fill="#91C964"/>
<path d="M77.8952 51.5958C82.6205 47.1763 84.5384 41.3949 84.316 35.0297C84.0659 27.8029 79.2572 22.9664 73.6703 19.1862C73.4757 19.0473 73.2534 19.0195 73.0588 19.0195C64.3588 13.0156 52.5457 13.377 43.6789 19.6866C33.8393 26.691 35.7572 45.6198 43.9013 53.3192C53.5463 62.4083 68.5837 60.2958 77.8952 51.5958Z" fill="#226533"/>
<path d="M46.8755 52.5965C41.5944 48.5383 40.2324 41.4227 39.5375 35.2521C38.7592 28.3588 40.7327 23.9393 46.403 19.8811C56.4094 12.7099 68.3893 16.2955 76.2832 24.2728C81.2586 30.6936 81.6477 39.8661 77.7564 47.093C71.9471 57.8221 55.9369 59.5454 46.8755 52.5965Z" fill="#68B345"/>
<path d="M64.4978 23.7724C63.9141 22.1325 61.3847 23.0219 61.9406 24.6619C62.4965 26.3018 65.0537 25.4124 64.4978 23.7724Z" fill="#91C964"/>
<path d="M74.254 31.2772C73.8093 29.9987 72.3917 29.3316 71.1409 29.7485C69.8623 30.1932 69.1952 31.6108 69.6121 32.8616C70.0569 34.1402 71.4744 34.8073 72.7252 34.3904C73.976 33.9734 74.6709 32.528 74.254 31.2772Z" fill="#91C964"/>
<path d="M62.33 33.5564C61.9131 32.3057 60.4955 31.6386 59.2725 32.0555C58.0217 32.4724 57.3546 33.89 57.7716 35.113C58.1885 36.3638 59.6061 37.0309 60.8291 36.614C62.0799 36.197 62.7469 34.8072 62.33 33.5564Z" fill="#91C964"/>
<path d="M59.9121 20.2425C59.4951 18.9917 58.0775 18.3246 56.8545 18.7415C55.6037 19.1585 54.9366 20.576 55.3536 21.799C55.7705 23.0498 57.1881 23.7169 58.4111 23.3C59.6619 22.8553 60.3568 21.4655 59.9121 20.2425Z" fill="#91C964"/>
<path d="M52.6017 24.6341C52.1847 23.4389 50.3502 24.0782 50.7394 25.2734C51.1841 26.4686 53.0186 25.8015 52.6017 24.6341Z" fill="#91C964"/>
<path d="M49.711 33.5843C49.1551 31.9443 47.2928 31.0271 45.6529 31.6108C44.0129 32.1945 43.0957 34.029 43.6794 35.6689C44.2353 37.3089 46.0976 38.2261 47.7375 37.6424C49.4053 37.0865 50.2947 35.252 49.711 33.5843Z" fill="#91C964"/>
<path d="M53.8243 43.2294C53.7409 43.2016 53.6853 43.146 53.6019 43.1182C51.684 42.0898 50.0997 45.2863 52.1288 46.1757C52.2122 46.2035 52.2677 46.2313 52.3511 46.2591C54.3524 47.1486 55.7422 44.2579 53.8243 43.2294Z" fill="#91C964"/>
<path d="M44.8467 26.6632C44.7634 26.6354 44.7078 26.5799 44.6244 26.5521C42.7065 25.5236 41.1222 28.7201 43.1512 29.6096C43.2346 29.6374 43.2902 29.6652 43.3736 29.693C45.3749 30.5546 46.7646 27.6917 44.8467 26.6632Z" fill="#91C964"/>
<path d="M67.1107 46.7871C65.8599 43.1737 60.2451 45.1194 61.4959 48.7328C62.7467 52.374 68.3615 50.4284 67.1107 46.7871Z" fill="#91C964"/>
<path d="M74.6437 42.0064C73.782 39.477 69.8629 40.839 70.7245 43.3684C71.614 45.8977 75.5331 44.5358 74.6437 42.0064Z" fill="#91C964"/>
<path d="M56.5762 50.4562C56.4928 50.2338 56.3816 50.0114 56.2705 49.8169C55.7701 48.844 54.2692 49.1497 53.8522 50.0114C53.4353 50.8731 54.1302 52.2351 55.1864 52.0127C55.4366 51.9571 55.6589 51.9293 55.8813 51.8459C56.465 51.5958 56.743 51.0121 56.5762 50.4562Z" fill="#91C964"/>
<path d="M71.2803 24.3283C71.1969 24.106 71.0858 23.8836 70.9746 23.689C70.4743 22.7162 68.9733 23.0219 68.5563 23.8836C68.1394 24.7453 68.8343 26.1073 69.8905 25.8849C70.1407 25.8293 70.3631 25.8015 70.5854 25.7181C71.1691 25.4958 71.4749 24.8843 71.2803 24.3283Z" fill="#91C964"/>
<path d="M44.8747 41.4227C44.2354 39.5326 41.3169 40.561 41.9562 42.4233C42.6233 44.3134 45.5418 43.3128 44.8747 41.4227Z" fill="#91C964"/>
<path d="M98.6866 15.9341C96.6019 11.2644 92.7939 8.3459 87.9853 6.87273C82.5373 5.17721 77.6731 7.53982 73.4204 10.7363C73.2536 10.8475 73.198 10.9865 73.1424 11.1532C66.4159 16.1008 63.6364 24.9954 66.0546 33.2507C68.7507 42.4232 83.3712 45.8699 91.2095 41.7561C100.465 36.8919 102.772 25.1066 98.6866 15.9341Z" fill="#226533"/>
<path d="M91.432 39.3102C87.0403 42.2009 81.37 41.3949 76.5892 40.3108C71.2524 39.1156 68.4729 36.5028 66.8885 31.2217C64.109 21.9102 69.8904 13.9051 77.8678 10.0693C83.955 8.01241 90.8761 10.0971 95.2678 14.8779C101.8 21.9658 98.9368 34.3626 91.432 39.3102Z" fill="#68B345"/>
<path d="M74.4759 18.7415C73.0861 18.7415 73.0861 20.8817 74.4759 20.8817C75.8657 20.8817 75.8379 18.7415 74.4759 18.7415Z" fill="#91C964"/>
<path d="M82.5931 13.4047C81.5369 13.4047 80.6475 14.2941 80.6475 15.3504C80.6475 16.4066 81.5369 17.296 82.5931 17.296C83.6494 17.296 84.5388 16.4066 84.5388 15.3504C84.511 14.2941 83.6494 13.4047 82.5931 13.4047Z" fill="#91C964"/>
<path d="M81.2026 22.8831C80.1741 22.8831 79.3125 23.7447 79.3125 24.7732C79.3125 25.8016 80.1741 26.6632 81.2026 26.6632C82.231 26.6632 83.0927 25.8016 83.0927 24.7732C83.1205 23.7447 82.2588 22.8831 81.2026 22.8831Z" fill="#91C964"/>
<path d="M70.6411 21.243C69.6126 21.243 68.751 22.1047 68.751 23.1332C68.751 24.1616 69.6126 25.0232 70.6411 25.0232C71.6695 25.0232 72.5312 24.1616 72.5312 23.1332C72.5312 22.1047 71.6695 21.243 70.6411 21.243Z" fill="#91C964"/>
<path d="M72.0308 27.8306C71.0301 27.8306 71.0301 29.3871 72.0308 29.3871C73.0314 29.3871 73.0314 27.8306 72.0308 27.8306Z" fill="#91C964"/>
<path d="M77.9786 32.3057C76.6166 32.3057 75.4492 33.4453 75.4492 34.8351C75.4492 36.197 76.5888 37.3644 77.9786 37.3644C79.3684 37.3644 80.508 36.2248 80.508 34.8351C80.508 33.4453 79.3684 32.3057 77.9786 32.3057Z" fill="#91C964"/>
<path d="M86.2344 31.722C86.1788 31.7776 86.151 31.8054 86.0954 31.861C84.8168 33.0284 86.8181 35.0297 87.9855 33.7511C88.0411 33.6955 88.0689 33.6677 88.1245 33.6121C89.2919 32.3335 87.513 30.5546 86.2344 31.722Z" fill="#91C964"/>
<path d="M71.5576 34.1402C71.502 34.1958 71.4742 34.2236 71.4187 34.2792C70.1401 35.4466 72.1413 37.4479 73.3087 36.1693C73.3643 36.1137 73.3921 36.0859 73.4477 36.0303C74.5873 34.7795 72.8084 32.9728 71.5576 34.1402Z" fill="#91C964"/>
<path d="M92.3211 22.744C89.2914 22.744 89.2914 27.4415 92.3211 27.4415C95.3508 27.4137 95.3508 22.744 92.3211 22.744Z" fill="#91C964"/>
<path d="M90.7093 15.8785C88.5969 15.8785 88.5969 19.1584 90.7093 19.1584C92.794 19.1306 92.794 15.8785 90.7093 15.8785Z" fill="#91C964"/>
<path d="M92.3211 31.5273C92.1265 31.5273 91.9598 31.5551 91.7652 31.5829C90.9035 31.6941 90.7368 32.8893 91.2649 33.4175C91.793 33.9456 92.9882 33.7788 93.0994 32.9171C93.1272 32.7226 93.155 32.5558 93.155 32.3612C93.155 31.9165 92.7936 31.5551 92.3211 31.5273Z" fill="#91C964"/>
<path d="M76.6444 13.8217C76.4498 13.8217 76.283 13.8494 76.0884 13.8772C75.2268 13.9884 75.06 15.1836 75.5881 15.7117C76.1163 16.2399 77.3115 16.0731 77.4226 15.2114C77.4504 15.0169 77.4782 14.8501 77.4782 14.6555C77.4782 14.2108 77.0891 13.8217 76.6444 13.8217Z" fill="#91C964"/>
<path d="M82.5932 37.9204C81.0366 37.9204 81.0366 40.3664 82.5932 40.3664C84.1497 40.3664 84.1497 37.9204 82.5932 37.9204Z" fill="#91C964"/>
</svg>
