<svg width="200" height="200" viewBox="0 0 200 200" fill="none" xmlns="http://www.w3.org/2000/svg">
<path d="M121.518 140.039C143.668 128.452 152.148 100.945 140.459 78.6051C128.769 56.257 101.341 47.5396 79.1915 59.1258C57.0415 70.7119 48.5619 98.2191 60.2511 120.559C71.9402 142.899 99.3682 151.625 121.518 140.039Z" fill="url(#paint0_radial_21_3355)"/>
<path d="M120.221 114.544C125.134 108.125 125.031 102.879 124.294 95.3346C124.104 93.3454 123.954 91.3484 123.581 89.383C123.256 87.6633 123.28 86.0625 121.473 85.3651C118.731 84.3032 117.091 84.4775 117.701 82.0208C118.026 80.7132 114.293 78.6528 113.413 77.6146C109.578 73.0657 105.465 71.1717 99.7034 75.0707C96.9297 76.9489 98.6098 72.7012 95.2814 70.9577C91.8895 69.1746 87.4675 68.3187 83.5367 69.4124C77.5297 71.0845 73.6544 74.1514 74.4628 80.2298C74.756 82.4567 72.751 83.7722 70.7539 83.2254C66.744 82.1238 62.4091 90.7144 61.6403 95.8893C61.26 98.4728 61.5215 101.08 62.1079 103.521C63.0589 107.507 65.4998 111.446 68.004 113.887C69.1214 114.972 68.1546 115.931 68.0991 117.12C67.7029 125.647 81.1038 128.674 90.2649 129.641C102.128 130.901 117.091 127.311 119.674 116.486C119.833 115.884 119.722 115.202 120.221 114.544Z" fill="#64A019"/>
<mask id="mask0_21_3355" style="mask-type:luminance" maskUnits="userSpaceOnUse" x="61" y="68" width="64" height="62">
<path d="M120.221 114.544C125.134 108.125 125.031 102.879 124.294 95.3346C124.104 93.3454 123.954 91.3484 123.581 89.383C123.256 87.6633 123.28 86.0625 121.473 85.3651C118.731 84.3032 117.091 84.4775 117.701 82.0208C118.026 80.7132 114.293 78.6528 113.413 77.6146C109.578 73.0657 105.465 71.1717 99.7034 75.0707C96.9297 76.9489 98.6098 72.7012 95.2814 70.9577C91.8895 69.1746 87.4675 68.3187 83.5367 69.4124C77.5297 71.0845 73.6544 74.1514 74.4628 80.2298C74.756 82.4567 72.751 83.7722 70.7539 83.2254C66.744 82.1238 62.4091 90.7144 61.6403 95.8893C61.26 98.4728 61.5215 101.08 62.1079 103.521C63.0589 107.507 65.4998 111.446 68.004 113.887C69.1214 114.972 68.1546 115.931 68.0991 117.12C67.7029 125.647 81.1038 128.674 90.2649 129.641C102.128 130.901 117.091 127.311 119.674 116.486C119.833 115.884 119.722 115.202 120.221 114.544Z" fill="white"/>
</mask>
<g mask="url(#mask0_21_3355)">
<path opacity="0.92" d="M94.8718 100.081C109.691 92.3305 118.551 80.039 114.676 72.6293C110.801 65.2116 95.6405 65.489 80.8289 73.2395C66.0174 80.99 57.1495 93.2815 61.0247 100.691C64.9 108.101 80.0523 107.832 94.8718 100.081Z" fill="url(#paint1_radial_21_3355)"/>
</g>
<path d="M67.1081 111.509C66.6405 119.584 69.6678 123.872 74.5019 129.704C75.7778 131.242 77.0221 132.819 78.4248 134.237C79.6531 135.482 80.5328 136.821 82.4189 136.385C85.2877 135.727 86.5477 134.665 87.4195 137.043C87.887 138.311 92.1268 137.922 93.4424 138.295C99.172 139.912 103.634 139.175 106.217 132.716C107.461 129.601 108.452 134.063 112.185 133.643C115.989 133.215 120.141 131.448 122.772 128.341C126.806 123.586 128.304 118.871 124.223 114.291C122.733 112.61 123.652 110.399 125.617 109.734C129.556 108.394 128.328 98.8529 126.069 94.1376C124.936 91.7839 123.256 89.771 121.401 88.0751C118.382 85.3093 114.15 83.4153 110.711 82.7972C109.181 82.5198 109.435 81.1884 108.817 80.174C104.363 72.8831 91.5721 77.8996 83.4412 82.2266C72.9091 87.8374 62.5354 99.1937 66.4582 109.607C66.6801 110.185 67.1477 110.693 67.1081 111.509Z" fill="#639B13"/>
<mask id="mask1_21_3355" style="mask-type:luminance" maskUnits="userSpaceOnUse" x="65" y="76" width="64" height="63">
<path d="M67.4793 111.311C67.0118 119.386 70.0311 123.674 74.8732 129.506C76.1491 131.044 77.3933 132.621 78.796 134.039C80.0323 135.283 80.904 136.623 82.7902 136.187C85.659 135.529 86.919 134.467 87.7908 136.845C88.2583 138.113 92.4981 137.724 93.8137 138.089C99.5433 139.706 104.005 138.969 106.589 132.51C107.833 129.395 108.823 133.857 112.556 133.437C116.36 133.009 120.512 131.242 123.151 128.135C127.185 123.38 128.675 118.665 124.602 114.084C123.112 112.404 124.031 110.193 125.996 109.528C129.935 108.188 128.707 98.6468 126.448 93.9316C125.315 91.5779 123.635 89.565 121.78 87.869C118.761 85.1033 114.529 83.2092 111.09 82.5911C109.56 82.3137 109.814 80.9823 109.196 79.968C104.742 72.6771 91.9513 77.6935 83.8204 82.0205C73.2883 87.6313 62.9146 98.9876 66.8374 109.401C67.0593 109.987 67.5269 110.495 67.4793 111.311Z" fill="white"/>
</mask>
<g mask="url(#mask1_21_3355)">
<path opacity="0.92" d="M118.275 125.417C129.053 111.437 130.384 94.3909 121.247 87.3616C112.118 80.3243 95.9826 85.9589 85.2047 99.9384C74.4349 113.918 73.0956 130.956 82.2329 137.994C91.3624 145.031 107.497 139.396 118.275 125.417Z" fill="url(#paint2_radial_21_3355)"/>
</g>
<path d="M114.506 97.8385C114.435 97.6959 114.34 97.5612 114.268 97.4264C114.102 97.1094 113.896 96.8083 113.61 96.6023C113.389 96.4438 113.127 96.3487 112.937 96.1664C111.598 94.8588 112.057 93.987 111.542 92.941C111.384 92.6081 110.892 92.6002 110.544 92.4576C109.703 92.1009 110.401 90.2386 109.577 89.882C109.379 89.7948 109.703 89.3748 109.188 88.9389C108.356 88.2336 107.12 88.6774 105.939 88.4793C105.915 88.4793 105.892 88.4555 105.892 88.4714C105.868 88.6298 106.082 88.5031 105.487 88.4159C104.83 88.3129 104.045 88.614 103.316 88.4951C101.438 88.1781 100.796 87.0369 99.4883 85.9037C97.4358 84.1206 91.405 80.9031 88.8135 84.5802C88.2826 85.3331 87.181 85.9592 86.238 85.5471C81.9586 83.6847 77.7346 87.8691 74.3982 90.302C73.5978 90.8884 72.9084 91.7681 72.7023 92.7349C72.5755 93.3134 73.0986 93.7969 73.5503 94.312C74.0733 94.9143 73.4869 95.7067 73.4869 96.4834C73.4869 97.2521 74.002 97.9495 73.7563 99.0669C73.3997 100.644 71.7355 101.31 71.2996 103.148C71.046 104.234 71.6879 105.494 71.4423 106.564C71.2283 107.507 70.8162 108.014 70.2298 108.783C70.0316 109.036 69.7384 109.195 69.675 109.441C69.366 110.526 69.9286 111.786 70.6022 112.721C71.8623 114.473 74.3031 115.384 74.8658 117.564C75.0084 118.118 74.4458 119.061 74.6518 119.838C74.9213 120.844 75.896 121.589 76.8074 122.057C79.2086 123.293 80.0249 122.311 81.8397 124.347C82.7114 125.322 83.1394 122.913 83.4009 122.493C84.5975 120.567 85.9685 119.695 88.235 119.648C89.4951 119.624 90.3827 120.829 90.3906 121.986C90.4065 123.84 88.4332 125.893 89.5268 127.327C89.8676 127.771 90.4778 127.818 90.977 128.064C94.7255 129.863 99.3932 127.509 103.332 125.409C103.744 125.187 104.132 124.942 104.521 124.696C106.795 123.254 109.672 120.924 108.863 119.37C108.079 117.865 109.22 116.137 110.94 116.066C111.098 116.058 111.352 116.153 111.415 116.01C112.057 114.394 110.837 112.729 112.556 112.27C112.913 112.175 113.896 112.484 114.538 111.929C118.112 108.838 116.622 102.269 114.506 97.8385Z" fill="#76AE10"/>
<path d="M80.3439 92.0214C79.9794 92.592 79.2423 93.226 79.2423 93.7649C79.2423 94.0819 79.4801 94.6208 79.5118 94.8347C79.3137 94.8823 78.6638 94.9457 78.4895 95.0804C77.9427 95.5084 77.6891 96.3801 77.3404 96.9665C77.166 97.2598 77.2136 97.2597 77.5623 97.2835C78.2359 97.3231 79.2186 97.3152 79.7575 97.022C80.3281 96.7129 80.5341 95.9838 80.3518 95.4687C80.8749 95.2627 81.4296 94.9298 81.4613 94.2483C81.493 93.5985 81.1126 92.6475 80.8035 91.9976C80.6609 91.6648 80.5262 91.7361 80.3439 92.0214Z" fill="#0D8234"/>
<path d="M78.6417 111.731C78.7606 111.129 79.1806 110.336 78.9984 109.876C78.8953 109.607 78.5149 109.227 78.4119 109.052C78.5625 108.941 79.1014 108.68 79.2044 108.497C79.5293 107.951 79.458 107.119 79.561 106.508C79.6165 106.199 79.5689 106.215 79.2757 106.318C78.6893 106.508 77.8572 106.841 77.4847 107.269C77.0964 107.721 77.1677 108.41 77.4926 108.791C77.1202 109.139 76.7556 109.607 76.9458 110.201C77.1281 110.764 77.7779 111.453 78.2455 111.905C78.4912 112.143 78.5783 112.04 78.6417 111.731Z" fill="#0D8234"/>
<path d="M77.2389 110.304C77.3499 109.655 77.7857 108.799 77.5797 108.315C77.4608 108.03 77.0408 107.626 76.9299 107.451C77.0884 107.333 77.6589 107.031 77.762 106.841C78.1027 106.247 78.0076 105.359 78.1027 104.702C78.1503 104.369 78.1027 104.385 77.7857 104.495C77.1597 104.717 76.2721 105.09 75.8917 105.557C75.4875 106.049 75.5747 106.794 75.9313 107.19C75.5351 107.57 75.1547 108.085 75.3845 108.711C75.5985 109.314 76.3038 110.035 76.8189 110.502C77.0884 110.748 77.1834 110.637 77.2389 110.304Z" fill="#0D8234"/>
<path d="M71.8527 102.594C72.3678 103.077 72.875 103.957 73.4297 104.06C73.7547 104.123 74.349 103.98 74.5788 103.988C74.5947 104.202 74.5313 104.876 74.6343 105.09C74.9672 105.74 75.8151 106.168 76.3461 106.635C76.6155 106.873 76.6235 106.817 76.7106 106.469C76.8771 105.779 77.0593 104.781 76.8691 104.163C76.6631 103.513 75.9498 103.164 75.3872 103.251C75.2762 102.681 75.0385 102.039 74.349 101.872C73.6913 101.714 72.6372 101.92 71.9161 102.11C71.5436 102.197 71.5912 102.348 71.8527 102.594Z" fill="#0D8234"/>
<path d="M74.6254 94.6372C75.1405 95.1444 75.6477 96.0637 76.2104 96.1826C76.5432 96.2539 77.1614 96.1271 77.3912 96.135C77.3991 96.3569 77.3199 97.0464 77.4229 97.2683C77.7478 97.9419 78.6116 98.4015 79.1426 98.9008C79.412 99.1544 79.42 99.0989 79.523 98.7423C79.7132 98.0449 79.9271 97.0147 79.7449 96.3728C79.5547 95.6991 78.8256 95.3267 78.2471 95.398C78.152 94.8036 77.9222 94.1459 77.2168 93.9557C76.5432 93.7734 75.4575 93.9636 74.7126 94.1379C74.3243 94.2251 74.3639 94.3757 74.6254 94.6372Z" fill="#0D8234"/>
<path d="M80.4161 93.5909C79.8376 93.892 78.9104 94.0664 78.6568 94.5102C78.5062 94.7717 78.4428 95.3343 78.3715 95.5325C78.1813 95.477 77.6107 95.2155 77.3967 95.2472C76.731 95.3343 76.097 95.9446 75.5264 96.2616C75.2411 96.4201 75.2808 96.4438 75.5581 96.6261C76.105 96.9827 76.9212 97.4503 77.5156 97.4741C78.1416 97.4978 78.6647 96.9827 78.7677 96.4676C79.2987 96.5468 79.9327 96.5389 80.2893 95.9842C80.63 95.4611 80.7727 94.4785 80.8361 93.789C80.8519 93.4403 80.7093 93.4324 80.4161 93.5909Z" fill="#0D8234"/>
<path d="M82.8436 91.0391C82.3681 91.4353 81.536 91.784 81.3854 92.2516C81.2983 92.5289 81.3458 93.0678 81.322 93.266C81.1318 93.2501 80.5454 93.1233 80.3552 93.1946C79.7529 93.4165 79.2774 94.106 78.8099 94.5181C78.5721 94.7241 78.6197 94.74 78.9129 94.8509C79.4914 95.0728 80.3552 95.3423 80.9179 95.2472C81.5043 95.1442 81.8926 94.5577 81.8847 94.0505C82.3998 94.0188 82.9862 93.8841 83.2081 93.2977C83.4221 92.7429 83.3587 91.7919 83.2716 91.1421C83.224 90.8172 83.0893 90.841 82.8436 91.0391Z" fill="#0D8234"/>
<path d="M80.7014 93.234C81.0026 92.5842 81.6999 91.8155 81.6207 91.2449C81.5811 90.912 81.2562 90.3731 81.1848 90.1592C81.3909 90.0799 82.0645 89.9293 82.2309 89.755C82.754 89.2319 82.9045 88.273 83.1898 87.6153C83.3325 87.2824 83.277 87.2904 82.9204 87.3141C82.1992 87.3696 81.169 87.5043 80.638 87.8847C80.0753 88.2889 79.9565 89.0893 80.2259 89.6044C79.7029 89.8897 79.164 90.3177 79.2195 91.0388C79.2749 91.7283 79.8059 92.6872 80.2101 93.3212C80.4161 93.654 80.5508 93.5669 80.7014 93.234Z" fill="#0D8234"/>
<path d="M88.0963 92.0459C87.4068 91.8082 86.5509 91.19 85.9803 91.3247C85.6475 91.404 85.1403 91.7923 84.9263 91.8795C84.8233 91.6814 84.5935 91.0157 84.4033 90.8651C83.8168 90.3896 82.8262 90.3421 82.1288 90.1202C81.7722 90.0092 81.7881 90.0647 81.8515 90.4292C81.9783 91.1504 82.2398 92.1806 82.6757 92.6799C83.1432 93.2109 83.9674 93.2426 84.4667 92.9176C84.8154 93.4169 85.3067 93.9162 86.0358 93.7815C86.7253 93.6547 87.6366 93.0127 88.2389 92.5293C88.548 92.2916 88.445 92.1648 88.0963 92.0459Z" fill="#0D8234"/>
<path d="M85.649 84.4778C85.7124 85.2227 85.4905 86.2688 85.855 86.7443C86.069 87.0216 86.6316 87.3307 86.8139 87.4971C86.6713 87.6715 86.1482 88.1628 86.0848 88.4005C85.8867 89.1455 86.2512 90.0806 86.3384 90.8256C86.378 91.198 86.4256 91.1663 86.7347 90.9524C87.3528 90.5323 88.2008 89.8667 88.4861 89.2485C88.7872 88.5987 88.4702 87.8141 87.963 87.4892C88.28 86.9662 88.5415 86.2925 88.1136 85.6744C87.7094 85.088 86.7267 84.5095 86.0294 84.1449C85.6807 83.9547 85.6173 84.1053 85.649 84.4778Z" fill="#0D8234"/>
<path d="M95.9756 90.8489C95.3178 90.9202 94.3827 90.7379 93.9706 91.0628C93.7249 91.253 93.4634 91.7602 93.3207 91.9187C93.1622 91.7999 92.7184 91.3402 92.5124 91.2847C91.8546 91.1262 91.0304 91.4591 90.3727 91.5463C90.0398 91.5938 90.0715 91.6255 90.2617 91.9029C90.6421 92.4418 91.2444 93.1867 91.7912 93.4245C92.3697 93.6781 93.0592 93.3928 93.3445 92.941C93.8121 93.2184 94.4144 93.4403 94.9532 93.052C95.4684 92.6874 95.9676 91.8078 96.2767 91.1897C96.4352 90.8727 96.3084 90.8172 95.9756 90.8489Z" fill="#0D8234"/>
<path d="M98.8935 85.6582C98.315 85.8722 97.4274 85.9197 97.1262 86.3081C96.9519 86.5379 96.8251 87.053 96.73 87.2274C96.5636 87.156 96.0564 86.839 95.8503 86.839C95.2164 86.839 94.5427 87.3304 93.9722 87.5602C93.6789 87.6791 93.7186 87.7028 93.9563 87.9089C94.4239 88.313 95.1371 88.8519 95.6918 88.947C96.2783 89.0421 96.833 88.63 96.9836 88.1546C97.4749 88.2972 98.0614 88.3606 98.4655 87.893C98.8459 87.4413 99.1075 86.5379 99.2422 85.9039C99.3214 85.571 99.1867 85.5473 98.8935 85.6582Z" fill="#0D8234"/>
<path d="M99.1697 92.0378C99.1539 91.3721 99.4075 90.437 99.1063 89.9932C98.932 89.7317 98.4406 89.4226 98.2901 89.2641C98.4248 89.1136 98.924 88.7015 98.9954 88.4954C99.2093 87.8377 98.9399 86.9818 98.9003 86.3081C98.8844 85.9674 98.8369 85.9991 98.5436 86.1734C97.9651 86.5142 97.1647 87.0689 96.8794 87.6078C96.5783 88.1784 96.816 88.8917 97.2519 89.2166C96.9349 89.6762 96.6655 90.2627 97.0141 90.8332C97.347 91.3801 98.195 91.9586 98.7972 92.3231C99.1063 92.5054 99.1776 92.3786 99.1697 92.0378Z" fill="#0D8234"/>
<path d="M104.188 98.7424C103.942 98.1084 103.871 97.1258 103.435 96.8008C103.182 96.6106 102.603 96.4759 102.405 96.3808C102.484 96.1906 102.825 95.628 102.817 95.3981C102.801 94.6928 102.247 93.9637 101.985 93.3297C101.85 93.0128 101.819 93.0524 101.597 93.3218C101.161 93.8449 100.574 94.6453 100.487 95.2634C100.392 95.9133 100.86 96.5235 101.391 96.682C101.24 97.2288 101.177 97.8786 101.716 98.3224C102.223 98.7345 103.229 99.004 103.935 99.1466C104.283 99.2179 104.315 99.0674 104.188 98.7424Z" fill="#0D8234"/>
<path d="M111.88 94.6132C111.334 94.9936 110.43 95.2868 110.224 95.7702C110.105 96.0555 110.113 96.6341 110.066 96.8401C109.868 96.8084 109.257 96.6182 109.043 96.6737C108.386 96.848 107.823 97.5454 107.292 97.9417C107.023 98.1398 107.07 98.1635 107.371 98.3062C107.966 98.5915 108.853 98.956 109.455 98.9006C110.089 98.8451 110.549 98.2587 110.581 97.7198C111.128 97.7356 111.762 97.6405 112.047 97.0382C112.324 96.4676 112.34 95.4532 112.308 94.7559C112.3 94.4151 112.158 94.423 111.88 94.6132Z" fill="#0D8234"/>
<path d="M113.091 101.262C112.679 100.755 112.314 99.8756 111.823 99.7092C111.529 99.6141 110.959 99.6617 110.753 99.63C110.769 99.4318 110.911 98.8137 110.84 98.6076C110.618 97.9657 109.889 97.4665 109.461 96.9672C109.239 96.7136 109.231 96.7612 109.104 97.0702C108.859 97.6804 108.566 98.5839 108.669 99.1782C108.772 99.8043 109.39 100.216 109.921 100.208C109.944 100.755 110.087 101.365 110.705 101.611C111.292 101.841 112.298 101.786 112.98 101.706C113.32 101.667 113.305 101.524 113.091 101.262Z" fill="#0D8234"/>
<path d="M107.835 102.452C108.081 103.078 108.168 104.037 108.604 104.353C108.857 104.536 109.428 104.663 109.618 104.758C109.547 104.948 109.214 105.503 109.222 105.725C109.246 106.414 109.8 107.127 110.07 107.745C110.205 108.054 110.236 108.015 110.45 107.753C110.87 107.23 111.433 106.438 111.52 105.828C111.607 105.186 111.132 104.599 110.617 104.441C110.751 103.902 110.807 103.26 110.284 102.832C109.785 102.428 108.786 102.182 108.089 102.047C107.732 101.992 107.708 102.135 107.835 102.452Z" fill="#0D8234"/>
<path d="M108.875 110.741C108.256 110.867 107.361 110.796 106.996 111.145C106.782 111.351 106.584 111.858 106.465 112.024C106.307 111.921 105.839 111.533 105.633 111.501C104.991 111.414 104.246 111.81 103.628 111.961C103.319 112.032 103.351 112.072 103.565 112.31C103.977 112.785 104.619 113.427 105.166 113.601C105.744 113.784 106.362 113.443 106.584 112.983C107.06 113.197 107.646 113.348 108.122 112.928C108.573 112.532 108.962 111.652 109.192 111.034C109.318 110.717 109.192 110.677 108.875 110.741Z" fill="#0D8234"/>
<path d="M101.44 117.785C101.971 118.411 102.43 119.497 103.056 119.695C103.421 119.806 104.134 119.735 104.396 119.766C104.38 120.012 104.213 120.789 104.308 121.042C104.602 121.835 105.521 122.453 106.068 123.063C106.345 123.372 106.361 123.317 106.511 122.928C106.805 122.16 107.153 121.026 107.011 120.289C106.868 119.513 106.091 119.006 105.426 119.029C105.378 118.356 105.196 117.587 104.419 117.294C103.682 117.016 102.438 117.112 101.574 117.23C101.138 117.286 101.17 117.46 101.44 117.785Z" fill="#0D8234"/>
<path d="M96.868 117.041C96.551 118.047 95.703 119.3 95.917 120.108C96.0438 120.583 96.6223 121.297 96.7571 121.606C96.4797 121.764 95.5287 122.121 95.3147 122.398C94.657 123.262 94.6332 124.681 94.3479 125.695C94.2052 126.21 94.2766 126.186 94.7996 126.075C95.8299 125.853 97.3039 125.449 98.0013 124.791C98.7462 124.102 98.7541 122.913 98.2707 122.208C98.9681 121.693 99.6734 120.956 99.4515 119.918C99.2375 118.935 98.2707 117.643 97.5575 116.795C97.2008 116.375 97.0265 116.534 96.868 117.041Z" fill="#0D8234"/>
<path d="M92.4909 116.573C91.8411 116.922 90.795 117.136 90.5097 117.651C90.3433 117.952 90.2799 118.594 90.2006 118.816C89.9866 118.761 89.3368 118.467 89.0911 118.507C88.3383 118.618 87.625 119.315 86.9831 119.688C86.6582 119.878 86.7057 119.902 87.0227 120.1C87.6488 120.496 88.5839 121.011 89.2575 121.027C89.9708 121.043 90.5572 120.449 90.6602 119.862C91.2625 119.949 91.9758 119.925 92.372 119.291C92.7524 118.689 92.8951 117.572 92.9505 116.795C92.9822 116.399 92.8237 116.391 92.4909 116.573Z" fill="#0D8234"/>
<path d="M82.2465 114.901C82.3891 115.582 82.302 116.581 82.6903 116.977C82.9201 117.207 83.4748 117.437 83.6571 117.564C83.5462 117.746 83.1182 118.253 83.0786 118.483C82.9835 119.196 83.4194 120.02 83.5858 120.694C83.665 121.035 83.7047 120.995 83.9741 120.765C84.4971 120.306 85.2104 119.6 85.4085 118.998C85.6146 118.364 85.2342 117.675 84.727 117.429C84.9647 116.906 85.1311 116.256 84.6715 115.733C84.2277 115.234 83.2609 114.806 82.5793 114.544C82.2227 114.417 82.1752 114.56 82.2465 114.901Z" fill="#0D8234"/>
<path d="M83.8932 111.636C84.1389 112.207 84.234 113.094 84.6461 113.372C84.8838 113.538 85.4148 113.633 85.5971 113.72C85.5337 113.895 85.2404 114.418 85.2563 114.624C85.2959 115.258 85.8269 115.908 86.0884 116.47C86.2231 116.756 86.2469 116.716 86.4371 116.47C86.8175 115.979 87.3168 115.234 87.3802 114.671C87.4436 114.077 86.9918 113.546 86.5084 113.419C86.6194 112.92 86.659 112.326 86.1597 111.945C85.6842 111.589 84.765 111.383 84.123 111.28C83.7823 111.208 83.7664 111.343 83.8932 111.636Z" fill="#0D8234"/>
<path d="M76.158 113.459C76.2452 114.109 76.0946 115.036 76.4275 115.432C76.6256 115.67 77.1328 115.916 77.2913 116.05C77.1803 116.209 76.7365 116.66 76.689 116.874C76.5463 117.532 76.903 118.341 77.006 118.982C77.0615 119.307 77.0932 119.276 77.3626 119.078C77.8856 118.681 78.6068 118.071 78.8287 117.516C79.0665 116.93 78.7574 116.264 78.2977 115.995C78.5593 115.519 78.7574 114.925 78.3611 114.402C77.9807 113.903 77.1011 113.435 76.475 113.142C76.166 112.999 76.1105 113.134 76.158 113.459Z" fill="#0D8234"/>
<path d="M117.193 114.758C117.391 113.76 118.081 112.46 117.788 111.699C117.613 111.256 116.987 110.629 116.821 110.344C117.074 110.17 117.954 109.726 118.129 109.433C118.667 108.529 118.549 107.158 118.723 106.152C118.81 105.645 118.739 105.668 118.247 105.835C117.273 106.152 115.902 106.699 115.299 107.404C114.657 108.149 114.776 109.29 115.315 109.916C114.689 110.487 114.095 111.263 114.42 112.246C114.729 113.173 115.791 114.315 116.567 115.052C116.94 115.424 117.09 115.265 117.193 114.758Z" fill="#0D8234"/>
<path d="M118.563 118.491C118.753 117.413 119.467 116.002 119.134 115.202C118.936 114.726 118.254 114.069 118.064 113.767C118.325 113.569 119.261 113.078 119.443 112.761C120.005 111.778 119.839 110.312 120.005 109.226C120.085 108.68 120.013 108.711 119.482 108.894C118.444 109.258 116.986 109.876 116.352 110.645C115.678 111.461 115.829 112.682 116.423 113.339C115.766 113.965 115.148 114.813 115.512 115.852C115.861 116.842 117.034 118.039 117.882 118.816C118.31 119.22 118.468 119.037 118.563 118.491Z" fill="#0D8234"/>
<path d="M113.395 119.101C114.242 119.894 115.083 121.352 115.994 121.518C116.525 121.621 117.515 121.392 117.888 121.4C117.912 121.748 117.809 122.866 117.983 123.214C118.53 124.284 119.933 124.989 120.804 125.766C121.248 126.154 121.264 126.067 121.399 125.497C121.676 124.363 121.977 122.707 121.66 121.693C121.327 120.623 120.147 120.044 119.219 120.187C119.045 119.244 118.649 118.19 117.508 117.921C116.422 117.659 114.678 118 113.49 118.309C112.895 118.459 112.967 118.705 113.395 119.101Z" fill="#0D8234"/>
<path d="M108.332 127.407C109.187 128.247 110.012 129.761 110.947 129.959C111.494 130.078 112.516 129.864 112.896 129.88C112.912 130.236 112.777 131.385 112.952 131.75C113.491 132.859 114.909 133.628 115.789 134.444C116.233 134.856 116.248 134.769 116.415 134.183C116.732 133.026 117.081 131.33 116.779 130.276C116.462 129.166 115.266 128.54 114.307 128.667C114.148 127.692 113.768 126.599 112.603 126.29C111.494 125.996 109.695 126.305 108.466 126.591C107.832 126.733 107.896 126.979 108.332 127.407Z" fill="#0D8234"/>
<path d="M111.763 122.628C110.804 123.127 109.282 123.413 108.854 124.15C108.601 124.585 108.497 125.513 108.379 125.838C108.07 125.75 107.119 125.315 106.77 125.362C105.668 125.513 104.622 126.511 103.679 127.034C103.204 127.304 103.275 127.343 103.727 127.637C104.63 128.231 105.985 129 106.968 129.031C108.006 129.071 108.87 128.223 109.028 127.367C109.908 127.502 110.946 127.486 111.533 126.575C112.095 125.711 112.333 124.086 112.428 122.953C112.484 122.39 112.254 122.374 111.763 122.628Z" fill="#0D8234"/>
<path d="M104.557 128.001C103.764 128.659 102.401 129.23 102.148 130.006C101.997 130.466 102.092 131.353 102.045 131.678C101.736 131.655 100.769 131.441 100.444 131.56C99.4454 131.916 98.6687 133.065 97.8921 133.747C97.5038 134.088 97.5751 134.111 98.0585 134.302C99.0174 134.674 100.436 135.118 101.363 134.951C102.338 134.777 102.972 133.81 102.956 132.978C103.804 132.931 104.771 132.701 105.135 131.734C105.484 130.815 105.381 129.245 105.246 128.176C105.175 127.629 104.953 127.668 104.557 128.001Z" fill="#0D8234"/>
<path d="M97.0878 136.283C97.5949 135.205 98.7361 133.937 98.6093 133.002C98.538 132.455 98.007 131.567 97.8961 131.203C98.2289 131.068 99.3463 130.814 99.6237 130.537C100.488 129.673 100.733 128.088 101.209 127.003C101.446 126.448 101.359 126.464 100.757 126.503C99.5682 126.59 97.8723 126.82 96.9847 127.446C96.0575 128.104 95.8673 129.428 96.2953 130.283C95.4315 130.751 94.536 131.464 94.631 132.661C94.7182 133.794 95.6058 135.371 96.2715 136.433C96.6202 136.972 96.8342 136.829 97.0878 136.283Z" fill="#0D8234"/>
<path d="M99.5252 131.234C98.384 130.838 96.9734 129.815 96.0303 130.045C95.4835 130.172 94.6435 130.814 94.2869 130.965C94.1204 130.64 93.74 129.538 93.431 129.284C92.4562 128.508 90.8316 128.421 89.6746 128.056C89.0881 127.874 89.1119 127.961 89.2229 128.563C89.4368 129.752 89.8569 131.456 90.586 132.28C91.3547 133.152 92.7177 133.199 93.5419 132.668C94.1125 133.493 94.9288 134.317 96.1254 134.095C97.2666 133.881 98.7723 132.819 99.7709 132.026C100.27 131.638 100.104 131.44 99.5252 131.234Z" fill="#0D8234"/>
<path d="M86.3477 128.421C86.4587 129.65 86.0941 131.385 86.6885 132.162C87.0372 132.621 87.9803 133.136 88.2655 133.406C88.0357 133.699 87.164 134.507 87.061 134.904C86.736 136.132 87.3383 137.677 87.481 138.906C87.5523 139.524 87.6236 139.468 88.1388 139.12C89.1531 138.422 90.5638 137.329 91.0313 136.306C91.5227 135.229 90.9996 133.937 90.1675 133.398C90.6906 132.526 91.1264 131.425 90.4211 130.402C89.7475 129.436 88.1388 128.469 86.9817 127.874C86.4111 127.557 86.2923 127.795 86.3477 128.421Z" fill="#0D8234"/>
<path d="M86.8754 122.817C85.7897 122.928 84.2522 122.635 83.5707 123.174C83.1745 123.491 82.7307 124.331 82.4929 124.585C82.2314 124.387 81.5023 123.626 81.1536 123.539C80.06 123.269 78.7048 123.824 77.6191 123.967C77.0723 124.038 77.1199 124.101 77.4448 124.553C78.0708 125.441 79.0615 126.669 79.9728 127.073C80.9317 127.493 82.065 127.018 82.5325 126.273C83.3092 126.724 84.2919 127.097 85.1874 126.455C86.0353 125.853 86.8674 124.41 87.3746 123.38C87.6361 122.857 87.4222 122.762 86.8754 122.817Z" fill="#0D8234"/>
<path d="M74.0817 126.511C74.3195 127.502 74.2244 128.968 74.8029 129.53C75.1436 129.863 75.9758 130.172 76.2373 130.363C76.0867 130.624 75.4686 131.393 75.4289 131.726C75.3101 132.764 75.9837 133.96 76.2452 134.943C76.3799 135.442 76.4275 135.387 76.8079 135.038C77.5607 134.349 78.5751 133.287 78.8366 132.391C79.114 131.448 78.5355 130.458 77.7826 130.117C78.1075 129.34 78.3294 128.389 77.6321 127.636C76.9664 126.923 75.532 126.329 74.5255 125.98C74.0262 125.798 73.9628 126.012 74.0817 126.511Z" fill="#0D8234"/>
<path d="M73.1268 129.222C73.0951 128.112 73.5151 126.575 73.0238 125.846C72.7385 125.418 71.9222 124.902 71.6765 124.641C71.8984 124.395 72.7226 123.714 72.8415 123.365C73.1981 122.279 72.7464 120.861 72.683 119.759C72.6513 119.197 72.58 119.244 72.0965 119.537C71.1456 120.108 69.8221 121.011 69.3546 121.899C68.8553 122.842 69.2515 124.023 69.9727 124.554C69.4496 125.307 69.0059 126.273 69.5844 127.224C70.1312 128.136 71.526 129.079 72.5324 129.681C73.0238 129.998 73.1426 129.784 73.1268 129.222Z" fill="#0D8234"/>
<path d="M73.8306 115.313C73.4265 114.259 73.3076 112.642 72.5864 112.103C72.1664 111.786 71.2075 111.572 70.8826 111.406C71.0094 111.089 71.5721 110.162 71.5641 109.789C71.5404 108.632 70.6211 107.42 70.1852 106.374C69.9633 105.843 69.9158 105.914 69.5512 106.358C68.83 107.222 67.8711 108.545 67.7126 109.56C67.5541 110.629 68.3308 111.636 69.2025 111.905C68.9568 112.801 68.8538 113.887 69.7335 114.608C70.5656 115.297 72.2298 115.733 73.3948 115.971C73.9891 116.09 74.0367 115.852 73.8306 115.313Z" fill="#0D8234"/>
<path d="M67.5366 103.228C66.6411 103.854 65.1433 104.337 64.8025 105.146C64.6044 105.613 64.6202 106.564 64.541 106.913C64.2161 106.865 63.2096 106.548 62.8609 106.643C61.7752 106.937 60.848 108.086 59.9683 108.735C59.5245 109.068 59.5959 109.092 60.0951 109.338C61.0778 109.813 62.5439 110.416 63.5424 110.32C64.5885 110.225 65.3493 109.251 65.4048 108.371C66.3082 108.395 67.3543 108.236 67.8298 107.246C68.2815 106.303 68.3053 104.63 68.2657 103.481C68.226 102.895 67.9883 102.911 67.5366 103.228Z" fill="#0D8234"/>
<path d="M65.2963 102.752C64.6148 101.912 64.0204 100.462 63.1962 100.192C62.7128 100.034 61.7697 100.121 61.429 100.066C61.4527 99.7408 61.6905 98.7185 61.5716 98.3777C61.1991 97.3237 59.9946 96.4916 59.2893 95.6674C58.9326 95.2474 58.9009 95.3266 58.7028 95.8417C58.3066 96.8561 57.8152 98.346 57.9817 99.3287C58.156 100.359 59.1704 101.04 60.05 101.025C60.0976 101.92 60.3274 102.942 61.3418 103.339C62.3086 103.719 63.9649 103.624 65.0982 103.489C65.6767 103.41 65.6371 103.18 65.2963 102.752Z" fill="#0D8234"/>
<path d="M65.1841 87.9647C65.5962 88.9949 65.7309 90.5878 66.4441 91.1029C66.8642 91.4041 67.8072 91.6101 68.1242 91.7686C67.9974 92.0777 67.4585 93.0049 67.4744 93.3695C67.514 94.5106 68.4333 95.6914 68.8692 96.7058C69.091 97.2209 69.1386 97.1496 69.4952 96.7137C70.1926 95.8499 71.1198 94.5423 71.2625 93.5438C71.4051 92.4898 70.6285 91.5071 69.7647 91.2614C69.9945 90.3739 70.0817 89.3119 69.2099 88.6145C68.3778 87.9488 66.7374 87.5447 65.5883 87.3228C65.0097 87.2039 64.978 87.4416 65.1841 87.9647Z" fill="#0D8234"/>
<path d="M81.2762 84.1205C80.2619 84.3345 78.772 84.2077 78.1776 84.7862C77.8289 85.127 77.4961 85.967 77.298 86.2365C77.0285 86.07 76.2677 85.4281 75.927 85.3806C74.865 85.2379 73.6287 85.8957 72.6223 86.1413C72.1072 86.2681 72.1626 86.3236 72.5113 86.7199C73.2008 87.5044 74.2548 88.5664 75.1583 88.8517C76.1092 89.1528 77.1395 88.5901 77.504 87.8373C78.2886 88.1939 79.2554 88.4396 80.04 87.7501C80.7849 87.0923 81.4268 85.6421 81.8072 84.6198C82.0053 84.0809 81.7914 84.0096 81.2762 84.1205Z" fill="#0D8234"/>
<path d="M82.4946 72.4234C83.1999 73.2634 83.818 74.7137 84.6501 74.9752C85.1415 75.1258 86.0846 75.0307 86.4332 75.0782C86.4174 75.4111 86.1955 76.4413 86.3223 76.7821C86.7106 77.844 87.939 78.6603 88.6681 79.4765C89.0405 79.8886 89.0643 79.8094 89.2545 79.2942C89.6428 78.2719 90.1104 76.7583 89.9281 75.7756C89.7379 74.7374 88.6997 74.0638 87.8201 74.0955C87.7567 73.1921 87.511 72.1698 86.4808 71.7815C85.4981 71.4169 83.8339 71.5437 82.6848 71.6943C82.0983 71.7656 82.138 72.0034 82.4946 72.4234Z" fill="#0D8234"/>
<path d="M110.01 73.5332C108.813 73.4223 107.22 72.7645 106.364 73.2004C105.865 73.454 105.207 74.2623 104.898 74.4921C104.66 74.2227 104.042 73.24 103.678 73.0736C102.56 72.5505 100.967 72.8517 99.7707 72.7724C99.1604 72.7328 99.208 72.8121 99.4537 73.3668C99.9371 74.4684 100.745 76.0058 101.641 76.6319C102.584 77.2896 103.915 77.0202 104.581 76.3149C105.326 76.9726 106.309 77.5828 107.41 77.0836C108.456 76.616 109.661 75.2371 110.438 74.2386C110.826 73.7472 110.612 73.5887 110.01 73.5332Z" fill="#0D8234"/>
<path d="M112.166 84.1682C111.089 84.7467 109.361 85.0954 108.886 85.9433C108.608 86.4426 108.505 87.4966 108.37 87.8691C108.014 87.774 106.936 87.2985 106.54 87.354C105.296 87.5442 104.123 88.6933 103.061 89.3035C102.522 89.6126 102.609 89.6601 103.132 89.9929C104.162 90.6507 105.716 91.5066 106.825 91.5304C107.998 91.5541 108.973 90.5794 109.139 89.6046C110.138 89.7473 111.318 89.7077 111.976 88.6616C112.602 87.671 112.84 85.8245 112.935 84.5406C112.975 83.8829 112.713 83.875 112.166 84.1682Z" fill="#0D8234"/>
<path d="M114.406 88.7729C114.644 89.8982 114.501 91.5387 115.135 92.1964C115.508 92.5848 116.435 92.9572 116.736 93.1712C116.554 93.4644 115.841 94.3124 115.785 94.6849C115.627 95.8577 116.348 97.2208 116.617 98.3382C116.752 98.9009 116.815 98.8454 117.251 98.4571C118.115 97.7042 119.296 96.5313 119.613 95.5328C119.946 94.4788 119.328 93.3456 118.495 92.9414C118.884 92.0776 119.161 91.0077 118.4 90.1439C117.671 89.3197 116.07 88.6144 114.937 88.1865C114.367 87.9646 114.287 88.2023 114.406 88.7729Z" fill="#0D8234"/>
<path d="M107.96 93.9318C108.364 94.8748 108.531 96.3409 109.196 96.7927C109.593 97.0621 110.464 97.2285 110.765 97.3633C110.662 97.6565 110.179 98.5203 110.203 98.8531C110.266 99.9071 111.146 100.969 111.574 101.904C111.796 102.372 111.835 102.308 112.152 101.896C112.778 101.08 113.602 99.8517 113.706 98.9245C113.816 97.9418 113.072 97.0621 112.271 96.8561C112.461 96.0319 112.517 95.0492 111.693 94.4231C110.908 93.8288 109.386 93.488 108.325 93.3216C107.786 93.2344 107.754 93.4563 107.96 93.9318Z" fill="#0D8234"/>
<path d="M123.156 95.9054C123.299 96.9752 123.053 98.5126 123.608 99.1625C123.932 99.5508 124.773 99.9629 125.042 100.185C124.852 100.446 124.123 101.191 124.043 101.54C123.814 102.626 124.4 103.957 124.574 105.027C124.662 105.566 124.725 105.51 125.161 105.185C126.025 104.536 127.213 103.521 127.578 102.61C127.966 101.643 127.459 100.541 126.706 100.098C127.134 99.313 127.467 98.3304 126.809 97.4666C126.183 96.6424 124.733 95.8657 123.703 95.3902C123.18 95.1525 123.085 95.3665 123.156 95.9054Z" fill="#0D8234"/>
<defs>
<radialGradient id="paint0_radial_21_3355" cx="0" cy="0" r="1" gradientTransform="matrix(21.1655 40.4582 40.1052 -20.9759 100.353 99.5806)" gradientUnits="userSpaceOnUse">
<stop offset="0.0032" stop-color="#003107"/>
<stop offset="0.4356" stop-color="#869489"/>
<stop offset="0.64" stop-color="#CDD2CF"/>
<stop offset="0.6804" stop-color="#D7DBD8"/>
<stop offset="0.794" stop-color="#EDEFEE"/>
<stop offset="0.9027" stop-color="#FAFBFB"/>
<stop offset="1" stop-color="white"/>
</radialGradient>
<radialGradient id="paint1_radial_21_3355" cx="0" cy="0" r="1" gradientTransform="matrix(7.02243 13.4218 26.8282 -14.0317 87.8481 86.6588)" gradientUnits="userSpaceOnUse">
<stop stop-color="#007007"/>
<stop offset="1" stop-color="white"/>
</radialGradient>
<radialGradient id="paint2_radial_21_3355" cx="0" cy="0" r="1" gradientTransform="matrix(16.5352 12.7386 19.5082 -25.3188 101.739 112.675)" gradientUnits="userSpaceOnUse">
<stop stop-color="#007007"/>
<stop offset="1" stop-color="white"/>
</radialGradient>
</defs>
</svg>
