<svg width="200" height="200" viewBox="0 0 200 200" fill="none" xmlns="http://www.w3.org/2000/svg">
<rect width="200" height="200" fill="white"/>
<path d="M74 86H98C98.5667 86 99.05 86.2 99.45 86.6C99.8167 86.9667 100 87.4333 100 88V112C100 112.567 99.8167 113.05 99.45 113.45C99.05 113.817 98.5667 114 98 114H74C73.4333 114 72.9667 113.817 72.6 113.45C72.2 113.05 72 112.567 72 112V88C72 87.4333 72.2 86.9667 72.6 86.6C72.9667 86.2 73.4333 86 74 86ZM74 88V112H98V88H74Z" fill="#875C30"/>
<path d="M78 96V92H82L78 96ZM90 108L94 104V108H90Z" fill="#AF783F"/>
<path d="M90 108L78 96L82 92H78V96V108H90H94V104L90 108ZM94 104V92H82L94 104ZM74 88H98V112H74V88Z" fill="#BB8044"/>
<path d="M78 96L90 108H78V96ZM94 104L82 92H94V104Z" fill="#85592E"/>
<path d="M111 86H135C135.567 86 136.05 86.2 136.45 86.6C136.817 86.9667 137 87.4333 137 88V112C137 112.567 136.817 113.05 136.45 113.45C136.05 113.817 135.567 114 135 114H111C110.433 114 109.967 113.817 109.6 113.45C109.2 113.05 109 112.567 109 112V88C109 87.4333 109.2 86.9667 109.6 86.6C109.967 86.2 110.433 86 111 86ZM123 96L121 94L119 92H127L123 96ZM117 98L119 100L115 104V96L117 98ZM127 100L131 96V104L129 102L127 100ZM125 106L127 108H119L123 104L125 106ZM111 88V112H135V88H111Z" fill="#4D5C5D"/>
<path d="M121 94L123 96L119 100L117 98L121 94ZM115 96V92H119L115 96ZM127 100L129 102L125 106L123 104L127 100ZM127 108L131 104V108H127ZM119 108H115V104L119 108ZM131 96L127 92H131V96Z" fill="#697E80"/>
</svg>
