<svg width="200" height="200" viewBox="0 0 200 200" fill="none" xmlns="http://www.w3.org/2000/svg">
<rect width="200" height="200" fill="white"/>
<path d="M122 104H120V106C120 106.567 119.817 107.05 119.45 107.45C119.05 107.817 118.567 108 118 108H114C113.433 108 112.967 107.817 112.6 107.45C112.2 107.05 112 106.567 112 106V104H88V106C88 106.567 87.8167 107.05 87.45 107.45C87.05 107.817 86.5667 108 86 108H82C81.4333 108 80.9667 107.817 80.6 107.45C80.2 107.05 80 106.567 80 106V104H78C77.4333 104 76.9667 103.817 76.6 103.45C76.2 103.05 76 102.567 76 102V98C76 97.4333 76.2 96.9667 76.6 96.6C76.9667 96.2 77.4333 96 78 96H80V94C80 93.4333 80.2 92.9667 80.6 92.6C80.9667 92.2 81.4333 92 82 92H86C86.5667 92 87.05 92.2 87.45 92.6C87.8167 92.9667 88 93.4333 88 94V96H112V94C112 93.4333 112.2 92.9667 112.6 92.6C112.967 92.2 113.433 92 114 92H118C118.567 92 119.05 92.2 119.45 92.6C119.817 92.9667 120 93.4333 120 94V96H122C122.567 96 123.05 96.2 123.45 96.6C123.817 96.9667 124 97.4333 124 98V102C124 102.567 123.817 103.05 123.45 103.45C123.05 103.817 122.567 104 122 104ZM118 98V94H114V98H106H98H90H86V94H82V98H78V102H82V106H86V102H94H102H110H114V106H118V102H122V98H118Z" fill="#4D5C5D"/>
<path d="M118 98H114V94H118V98ZM118 102V106H114V102H118ZM86 102V106H82V102H86ZM82 98V94H86V98H82Z" fill="#697E80"/>
<path d="M82 98H86H90L86 102H82H78L82 98ZM118 98H122L118 102H114H110L114 98H118ZM102 102H94L98 98H106L102 102Z" fill="#D04435"/>
<path d="M102 102L106 98H114L110 102H102ZM122 98V102H118L122 98ZM94 102H86L90 98H98L94 102ZM78 102V98H82L78 102Z" fill="#89A4A6"/>
</svg>
