<svg width="33" height="191" viewBox="0 0 33 191" fill="none" xmlns="http://www.w3.org/2000/svg">
<path d="M3 119L3 125V131L3 134V137L6 140H27L30 137V134V131V125V119L33 122V137C33 137.85 32.725 138.55 32.175 139.1L29.175 142.1C28.575 142.7 27.85 143 27 143H6C5.15 143 4.45001 142.7 3.90001 142.1L0.900009 139.1C0.300009 138.55 0 137.85 0 137L0 122L3 119L0 116L0 101C0 100.15 0.300009 99.4251 0.900009 98.8251L3.90001 95.8251C4.45001 95.2751 5.15 95.0001 6 95.0001H27C27.85 95.0001 28.575 95.2751 29.175 95.8251L32.175 98.8251C32.725 99.4251 33 100.15 33 101V116L30 119L30 113V107V104V101L27 98.0001H6L3 101L3 104V107L3 113L3 119Z" fill="#875C30"/>
<path d="M30.001 125V131H27.001V122L30.001 125ZM30.001 134V137L27.001 140V134H30.001ZM6.00098 140L3.00098 137L3.00098 134H6.00098V140ZM3.00098 131L3.00098 125L6.00098 122L6.00098 131H3.00098ZM6.00098 116L3.00098 113L3.00098 107H6.00098V116ZM30.001 113L27.001 116L27.001 107H30.001L30.001 113ZM3.00098 104V101L6.00098 98.0001L6.00098 104H3.00098ZM27.001 98.0001L30.001 101V104H27.001V98.0001Z" fill="#AF783F"/>
<path d="M3.00098 125L3.00098 119L3.00098 113L6.00098 116V122L3.00098 125ZM30.001 119V125L27.001 122V116L30.001 113V119ZM30.001 131V134H27.001H6.00098H3.00098V131H6.00098H27.001H30.001ZM3.00098 107V104H6.00098H27.001H30.001L30.001 107H27.001H6.00098H3.00098Z" fill="#CD8D4A"/>
<path d="M27 140H6V134H27V140ZM6 122L6 116V107H27L27 116V122V131H6V122ZM6 98.0001H27V104H6L6 98.0001Z" fill="#BB8044"/>
<path d="M3 23L3 29V35L3 38V41L6 44H27L30 41V38V35V29V23L33 26V41C33 41.85 32.725 42.55 32.175 43.1L29.175 46.1C28.575 46.7 27.85 47 27 47H6C5.15 47 4.45001 46.7 3.90001 46.1L0.900009 43.1C0.300009 42.55 0 41.85 0 41L0 26L3 23L0 20L0 5C0 4.15 0.300009 3.42498 0.900009 2.82498L3.90001 -0.175018C4.45001 -0.725018 5.15 -1 6 -1H27C27.85 -1 28.575 -0.725018 29.175 -0.175018L32.175 2.82498C32.725 3.42498 33 4.15 33 5V20L30 23L30 17V11V8V5L27 2H6L3 5L3 8V11L3 17L3 23Z" fill="#875C30"/>
<path d="M30.001 29.0001V35.0001H27.001V26.0001L30.001 29.0001ZM30.001 38.0001V41.0001L27.001 44.0001V38.0001H30.001ZM6.00098 44.0001L3.00098 41.0001L3.00098 38.0001H6.00098V44.0001ZM3.00098 35.0001L3.00098 29.0001L6.00098 26.0001L6.00098 35.0001H3.00098ZM6.00098 20.0001L3.00098 17.0001L3.00098 11.0001H6.00098V20.0001ZM30.001 17.0001L27.001 20.0001L27.001 11.0001H30.001L30.001 17.0001ZM3.00098 8.00012V5.00012L6.00098 2.00012L6.00098 8.00012H3.00098ZM27.001 2.00012L30.001 5.00012V8.00012H27.001V2.00012Z" fill="#AF783F"/>
<path d="M3.00098 29L3.00098 23L3.00098 17L6.00098 20V26L3.00098 29ZM30.001 23V29L27.001 26V20L30.001 17V23ZM30.001 35V38H27.001H6.00098H3.00098V35H6.00098H27.001H30.001ZM3.00098 11V8H6.00098H27.001H30.001L30.001 11H27.001H6.00098H3.00098Z" fill="#CD8D4A"/>
<path d="M27 44.0001H6V38.0001H27V44.0001ZM6 26.0001L6 20.0001V11.0001H27L27 20.0001V26.0001V35.0001H6V26.0001ZM6 2.00012H27V8.00012H6L6 2.00012Z" fill="#BB8044"/>
<path d="M3 71L3 77V83L3 86V89L6 92H27L30 89V86V83V77V71L33 74V89C33 89.85 32.725 90.55 32.175 91.1L29.175 94.1C28.575 94.7 27.85 95 27 95H6C5.15 95 4.45001 94.7 3.90001 94.1L0.900009 91.1C0.300009 90.55 0 89.85 0 89L0 74L3 71L0 68L0 53C0 52.15 0.300009 51.425 0.900009 50.825L3.90001 47.825C4.45001 47.275 5.15 47 6 47H27C27.85 47 28.575 47.275 29.175 47.825L32.175 50.825C32.725 51.425 33 52.15 33 53V68L30 71L30 65V59V56V53L27 50H6L3 53L3 56V59L3 65L3 71Z" fill="#875C30"/>
<path d="M30.001 77.0001V83.0001H27.001V74.0001L30.001 77.0001ZM30.001 86.0001V89.0001L27.001 92.0001V86.0001H30.001ZM6.00098 92.0001L3.00098 89.0001L3.00098 86.0001H6.00098V92.0001ZM3.00098 83.0001L3.00098 77.0001L6.00098 74.0001L6.00098 83.0001H3.00098ZM6.00098 68.0001L3.00098 65.0001L3.00098 59.0001H6.00098V68.0001ZM30.001 65.0001L27.001 68.0001L27.001 59.0001H30.001L30.001 65.0001ZM3.00098 56.0001V53.0001L6.00098 50.0001L6.00098 56.0001H3.00098ZM27.001 50.0001L30.001 53.0001V56.0001H27.001V50.0001Z" fill="#AF783F"/>
<path d="M3.00098 77L3.00098 71L3.00098 65L6.00098 68V74L3.00098 77ZM30.001 71V77L27.001 74V68L30.001 65V71ZM30.001 83V86H27.001H6.00098H3.00098V83H6.00098H27.001H30.001ZM3.00098 59V56H6.00098H27.001H30.001L30.001 59H27.001H6.00098H3.00098Z" fill="#CD8D4A"/>
<path d="M27 92.0001H6V86.0001H27V92.0001ZM6 74.0001L6 68.0001V59.0001H27L27 68.0001V74.0001V83.0001H6V74.0001ZM6 50.0001H27V56.0001H6L6 50.0001Z" fill="#BB8044"/>
<path d="M3 167L3 173V179L3 182V185L6 188H27L30 185V182V179V173V167L33 170V185C33 185.85 32.725 186.55 32.175 187.1L29.175 190.1C28.575 190.7 27.85 191 27 191H6C5.15 191 4.45001 190.7 3.90001 190.1L0.900009 187.1C0.300009 186.55 0 185.85 0 185L0 170L3 167L0 164L0 149C0 148.15 0.300009 147.425 0.900009 146.825L3.90001 143.825C4.45001 143.275 5.15 143 6 143H27C27.85 143 28.575 143.275 29.175 143.825L32.175 146.825C32.725 147.425 33 148.15 33 149V164L30 167L30 161V155V152V149L27 146H6L3 149L3 152V155L3 161L3 167Z" fill="#875C30"/>
<path d="M30.001 173V179H27.001V170L30.001 173ZM30.001 182V185L27.001 188V182H30.001ZM6.00098 188L3.00098 185L3.00098 182H6.00098V188ZM3.00098 179L3.00098 173L6.00098 170L6.00098 179H3.00098ZM6.00098 164L3.00098 161L3.00098 155H6.00098V164ZM30.001 161L27.001 164L27.001 155H30.001L30.001 161ZM3.00098 152V149L6.00098 146L6.00098 152H3.00098ZM27.001 146L30.001 149V152H27.001V146Z" fill="#AF783F"/>
<path d="M3.00098 173L3.00098 167L3.00098 161L6.00098 164V170L3.00098 173ZM30.001 167V173L27.001 170V164L30.001 161V167ZM30.001 179V182H27.001H6.00098H3.00098V179H6.00098H27.001H30.001ZM3.00098 155V152H6.00098H27.001H30.001L30.001 155H27.001H6.00098H3.00098Z" fill="#CD8D4A"/>
<path d="M27 188H6V182H27V188ZM6 170L6 164V155H27L27 164V170V179H6V170ZM6 146H27V152H6L6 146Z" fill="#BB8044"/>
</svg>
